<?xml version="1.0" encoding="UTF-8"?>
<svg width="120px" height="40px" viewBox="0 0 120 40" version="1.1" xmlns="http://www.w3.org/2000/svg" xmlns:xlink="http://www.w3.org/1999/xlink">
    <!-- Generator: sketchtool 54 (76480) - https://sketchapp.com -->
    <title>36186C75-696D-473B-853E-1EA7FB5C94FB</title>
    <desc>Created with sketchtool.</desc>
    <g id="入款活动" stroke="none" stroke-width="1" fill="none" fill-rule="evenodd">
        <g id="云-详情页" transform="translate(-945.000000, -2704.000000)">
            <g id="编组-2" transform="translate(945.000000, 2703.000000)">
                <rect id="矩形" stroke="#FFFFFF" x="0.5" y="1.5" width="119" height="39"></rect>
                <text id="IOS" font-family="PingFang-SC-Bold, PingFang SC" font-size="30" font-weight="bold" fill="#FFFFFF">
                    <tspan x="50" y="32">IOS</tspan>
                </text>
                <g id="苹果" transform="translate(21.000000, 8.000000)" fill="#FFFFFF" fill-rule="nonzero">
                    <path d="M19.7988699,17.5019912 C18.5741247,16.9083755 17.6503164,16.0243775 17.110726,14.78633 C16.7224362,13.8954387 16.6265853,12.9603476 16.7326338,12.0008357 C16.8311757,11.1094248 17.1502065,10.3047857 17.7050934,9.59128298 C18.1210372,9.05641569 18.6357001,8.62692151 19.2081496,8.26050572 C19.34773,8.17117065 19.3486152,8.16985437 19.2484445,8.03399856 C19.04697,7.76072817 18.821878,7.50796433 18.5711149,7.27629588 C17.5049998,6.29135863 16.2038075,5.86809954 14.7735867,5.76646749 C14.0314595,5.71378093 13.3145433,5.86785707 12.6155083,6.09609622 C12.0267,6.28834499 11.4390956,6.48655175 10.8614765,6.7083826 C10.3692272,6.89740991 9.89946243,6.89353031 9.40214976,6.71832412 C8.81426211,6.51118039 8.23600561,6.27681006 7.63820357,6.09703148 C7.05056378,5.92037042 6.45690457,5.78977982 5.83332512,5.83425683 C5.30138294,5.87215236 4.78218782,5.96360041 4.28204249,6.14379468 C2.4789699,6.79324917 1.28676506,8.04743863 0.575089242,9.763718 C0.145902599,10.7986746 -0.01456882,11.8839276 0.00228564367,13.055225 C-0.0116298927,13.5813285 0.039110488,14.1612963 0.124090938,14.7392204 C0.35056381,16.2790465 0.836120834,17.7403451 1.51125509,19.1451121 C2.0201109,20.2039006 2.69081907,21.1613342 3.42505014,22.0785861 C3.84272903,22.6004289 4.30806779,23.0770673 4.86337959,23.4631238 C5.54548931,23.937268 6.29073239,24.0768303 7.10420772,23.8760602 C7.52691461,23.7717263 7.93559976,23.6296354 8.33805298,23.4678 C8.94665461,23.2231071 9.57349163,23.0483166 10.2337897,23.0119452 C11.0413872,22.9675028 11.8013602,23.1636312 12.5391321,23.4631236 C12.9297589,23.6217029 13.3277153,23.7569006 13.7401537,23.8517087 C14.5743784,24.0434032 15.3503915,23.9195327 16.065679,23.4527318 C16.4789672,23.1830293 16.8352478,22.8506294 17.1535349,22.4806458 C18.3618506,21.0757402 19.3229441,19.5308913 19.9156473,17.7792451 C19.9804802,17.5877238 19.9823215,17.5909106 19.7988699,17.5019912 Z" id="路径"></path>
                    <path d="M10.0714416,5.55551342 C10.7112381,5.58242825 11.3239825,5.47584276 11.9043636,5.20600166 C12.6191199,4.87367105 13.1912508,4.37039494 13.6762767,3.76915852 C14.4506256,2.80933485 14.8986142,1.72965876 14.8987204,0.49216548 C14.8987204,0.411143884 14.9000305,0.330122287 14.8984725,0.249169949 C14.8934445,-0.00982897937 14.8735803,-0.0200822601 14.6077686,0.0141414691 C13.9750538,0.0955787498 13.3903883,0.312767918 12.8304734,0.602492025 C11.5291041,1.27595162 10.6528849,2.3092109 10.1587236,3.65547194 C9.94797211,4.22948177 9.87952744,4.82718494 9.93749118,5.43725442 C9.94609544,5.52807901 9.98862108,5.5520495 10.0714416,5.55551342 Z" id="路径"></path>
                </g>
            </g>
        </g>
    </g>
</svg>
