<svg id="图层_1" data-name="图层 1" xmlns="http://www.w3.org/2000/svg" xmlns:xlink="http://www.w3.org/1999/xlink" viewBox="0 0 1024 1024"><defs><style>.cls-1{fill:url(#未命名的渐变_18);}.cls-2{opacity:0.09;}.cls-3{fill:#040000;}.cls-4{fill:#fff;}.cls-5{opacity:0.07;}</style><linearGradient id="未命名的渐变_18" x1="512" y1="1024" x2="512" gradientUnits="userSpaceOnUse"><stop offset="0.18" stop-color="#90c042"/><stop offset="0.85" stop-color="#15a892"/></linearGradient></defs><title>26</title><rect class="cls-1" width="1024" height="1024" rx="512"/><g class="cls-2"><path class="cls-3" d="M334.14,347.23,351,261.09H497.07l-16.86,86.14H454l2.22-11.37H362.57l-2.22,11.37Zm18.54-124.29h64.75l3.47-17.73H342.28l4.52-23.13h78.63l5-25.44h27.75l-5,25.44h79.4l-4.53,23.13h-79.4l-3.47,17.73h65.91l-4.52,23.12H348.16ZM466.19,285H372.53l-5.28,27h93.66Z" transform="translate(-1.09 -1)"/><path class="cls-3" d="M522.87,272.08q18.55-21,38-54.93H535.35l4.82-24.66h27.75l6.68-34.11H600l-6.68,34.11h20.43L609,217.15H588.54L586,230a353.62,353.62,0,0,1,25.83,24.57L592.4,274.2q-5.11-7.33-11.95-15.71l-17.22,88H537.79l15.58-79.59a381.9,381.9,0,0,1-28.32,39.32Q524.46,293.47,522.87,272.08Zm102.8,74.38,19.74-100.88Q622.6,290.29,592.68,321a275.07,275.07,0,0,0-12-25,300.15,300.15,0,0,0,62.5-78.62H617l4.83-24.67h33.91l6.72-34.3h25.43l-6.71,34.3h43.94l-4.83,24.67h-36q7,47.68,28.29,73-9.29,11-22,27-15.88-23.7-18.95-75.54L651.11,346.46Z" transform="translate(-1.09 -1)"/></g><path class="cls-4" d="M333.14,315.23,350,229.09H496.07l-16.86,86.14H453l2.22-11.37H361.57l-2.22,11.37Zm18.54-124.29h64.75l3.47-17.73H341.28l4.52-23.13h78.63l5-25.44h27.75l-5,25.44h79.4l-4.53,23.13h-79.4l-3.47,17.73h65.91l-4.52,23.12H347.16ZM465.19,253H371.53l-5.28,27h93.66Z" transform="translate(-1.09 -1)"/><path class="cls-4" d="M521.87,240.08q18.55-21,38-54.93H534.35l4.82-24.66h27.75l6.68-34.11H599l-6.68,34.11h20.43L608,185.15H587.54L585,198a353.62,353.62,0,0,1,25.83,24.57L591.4,242.2q-5.11-7.33-11.95-15.71l-17.22,88H536.79l15.58-79.59a381.9,381.9,0,0,1-28.32,39.32Q523.46,261.47,521.87,240.08Zm102.8,74.38,19.74-100.88Q621.6,258.29,591.68,289a275.07,275.07,0,0,0-12-25,300.15,300.15,0,0,0,62.5-78.62H616l4.83-24.67h33.91l6.72-34.3h25.43l-6.71,34.3h43.94l-4.83,24.67h-36q7,47.68,28.29,73-9.29,11-22,27-15.88-23.7-18.95-75.54L650.11,314.46Z" transform="translate(-1.09 -1)"/><g class="cls-5"><path class="cls-3" d="M141.21,602.33s1.33-182.66,4.33-182.66,51.67,23,52.34,39.66S176.54,541,176.54,541l-19,68.67S143.21,611.33,141.21,602.33Z" transform="translate(-1.09 -1)"/><path class="cls-3" d="M126.88,574s146.66,37,167.66,41.33c0,0,15.67-11,4.67-20.66s-166.67-71-171-71S123.54,570.67,126.88,574Z" transform="translate(-1.09 -1)"/><path class="cls-3" d="M271.21,410.33s-89.33,133-90,323l65.33,29s-20-181,44.34-339.33C290.88,423,279.21,412.33,271.21,410.33Z" transform="translate(-1.09 -1)"/><path class="cls-3" d="M308,486l2.69,1.54,24.31,14L281.54,836s4,36.5,15.5,42.5c0,0,49-83.5,84.5-380.5l-70-23S306.54,480.5,308,486Z" transform="translate(-1.09 -1)"/><path class="cls-3" d="M283.54,523.67s-2,36.83-2,41.83S389,615.33,389,615.33L381.54,669,262,621v63.5s180.5,70,204,71c0,0,8.5-27,0-56.5l-50-17s24.5-75.5,17.5-85.5S283.54,523.67,283.54,523.67Z" transform="translate(-1.09 -1)"/><ellipse class="cls-3" cx="405.86" cy="848.46" rx="31.25" ry="82.86" transform="translate(-202.93 129.62) rotate(-14.69)"/></g><path class="cls-4" d="M140.21,570.33s1.33-182.66,4.33-182.66,51.67,23,52.34,39.66S175.54,509,175.54,509l-19,68.67S142.21,579.33,140.21,570.33Z" transform="translate(-1.09 -1)"/><path class="cls-4" d="M125.88,542s146.66,37,167.66,41.33c0,0,15.67-11,4.67-20.66s-166.67-71-171-71S122.54,538.67,125.88,542Z" transform="translate(-1.09 -1)"/><path class="cls-4" d="M270.21,378.33s-89.33,133-90,323l65.33,29s-20-181,44.34-339.33C289.88,391,278.21,380.33,270.21,378.33Z" transform="translate(-1.09 -1)"/><path class="cls-4" d="M307,454l2.69,1.54,24.31,14L280.54,804s4,36.5,15.5,42.5c0,0,49-83.5,84.5-380.5l-70-23S305.54,448.5,307,454Z" transform="translate(-1.09 -1)"/><path class="cls-4" d="M282.54,491.67s-2,36.83-2,41.83S388,583.33,388,583.33L380.54,637,261,589v63.5s180.5,70,204,71c0,0,8.5-27,0-56.5l-50-17s24.5-75.5,17.5-85.5S282.54,491.67,282.54,491.67Z" transform="translate(-1.09 -1)"/><ellipse class="cls-4" cx="404.86" cy="816.46" rx="31.25" ry="82.86" transform="translate(-194.85 128.32) rotate(-14.69)"/><g class="cls-5"><path class="cls-3" d="M608.28,544.26s4.26-52.89,9.93-71.59c0,0,250.74-106.74,254.74-104.74s-120,210-120,210,190-52,107.33,125.33-252.4,218-252.4,218S860.21,729.33,744.5,643c0,0-17.62-17.63-54.22-8-17.54,4.6,76.67-151.67,76.67-157S613.61,533.93,608.28,544.26Z" transform="translate(-1.09 -1)"/></g><path class="cls-4" d="M607.28,512.26s4.26-52.89,9.93-71.59c0,0,250.74-106.74,254.74-104.74s-120,210-120,210,190-52,107.33,125.33-252.4,218-252.4,218S859.21,697.33,743.5,611c0,0-17.62-17.63-54.22-8-17.54,4.6,76.67-151.67,76.67-157S612.61,501.93,607.28,512.26Z" transform="translate(-1.09 -1)"/><g class="cls-5"><polyline class="cls-3" points="128.79 280 485.79 443 485.79 413"/><polyline class="cls-3" points="883.88 286.01 521.64 436.99 522.64 407.01"/><polyline class="cls-3" points="512.79 872 512.79 434 490.79 434"/><path class="cls-3" d="M420.19,396.33s59.51,10,204.09-.66c0,0-110.41,25.33-110.41,102H495.52s-24-60-75.33-90S420.19,396.33,420.19,396.33Z" transform="translate(-1.09 -1)"/></g><polyline class="cls-4" points="127.79 248 484.79 411 484.79 381"/><polyline class="cls-4" points="882.88 254.01 520.64 404.99 521.64 375.01"/><polyline class="cls-4" points="511.79 840 511.79 402 489.79 402"/><path class="cls-4" d="M419.19,364.33s59.51,10,204.09-.66c0,0-110.41,25.33-110.41,102H494.52s-24-60-75.33-90S419.19,364.33,419.19,364.33Z" transform="translate(-1.09 -1)"/></svg>