<?xml version="1.0" encoding="UTF-8"?>
<svg width="193px" height="40px" viewBox="0 0 193 40" version="1.1" xmlns="http://www.w3.org/2000/svg" xmlns:xlink="http://www.w3.org/1999/xlink">
    <!-- Generator: sketchtool 54 (76480) - https://sketchapp.com -->
    <title>BDA454AC-64FB-44C3-83B7-BC9CA3AE5B9D</title>
    <desc>Created with sketchtool.</desc>
    <g id="入款活动" stroke="none" stroke-width="1" fill="none" fill-rule="evenodd">
        <g id="云-详情页" transform="translate(-1079.000000, -2704.000000)">
            <g id="编组-4" transform="translate(1079.000000, 2703.000000)">
                <rect id="矩形复制" stroke="#FFFFFF" x="0.5" y="1.5" width="192" height="39"></rect>
                <path d="M27.6036389,15.7323415 C26.7169507,15.7323415 26,16.4785521 26,17.3987907 L26,24.3783652 C26,25.2986038 26.7194841,26.0448144 27.6036389,26.0448144 C28.490327,26.0448144 29.2072778,25.2986038 29.2072778,24.3783652 L29.2072778,17.3987907 C29.2072778,16.4785521 28.490327,15.7323415 27.6036389,15.7323415 L27.6036389,15.7323415 Z M29.8279595,26.8622183 C29.8279595,27.8457398 30.5955781,28.6420493 31.5405343,28.6420493 L32.7084293,28.6420493 L32.7084293,32.3335508 C32.7084293,33.2537894 33.4279134,34 34.3120682,34 C35.1987563,34 35.915707,33.2537894 35.915707,32.3335508 L35.915707,28.6420493 L38.0817596,28.6420493 L38.0817596,32.3335508 C38.0817596,33.2537894 38.8012437,34 39.6853984,34 C40.5720866,34 41.2890373,33.2537894 41.2890373,32.3335508 L41.2890373,28.6420493 L42.4569323,28.6420493 C43.4018885,28.6420493 44.1695071,27.8457398 44.1695071,26.8622183 L44.1695071,16.0461191 L29.8279595,16.0461191 L29.8279595,26.8622183 Z M40.5416859,9.46206262 L41.6614463,7.34208608 C41.7222478,7.23134104 41.6817135,7.08895455 41.5727775,7.02830846 C41.4663749,6.96766236 41.3295716,7.00721416 41.2713035,7.12059599 L40.1388761,9.26166682 C39.1888531,8.82396023 38.1248273,8.57873906 37,8.57873906 C35.8751727,8.57873906 34.8111469,8.82396023 33.8611239,9.25903004 L32.7286965,7.12059599 C32.6704284,7.00721416 32.5336251,6.96766236 32.4272225,7.02830846 C32.3182865,7.08895455 32.2777522,7.23134104 32.3385537,7.34208608 L33.4583141,9.46206262 C31.2593275,10.6433431 29.7722248,12.8898854 29.7722248,15.466026 L44.2252451,15.466026 C44.2277752,12.8872486 42.7406725,10.6433431 40.5416859,9.46206262 Z M33.7116536,12.7474989 C33.3772455,12.7474989 33.1061723,12.4653627 33.1061723,12.1173069 C33.1061723,11.769251 33.3772455,11.4871148 33.7116536,11.4871148 C34.0460617,11.4871148 34.317135,11.769251 34.317135,12.1173069 C34.3146016,12.4653627 34.0435283,12.7474989 33.7116536,12.7474989 Z M40.2908798,12.7474989 C39.9564717,12.7474989 39.6853984,12.4653627 39.6853984,12.1173069 C39.6853984,11.769251 39.9564717,11.4871148 40.2908798,11.4871148 C40.6252879,11.4871148 40.8963611,11.769251 40.8963611,12.1173069 C40.8938277,12.4653627 40.6227545,12.7474989 40.2908798,12.7474989 Z M46.3963611,15.7323415 C45.509673,15.7323415 44.7927222,16.4785521 44.7927222,17.3987907 L44.7927222,24.3783652 C44.7927222,25.2986038 45.5122064,26.0448144 46.3963611,26.0448144 C47.2830493,26.0448144 48,25.2986038 48,24.3783652 L48,17.3987907 C48,16.4785521 47.2830493,15.7323415 46.3963611,15.7323415 Z" id="形状" fill="#FFFFFF" fill-rule="nonzero"></path>
                <text id="Android" font-family="PingFang-SC-Bold, PingFang SC" font-size="30" font-weight="bold" fill="#FFFFFF">
                    <tspan x="58" y="32">Android</tspan>
                </text>
            </g>
        </g>
    </g>
</svg>