<?xml version="1.0" encoding="utf-8"?>
<!-- Generator: Adobe Illustrator 23.0.0, SVG Export Plug-In . SVG Version: 6.00 Build 0)  -->
<svg version="1.1" id="图层_1" xmlns="http://www.w3.org/2000/svg" xmlns:xlink="http://www.w3.org/1999/xlink" x="0px" y="0px"
	 viewBox="0 0 200 200" style="enable-background:new 0 0 200 200;" xml:space="preserve">
<style type="text/css">
	.st0{fill:#FFFFFF;}
</style>
<path class="st0" d="M100,199.5c-54.8,0-99.5-44.8-99.5-99.5S45.3,0.5,100,0.5S199.5,45,199.5,100
	C199.5,154.8,154.8,199.5,100,199.5z M100,4.5C47.3,4.5,4.5,47.3,4.5,100s43,95.5,95.5,95.5c52.8,0,95.5-43,95.5-95.5
	C195.5,47.3,152.8,4.5,100,4.5z"/>
<path class="st0" d="M102,60.8c-0.5-0.5-1.3-0.7-2-0.7c-0.8,0-1.5,0.3-2,0.7L78.5,80.3c-1,1-1,2.8,0,3.8s2.8,1,3.8,0L100,66.3
	L117.8,84c0.5,0.5,1.3,0.8,2,0.8c0.8,0,1.3-0.3,2-0.8c1-1,1-2.7,0-3.8L102,60.8z M50,110.5h11.5v29.3H67v-29.3h11.3v-5.3H50V110.5z
	 M108,105.3H93.8c-3.7,0-6.7,3-6.8,6.8v21.3c0,3.7,3,6.7,6.8,6.8H108c3.7,0,6.7-3,6.7-6.8V112c0-1.8-0.8-3.5-2-4.8
	C111.3,105.8,109.5,105.3,108,105.3z M109.3,133c0,0.3,0,0.5-0.5,1c-0.3,0.3-0.8,0.5-1,0.5H93.5c-0.3,0-0.5,0-1-0.5
	c-0.3-0.3-0.5-0.8-0.5-1v-21.2c0-0.3,0-0.5,0.5-1c0.3-0.3,0.8-0.5,1-0.5h14.2c0.3,0,0.5,0,1,0.5c0.3,0.3,0.5,0.8,0.5,1V133z
	 M148,107.3c-1.3-1.3-3-2-4.8-2H125v34.5h5.3v-15.3h13c3.7,0,6.7-3,6.8-6.8v-6C150,110.3,149.3,108.5,148,107.3L148,107.3z
	 M144.5,118c0,0.3,0,0.5-0.5,1c-0.3,0.3-0.8,0.5-1,0.5h-13v-8.8h13c0.3,0,0.5,0,1,0.5c0.3,0.3,0.5,0.8,0.5,1V118L144.5,118z"/>
</svg>
