<?xml version="1.0" standalone="no"?><!DOCTYPE svg PUBLIC "-//W3C//DTD SVG 1.1//EN" "http://www.w3.org/Graphics/SVG/1.1/DTD/svg11.dtd"><svg t="1569567522045" class="icon" viewBox="0 0 1024 1024" version="1.1" xmlns="http://www.w3.org/2000/svg" p-id="15704" xmlns:xlink="http://www.w3.org/1999/xlink" width="200" height="200"><defs><style type="text/css"></style></defs><path d="M991.359 339.561A515.458 515.458 0 0 0 675.384 40.188 221.455 221.455 0 0 1 801.5 1C924.383 1 1024 100.617 1024 223.5a221.447 221.447 0 0 1-32.641 116.061zM971 562c0 253.5-205.5 459-459 459S53 815.5 53 562s205.5-459 459-459 459 205.5 459 459zM512.5 204C314.506 204 154 364.506 154 562.5S314.506 921 512.5 921 871 760.494 871 562.5 710.494 204 512.5 204z m55.588 436.092L395.913 790.969a44.086 44.086 0 0 1-63.136-4.985 46.531 46.531 0 0 1 4.873-64.584L494.447 584V362.5a39.5 39.5 0 0 1 39.5-39.5H544.5a39.5 39.5 0 0 1 39.5 39.5v244.508a39.315 39.315 0 0 1-6.911 22.318 45.514 45.514 0 0 1-9.001 10.766zM34.258 340.549A221.437 221.437 0 0 1 1 223.5C1 100.617 100.617 1 223.5 1a221.451 221.451 0 0 1 126.439 39.412A515.459 515.459 0 0 0 34.258 340.549z" p-id="15705" fill="#b4b4b4"></path></svg>