<?xml version="1.0" standalone="no"?><!DOCTYPE svg PUBLIC "-//W3C//DTD SVG 1.1//EN" "http://www.w3.org/Graphics/SVG/1.1/DTD/svg11.dtd"><svg t="1601372592200" class="icon" viewBox="0 0 1024 1024" version="1.1" xmlns="http://www.w3.org/2000/svg" p-id="23086" xmlns:xlink="http://www.w3.org/1999/xlink" width="200" height="200"><defs><style type="text/css"></style></defs><path d="M830.88503 953.25626291L299.4095 953.25626291c-58.70116781 0-106.29453-47.59141312-106.29453-106.29113437L193.11497 740.67495322l53.147265 0 0 106.29017531c0 29.34938156 23.79764063 53.14508719 53.147265 53.14508719l531.47553 0c29.35058344 0 53.147265-23.79666562 53.147265-53.14508718l0-584.59884188c0-29.34938156-23.79764063-53.14508719-53.147265-53.14508719L299.4095 209.22119854c-29.35058344 0-53.147265 23.79570656-53.147265 53.14508718l0 106.29017531-53.147265 1e-8L193.11497 262.36628666c0-58.69876219 47.59336313-106.29113437 106.29453-106.29113437l531.47553-1e-8c58.70212688 0 106.29549 47.59237219 106.29549 106.29113438l0 584.59884187C937.18052 905.66484978 889.58715688 953.25626291 830.88503 953.25626291zM600.83029531 388.79416822c-10.35468375-10.38016219-10.35468375-27.22154344 0-37.57484437 10.37962781-10.38016219 27.2217-10.38016219 37.60228688 0l183.34305094 183.33553875c5.52799875 5.52777188 7.889055 12.87159281 7.52640562 20.110845 0.36264937 7.23925219-1.99840688 14.58403219-7.52640563 20.13770625L638.43354219 758.13991166c-10.38058781 10.37920313-27.22265906 10.37920313-37.60228688 0-10.35468375-10.38016219-10.35468375-27.22154344 0-37.57580344l139.33108594-139.3253775L113.3926325 581.23873072c-14.66233969 0-26.5741125-11.88538125-26.5741125-26.57302312 0-14.66173969 11.91177187-26.57302312 26.5741125-26.57302313l626.76778875 0L600.83029531 388.79416822z" p-id="23087" fill="#aeaebc"></path></svg>