<svg xmlns:xlink="http://www.w3.org/1999/xlink" xmlns="http://www.w3.org/2000/svg" data-v-7dbae6e1="" data-v-10b11ba8="" aria-hidden="true" class="svg-icon" width="200"  height="200" ><defs><symbol xmlns="http://www.w3.org/2000/svg" viewBox="0 0 200 200" id="icon-l_tel"><path class="st0" d="M126.8 12.5H71.2c-21 0-38 17.1-38 38v98.8c0 21 17.1 38 38 38h55.6c21 0 38-17.1 38-38V50.6c0-21-17-38.1-38-38.1zM71.2 23.3h55.6c15.1 0 27.3 12.2 27.3 27.3v71.3H43.9V50.6c0-15.1 12.3-27.3 27.3-27.3zm55.6 153.4H71.2c-15.1 0-27.3-12.2-27.3-27.3v-16.8h110.2v16.8c0 15.1-12.3 27.3-27.3 27.3z"></path>
    <path class="st0" d="M89 153.8c0 6.1 4.9 11 11 11s11-4.9 11-11-4.9-11-11-11-11 4.9-11 11c0-.1 0-.1 0 0z"></path></symbol></defs><use data-v-7dbae6e1="" xlink:href="#icon-l_tel" fill="#8F98B2"></use></svg>