<?xml version="1.0" standalone="no"?><!DOCTYPE svg PUBLIC "-//W3C//DTD SVG 1.1//EN" "http://www.w3.org/Graphics/SVG/1.1/DTD/svg11.dtd"><svg t="1601372421362" class="icon" viewBox="0 0 1024 1024" version="1.1" xmlns="http://www.w3.org/2000/svg" p-id="21287" xmlns:xlink="http://www.w3.org/1999/xlink" width="200" height="200"><defs><style type="text/css"></style></defs><path d="M893.5 487.4h-160c-10.2 0-18.5-8.3-18.5-18.5s8.3-18.5 18.5-18.5H875V192H148.9v258.5h141.5c10.2 0 18.5 8.3 18.5 18.5s-8.3 18.5-18.5 18.5h-160c-10.2 0-18.5-8.3-18.5-18.5V173.5c0-10.2 8.3-18.5 18.5-18.5h763.1c10.2 0 18.5 8.3 18.5 18.5v295.4c0 10.2-8.3 18.5-18.5 18.5z" fill="#aeaebc" p-id="21288"></path><path d="M758.2 413.5h-24.6c-10.2 0-18.5-8.3-18.5-18.5s8.3-18.5 18.5-18.5h24.6c17 0 30.8-13.8 30.8-30.8v-49.2c0-17-13.8-30.8-30.8-30.8H265.8c-17 0-30.8 13.8-30.8 30.8v49.2c0 17 13.8 30.8 30.8 30.8h24.6c10.2 0 18.5 8.3 18.5 18.5s-8.3 18.5-18.5 18.5h-24.6c-37.3 0-67.7-30.4-67.7-67.7v-49.2c0-37.3 30.4-67.7 67.7-67.7h492.3c37.3 0 67.7 30.4 67.7 67.7v49.2c0 37.4-30.3 67.7-67.6 67.7z" fill="#aeaebc" p-id="21289"></path><path d="M684.3 868.9H339.7c-37.3 0-67.7-30.4-67.7-67.7V247.4c0-10.2 8.3-18.5 18.5-18.5h443.1c10.2 0 18.5 8.3 18.5 18.5v553.8c-0.1 37.4-30.5 67.7-67.8 67.7zM308.9 265.8v535.4c0 17 13.8 30.8 30.8 30.8h344.6c17 0 30.8-13.8 30.8-30.8V265.8H308.9z" fill="#aeaebc" p-id="21290"></path><path d="M536.6 868.9c-10.2 0-18.5-8.3-18.5-18.5v-603c0-10.2 8.3-18.5 18.5-18.5s18.5 8.3 18.5 18.5v603.1c0 10.2-8.3 18.4-18.5 18.4z m86.2 0c-10.2 0-18.5-8.3-18.5-18.5v-603c0-10.2 8.3-18.5 18.5-18.5s18.5 8.3 18.5 18.5v603.1c-0.1 10.2-8.3 18.4-18.5 18.4z" fill="#aeaebc" p-id="21291"></path><path d="M376.6 788.9c-10.2 0-18.5-8.3-18.5-18.5v-73.8c0-10.2 8.3-18.5 18.5-18.5s18.5 8.3 18.5 18.5v73.8c0 10.3-8.3 18.5-18.5 18.5z m0-147.7c-10.2 0-18.5-8.3-18.5-18.5v-73.8c0-10.2 8.3-18.5 18.5-18.5s18.5 8.3 18.5 18.5v73.8c0 10.3-8.3 18.5-18.5 18.5z" fill="#aeaebc" p-id="21292"></path></svg>