<svg id="图层_1" data-name="图层 1" xmlns="http://www.w3.org/2000/svg" xmlns:xlink="http://www.w3.org/1999/xlink" viewBox="0 0 1024 1026.32"><defs><style>.cls-1{fill:url(#未命名的渐变_17);}.cls-2{fill:none;}.cls-3,.cls-4{fill:#fff;}.cls-4{font-size:501.43px;font-family:Arial-Black, Arial;font-weight:800;}</style><linearGradient id="未命名的渐变_17" x1="512" y1="1024" x2="512" gradientUnits="userSpaceOnUse"><stop offset="0.25" stop-color="#584498"/><stop offset="0.96" stop-color="#934b99"/></linearGradient></defs><title>11</title><rect class="cls-1" width="1024" height="1024" rx="512"/><path class="cls-2" d="M553.62,358.89l-9.5,19.46c9.65,2.82,16.11-1.82,19.61-10.87S553.62,358.89,553.62,358.89Z" transform="translate(-0.84 -0.75)"/><path class="cls-2" d="M470,378.66a9.66,9.66,0,0,0,4.3,1.7L486.2,356.1a40.64,40.64,0,0,0-8.14.82C461.79,360.26,460.88,371.82,470,378.66Z" transform="translate(-0.84 -0.75)"/><path class="cls-3" d="M508.77,361.33l-1-12.39-4.89,9.95A44.21,44.21,0,0,1,508.77,361.33Z" transform="translate(-0.84 -0.75)"/><path class="cls-2" d="M569.23,367l-9.5,19.46c9.65,2.81,16.11-1.82,19.61-10.87S569.23,367,569.23,367Z" transform="translate(-0.84 -0.75)"/><path class="cls-3" d="M430.12,393.63a60.39,60.39,0,0,1,1.29-6.87l-8.53,1.12c-28.69,4-57.17,9.25-85.26,16a853,853,0,0,0-83,24.36c-13.59,4.8-27.07,9.87-40.32,15.55q-9.95,4.2-19.75,8.7c-6.5,3.1-13,6.18-19.31,9.65,27.85-7.08,55.62-13.4,83.5-19s55.74-10.7,83.69-14.95,55.93-7.85,84-10.58c3.63-.36,7.26-.67,10.9-1C431.77,412,428.74,404.68,430.12,393.63Z" transform="translate(-0.84 -0.75)"/><path class="cls-3" d="M682.79,395.39c-14.17-3.34-28.54-5.44-42.88-7.86-10.76-1.38-21.54-2.78-32.34-3.84a30.17,30.17,0,0,1,1.75,18.15,42.85,42.85,0,0,1-3.75,11.3c10.37.58,20.72,1.49,31.11,2.08l20.94,2.16c7,.55,14,1.58,20.91,2.51,55.85,6.94,110.79,20.12,165.63,37.37C794.71,428,739.59,407.4,682.79,395.39Z" transform="translate(-0.84 -0.75)"/><path class="cls-3" d="M495,352.52s-48.38-8.31-58.53,33.13a59.79,59.79,0,0,0-1.31,7c-1.4,11.21,1.68,18.58,7.24,23.31,5.83,4.94,14.38,7,23.45,7.43L476.4,401.9a9.89,9.89,0,0,1-4.36-1.73c-9.24-6.94-8.32-18.66,8.18-22.06a42.61,42.61,0,0,1,8.26-.83l11.76-24Z" transform="translate(-0.84 -0.75)"/><polygon class="cls-3" points="486.23 424.15 498.38 399.4 507.01 381.83 511.96 371.74 526.77 341.59 543.59 342.36 548.24 332.89 513.51 331.31 501.87 355.04 490.11 379 478.03 403.61 467.51 425.07 467.38 425.31 485.25 426.13 486.23 424.15"/><polygon class="cls-3" points="541.37 358.35 557.37 359.08 563.97 345.64 546.06 344.82 529.24 344.06 487.72 428.6 480.65 443 500.38 443.9 541.37 358.35"/><path class="cls-3" d="M603.15,382.54c-6.47-14.59-23.75-19.39-23.75-19.39l-18.73-.86-16-.73-41,85.55L496.08,463l34.73,1.59L547,430.75c23.29,3.61,44.82.27,54.12-18.34a43.53,43.53,0,0,0,3.8-11.47A30.49,30.49,0,0,0,603.15,382.54ZM574.52,398.7c-3.54,9.18-10.1,13.88-19.89,11L564.27,390S578.07,389.53,574.52,398.7Z" transform="translate(-0.84 -0.75)"/><text class="cls-4" transform="matrix(1.07, 0.01, -0.25, 0.97, 102.21, 873.22)">3</text><path class="cls-3" d="M869.39,623.87C819.52,487.64,622.49,513,622.49,513l-111.14-.35L423.13,861.87l111.14.36,35.09-138.92a130.54,130.54,0,0,0,30.58,35.77L564,937.66c173.16-40.13,212.4-84.53,212.4-84.53S919.26,760.09,869.39,623.87Zm-198.86,146c-47.73,0-87.22-32.78-93.87-75.43h0c-.29-1.88-.5-3.78-.67-5.7l-.09-1.14c-.14-2-.24-3.92-.24-5.91,0-1.37.05-2.74.11-4.1,0-.42.06-.85.08-1.27.07-.95.14-1.9.24-2.85,0-.46.09-.92.14-1.38.12-1,.26-2,.41-3,.06-.33.1-.67.15-1,.21-1.25.45-2.5.72-3.73.11-.51.23-1,.35-1.52.18-.76.37-1.52.57-2.27.15-.59.31-1.18.48-1.76s.4-1.32.61-2,.37-1.21.58-1.81.51-1.42.77-2.13c.4-1.08.83-2.15,1.27-3.21.19-.44.37-.88.56-1.31.33-.74.67-1.48,1-2.21.17-.37.34-.73.52-1.09.39-.78.78-1.57,1.19-2.35h0q1.51-2.85,3.25-5.59l.12-.19c.53-.83,1.07-1.65,1.63-2.46.12-.19.25-.37.38-.55.57-.82,1.15-1.64,1.75-2.44h0c17.13-22.93,45.65-38,78-38,52.4,0,94.87,39.48,94.87,88.18S722.93,769.82,670.53,769.82Z" transform="translate(-0.84 -0.75)"/><ellipse class="cls-3" cx="669.69" cy="680.89" rx="75.57" ry="70.24"/><path class="cls-3" d="M372.12,95.75a228.12,228.12,0,0,1,17.08,26.68l-22.3,10.89,27.27,0-2.62,22.42q-10.29,16.76-21.18,31.49l-.68,5.86,9.38-5.45q4.83,7.58,10.79,18.09l.89-7.57,126,.11-11.37,97.15-27.49,0,1.07-9.09-71-.06-1.07,9.09-27.48,0,8.52-72.81-12.43,6.56q-4.08-10.51-7.77-19l-10.11,86.45-27.07,0,8.54-73a250.48,250.48,0,0,1-18.86,17.05q-2-20.4-3.83-33.13,27.28-23.21,43-47.43l-34.56,0L328,133.28l32.79,0q-7.22-13.95-14.59-25.67Zm30.31,9.72,126.17.11L526.1,127l-126.18-.11Zm4.09,30.91,108.89.1-6.12,52.31-108.89-.1Zm3.72,130.09,22.07,0L434,251.74l-22.07,0Zm4-33.93,22.08,0L438,218l-22.07,0Zm70.89-75.49L432,157l-1.33,11.31,53.1,0ZM459.17,266.51l22.07,0L483,251.79l-22.07,0Zm27.75-48.45-22.07,0-1.71,14.54,22.07,0Z" transform="translate(-0.84 -0.75)"/><path class="cls-3" d="M534.69,188.81l45.6,0,1.58-13.53,27.49,0-1.59,13.53,41.85,0-2.83,24.24-41.85,0-.74,6.26q22.26,12.75,41.4,25.29l-19.31,22.6Q613,256.15,601,246.84l-5.86,50.09-27.48,0,6.64-56.75a252.2,252.2,0,0,1-39.07,42Q529,269.8,522,258.49q27.56-22,46.75-45.41l-36.85,0Zm24-48.26q7.37,13.55,14.57,30.32L551,181.15q-6.18-16.58-13-31.12Zm-14-29.7q52.9-2,107.82-6.77l.8,23.43q-58.46,4.78-106.85,7.38Q546.18,124.39,544.65,110.85Zm52.46,21.46q8,15,13.95,28.49l-21.93,9.47q-5-12.32-13.23-29.3Zm38.68-1.38,21.27,8.7q-13.15,19.78-28.44,40.17l-19.41-10.32Q623,151.52,635.79,130.93Zm78.73,85.31,19.67,17Q692.93,274.4,647.06,298a234,234,0,0,0-16.25-24.85A288,288,0,0,0,714.52,216.24Zm5.89-61,18.34,17.59q-35.61,33.9-72.78,56.09a187.79,187.79,0,0,0-17.2-22Q687,188.14,720.41,155.24Zm1.92-57.36,18.42,17a431.1,431.1,0,0,1-68.49,51.45q-7.77-11.92-16.86-23.25A251.15,251.15,0,0,0,722.33,97.88Z" transform="translate(-0.84 -0.75)"/></svg>