<svg id="图层_1" data-name="图层 1" xmlns="http://www.w3.org/2000/svg" xmlns:xlink="http://www.w3.org/1999/xlink" viewBox="0 0 1024 1024"><defs><style>.cls-1{fill:url(#未命名的渐变_5);}.cls-2{opacity:0.2;}.cls-3{fill:#004b96;}.cls-4{fill:#fcfcfc;}.cls-5{fill:#fff;}</style><linearGradient id="未命名的渐变_5" x1="512" x2="512" y2="1024" gradientUnits="userSpaceOnUse"><stop offset="0" stop-color="#39cad4"/><stop offset="1" stop-color="#5b86e5"/></linearGradient></defs><title>17</title><rect class="cls-1" width="1024" height="1024" rx="512"/><g class="cls-2"><path class="cls-3" d="M141,457,103.5,676.5,159,673l41-39,29-184Zm21.5,187.5h-18l10-64h16Zm16-95h-18l10-64h16Z"/><polygon class="cls-3" points="243 461 307 459 309 445 346 428 346 452 364 453 338 489 316 628 283 662 237.5 637.5 276.5 635.5 300.5 487.5 240.37 489.94 243 461"/><ellipse class="cls-3" cx="257" cy="547" rx="29.18" ry="21.18" transform="translate(-265.11 242.61) rotate(-34.59)"/><path class="cls-3" d="M389,435,351.5,654.5,407,651l41-39,29-184Zm21.5,187.5h-18l10-64h16Zm16-95h-18l10-64h16Z"/><polygon class="cls-3" points="491 439 555 437 557 423 594 406 594 430 612 431 586 467 564 606 531 640 485.5 615.5 524.5 613.5 548.5 465.5 488.37 467.94 491 439"/><ellipse class="cls-3" cx="505" cy="525" rx="29.18" ry="21.18" transform="translate(-208.78 379.52) rotate(-34.59)"/><path class="cls-3" d="M639,417s84-3,111-14a270.88,270.88,0,0,0,46-24s-23,39-47,47-114,17-114,17Z"/><rect class="cls-3" x="635" y="450" width="35" height="40"/><rect class="cls-3" x="678" y="445" width="35" height="40"/><polygon class="cls-3" points="730 441 766 441 752 483 718 483 730 441"/><polygon class="cls-3" points="622 508 673 504 673 492 710 492 709 498 758 498 742 523 702 527 688 627 652.5 617.5 668.5 533.5 617.5 534.5 622 508"/><path class="cls-3" d="M632.5,543.5h27s-15,67-24,76-50,16-50,16,29-26,35-41S632.5,543.5,632.5,543.5Z"/><rect class="cls-3" x="706.5" y="534.5" width="36" height="82"/><path class="cls-3" d="M922,342s-56-3-91,43c-24.87,32.69-44.18,83-53.28,109.45-3.8,11-6.72,22.6-6.72,34.25v35c0,6,1.63,11.94,2.72,17.82A59.14,59.14,0,0,1,766,623c-15,25-49,72-46,93,2.25,15.76,24.77,28.13,35.87,33.33a12.27,12.27,0,0,1,7.13,11c0,8.12-2.58,20.06-17,25.7-23,9-33,16-48,16-12.49,0-190,1.39-249.06,1.85a83.68,83.68,0,0,0-35.22,8.09C380.76,827.58,304.48,861.6,248,870c0,0,80,32,132,28s127-62,150-64c19.66-1.71,133.56-.5,166.24-.11a67.85,67.85,0,0,0,19.83-2.7c14-4.08,38.38-15,55.93-31.19,26-24,25-54,23-68s-28-27-25-57,56-40,62-73-20-93-11-113S899,352,922,342Z"/><path class="cls-3" d="M179.5,713.39l9.51-.84-.62,67.27,31.46-2.8-.07,8.18-41,3.64Z"/><path class="cls-3" d="M289.4,740.53c-.24,26-15.77,41.11-34.56,42.78-19.45,1.73-33-12.5-32.76-35.34.22-24,14.9-40.92,34.56-42.66C276.74,703.52,289.6,718.15,289.4,740.53Zm-57.15,6.31c-.15,16.12,8.24,29.8,23.21,28.47s23.72-16.31,23.88-33.43c.14-15-7.37-30-23.21-28.59S232.4,730.28,232.25,746.84Z"/><path class="cls-3" d="M313.25,709.78l-22.4,2,.08-8.28,54.52-4.85-.08,8.29-22.5,2-.62,67.16-9.61.85Z"/><path class="cls-3" d="M371.7,704.59l-22.4,2,.07-8.29,54.52-4.84-.08,8.28-22.5,2-.62,67.16-9.61.86Z"/><path class="cls-3" d="M449.84,729.4,421.22,732l-.25,27.2,31.9-2.84-.08,8.17-41.4,3.68.69-75.44,39.77-3.53-.08,8.17-30.26,2.69-.22,23.84,28.63-2.55Z"/><path class="cls-3" d="M465.82,689a100.41,100.41,0,0,1,18.26-3.19c10.16-.9,16.69.42,21.24,4.26,3.69,3,5.72,8,5.66,13.82-.09,10-6.27,17.11-14.05,20.48v.34c5.66,1.51,9,6.58,10.67,14.26,2.31,10.31,4,17.43,5.5,20.2l-9.84.88c-1.18-2-2.76-8.37-4.75-17.59-2.09-10.21-6-13.78-14.61-13.35l-9,.8-.3,32.68-9.5.85ZM475,722.47l9.72-.86c10.16-.91,16.66-7.19,16.74-15.81.09-9.74-6.76-13.38-16.81-12.6a40.07,40.07,0,0,0-9.4,1.73Z"/><path class="cls-3" d="M539.1,756.81l.29-32-22.87-41.36,10.81-1,10.19,19.89c2.79,5.46,4.93,9.85,7.18,14.91l.22,0c2.12-5.11,4.67-10.26,7.57-16.22l10.79-21.76,10.81-1L549,723.83,548.71,756Z"/><path class="cls-3" d="M334.05,337.29l167.57-9.85-2.41,14.37-167.57,9.86ZM363.56,271l129.75-7.63-2.44,14.55-129.75,7.63Zm2.05-58.23L511,204.22l-2.47,14.71-145.36,8.55Z"/><path class="cls-3" d="M542.46,260.14l115.36-6.78q-5.76,29.14-12.14,57-7.45,32.13-36,33.64-14.08,1-29.52.89.17-7.12,0-14.41a225.49,225.49,0,0,0,29.49.3q17.29-.67,22.45-21.14,4.49-18.57,9.23-42.73L588,270q-6.87,28.71-19.78,46.75-17,23.7-50.19,38a105.55,105.55,0,0,0-8-10.89q30.59-12.3,46.63-33.23,11.69-15.86,17.08-39.81l-33.4,2Zm-22.64-4.26q39.93-27.07,72.49-71.69l11.2,5.95q-34,47.06-75.59,76.79A58.49,58.49,0,0,0,519.82,255.88Zm106.41-71.15,13.38-6q11.39,44.75,55.44,64.68A159.72,159.72,0,0,0,681.59,257Q638.45,232.64,626.23,184.73Z"/></g><path class="cls-4" d="M141,439,103.5,658.5,159,655l41-39,29-184Zm21.5,187.5h-18l10-64h16Zm16-95h-18l10-64h16Z"/><polygon class="cls-4" points="243 443 307 441 309 427 346 410 346 434 364 435 338 471 316 610 283 644 237.5 619.5 276.5 617.5 300.5 469.5 240.37 471.94 243 443"/><ellipse class="cls-4" cx="257" cy="529" rx="29.18" ry="21.18" transform="translate(-254.9 239.43) rotate(-34.59)"/><path class="cls-4" d="M389,417,351.5,636.5,407,633l41-39,29-184Zm21.5,187.5h-18l10-64h16Zm16-95h-18l10-64h16Z"/><polygon class="cls-4" points="491 421 555 419 557 405 594 388 594 412 612 413 586 449 564 588 531 622 485.5 597.5 524.5 595.5 548.5 447.5 488.37 449.94 491 421"/><ellipse class="cls-4" cx="505" cy="507" rx="29.18" ry="21.18" transform="translate(-198.56 376.33) rotate(-34.59)"/><path class="cls-5" d="M639,399s84-3,111-14a270.88,270.88,0,0,0,46-24s-23,39-47,47-114,17-114,17Z"/><rect class="cls-5" x="635" y="432" width="35" height="40"/><rect class="cls-5" x="678" y="427" width="35" height="40"/><polygon class="cls-5" points="730 423 766 423 752 465 718 465 730 423"/><polygon class="cls-4" points="622 490 673 486 673 474 710 474 709 480 758 480 742 505 702 509 688 609 652.5 599.5 668.5 515.5 617.5 516.5 622 490"/><path class="cls-5" d="M632.5,525.5h27s-15,67-24,76-50,16-50,16,29-26,35-41S632.5,525.5,632.5,525.5Z"/><rect class="cls-4" x="706.5" y="516.5" width="36" height="82"/><path class="cls-4" d="M922,324s-56-3-91,43c-24.87,32.69-44.18,83-53.28,109.45-3.8,11-6.72,22.6-6.72,34.25v35.05c0,6,1.63,11.94,2.72,17.82A59.14,59.14,0,0,1,766,605c-15,25-49,72-46,93,2.25,15.76,24.77,28.13,35.87,33.33a12.27,12.27,0,0,1,7.13,11c0,8.12-2.58,20.06-17,25.7-23,9-33,16-48,16-12.49,0-190,1.39-249.06,1.85a83.68,83.68,0,0,0-35.22,8.09C380.76,809.58,304.48,843.6,248,852c0,0,80,32,132,28s127-62,150-64c19.66-1.71,133.56-.5,166.24-.11a67.85,67.85,0,0,0,19.83-2.7c14-4.08,38.38-15,55.93-31.19,26-24,25-54,23-68s-28-27-25-57,56-40,62-73-20-93-11-113S899,334,922,324Z"/><path class="cls-5" d="M179.5,695.39l9.51-.84-.62,67.27,31.46-2.8-.07,8.18-41,3.64Z"/><path class="cls-5" d="M289.4,722.53c-.24,26-15.77,41.11-34.56,42.78-19.45,1.73-33-12.5-32.76-35.34.22-24,14.9-40.92,34.56-42.66C276.74,685.52,289.6,700.15,289.4,722.53Zm-57.15,6.31c-.15,16.12,8.24,29.8,23.21,28.47s23.72-16.31,23.88-33.43c.14-15-7.37-30-23.21-28.59S232.4,712.28,232.25,728.84Z"/><path class="cls-5" d="M313.25,691.78l-22.4,2,.08-8.28,54.52-4.85-.08,8.29-22.5,2-.62,67.16-9.61.85Z"/><path class="cls-5" d="M371.7,686.59l-22.4,2,.07-8.29,54.52-4.84-.08,8.28-22.5,2-.62,67.16-9.61.86Z"/><path class="cls-5" d="M449.84,711.4,421.22,714l-.25,27.2,31.9-2.84-.08,8.17-41.4,3.68.69-75.44,39.77-3.53-.08,8.17-30.26,2.69-.22,23.84,28.63-2.55Z"/><path class="cls-5" d="M465.82,671a100.41,100.41,0,0,1,18.26-3.19c10.16-.9,16.69.42,21.24,4.26,3.69,3,5.72,8,5.66,13.82-.09,10-6.27,17.11-14.05,20.48v.34c5.66,1.51,9,6.58,10.67,14.26,2.31,10.31,4,17.43,5.5,20.2l-9.84.88c-1.18-2-2.76-8.37-4.75-17.59-2.09-10.21-6-13.78-14.61-13.35l-9,.8-.3,32.68-9.5.85ZM475,704.47l9.72-.86c10.16-.91,16.66-7.19,16.74-15.81.09-9.74-6.76-13.38-16.81-12.6a40.07,40.07,0,0,0-9.4,1.73Z"/><path class="cls-5" d="M539.1,738.81l.29-32-22.87-41.36,10.81-1,10.19,19.89c2.79,5.46,4.93,9.85,7.18,14.91l.22,0c2.12-5.11,4.67-10.26,7.57-16.22l10.79-21.76,10.81-1L549,705.83,548.71,738Z"/><path class="cls-5" d="M334.05,319.29l167.57-9.85-2.41,14.37-167.57,9.86ZM363.56,253l129.75-7.63-2.44,14.55-129.75,7.63Zm2.05-58.23L511,186.22l-2.47,14.71-145.36,8.55Z"/><path class="cls-5" d="M542.46,242.14l115.36-6.78q-5.76,29.14-12.14,57-7.45,32.13-36,33.64-14.08,1-29.52.89.17-7.12,0-14.41a225.49,225.49,0,0,0,29.49.3q17.29-.67,22.45-21.14,4.49-18.57,9.23-42.73L588,252q-6.87,28.71-19.78,46.75-17,23.7-50.19,38a105.55,105.55,0,0,0-8-10.89q30.59-12.3,46.63-33.23,11.69-15.86,17.08-39.81l-33.4,2Zm-22.64-4.26q39.93-27.07,72.49-71.69l11.2,5.95q-34,47.06-75.59,76.79A58.49,58.49,0,0,0,519.82,237.88Zm106.41-71.15,13.38-6q11.39,44.75,55.44,64.68A159.72,159.72,0,0,0,681.59,239Q638.45,214.64,626.23,166.73Z"/></svg>