<svg id="图层_1" data-name="图层 1" xmlns="http://www.w3.org/2000/svg" xmlns:xlink="http://www.w3.org/1999/xlink" viewBox="0 0 1024 1024"><defs><style>.cls-1{fill:url(#未命名的渐变_9);}.cls-2{opacity:0.09;}.cls-3{fill:#040000;}.cls-4{fill:#fff;}.cls-5{opacity:0.07;}</style><linearGradient id="未命名的渐变_9" x1="512" y1="1024" x2="512" gradientUnits="userSpaceOnUse"><stop offset="0.18" stop-color="#e73558"/><stop offset="0.28" stop-color="#e73c5d"/><stop offset="0.85" stop-color="#e794bd"/></linearGradient></defs><title>27</title><rect class="cls-1" width="1024" height="1024" rx="512"/><g class="cls-2"><path class="cls-3" d="M328.52,249.91q11.7-29.28,17.75-49.33l16.42,1.74q-7.21,23.12-18,50.68Q336.54,251.26,328.52,249.91Zm59.89-.77h43.36q4-14.53,9.26-38H406.34l6.52,15.42-20,9.82-6-22.73L360.62,347.81H335.57l37.18-190h25.06l-7.89,40.28,9-4.44,7.4,17.35L411,186.71H446.3l6-28.53h25.05l-6,28.53h47.22l-12.22,62.43h13.49l-4.79,24.48H460.8q9.84,34.88,44.74,48.56-8.24,9.63-20.54,25.25Q449.57,332,440.74,287.49,423.6,323,379.36,348.58a260.36,260.36,0,0,0-12.68-24.86q39.7-18.69,56.16-50.1H383.62Zm100.7-38H466.18q-2.79,15.23-9,38h24.47Z" transform="translate(-1.09 -1)"/><path class="cls-3" d="M598,320.64q38.31,1.16,107.42-.39-8.39,14.26-14,24.29-56.26,0-103.49-1-29.28,0-42.78-18.69-9.45,8.87-25.68,23.9l-5.17-28.72q9.06-6.93,21.2-15.8L546,250.49H528.82l5-25.43H575L559.5,304.45Q567.71,320.64,598,320.64Zm-25.33-163q9.5,20.43,15.93,37.77-16.12,7.51-26.16,12.52A385.6,385.6,0,0,0,549,169Zm92.16,109.07q23.37,12.52,44.32,25.63l-16.29,20.24q-21.37-14.85-40-26l-5.88,30.06H622.46l6.26-32a186.36,186.36,0,0,1-45,29.1,147.06,147.06,0,0,0-11.5-22,157.87,157.87,0,0,0,53-26.78H586.89l10.86-55.5h45.67l2.34-11.95H593.54l4.52-23.13h52.23l3.24-16.57H678l-3.25,16.57h52.8L723,197.5h-52.8l-2.34,11.95h45.86L702.9,265H657l-2.91,14.83ZM612.4,244.9h24.09l3-15.41H615.41Zm75.86-15.41H664l-3,15.41h24.28Z" transform="translate(-1.09 -1)"/></g><path class="cls-4" d="M327.52,217.91q11.7-29.28,17.75-49.33l16.42,1.74q-7.21,23.12-18,50.68Q335.54,219.26,327.52,217.91Zm59.89-.77h43.36q4-14.53,9.26-38H405.34l6.52,15.42-20,9.82-6-22.73L359.62,315.81H334.57l37.18-190h25.06l-7.89,40.28,9-4.44,7.4,17.35L410,154.71H445.3l6-28.53h25.05l-6,28.53h47.22l-12.22,62.43h13.49l-4.79,24.48H459.8q9.84,34.88,44.74,48.56-8.24,9.63-20.54,25.25Q448.57,300,439.74,255.49,422.6,291,378.36,316.58a260.36,260.36,0,0,0-12.68-24.86q39.7-18.69,56.16-50.1H382.62Zm100.7-38H465.18q-2.79,15.23-9,38h24.47Z" transform="translate(-1.09 -1)"/><path class="cls-4" d="M597,288.64q38.31,1.16,107.42-.39-8.39,14.26-14,24.29-56.26,0-103.49-1-29.28,0-42.78-18.69-9.45,8.87-25.68,23.9l-5.17-28.72q9.06-6.93,21.2-15.8L545,218.49H527.82l5-25.43H574L558.5,272.45Q566.71,288.64,597,288.64Zm-25.33-163q9.5,20.43,15.93,37.77-16.12,7.51-26.16,12.52A385.6,385.6,0,0,0,548,137Zm92.16,109.07q23.37,12.52,44.32,25.63l-16.29,20.24q-21.37-14.85-40-26l-5.88,30.06H621.46l6.26-32a186.36,186.36,0,0,1-45,29.1,147.06,147.06,0,0,0-11.5-22,157.87,157.87,0,0,0,53-26.78H585.89l10.86-55.5h45.67l2.34-11.95H592.54l4.52-23.13h52.23l3.24-16.57H677l-3.25,16.57h52.8L722,165.5h-52.8l-2.34,11.95h45.86L701.9,233H656l-2.91,14.83ZM611.4,212.9h24.09l3-15.41H614.41Zm75.86-15.41H663l-3,15.41h24.28Z" transform="translate(-1.09 -1)"/><g class="cls-5"><path class="cls-3" d="M141.21,602.33s1.33-182.66,4.33-182.66,51.67,23,52.34,39.66S176.54,541,176.54,541l-19,68.67S143.21,611.33,141.21,602.33Z" transform="translate(-1.09 -1)"/><path class="cls-3" d="M126.88,574s146.66,37,167.66,41.33c0,0,15.67-11,4.67-20.66s-166.67-71-171-71S123.54,570.67,126.88,574Z" transform="translate(-1.09 -1)"/><path class="cls-3" d="M271.21,410.33s-89.33,133-90,323l65.33,29s-20-181,44.34-339.33C290.88,423,279.21,412.33,271.21,410.33Z" transform="translate(-1.09 -1)"/><path class="cls-3" d="M308,486l2.69,1.54,24.31,14L281.54,836s4,36.5,15.5,42.5c0,0,49-83.5,84.5-380.5l-70-23S306.54,480.5,308,486Z" transform="translate(-1.09 -1)"/><path class="cls-3" d="M283.54,523.67s-2,36.83-2,41.83S389,615.33,389,615.33L381.54,669,262,621v63.5s180.5,70,204,71c0,0,8.5-27,0-56.5l-50-17s24.5-75.5,17.5-85.5S283.54,523.67,283.54,523.67Z" transform="translate(-1.09 -1)"/><ellipse class="cls-3" cx="405.86" cy="848.46" rx="31.25" ry="82.86" transform="translate(-202.93 129.62) rotate(-14.69)"/></g><path class="cls-4" d="M140.21,570.33s1.33-182.66,4.33-182.66,51.67,23,52.34,39.66S175.54,509,175.54,509l-19,68.67S142.21,579.33,140.21,570.33Z" transform="translate(-1.09 -1)"/><path class="cls-4" d="M125.88,542s146.66,37,167.66,41.33c0,0,15.67-11,4.67-20.66s-166.67-71-171-71S122.54,538.67,125.88,542Z" transform="translate(-1.09 -1)"/><path class="cls-4" d="M270.21,378.33s-89.33,133-90,323l65.33,29s-20-181,44.34-339.33C289.88,391,278.21,380.33,270.21,378.33Z" transform="translate(-1.09 -1)"/><path class="cls-4" d="M307,454l2.69,1.54,24.31,14L280.54,804s4,36.5,15.5,42.5c0,0,49-83.5,84.5-380.5l-70-23S305.54,448.5,307,454Z" transform="translate(-1.09 -1)"/><path class="cls-4" d="M282.54,491.67s-2,36.83-2,41.83S388,583.33,388,583.33L380.54,637,261,589v63.5s180.5,70,204,71c0,0,8.5-27,0-56.5l-50-17s24.5-75.5,17.5-85.5S282.54,491.67,282.54,491.67Z" transform="translate(-1.09 -1)"/><ellipse class="cls-4" cx="404.86" cy="816.46" rx="31.25" ry="82.86" transform="translate(-194.85 128.32) rotate(-14.69)"/><g class="cls-5"><path class="cls-3" d="M608.28,544.26s4.26-52.89,9.93-71.59c0,0,250.74-106.74,254.74-104.74s-120,210-120,210,190-52,107.33,125.33-252.4,218-252.4,218S860.21,729.33,744.5,643c0,0-17.62-17.63-54.22-8-17.54,4.6,76.67-151.67,76.67-157S613.61,533.93,608.28,544.26Z" transform="translate(-1.09 -1)"/></g><path class="cls-4" d="M607.28,512.26s4.26-52.89,9.93-71.59c0,0,250.74-106.74,254.74-104.74s-120,210-120,210,190-52,107.33,125.33-252.4,218-252.4,218S859.21,697.33,743.5,611c0,0-17.62-17.63-54.22-8-17.54,4.6,76.67-151.67,76.67-157S612.61,501.93,607.28,512.26Z" transform="translate(-1.09 -1)"/><g class="cls-5"><polyline class="cls-3" points="128.79 280 485.79 443 485.79 413"/><polyline class="cls-3" points="883.88 286.01 521.64 436.99 522.64 407.01"/><polyline class="cls-3" points="512.79 872 512.79 434 490.79 434"/><path class="cls-3" d="M420.19,396.33s59.51,10,204.09-.66c0,0-110.41,25.33-110.41,102H495.52s-24-60-75.33-90S420.19,396.33,420.19,396.33Z" transform="translate(-1.09 -1)"/></g><polyline class="cls-4" points="127.79 248 484.79 411 484.79 381"/><polyline class="cls-4" points="882.88 254.01 520.64 404.99 521.64 375.01"/><polyline class="cls-4" points="511.79 840 511.79 402 489.79 402"/><path class="cls-4" d="M419.19,364.33s59.51,10,204.09-.66c0,0-110.41,25.33-110.41,102H494.52s-24-60-75.33-90S419.19,364.33,419.19,364.33Z" transform="translate(-1.09 -1)"/></svg>