<svg id="图层_1" data-name="图层 1" xmlns="http://www.w3.org/2000/svg" xmlns:xlink="http://www.w3.org/1999/xlink" viewBox="0 0 1024 1024"><defs><style>.cls-1{fill:url(#未命名的渐变_21);}.cls-2{opacity:0.09;}.cls-3{fill:#040000;}.cls-4{fill:#fff;}.cls-5{opacity:0.07;}</style><linearGradient id="未命名的渐变_21" x1="512" y1="1024" x2="512" gradientUnits="userSpaceOnUse"><stop offset="0.18" stop-color="#902a22"/><stop offset="0.85" stop-color="#dd2739"/></linearGradient></defs><title>2900</title><rect class="cls-1" width="1024" height="1024" rx="512"/><g class="cls-2"><path class="cls-3" d="M320,329.12l.64-29.87q26.76-6.75,52.82-13.88L383.68,233H337.23l5-25.44h46.44l9.17-46.83h28.9L390.37,346.46H361.46l6.34-32.37ZM515.83,185.93l15.4,22.74q-32.67,20.73-69.49,41l-11.15,56.94q-2.14,11,9.61,11H465a14.5,14.5,0,0,0,8.67-2.7,20.91,20.91,0,0,0,6.37-8.19q2.61-5.49,10.31-35.94L515.92,279q-5.46,20.06-10.39,34.4T490.61,335q-10,7.22-25,7.22H448.43q-33.72,0-27.76-30.45l29.6-151.27h28.91l-11.09,56.65Q493.77,201.64,515.83,185.93Z" transform="translate(-1.09 -1)"/><path class="cls-3" d="M565.7,283.64,582.54,301q-22.62,18.12-54.6,39.7-7.63-11.18-14.27-19.66A467.2,467.2,0,0,0,565.7,283.64ZM543.8,175.91h79.3q-1.9-9.43-3.48-16.18l33.64-3.47q1.54,7.8,2.89,19.65h76.51L728,199.81H539.13ZM692.18,280.36h-57l-6.72,34.31q-2.31,11.85-8.69,19.07a31.15,31.15,0,0,1-16.16,9.69q-9.78,2.46-38.49,2.45a160.14,160.14,0,0,0-.86-28.13q13.08,1.15,24.25,1.15,10.21,0,12.29-10.59l5.47-27.95h-63.6l13.47-68.8H705.64ZM669.1,256.47l4.11-21h-94l-4.11,21Zm-5.31,29.1q22,17.54,41.12,34.11L683,341.07q-15.91-16.2-39-36.81Z" transform="translate(-1.09 -1)"/></g><path class="cls-4" d="M319,297.12l.64-29.87q26.76-6.75,52.82-13.88L382.68,201H336.23l5-25.44h46.44l9.17-46.83h28.9L389.37,314.46H360.46l6.34-32.37ZM514.83,153.93l15.4,22.74q-32.67,20.73-69.49,41l-11.15,56.94q-2.14,11,9.61,11H464a14.5,14.5,0,0,0,8.67-2.7,20.91,20.91,0,0,0,6.37-8.19q2.61-5.49,10.31-35.94L514.92,247q-5.46,20.06-10.39,34.4T489.61,303q-10,7.22-25,7.22H447.43q-33.72,0-27.76-30.45l29.6-151.27h28.91l-11.09,56.65Q492.77,169.64,514.83,153.93Z" transform="translate(-1.09 -1)"/><path class="cls-4" d="M564.7,251.64,581.54,269q-22.62,18.12-54.6,39.7-7.63-11.18-14.27-19.66A467.2,467.2,0,0,0,564.7,251.64ZM542.8,143.91h79.3q-1.9-9.43-3.48-16.18l33.64-3.47q1.54,7.8,2.89,19.65h76.51L727,167.81H538.13ZM691.18,248.36h-57l-6.72,34.31q-2.31,11.85-8.69,19.07a31.15,31.15,0,0,1-16.16,9.69q-9.78,2.46-38.49,2.45a160.14,160.14,0,0,0-.86-28.13q13.08,1.15,24.25,1.15,10.21,0,12.29-10.59l5.47-27.95h-63.6l13.47-68.8H704.64ZM668.1,224.47l4.11-21h-94l-4.11,21Zm-5.31,29.1q22,17.54,41.12,34.11L682,309.07q-15.91-16.2-39-36.81Z" transform="translate(-1.09 -1)"/><g class="cls-5"><path class="cls-3" d="M141.21,602.33s1.33-182.66,4.33-182.66,51.67,23,52.34,39.66S176.54,541,176.54,541l-19,68.67S143.21,611.33,141.21,602.33Z" transform="translate(-1.09 -1)"/><path class="cls-3" d="M126.88,574s146.66,37,167.66,41.33c0,0,15.67-11,4.67-20.66s-166.67-71-171-71S123.54,570.67,126.88,574Z" transform="translate(-1.09 -1)"/><path class="cls-3" d="M271.21,410.33s-89.33,133-90,323l65.33,29s-20-181,44.34-339.33C290.88,423,279.21,412.33,271.21,410.33Z" transform="translate(-1.09 -1)"/><path class="cls-3" d="M308,486l2.69,1.54,24.31,14L281.54,836s4,36.5,15.5,42.5c0,0,49-83.5,84.5-380.5l-70-23S306.54,480.5,308,486Z" transform="translate(-1.09 -1)"/><path class="cls-3" d="M283.54,523.67s-2,36.83-2,41.83S389,615.33,389,615.33L381.54,669,262,621v63.5s180.5,70,204,71c0,0,8.5-27,0-56.5l-50-17s24.5-75.5,17.5-85.5S283.54,523.67,283.54,523.67Z" transform="translate(-1.09 -1)"/><ellipse class="cls-3" cx="405.86" cy="848.46" rx="31.25" ry="82.86" transform="translate(-202.93 129.62) rotate(-14.69)"/></g><path class="cls-4" d="M140.21,570.33s1.33-182.66,4.33-182.66,51.67,23,52.34,39.66S175.54,509,175.54,509l-19,68.67S142.21,579.33,140.21,570.33Z" transform="translate(-1.09 -1)"/><path class="cls-4" d="M125.88,542s146.66,37,167.66,41.33c0,0,15.67-11,4.67-20.66s-166.67-71-171-71S122.54,538.67,125.88,542Z" transform="translate(-1.09 -1)"/><path class="cls-4" d="M270.21,378.33s-89.33,133-90,323l65.33,29s-20-181,44.34-339.33C289.88,391,278.21,380.33,270.21,378.33Z" transform="translate(-1.09 -1)"/><path class="cls-4" d="M307,454l2.69,1.54,24.31,14L280.54,804s4,36.5,15.5,42.5c0,0,49-83.5,84.5-380.5l-70-23S305.54,448.5,307,454Z" transform="translate(-1.09 -1)"/><path class="cls-4" d="M282.54,491.67s-2,36.83-2,41.83S388,583.33,388,583.33L380.54,637,261,589v63.5s180.5,70,204,71c0,0,8.5-27,0-56.5l-50-17s24.5-75.5,17.5-85.5S282.54,491.67,282.54,491.67Z" transform="translate(-1.09 -1)"/><ellipse class="cls-4" cx="404.86" cy="816.46" rx="31.25" ry="82.86" transform="translate(-194.85 128.32) rotate(-14.69)"/><g class="cls-5"><path class="cls-3" d="M608.28,544.26s4.26-52.89,9.93-71.59c0,0,250.74-106.74,254.74-104.74s-120,210-120,210,190-52,107.33,125.33-252.4,218-252.4,218S860.21,729.33,744.5,643c0,0-17.62-17.63-54.22-8-17.54,4.6,76.67-151.67,76.67-157S613.61,533.93,608.28,544.26Z" transform="translate(-1.09 -1)"/></g><path class="cls-4" d="M607.28,512.26s4.26-52.89,9.93-71.59c0,0,250.74-106.74,254.74-104.74s-120,210-120,210,190-52,107.33,125.33-252.4,218-252.4,218S859.21,697.33,743.5,611c0,0-17.62-17.63-54.22-8-17.54,4.6,76.67-151.67,76.67-157S612.61,501.93,607.28,512.26Z" transform="translate(-1.09 -1)"/><g class="cls-5"><polyline class="cls-3" points="128.79 280 485.79 443 485.79 413"/><polyline class="cls-3" points="883.88 286.01 521.64 436.99 522.64 407.01"/><polyline class="cls-3" points="512.79 872 512.79 434 490.79 434"/><path class="cls-3" d="M420.19,396.33s59.51,10,204.09-.66c0,0-110.41,25.33-110.41,102H495.52s-24-60-75.33-90S420.19,396.33,420.19,396.33Z" transform="translate(-1.09 -1)"/></g><polyline class="cls-4" points="127.79 248 484.79 411 484.79 381"/><polyline class="cls-4" points="882.88 254.01 520.64 404.99 521.64 375.01"/><polyline class="cls-4" points="511.79 840 511.79 402 489.79 402"/><path class="cls-4" d="M419.19,364.33s59.51,10,204.09-.66c0,0-110.41,25.33-110.41,102H494.52s-24-60-75.33-90S419.19,364.33,419.19,364.33Z" transform="translate(-1.09 -1)"/></svg>