<svg id="图层_1" data-name="图层 1" xmlns="http://www.w3.org/2000/svg" xmlns:xlink="http://www.w3.org/1999/xlink" viewBox="0 0 1024 1024"><defs><style>.cls-1{fill:url(#未命名的渐变_5);}.cls-2{opacity:0.09;}.cls-3{fill:#040000;}.cls-4{fill:#fff;}.cls-5{opacity:0.07;}</style><linearGradient id="未命名的渐变_5" x1="512" y1="1024" x2="512" gradientUnits="userSpaceOnUse"><stop offset="0.28" stop-color="#ed9525"/><stop offset="0.85" stop-color="#f5ca1d"/></linearGradient></defs><title>2901</title><rect class="cls-1" width="1024" height="1024" rx="512"/><g class="cls-2"><path class="cls-3" d="M446.52,346.08l2.3-11.76H370.2l-2.45,12.53H340l26.85-137.21h-27l4.79-24.48h27l5-25.63H404.4l-5,25.63H478l5.09-26h27.75l-5.09,26h27.18l-4.79,24.48H501l-26.7,136.44ZM375,309.85h78.62l7.47-38.16H382.46Zm12.22-62.44h78.62l7.39-37.77H394.6Z" transform="translate(-1.09 -1)"/><path class="cls-3" d="M548.4,258.78h25.05q-6.6,33.72-16.15,53a114,114,0,0,1-31.09,38.74,228.09,228.09,0,0,0-17.08-19.08Q527,319.1,534.41,304.64,541.84,291.35,548.4,258.78Zm-5.35-6.17,3.74-19.08h66.68l2.11-10.79h-81.9l3.8-19.46h81.91l2.11-10.79H555.59l3.73-19.08h65.91l3-15.23h25.44l-3,15.23h63.79l-5.85,29.87h19.47l-3.81,19.46H704.8L699,252.61H635.17l-18.52,94.62H591.22l18.51-94.62Zm40.84,13.88,19.57,5.39q-14.94,32-28.17,55.31A186.94,186.94,0,0,0,557,319.1,548,548,0,0,0,583.89,266.49Zm70.68-.77q4.29,27.36,6.63,52.8l-23.36,7.13q-2-28.33-4.71-53.77Zm22.1-32.19,2.12-10.79H641l-2.12,10.79Zm8-41H646.94l-2.12,10.79H682.6Zm-10.66,66.29h24.66L681.44,347H656.77Z" transform="translate(-1.09 -1)"/></g><path class="cls-4" d="M445.52,314.08l2.3-11.76H369.2l-2.45,12.53H339l26.85-137.21h-27l4.79-24.48h27l5-25.63H403.4l-5,25.63H477l5.09-26h27.75l-5.09,26h27.18l-4.79,24.48H500l-26.7,136.44ZM374,277.85h78.62l7.47-38.16H381.46Zm12.22-62.44h78.62l7.39-37.77H393.6Z" transform="translate(-1.09 -1)"/><path class="cls-4" d="M547.4,226.78h25.05q-6.6,33.72-16.15,53a114,114,0,0,1-31.09,38.74,228.09,228.09,0,0,0-17.08-19.08Q526,287.1,533.41,272.64,540.84,259.35,547.4,226.78Zm-5.35-6.17,3.74-19.08h66.68l2.11-10.79h-81.9l3.8-19.46h81.91l2.11-10.79H554.59l3.73-19.08h65.91l3-15.23h25.44l-3,15.23h63.79l-5.85,29.87h19.47l-3.81,19.46H703.8L698,220.61H634.17l-18.52,94.62H590.22l18.51-94.62Zm40.84,13.88,19.57,5.39q-14.94,32-28.17,55.31A186.94,186.94,0,0,0,556,287.1,548,548,0,0,0,582.89,234.49Zm70.68-.77q4.29,27.36,6.63,52.8l-23.36,7.13q-2-28.33-4.71-53.77Zm22.1-32.19,2.12-10.79H640l-2.12,10.79Zm8-41H645.94l-2.12,10.79H681.6Zm-10.66,66.29h24.66L680.44,315H655.77Z" transform="translate(-1.09 -1)"/><g class="cls-5"><path class="cls-3" d="M141.21,602.33s1.33-182.66,4.33-182.66,51.67,23,52.34,39.66S176.54,541,176.54,541l-19,68.67S143.21,611.33,141.21,602.33Z" transform="translate(-1.09 -1)"/><path class="cls-3" d="M126.88,574s146.66,37,167.66,41.33c0,0,15.67-11,4.67-20.66s-166.67-71-171-71S123.54,570.67,126.88,574Z" transform="translate(-1.09 -1)"/><path class="cls-3" d="M271.21,410.33s-89.33,133-90,323l65.33,29s-20-181,44.34-339.33C290.88,423,279.21,412.33,271.21,410.33Z" transform="translate(-1.09 -1)"/><path class="cls-3" d="M308,486l2.69,1.54,24.31,14L281.54,836s4,36.5,15.5,42.5c0,0,49-83.5,84.5-380.5l-70-23S306.54,480.5,308,486Z" transform="translate(-1.09 -1)"/><path class="cls-3" d="M283.54,523.67s-2,36.83-2,41.83S389,615.33,389,615.33L381.54,669,262,621v63.5s180.5,70,204,71c0,0,8.5-27,0-56.5l-50-17s24.5-75.5,17.5-85.5S283.54,523.67,283.54,523.67Z" transform="translate(-1.09 -1)"/><ellipse class="cls-3" cx="405.86" cy="848.46" rx="31.25" ry="82.86" transform="translate(-202.93 129.62) rotate(-14.69)"/></g><path class="cls-4" d="M140.21,570.33s1.33-182.66,4.33-182.66,51.67,23,52.34,39.66S175.54,509,175.54,509l-19,68.67S142.21,579.33,140.21,570.33Z" transform="translate(-1.09 -1)"/><path class="cls-4" d="M125.88,542s146.66,37,167.66,41.33c0,0,15.67-11,4.67-20.66s-166.67-71-171-71S122.54,538.67,125.88,542Z" transform="translate(-1.09 -1)"/><path class="cls-4" d="M270.21,378.33s-89.33,133-90,323l65.33,29s-20-181,44.34-339.33C289.88,391,278.21,380.33,270.21,378.33Z" transform="translate(-1.09 -1)"/><path class="cls-4" d="M307,454l2.69,1.54,24.31,14L280.54,804s4,36.5,15.5,42.5c0,0,49-83.5,84.5-380.5l-70-23S305.54,448.5,307,454Z" transform="translate(-1.09 -1)"/><path class="cls-4" d="M282.54,491.67s-2,36.83-2,41.83S388,583.33,388,583.33L380.54,637,261,589v63.5s180.5,70,204,71c0,0,8.5-27,0-56.5l-50-17s24.5-75.5,17.5-85.5S282.54,491.67,282.54,491.67Z" transform="translate(-1.09 -1)"/><ellipse class="cls-4" cx="404.86" cy="816.46" rx="31.25" ry="82.86" transform="translate(-194.85 128.32) rotate(-14.69)"/><g class="cls-5"><path class="cls-3" d="M608.28,544.26s4.26-52.89,9.93-71.59c0,0,250.74-106.74,254.74-104.74s-120,210-120,210,190-52,107.33,125.33-252.4,218-252.4,218S860.21,729.33,744.5,643c0,0-17.62-17.63-54.22-8-17.54,4.6,76.67-151.67,76.67-157S613.61,533.93,608.28,544.26Z" transform="translate(-1.09 -1)"/></g><path class="cls-4" d="M607.28,512.26s4.26-52.89,9.93-71.59c0,0,250.74-106.74,254.74-104.74s-120,210-120,210,190-52,107.33,125.33-252.4,218-252.4,218S859.21,697.33,743.5,611c0,0-17.62-17.63-54.22-8-17.54,4.6,76.67-151.67,76.67-157S612.61,501.93,607.28,512.26Z" transform="translate(-1.09 -1)"/><g class="cls-5"><polyline class="cls-3" points="128.79 280 485.79 443 485.79 413"/><polyline class="cls-3" points="883.88 286.01 521.64 436.99 522.64 407.01"/><polyline class="cls-3" points="512.79 872 512.79 434 490.79 434"/><path class="cls-3" d="M420.19,396.33s59.51,10,204.09-.66c0,0-110.41,25.33-110.41,102H495.52s-24-60-75.33-90S420.19,396.33,420.19,396.33Z" transform="translate(-1.09 -1)"/></g><polyline class="cls-4" points="127.79 248 484.79 411 484.79 381"/><polyline class="cls-4" points="882.88 254.01 520.64 404.99 521.64 375.01"/><polyline class="cls-4" points="511.79 840 511.79 402 489.79 402"/><path class="cls-4" d="M419.19,364.33s59.51,10,204.09-.66c0,0-110.41,25.33-110.41,102H494.52s-24-60-75.33-90S419.19,364.33,419.19,364.33Z" transform="translate(-1.09 -1)"/></svg>