<?xml version="1.0" standalone="no"?><!DOCTYPE svg PUBLIC "-//W3C//DTD SVG 1.1//EN" "http://www.w3.org/Graphics/SVG/1.1/DTD/svg11.dtd"><svg t="1581926876217" class="icon" viewBox="0 0 1024 1024" version="1.1" xmlns="http://www.w3.org/2000/svg" p-id="2922" xmlns:xlink="http://www.w3.org/1999/xlink" width="200" height="200"><defs><style type="text/css"></style></defs><path d="M510.813 1021.626C228.655 1021.626 0 792.972 0 510.813 0 228.655 228.655 0 510.813 0c282.159 0 510.813 228.655 510.813 510.813 0 282.159-228.654 510.813-510.813 510.813z m0-972.986C256.21 48.64 48.64 256.233 48.64 510.836c0 254.604 207.593 462.173 462.173 462.173 254.604 0 462.173-207.592 462.173-462.173 0-254.603-207.593-462.173-462.173-462.173z" p-id="2923"></path><path d="M548.12 510.813l197.817-197.818c9.752-9.751 9.752-25.972 0-37.33l-1.629-1.629a25.46 25.46 0 0 0-35.653 0l-197.842 199.47L312.995 275.69a25.46 25.46 0 0 0-35.7 0l-1.63 1.629c-9.728 9.705-9.728 25.926 0 37.283l197.842 196.212-197.818 197.818c-9.752 9.752-9.752 25.973 0 37.306l1.629 1.63a25.46 25.46 0 0 0 35.654 0l197.841-199.448 197.818 197.818a25.46 25.46 0 0 0 35.7 0l1.63-1.629c9.728-9.704 9.728-25.925 0-37.283L548.119 510.813z" p-id="2924"></path></svg>