<svg id="图层_1" data-name="图层 1" xmlns="http://www.w3.org/2000/svg" xmlns:xlink="http://www.w3.org/1999/xlink" viewBox="0 0 1024 1024"><defs><style>.cls-1{fill:url(#未命名的渐变_6);}.cls-2{fill:#fff;}.cls-3{opacity:0.07;}.cls-4{fill:#040000;}</style><linearGradient id="未命名的渐变_6" x1="512" y1="1024" x2="512" gradientUnits="userSpaceOnUse"><stop offset="0.2" stop-color="#57a434"/><stop offset="0.89" stop-color="#a3ce64"/></linearGradient></defs><title>13</title><rect class="cls-1" width="1024" height="1024" rx="512"/><path class="cls-2" d="M413.35,541.28a7.5,7.5,0,0,1-.4-15c46.11-2.51,79.06-17.28,97.93-43.9,14-19.79,14.75-39.27,14.76-39.47a7.52,7.52,0,0,1,7.49-7.3h.19a7.5,7.5,0,0,1,7.31,7.65c0,1-.68,23.59-17,47-14.82,21.32-45.91,47.47-109.89,51Z" transform="translate(0 0)"/><path class="cls-2" d="M281,524.7a7.5,7.5,0,0,1-5.66-12.42c1.78-2,44.5-50.36,133.37-81.25,52-18,109-26.31,169.51-24.54,75.33,2.2,156.31,20,240.7,53,10.26,3.51,23,7.32,26.11,7.57a7.5,7.5,0,0,1,1.87,14.87c-5.87,1-25.57-5.76-33-8.3l-.3-.11c-187.28-73.21-320.88-55.81-400-28.32-85.13,29.59-126.56,76.45-127,76.92A7.45,7.45,0,0,1,281,524.7Zm563.45-57.57h0Z" transform="translate(0 0)"/><path class="cls-2" d="M879.72,615.37c-3.28,0-10.29,2.83-11.22-.48a7.52,7.52,0,0,1,5.2-9.25c30.09-8.42,47.55-20,50.5-33.48,3.79-17.3-16.44-34.73-16.65-34.9a7.51,7.51,0,0,1-2.62-6.44c2.47-25.93-2.72-37.5-7.51-42.64-3.92-4.22-8.13-4.48-8.19-4.48h-.5c-132.1-5.81-231.81,14.9-319.78,33.18-92.31,19.18-172,35.74-260.3,14.63-66.89-16-123.53-12.17-163.81,11.09C114.69,560,98,582.45,97.87,582.68a7.51,7.51,0,0,1-9.94,3.65c-3.75-1.73.59-6.15,2.31-9.91.48-1.07,12.31-26.36,46.09-46.23,19.56-11.51,42.55-18.88,68.31-21.91,31.79-3.73,68-.83,107.5,8.63,85,20.33,163.21,4.09,253.76-14.73,88.8-18.44,189.44-39.36,323.34-33.48,2.12,0,11.18.67,19.16,9.26,9.51,10.21,13.47,27.22,11.77,50.56,7,6.85,23.29,25.59,18.7,46.78-4.24,19.55-20.8,29.62-57.12,39.79A7.53,7.53,0,0,1,879.72,615.37Z" transform="translate(0 0)"/><path class="cls-2" d="M470,640.62c-3.62,0,5.19.37,4.6-3.32-.65-4.09-9.86-3.93-5.77-4.58,45.35-7.22,77.6-33.06,93.26-61.46,11.63-21.09,10.24-39.89,10.22-40.08a7.5,7.5,0,0,1,15-1.23c.08.95,1.76,23.54-12,48.55-12.54,22.74-40.77,52-104,62A8,8,0,0,1,470,640.62Z" transform="translate(0 0)"/><path class="cls-2" d="M680.06,644.21l-345.5-5c-4.14,0-7.5,1.64-7.5-2.5s3.36-3.5,7.5-2.5l345.5-4c4.15-1,7.5,2.35,7.5,6.5A7.5,7.5,0,0,1,680.06,644.21Z" transform="translate(0 0)"/><path class="cls-2" d="M683.6,600.71c-.87,0,.25-.15-.61-.47-3.88-1.44-.87-9.75.57-13.64a95,95,0,0,1,168.35-19.36,7.5,7.5,0,1,1-12.52,8.26,80,80,0,0,0-100.13-28.59c-19.42,8.92-41.21,28.87-48.63,48.9A7.5,7.5,0,0,1,683.6,600.71Z" transform="translate(0 0)"/><path class="cls-2" d="M142.14,564.29c-.78-.37.29,0-.34-.68-2.86-3,3.5-9.15,6.5-12A95,95,0,0,1,308.08,608,7.5,7.5,0,0,1,293.21,610a80,80,0,0,0-77.45-69.6c-21.37-.5-49.69,7.87-65.15,22.62A7.49,7.49,0,0,1,142.14,564.29Z" transform="translate(0 0)"/><g class="cls-3"><path class="cls-4" d="M770.86,693A106.34,106.34,0,1,0,877.2,799.33,106.34,106.34,0,0,0,770.86,693ZM744,712.83a25,25,0,1,1-25,25A25,25,0,0,1,744,712.83Zm10.5,178.84a44,44,0,1,1,44-44A44,44,0,0,1,754.53,891.67Zm69-74.67a35,35,0,1,1,35-35A35,35,0,0,1,823.53,817Z" transform="translate(0 0)"/><path class="cls-4" d="M183.88,898l31.34-176.15,56.1,0q31.9,0,41.11,2.66,14.18,4,21.86,17.25t3.94,34.31q-2.89,16.23-10.64,27.28a62.38,62.38,0,0,1-17.8,17.35,60.83,60.83,0,0,1-19.62,8.35q-13,2.52-36.71,2.51h-22.8L218.84,898Zm61-146.34-8.89,50h19.13q20.67,0,28.13-2.76a29.51,29.51,0,0,0,12.47-8.64,28.37,28.37,0,0,0,6.39-13.7q1.71-9.62-2.73-15.86a19.25,19.25,0,0,0-12.66-7.82q-6.06-1.2-25-1.21Z" transform="translate(0 0)"/><path class="cls-4" d="M345.71,898.05,377,721.89l35,0-13.92,78.22,84.55-78.19,47,0-77.41,68.58,49.61,107.57-45.24,0L423.73,815.4l-33.59,29.43-9.47,53.23Z" transform="translate(0 0)"/><path class="cls-4" d="M597.54,898.15H564.35L587,770.89a142.83,142.83,0,0,1-47.43,25.57L545,765.82q13.75-4.32,31.15-16.39t25.92-28.17l26.93,0Z" transform="translate(0 0)"/></g><path class="cls-2" d="M769.86,673A106.34,106.34,0,1,0,876.2,779.33,106.34,106.34,0,0,0,769.86,673ZM743,692.83a25,25,0,1,1-25,25A25,25,0,0,1,743,692.83Zm10.5,178.84a44,44,0,1,1,44-44A44,44,0,0,1,753.53,871.67Zm69-74.67a35,35,0,1,1,35-35A35,35,0,0,1,822.53,797Z" transform="translate(0 0)"/><path class="cls-2" d="M182.88,878l31.34-176.15,56.1,0q31.9,0,41.11,2.66,14.18,4,21.86,17.25t3.94,34.31q-2.89,16.23-10.64,27.28a62.38,62.38,0,0,1-17.8,17.35,60.83,60.83,0,0,1-19.62,8.35q-13,2.52-36.71,2.51h-22.8L217.84,878Zm61-146.34-8.89,50h19.13q20.67,0,28.13-2.76a29.51,29.51,0,0,0,12.47-8.64,28.37,28.37,0,0,0,6.39-13.7q1.71-9.62-2.73-15.86a19.25,19.25,0,0,0-12.66-7.82q-6.06-1.2-25-1.21Z" transform="translate(0 0)"/><path class="cls-2" d="M344.71,878.05,376,701.89l35,0-13.92,78.22,84.55-78.19,47,0-77.41,68.58,49.61,107.57-45.24,0L422.73,795.4l-33.59,29.43-9.47,53.23Z" transform="translate(0 0)"/><path class="cls-2" d="M596.54,878.15H563.35L586,750.89a142.83,142.83,0,0,1-47.43,25.57L544,745.82q13.75-4.32,31.15-16.39t25.92-28.17l26.93,0Z" transform="translate(0 0)"/><g class="cls-3"><polyline class="cls-4" points="563.12 273.99 517.73 273.99 517.73 247.23 705.77 247.23 705.77 337.81 678.2 367.28 597.43 367.28 597.43 344.52 663.19 344.52 663.19 273.99 604.52 273.99 555.85 367.28 514.93 367.28"/><polygon class="cls-4" points="481.11 195.67 307.77 195.67 307.77 167.67 489.11 167.67 481.11 195.67"/><polygon class="cls-4" points="481.11 278.33 307.77 278.33 307.77 250.33 489.11 250.33 481.11 278.33"/><polygon class="cls-4" points="481.11 361 307.77 361 307.77 333 489.11 333 481.11 361"/><polygon class="cls-4" points="554.36 236 512.36 236 570.36 165.5 612.36 165.5 554.36 236"/><polygon class="cls-4" points="676.86 236 718.86 236 660.86 165.5 618.86 165.5 676.86 236"/></g><polyline class="cls-2" points="562.12 253.99 516.73 253.99 516.73 227.23 704.77 227.23 704.77 317.81 677.2 347.28 596.43 347.28 596.43 324.52 662.19 324.52 662.19 253.99 603.52 253.99 554.85 347.28 513.93 347.28"/><polygon class="cls-2" points="480.11 175.67 306.77 175.67 306.77 147.67 488.11 147.67 480.11 175.67"/><polygon class="cls-2" points="480.11 258.33 306.77 258.33 306.77 230.33 488.11 230.33 480.11 258.33"/><polygon class="cls-2" points="480.11 341 306.77 341 306.77 313 488.11 313 480.11 341"/><polygon class="cls-2" points="553.36 216 511.36 216 569.36 145.5 611.36 145.5 553.36 216"/><polygon class="cls-2" points="675.86 216 717.86 216 659.86 145.5 617.86 145.5 675.86 216"/></svg>