<svg id="图层_1" data-name="图层 1" xmlns="http://www.w3.org/2000/svg" xmlns:xlink="http://www.w3.org/1999/xlink" viewBox="0 0 1024 1024"><defs><style>.cls-1{fill:url(#未命名的渐变_5);}.cls-2{opacity:0.2;}.cls-3{fill:#00468c;}.cls-4{fill:#fcfcfc;}.cls-5{fill:#fff;}</style><linearGradient id="未命名的渐变_5" x1="512" x2="512" y2="1024" gradientUnits="userSpaceOnUse"><stop offset="0" stop-color="#9cecfb"/><stop offset="1" stop-color="#0052d4"/></linearGradient></defs><title>15</title><rect class="cls-1" width="1024" height="1024" rx="512"/><g class="cls-2"><path class="cls-3" d="M141,454,103.5,673.5,159,670l41-39,29-184Zm21.5,187.5h-18l10-64h16Zm16-95h-18l10-64h16Z" transform="translate(-2 -2)"/><polygon class="cls-3" points="241 456 305 454 307 440 344 423 344 447 362 448 336 484 314 623 281 657 235.5 632.5 274.5 630.5 298.5 482.5 238.37 484.94 241 456"/><ellipse class="cls-3" cx="257" cy="544" rx="29.18" ry="21.18" transform="translate(-265.41 240.08) rotate(-34.59)"/><path class="cls-3" d="M389,432,351.5,651.5,407,648l41-39,29-184Zm21.5,187.5h-18l10-64h16Zm16-95h-18l10-64h16Z" transform="translate(-2 -2)"/><polygon class="cls-3" points="489 434 553 432 555 418 592 401 592 425 610 426 584 462 562 601 529 635 483.5 610.5 522.5 608.5 546.5 460.5 486.37 462.94 489 434"/><ellipse class="cls-3" cx="505" cy="522" rx="29.18" ry="21.18" transform="translate(-209.08 376.99) rotate(-34.59)"/><path class="cls-3" d="M639,414s84-3,111-14a270.88,270.88,0,0,0,46-24s-23,39-47,47-114,17-114,17Z" transform="translate(-2 -2)"/><rect class="cls-3" x="633" y="445" width="35" height="40"/><rect class="cls-3" x="676" y="440" width="35" height="40"/><polygon class="cls-3" points="728 436 764 436 750 478 716 478 728 436"/><polygon class="cls-3" points="620 503 671 499 671 487 708 487 707 493 756 493 740 518 700 522 686 622 650.5 612.5 666.5 528.5 615.5 529.5 620 503"/><path class="cls-3" d="M632.5,540.5h27s-15,67-24,76-50,16-50,16,29-26,35-41S632.5,540.5,632.5,540.5Z" transform="translate(-2 -2)"/><rect class="cls-3" x="704.5" y="529.5" width="36" height="82"/><path class="cls-3" d="M922,339s-56-3-91,43c-24.87,32.69-44.18,83-53.28,109.45-3.8,11-6.72,22.6-6.72,34.25v35c0,6,1.63,11.94,2.72,17.82A59.14,59.14,0,0,1,766,620c-15,25-49,72-46,93,2.25,15.76,24.77,28.13,35.87,33.33a12.27,12.27,0,0,1,7.13,11c0,8.12-2.58,20.06-17,25.7-23,9-33,16-48,16-12.49,0-190,1.39-249.06,1.85a83.68,83.68,0,0,0-35.22,8.09C380.76,824.58,304.48,858.6,248,867c0,0,80,32,132,28s127-62,150-64c19.66-1.71,133.56-.5,166.24-.11a67.85,67.85,0,0,0,19.83-2.7c14-4.08,38.38-15,55.93-31.19,26-24,25-54,23-68s-28-27-25-57,56-40,62-73-20-93-11-113S899,349,922,339Z" transform="translate(-2 -2)"/><path class="cls-3" d="M179.5,710.39l9.51-.84-.62,67.27,31.46-2.8-.07,8.18-41,3.64Z" transform="translate(-2 -2)"/><path class="cls-3" d="M289.4,737.53c-.24,26-15.77,41.11-34.56,42.78-19.45,1.73-33-12.5-32.76-35.34.22-24,14.9-40.92,34.56-42.66C276.74,700.52,289.6,715.15,289.4,737.53Zm-57.15,6.31c-.15,16.12,8.24,29.8,23.21,28.47s23.72-16.31,23.88-33.43c.14-15-7.37-30-23.21-28.59S232.4,727.28,232.25,743.84Z" transform="translate(-2 -2)"/><path class="cls-3" d="M313.25,706.78l-22.4,2,.08-8.28,54.52-4.85-.08,8.29-22.5,2-.62,67.16-9.61.85Z" transform="translate(-2 -2)"/><path class="cls-3" d="M371.7,701.59l-22.4,2,.07-8.29,54.52-4.84-.08,8.28-22.5,2-.62,67.16-9.61.86Z" transform="translate(-2 -2)"/><path class="cls-3" d="M449.84,726.4,421.22,729l-.25,27.2,31.9-2.84-.08,8.17-41.4,3.68.69-75.44,39.77-3.53-.08,8.17-30.26,2.69-.22,23.84,28.63-2.55Z" transform="translate(-2 -2)"/><path class="cls-3" d="M465.82,686a100.41,100.41,0,0,1,18.26-3.19c10.16-.9,16.69.42,21.24,4.26,3.69,3,5.72,8,5.66,13.82-.09,10-6.27,17.11-14.05,20.48v.34c5.66,1.51,9,6.58,10.67,14.26,2.31,10.31,4,17.43,5.5,20.2l-9.84.88c-1.18-2-2.76-8.37-4.75-17.59-2.09-10.21-6-13.78-14.61-13.35l-9,.8-.3,32.68-9.5.85ZM475,719.47l9.72-.86c10.16-.91,16.66-7.19,16.74-15.81.09-9.74-6.76-13.38-16.81-12.6a40.07,40.07,0,0,0-9.4,1.73Z" transform="translate(-2 -2)"/><path class="cls-3" d="M539.1,753.81l.29-32-22.87-41.36,10.81-1,10.19,19.89c2.79,5.46,4.93,9.85,7.18,14.91l.22,0c2.12-5.11,4.67-10.26,7.57-16.22l10.79-21.76,10.81-1L549,720.83,548.71,753Z" transform="translate(-2 -2)"/><path class="cls-3" d="M328.89,348.66q69.54-31.11,88.39-80.43l-73.38,4.32,2.18-13,75.2-4.42q2.82-12.19,7.82-42l-66.43,3.91,2.18-13,149.87-8.81-2.18,13-68.17,4q-3.18,17.9-7.73,42l77.71-4.57-2.18,13-75.38,4.43q7.47,53.28,65.62,68-8.52,8.81-14.35,14.91-52.77-19.17-61.93-70-21.81,49-88.67,81Q334.6,356.62,328.89,348.66Z" transform="translate(-2 -2)"/><path class="cls-3" d="M536.9,279A100.61,100.61,0,0,0,550,283.81q-12.9,31.76-26.24,65.25l-14.52-3.55Q522.22,318.32,536.9,279Zm-3.66-48.75a304,304,0,0,1,26.48,21.31l-11.9,11.55Q532,247.59,522.93,240.5Zm14.18-44.55q11.91,9.81,25.49,23.07-6.84,6-12.13,10.88-16-17.37-23.79-24ZM571,252.92l43.37-2.55,2.82-16.77-54.13,3.19,1.9-11.3,54.12-3.18,2.85-16.94-43.37,2.55,1.9-11.3,43.36-2.55,2.85-16.94,13.18-.77L637,193.3l47.87-2.82-4.74,28.24,16-.94-1.89,11.29-16,.94-5.66,33.71-12.84.76,1-5.65-35,2.06-2.79,16.6,52.39-3.08-1.9,11.29L621,288.78l-2.9,17.29,63.14-3.72-1.89,11.3-63.14,3.71-4.63,27.55-13.18.78L603,318.14l-55.51,3.26,1.9-11.29,55.51-3.27,2.9-17.28-47.53,2.79,1.9-11.29,47.53-2.79,2.78-16.6-43.36,2.55Zm56.55-3.32,35-2.06,2.82-16.77-35,2.06Zm42.6-47.07-35,2.06-2.84,16.94,35-2.06Z" transform="translate(-2 -2)"/></g><path class="cls-4" d="M141,439,103.5,658.5,159,655l41-39,29-184Zm21.5,187.5h-18l10-64h16Zm16-95h-18l10-64h16Z" transform="translate(-2 -2)"/><polygon class="cls-4" points="241 441 305 439 307 425 344 408 344 432 362 433 336 469 314 608 281 642 235.5 617.5 274.5 615.5 298.5 467.5 238.37 469.94 241 441"/><ellipse class="cls-4" cx="257" cy="529" rx="29.18" ry="21.18" transform="translate(-256.9 237.43) rotate(-34.59)"/><path class="cls-4" d="M389,417,351.5,636.5,407,633l41-39,29-184Zm21.5,187.5h-18l10-64h16Zm16-95h-18l10-64h16Z" transform="translate(-2 -2)"/><polygon class="cls-4" points="489 419 553 417 555 403 592 386 592 410 610 411 584 447 562 586 529 620 483.5 595.5 522.5 593.5 546.5 445.5 486.37 447.94 489 419"/><ellipse class="cls-4" cx="505" cy="507" rx="29.18" ry="21.18" transform="translate(-200.56 374.33) rotate(-34.59)"/><path class="cls-5" d="M639,399s84-3,111-14a270.88,270.88,0,0,0,46-24s-23,39-47,47-114,17-114,17Z" transform="translate(-2 -2)"/><rect class="cls-5" x="633" y="430" width="35" height="40"/><rect class="cls-5" x="676" y="425" width="35" height="40"/><polygon class="cls-5" points="728 421 764 421 750 463 716 463 728 421"/><polygon class="cls-4" points="620 488 671 484 671 472 708 472 707 478 756 478 740 503 700 507 686 607 650.5 597.5 666.5 513.5 615.5 514.5 620 488"/><path class="cls-5" d="M632.5,525.5h27s-15,67-24,76-50,16-50,16,29-26,35-41S632.5,525.5,632.5,525.5Z" transform="translate(-2 -2)"/><rect class="cls-4" x="704.5" y="514.5" width="36" height="82"/><path class="cls-4" d="M922,324s-56-3-91,43c-24.87,32.69-44.18,83-53.28,109.45-3.8,11-6.72,22.6-6.72,34.25v35.05c0,6,1.63,11.94,2.72,17.82A59.14,59.14,0,0,1,766,605c-15,25-49,72-46,93,2.25,15.76,24.77,28.13,35.87,33.33a12.27,12.27,0,0,1,7.13,11c0,8.12-2.58,20.06-17,25.7-23,9-33,16-48,16-12.49,0-190,1.39-249.06,1.85a83.68,83.68,0,0,0-35.22,8.09C380.76,809.58,304.48,843.6,248,852c0,0,80,32,132,28s127-62,150-64c19.66-1.71,133.56-.5,166.24-.11a67.85,67.85,0,0,0,19.83-2.7c14-4.08,38.38-15,55.93-31.19,26-24,25-54,23-68s-28-27-25-57,56-40,62-73-20-93-11-113S899,334,922,324Z" transform="translate(-2 -2)"/><path class="cls-5" d="M179.5,695.39l9.51-.84-.62,67.27,31.46-2.8-.07,8.18-41,3.64Z" transform="translate(-2 -2)"/><path class="cls-5" d="M289.4,722.53c-.24,26-15.77,41.11-34.56,42.78-19.45,1.73-33-12.5-32.76-35.34.22-24,14.9-40.92,34.56-42.66C276.74,685.52,289.6,700.15,289.4,722.53Zm-57.15,6.31c-.15,16.12,8.24,29.8,23.21,28.47s23.72-16.31,23.88-33.43c.14-15-7.37-30-23.21-28.59S232.4,712.28,232.25,728.84Z" transform="translate(-2 -2)"/><path class="cls-5" d="M313.25,691.78l-22.4,2,.08-8.28,54.52-4.85-.08,8.29-22.5,2-.62,67.16-9.61.85Z" transform="translate(-2 -2)"/><path class="cls-5" d="M371.7,686.59l-22.4,2,.07-8.29,54.52-4.84-.08,8.28-22.5,2-.62,67.16-9.61.86Z" transform="translate(-2 -2)"/><path class="cls-5" d="M449.84,711.4,421.22,714l-.25,27.2,31.9-2.84-.08,8.17-41.4,3.68.69-75.44,39.77-3.53-.08,8.17-30.26,2.69-.22,23.84,28.63-2.55Z" transform="translate(-2 -2)"/><path class="cls-5" d="M465.82,671a100.41,100.41,0,0,1,18.26-3.19c10.16-.9,16.69.42,21.24,4.26,3.69,3,5.72,8,5.66,13.82-.09,10-6.27,17.11-14.05,20.48v.34c5.66,1.51,9,6.58,10.67,14.26,2.31,10.31,4,17.43,5.5,20.2l-9.84.88c-1.18-2-2.76-8.37-4.75-17.59-2.09-10.21-6-13.78-14.61-13.35l-9,.8-.3,32.68-9.5.85ZM475,704.47l9.72-.86c10.16-.91,16.66-7.19,16.74-15.81.09-9.74-6.76-13.38-16.81-12.6a40.07,40.07,0,0,0-9.4,1.73Z" transform="translate(-2 -2)"/><path class="cls-5" d="M539.1,738.81l.29-32-22.87-41.36,10.81-1,10.19,19.89c2.79,5.46,4.93,9.85,7.18,14.91l.22,0c2.12-5.11,4.67-10.26,7.57-16.22l10.79-21.76,10.81-1L549,705.83,548.71,738Z" transform="translate(-2 -2)"/><path class="cls-5" d="M328.89,333.66q69.54-31.11,88.39-80.43l-73.38,4.32,2.18-13,75.2-4.42q2.82-12.19,7.82-42l-66.43,3.91,2.18-13,149.87-8.81-2.18,13-68.17,4q-3.18,17.9-7.73,42l77.71-4.57-2.18,13-75.38,4.43q7.47,53.28,65.62,68-8.52,8.81-14.35,14.91-52.77-19.17-61.93-70-21.81,49-88.67,81Q334.6,341.62,328.89,333.66Z" transform="translate(-2 -2)"/><path class="cls-5" d="M536.9,264A100.61,100.61,0,0,0,550,268.81q-12.9,31.76-26.24,65.25l-14.52-3.55Q522.22,303.32,536.9,264Zm-3.66-48.75a304,304,0,0,1,26.48,21.31l-11.9,11.55Q532,232.59,522.93,225.5Zm14.18-44.55q11.91,9.81,25.49,23.07-6.84,6-12.13,10.88-16-17.37-23.79-24ZM571,237.92l43.37-2.55,2.82-16.77-54.13,3.19,1.9-11.3,54.12-3.18,2.85-16.94-43.37,2.55,1.9-11.3,43.36-2.55,2.85-16.94,13.18-.77L637,178.3l47.87-2.82-4.74,28.24,16-.94-1.89,11.29-16,.94-5.66,33.71-12.84.76,1-5.65-35,2.06-2.79,16.6,52.39-3.08-1.9,11.29L621,273.78l-2.9,17.29,63.14-3.72-1.89,11.3-63.14,3.71-4.63,27.55-13.18.78L603,303.14l-55.51,3.26,1.9-11.29,55.51-3.27,2.9-17.28-47.53,2.79,1.9-11.29,47.53-2.79,2.78-16.6-43.36,2.55Zm56.55-3.32,35-2.06,2.82-16.77-35,2.06Zm42.6-47.07-35,2.06-2.84,16.94,35-2.06Z" transform="translate(-2 -2)"/></svg>