<svg id="图层_1" data-name="图层 1" xmlns="http://www.w3.org/2000/svg" xmlns:xlink="http://www.w3.org/1999/xlink" viewBox="0 0 1024 1024"><defs><style>.cls-1{fill:url(#未命名的渐变_75);}.cls-2{opacity:0.23;}.cls-3{fill:#bf223a;}.cls-4{fill:#fff;}</style><linearGradient id="未命名的渐变_75" x1="512" y1="1024" x2="512" gradientUnits="userSpaceOnUse"><stop offset="0.18" stop-color="#da1a80"/><stop offset="0.89" stop-color="#ea6464"/></linearGradient></defs><title>18</title><rect class="cls-1" width="1024" height="1024" rx="512"/><g class="cls-2"><circle class="cls-3" cx="327.29" cy="274.33" r="34"/><circle class="cls-3" cx="420.63" cy="202.33" r="35.33"/><circle class="cls-3" cx="534.29" cy="171.67" r="40.33"/><circle class="cls-3" cx="664.54" cy="172.58" r="43.25"/><circle class="cls-3" cx="786.38" cy="234.42" r="51.75"/></g><circle class="cls-4" cx="327.29" cy="265.33" r="34"/><circle class="cls-4" cx="420.63" cy="193.33" r="35.33"/><circle class="cls-4" cx="534.29" cy="162.67" r="40.33"/><circle class="cls-4" cx="664.54" cy="163.58" r="43.25"/><circle class="cls-4" cx="786.38" cy="225.42" r="51.75"/><circle class="cls-4" cx="277.29" cy="351.33" r="25.33"/><polyline class="cls-4" points="309.54 367.27 385.29 367.27 381.04 394.67 167.56 394.67 171.82 367.27 253.38 367.27"/><polygon class="cls-4" points="613.04 429.91 597.66 460.75 399.75 460.75 400.13 429.91 613.04 429.91"/><path class="cls-4" d="M397.13,472.2l-13.86,93.12H582.8l17.86-93.12Zm151.23,68.59h-120l6.46-42.06h122Z" transform="translate(-1.09 -1)"/><path class="cls-4" d="M298.38,410.67h43.67s-24.67,71.66,3.67,157h-45S275.38,487.33,298.38,410.67Z" transform="translate(-1.09 -1)"/><path class="cls-4" d="M189.05,410.65h46s-2.67,99.67-57,160.67H132.8S189.05,489,189.05,410.65Z" transform="translate(-1.09 -1)"/><polygon class="cls-4" points="406.17 416.25 493.17 335 550.04 335 617.79 415.63 555.54 416.88 519.17 367.27 468.17 416.88 406.17 416.25"/><polygon class="cls-4" points="655.63 356 792.96 348.33 777.63 383 652.96 386.33 655.63 356"/><polygon class="cls-4" points="652.96 392.33 683.63 392.33 689.29 434 655.63 434 652.96 392.33"/><rect class="cls-4" x="697.63" y="392.33" width="32.33" height="43.67"/><polygon class="cls-4" points="747.29 392.33 783.63 392.33 768.96 434 734.63 434 747.29 392.33"/><polygon class="cls-4" points="643.96 446.5 690.29 446.5 692.21 438.25 730.71 438.25 729.28 446.54 779.71 445.25 762.96 471.5 751.71 471.5 751.71 561 721.96 559.25 721.96 487.23 721.96 487.23 711.84 558 669.21 572.5 684.71 473 682.71 473 658.71 563.07 622.96 563.07 659.96 472.5 636.71 472.5 643.96 446.5"/><polygon class="cls-4" points="854.38 342.67 853.54 343.52 795.71 402.67 820.38 432.91 786.38 483.67 854.38 431 826.71 399.33 854.38 342.67"/><polygon class="cls-4" points="843.29 456 767.29 521 783.63 547.5 680.79 674 823.29 557.5 801.79 523.5 843.29 456"/><rect class="cls-4" x="132.29" y="590" width="597.67" height="16"/><rect class="cls-4" x="797.96" y="590" width="85.35" height="16"/><path class="cls-4" d="M311.77,636a11.57,11.57,0,0,0-4,1.72,6.31,6.31,0,0,0-1.8,2.49,29.21,29.21,0,0,0-1.37,5.53l-8.19,45.73a34.49,34.49,0,0,0-.61,5.1,4.54,4.54,0,0,0,.74,2.86c.51.65,1.69,1.23,3.54,1.76l-.63,3.49-26.17,0,.63-3.48a20.22,20.22,0,0,0,3.31-1.12,4.75,4.75,0,0,0,1.57-1.25,7.2,7.2,0,0,0,1.13-2.33,42.45,42.45,0,0,0,1.16-5.15l4.63-25.91q.78-4.28,2-10.09c.79-3.88,1.39-6.63,1.78-8.25h-1.07c-.66,1.41-1.35,2.79-2.05,4.15s-2,3.79-3.87,7.28L262,696.81l-9,0L246.3,654q-.63-3.66-1-7.24h-.92q-1.05,8.71-3.18,20.62l-4.35,24.32a27.45,27.45,0,0,0-.62,5.44,4,4,0,0,0,1,2.54,7.1,7.1,0,0,0,3.42,1.68l-.62,3.49-19.28,0,.62-3.49a15.24,15.24,0,0,0,3.19-1.17,5.46,5.46,0,0,0,2-1.69,8.21,8.21,0,0,0,1.17-2.7c.28-1.09.58-2.49.88-4.18l8.19-45.73a30.43,30.43,0,0,0,.65-5.5,4,4,0,0,0-.87-2.43,7.82,7.82,0,0,0-3.5-1.79l.63-3.49,25.35-.05L265.4,676l23.07-43.44,23.92-.05Z" transform="translate(-1.09 -1)"/><path class="cls-4" d="M360,682.22l-21.78,0-2.58,5c-.73,1.41-1.36,2.78-1.9,4.1a20.49,20.49,0,0,0-1.22,4.21c-.61,3.45.82,5.3,4.31,5.53l-.62,3.49-21.78,0,.62-3.49a7.46,7.46,0,0,0,3.57-1.38,14.87,14.87,0,0,0,3.16-3.18,43.73,43.73,0,0,0,3.54-5.76l31.78-58.79,13.62,0L377,691.22a39,39,0,0,0,.88,5.62,5.94,5.94,0,0,0,1.51,2.69,6.27,6.27,0,0,0,3.15,1.5l-.63,3.49-28.15.07.62-3.49a8,8,0,0,0,4.2-1.55,5.44,5.44,0,0,0,1.89-3.43,20.41,20.41,0,0,0,.3-3.65c0-1.34-.09-3-.27-5.08Zm-18.73-6.14,18.36-.05-2.83-29.74Z" transform="translate(-1.09 -1)"/><path class="cls-4" d="M425.09,704.43l-26.78.06.62-3.49a17,17,0,0,0,3.19-1.15,5,5,0,0,0,1.94-1.69,9.48,9.48,0,0,0,1.18-2.75c.3-1.11.6-2.51.9-4.21l8.16-45.57c.3-1.66.5-3,.62-4.18a6.69,6.69,0,0,0-.17-2.74,3.24,3.24,0,0,0-1.32-1.72,10.27,10.27,0,0,0-2.83-1.18l.63-3.49,29.74-.07a49.17,49.17,0,0,1,10.07.85,21,21,0,0,1,6.89,2.66,11.79,11.79,0,0,1,3.82,3.71,13.39,13.39,0,0,1,1.9,5.23,21.63,21.63,0,0,1-.25,6.95,23.78,23.78,0,0,1-3.35,8.89,23.29,23.29,0,0,1-5.85,6.17,42.32,42.32,0,0,1-8.81,4.64l-.1.53a13.67,13.67,0,0,1,5.44,4.51,23.11,23.11,0,0,1,3.18,7.15l1.93,7.18a23,23,0,0,0,3,7.21,6.8,6.8,0,0,0,4.5,2.92l-.63,3.49-19.64,0a65.84,65.84,0,0,1-4.43-12.57l-2.36-9a26.19,26.19,0,0,0-2-5.71,5.72,5.72,0,0,0-2.21-2.32,9.43,9.43,0,0,0-4.05-.62h-3l-3,17a28.74,28.74,0,0,0-.64,5.55,3.91,3.91,0,0,0,.92,2.53,7.52,7.52,0,0,0,3.47,1.69Zm6.28-65.87L426.11,668h5.05a19,19,0,0,0,6.94-1.15,13.4,13.4,0,0,0,4.77-3.18,14.88,14.88,0,0,0,3-4.8,31.66,31.66,0,0,0,1.67-6q1.29-7.2-1.33-10.78t-9-3.58Q432.77,638.46,431.37,638.56Z" transform="translate(-1.09 -1)"/><path class="cls-4" d="M537.11,690.12q1.42,3.17,2.44,5a20.59,20.59,0,0,0,1.85,2.93,6.75,6.75,0,0,0,1.72,1.61,10.46,10.46,0,0,0,2.44,1l-.61,3.44-27.65.06.63-3.49a5.16,5.16,0,0,0,2.5-.88,2.62,2.62,0,0,0,.9-1.61,6.2,6.2,0,0,0,.07-1.66,11.19,11.19,0,0,0-.67-2.41c-.39-1-1.21-3-2.48-5.81l-5.57-12.46a26.8,26.8,0,0,0-1.84-3.53,5.4,5.4,0,0,0-1.76-1.82,5.6,5.6,0,0,0-2.78-.55h-1l-3.76,21c-.22,1.23-.39,2.38-.51,3.44A11,11,0,0,0,501,697a3.77,3.77,0,0,0,.59,1.69,3.83,3.83,0,0,0,1.39,1.18,10,10,0,0,0,2.35.87l-.63,3.49-26.78.06.63-3.49a17.69,17.69,0,0,0,3.18-1.14,5.08,5.08,0,0,0,1.94-1.7,9.11,9.11,0,0,0,1.18-2.75c.3-1.11.6-2.51.91-4.2l8.15-45.58c.3-1.65.51-3.05.63-4.17a6.88,6.88,0,0,0-.18-2.75,3.24,3.24,0,0,0-1.32-1.72,10.06,10.06,0,0,0-2.82-1.18l.62-3.49,26.78-.06-.62,3.49a12.86,12.86,0,0,0-3.37,1.28,5.84,5.84,0,0,0-1.77,1.64,9,9,0,0,0-1.12,2.43,37.47,37.47,0,0,0-1,4.5l-3.37,18.82h1.07a11.83,11.83,0,0,0,3.82-.54,11.35,11.35,0,0,0,3.17-1.91q1.7-1.38,6.76-6.44t7.41-7.78a30.53,30.53,0,0,0,3.36-4.5,10.91,10.91,0,0,0,1.31-3.52,3.16,3.16,0,0,0-.67-2.9,4.42,4.42,0,0,0-3.2-1.11l.63-3.49L556,632l-.64,3.59a13.28,13.28,0,0,0-3.51,1.12,21,21,0,0,0-3.6,2.41q-2.09,1.68-5.41,4.9l-18.49,17.8Z" transform="translate(-1.09 -1)"/><path class="cls-4" d="M796.73,691.57c-.22,1.23-.39,2.38-.51,3.43a11,11,0,0,0-.06,2.59,3.73,3.73,0,0,0,.59,1.69,3.85,3.85,0,0,0,1.39,1.19,10.51,10.51,0,0,0,2.35.86l-.63,3.49-26.78.06.63-3.49a16.27,16.27,0,0,0,3.18-1.14,5.05,5.05,0,0,0,1.94-1.69A9.17,9.17,0,0,0,780,695.8c.3-1.11.6-2.51.91-4.2L789.08,646c.31-1.69.51-3.08.63-4.17a6.82,6.82,0,0,0-.18-2.72,3.1,3.1,0,0,0-1.32-1.72,11,11,0,0,0-2.83-1.15l.62-3.5,26.78-.05-.62,3.49a13.53,13.53,0,0,0-3.31,1.24,6,6,0,0,0-1.79,1.62,8.37,8.37,0,0,0-1.16,2.49,38.52,38.52,0,0,0-1,4.49Z" transform="translate(-1.09 -1)"/><path class="cls-4" d="M853.66,632.56l-.62,3.49a7.5,7.5,0,0,0-3.6,1.15,4.05,4.05,0,0,0-1.47,2.67,6.54,6.54,0,0,0,0,2,14.7,14.7,0,0,0,.69,2.73c.35,1,1,2.71,1.86,5l3.28,8.18,7.86-9.42a41.82,41.82,0,0,0,3.58-4.79,10.63,10.63,0,0,0,1.33-3.57,3,3,0,0,0-.64-2.72A4.34,4.34,0,0,0,863,636l.62-3.49,21.07,0-.64,3.54a11.39,11.39,0,0,0-3.05,1.35,21.87,21.87,0,0,0-3.6,3.07c-1.42,1.44-3.73,4-7,7.82l-13.93,16.3L868.08,693c.41,1,.83,1.89,1.26,2.83a22.69,22.69,0,0,0,1.29,2.48,7.69,7.69,0,0,0,1.19,1.61,4.63,4.63,0,0,0,1.1.81,4.87,4.87,0,0,0,1.19.45l-.62,3.49-28.36.06.62-3.49a7.89,7.89,0,0,0,3.52-1.11,4,4,0,0,0,1.55-2.7,5.63,5.63,0,0,0,.07-1.38,11.48,11.48,0,0,0-.29-1.79,17.55,17.55,0,0,0-.53-1.88c-.19-.54-.59-1.59-1.2-3.14L844,677.14l-10.6,12.76c-.83,1-1.54,2-2.13,2.81a13.17,13.17,0,0,0-1.34,2.32,12.35,12.35,0,0,0-.7,2.49,2.84,2.84,0,0,0,.66,2.48,4.21,4.21,0,0,0,2.91,1.26l-.63,3.49-21.12,0,.63-3.49a11.89,11.89,0,0,0,3.37-1.62,25.39,25.39,0,0,0,3.63-3.15q2-2.07,5.71-6.41l16.85-19.8L832.3,648.2c-1-2.39-1.81-4.38-2.52-6a30,30,0,0,0-1.88-3.62,7.09,7.09,0,0,0-1.49-1.77,4.32,4.32,0,0,0-1.73-.73l.62-3.49Z" transform="translate(-1.09 -1)"/><path class="cls-4" d="M354,823.91q5.33-26.13,7.22-44l14.95,1.55q-2.4,20.63-7.22,45.2Q361.42,825.12,354,823.91Zm53.28-.69H446q1-13,1.64-33.86H416.68l8.51,13.75L409,811.88l-9.28-20.28V911.22H377.41V741.75h22.34v35.92l7.22-3.95,9.62,15.47V767.53h31.46l.34-25.43h22.34l-.34,25.43H512.5v55.69h12v21.83H476.15q14.87,31.11,48.38,43.31-5.67,8.6-13.92,22.52-34.29-13.75-49.93-53.46-9.1,31.64-44.09,54.49-7.72-12-15.64-22.17,32.15-16.68,41.34-44.69h-35Zm83.19-33.86H470.05q.17,13.57-1.38,33.86H490.5Z" transform="translate(-1.09 -1)"/><path class="cls-4" d="M606.69,887q34.37,1,95.73-.35-5,12.72-8.25,21.66-50.19,0-92.47-.86-26.12,0-41.42-16.67-6.87,7.9-18.73,21.31l-9.63-25.61q6.87-6.18,16.16-14.09v-48h-15.3V801.74h36.78v70.81Q579.7,887,606.69,887ZM555.64,741.58q12,18.23,20.8,33.69Q563.38,782,555.3,786.44q-8.43-17.54-18.74-34.72Zm101.24,97.28q23,11.17,44,22.86l-11,18q-21.66-13.23-40.22-23.21v26.82H627.83V854.85a126.67,126.67,0,0,1-35.06,25.95,170.75,170.75,0,0,0-14.1-19.59,111,111,0,0,0,42.63-23.9H587.09v-49.5h40.74V777.16H581.25V756.53h46.58V741.75h21.83v14.78h47.09v20.63H649.66v10.65h40.9v49.5h-40.9v13.24Zm-50.54-19.42h21.49V805.69H606.34Zm65-13.75H649.66v13.75h21.65Z" transform="translate(-1.09 -1)"/></svg>