<svg id="图层_1" data-name="图层 1" xmlns="http://www.w3.org/2000/svg" xmlns:xlink="http://www.w3.org/1999/xlink" viewBox="0 0 1024 1024"><defs><style>.cls-1{fill:url(#未命名的渐变_8);}.cls-2{opacity:0.2;}.cls-3{fill:#ff4800;}.cls-4{fill:#fff;}</style><linearGradient id="未命名的渐变_8" x1="512" x2="512" y2="1024" gradientUnits="userSpaceOnUse"><stop offset="0" stop-color="#fdc830"/><stop offset="1" stop-color="#f37335"/></linearGradient></defs><title>29</title><rect class="cls-1" width="1024" height="1024" rx="512"/><g class="cls-2"><polygon class="cls-3" points="406 203 377 203 366 350 317 355 317 375 477 363 487 340 397.5 345.5 401.5 261.5 482.5 256.5 491.5 233.5 404.5 236.5 406 203"/><polygon class="cls-3" points="577.5 185.5 680.5 185.5 677.5 202.5 592.5 206.5 586.5 219.5 563.5 219.5 577.5 185.5"/><polygon class="cls-3" points="516.5 295.5 546.5 295.5 546.5 341.5 516.5 360.5 516.5 295.5"/><path class="cls-3" d="M245.5,494.5l84-8,8-50h43l-7,43h17v15h-22s-23,157-39,171-53,21-75,14-28-20-28-20,60,7,68-11,29-147,29-147l-79,3Z" transform="translate(-1)"/><path class="cls-3" d="M240.5,526.5h44s2,77,14,83l-38.12,2.24a7.82,7.82,0,0,1-7.29-4c-2.75-4.89-6.73-14.52-8.59-31.28C241.5,549.5,240.5,526.5,240.5,526.5Z" transform="translate(-1)"/><path class="cls-3" d="M144.5,464.5l-44,224,36.67-1.64,0-2.09,30.37.73s20-2,32-14,39-207,39-207H193.33l-.16,5H181.25v-5Zm16,208c-11,6-23,2-20-12s17-86,17-86l23-1S171.5,666.5,160.5,672.5Zm38.68-190.3L184.5,567.5h-27l17.19-84.15a11.06,11.06,0,0,1,10.84-8.85h7.16A6.59,6.59,0,0,1,199.18,482.2Z" transform="translate(-1)"/><path class="cls-3" d="M517.5,467.5l84-8,8-50h43l-7,43h17v15h-22s-23,157-39,171-53,21-75,14-28-20-28-20,60,7,68-11,29-147,29-147l-79,3Z" transform="translate(-1)"/><path class="cls-3" d="M512.5,499.5h44s2,77,14,83l-38.12,2.24a7.82,7.82,0,0,1-7.29-4c-2.75-4.89-6.73-14.52-8.59-31.28C513.5,522.5,512.5,499.5,512.5,499.5Z" transform="translate(-1)"/><path class="cls-3" d="M416.5,437.5l-44,224,36.67-1.64,0-2.09,30.37.73s20-2,32-14,39-207,39-207H465.33l-.16,5H453.25v-5Zm16,208c-11,6-23,2-20-12s17-86,17-86l23-1S443.5,639.5,432.5,645.5Zm38.68-190.3L456.5,540.5h-27l17.19-84.15a11.06,11.06,0,0,1,10.84-8.85h7.16A6.59,6.59,0,0,1,471.18,455.2Z" transform="translate(-1)"/><path class="cls-3" d="M927,383l-70,5s-.5,18.5-51.5,23.5S711,417,693,430s-23,84-15,90,84.5-.5,84.5-.5-2,90-19,92-38,0-38,0,12,29,42,27,46-14,53-51,12-77,12-77l90-2,2-16-89,4,12-59-49,3-10,70h-46s-6-67,11-76,36-13.66,115-17C919.5,414.5,927,383,927,383Z" transform="translate(-1)"/><path class="cls-3" d="M683.5,549.5h47s-31,72-61,80-35,0-35,0S685.5,570.5,683.5,549.5Z" transform="translate(-1)"/><path class="cls-3" d="M838.5,548.5s21.89,21.66,12,56c-19,66-66,102-48,126,11.63,15.51,23.27,18.49,30,18.66a5.82,5.82,0,0,1,5.6,6.5c-1.41,12.05-7.86,35.13-36.64,35.84-104.62,2.6-175.78,3.72-235.78,5.31a89.74,89.74,0,0,0-41.6,11.48c-9.1,5.11-22.83,11.36-42.62,17.21-44,13-80,22-80,22s18,22,79,27c44.13,3.62,100.29-24.69,128-40.62a79.63,79.63,0,0,1,38.76-10.63l119.83-1.39a113.16,113.16,0,0,0,68.36-23.81c9.24-7.21,18.19-15.62,24.07-24.55,27-41-15-61-19-81-3.16-15.81,50-49,50-89,0-30.15-24-68-48-68C831.5,535.5,838.5,548.5,838.5,548.5Z" transform="translate(-1)"/><path class="cls-3" d="M171.5,728.39l9.51-.84-.62,67.27,31.46-2.8-.07,8.18-41,3.64Z" transform="translate(-1)"/><path class="cls-3" d="M281.4,755.53c-.24,26-15.77,41.11-34.56,42.78-19.45,1.73-33-12.5-32.76-35.34.22-24,14.9-40.92,34.56-42.66C268.74,718.52,281.6,733.15,281.4,755.53Zm-57.15,6.31c-.15,16.12,8.24,29.8,23.21,28.47s23.72-16.31,23.88-33.43c.14-15-7.37-30-23.21-28.59S224.4,745.28,224.25,761.84Z" transform="translate(-1)"/><path class="cls-3" d="M305.25,724.78l-22.4,2,.08-8.28,54.52-4.85-.08,8.29-22.5,2-.62,67.16-9.61.85Z" transform="translate(-1)"/><path class="cls-3" d="M363.7,719.59l-22.4,2,.07-8.29,54.52-4.84-.08,8.28-22.5,2-.62,67.16-9.61.86Z" transform="translate(-1)"/><path class="cls-3" d="M441.84,744.4,413.22,747l-.25,27.2,31.9-2.84-.08,8.17-41.4,3.68.69-75.44,39.77-3.53-.08,8.17-30.26,2.69-.22,23.84,28.63-2.55Z" transform="translate(-1)"/><path class="cls-3" d="M457.82,704a100.41,100.41,0,0,1,18.26-3.19c10.16-.9,16.69.42,21.24,4.26,3.69,3,5.72,8,5.66,13.82-.09,10-6.27,17.11-14.05,20.48v.34c5.66,1.51,9,6.58,10.67,14.26,2.31,10.31,4,17.43,5.5,20.2l-9.84.88c-1.18-2-2.76-8.37-4.75-17.59-2.09-10.21-6-13.78-14.61-13.35l-9,.8-.3,32.68-9.5.85ZM467,737.47l9.72-.86c10.16-.91,16.66-7.19,16.74-15.81.09-9.74-6.76-13.38-16.81-12.6a40.07,40.07,0,0,0-9.4,1.73Z" transform="translate(-1)"/><path class="cls-3" d="M531.1,771.81l.29-32-22.87-41.36,10.81-1,10.19,19.89c2.79,5.46,4.93,9.85,7.18,14.91l.22,0c2.12-5.11,4.67-10.26,7.57-16.22l10.79-21.76,10.81-1L541,738.83,540.71,771Z" transform="translate(-1)"/><circle class="cls-3" cx="538.5" cy="209.5" r="16.5"/><circle class="cls-3" cx="534" cy="261" r="16.5"/><path class="cls-3" d="M671.5,273.5v-52l-102,5-5,57h-12v18h8v50l77-7,32-19v-34h12v-18ZM643,332H585V294h58Zm5-55H590V239h58Z" transform="translate(-1)"/><rect class="cls-3" x="601" y="242" width="32" height="32" rx="16"/><rect class="cls-3" x="597" y="298" width="32" height="32" rx="16"/></g><polygon class="cls-4" points="406 188 377 188 366 335 317 340 317 360 477 348 487 325 397.5 330.5 401.5 246.5 482.5 241.5 491.5 218.5 404.5 221.5 406 188"/><polygon class="cls-4" points="577.5 170.5 680.5 170.5 677.5 187.5 592.5 191.5 586.5 204.5 563.5 204.5 577.5 170.5"/><polygon class="cls-4" points="516.5 280.5 546.5 280.5 546.5 326.5 516.5 345.5 516.5 280.5"/><path class="cls-4" d="M245.5,479.5l84-8,8-50h43l-7,43h17v15h-22s-23,157-39,171-53,21-75,14-28-20-28-20,60,7,68-11,29-147,29-147l-79,3Z" transform="translate(-1)"/><path class="cls-4" d="M240.5,511.5h44s2,77,14,83l-38.12,2.24a7.82,7.82,0,0,1-7.29-4c-2.75-4.89-6.73-14.52-8.59-31.28C241.5,534.5,240.5,511.5,240.5,511.5Z" transform="translate(-1)"/><path class="cls-4" d="M144.5,449.5l-44,224,36.67-1.64,0-2.09,30.37.73s20-2,32-14,39-207,39-207H193.33l-.16,5H181.25v-5Zm16,208c-11,6-23,2-20-12s17-86,17-86l23-1S171.5,651.5,160.5,657.5Zm38.68-190.3L184.5,552.5h-27l17.19-84.15a11.06,11.06,0,0,1,10.84-8.85h7.16A6.59,6.59,0,0,1,199.18,467.2Z" transform="translate(-1)"/><path class="cls-4" d="M517.5,452.5l84-8,8-50h43l-7,43h17v15h-22s-23,157-39,171-53,21-75,14-28-20-28-20,60,7,68-11,29-147,29-147l-79,3Z" transform="translate(-1)"/><path class="cls-4" d="M512.5,484.5h44s2,77,14,83l-38.12,2.24a7.82,7.82,0,0,1-7.29-4c-2.75-4.89-6.73-14.52-8.59-31.28C513.5,507.5,512.5,484.5,512.5,484.5Z" transform="translate(-1)"/><path class="cls-4" d="M416.5,422.5l-44,224,36.67-1.64,0-2.09,30.37.73s20-2,32-14,39-207,39-207H465.33l-.16,5H453.25v-5Zm16,208c-11,6-23,2-20-12s17-86,17-86l23-1S443.5,624.5,432.5,630.5Zm38.68-190.3L456.5,525.5h-27l17.19-84.15a11.06,11.06,0,0,1,10.84-8.85h7.16A6.59,6.59,0,0,1,471.18,440.2Z" transform="translate(-1)"/><path class="cls-4" d="M927,368l-70,5s-.5,18.5-51.5,23.5S711,402,693,415s-23,84-15,90,84.5-.5,84.5-.5-2,90-19,92-38,0-38,0,12,29,42,27,46-14,53-51,12-77,12-77l90-2,2-16-89,4,12-59-49,3-10,70h-46s-6-67,11-76,36-13.66,115-17C919.5,399.5,927,368,927,368Z" transform="translate(-1)"/><path class="cls-4" d="M683.5,534.5h47s-31,72-61,80-35,0-35,0S685.5,555.5,683.5,534.5Z" transform="translate(-1)"/><path class="cls-4" d="M838.5,533.5s21.89,21.66,12,56c-19,66-66,102-48,126,11.63,15.51,23.27,18.49,30,18.66a5.82,5.82,0,0,1,5.6,6.5c-1.41,12.05-7.86,35.13-36.64,35.84-104.62,2.6-175.78,3.72-235.78,5.31a89.74,89.74,0,0,0-41.6,11.48c-9.1,5.11-22.83,11.36-42.62,17.21-44,13-80,22-80,22s18,22,79,27c44.13,3.62,100.29-24.69,128-40.62a79.63,79.63,0,0,1,38.76-10.63l119.83-1.39a113.16,113.16,0,0,0,68.36-23.81c9.24-7.21,18.19-15.62,24.07-24.55,27-41-15-61-19-81-3.16-15.81,50-49,50-89,0-30.15-24-68-48-68C831.5,520.5,838.5,533.5,838.5,533.5Z" transform="translate(-1)"/><path class="cls-4" d="M171.5,713.39l9.51-.84-.62,67.27,31.46-2.8-.07,8.18-41,3.64Z" transform="translate(-1)"/><path class="cls-4" d="M281.4,740.53c-.24,26-15.77,41.11-34.56,42.78-19.45,1.73-33-12.5-32.76-35.34.22-24,14.9-40.92,34.56-42.66C268.74,703.52,281.6,718.15,281.4,740.53Zm-57.15,6.31c-.15,16.12,8.24,29.8,23.21,28.47s23.72-16.31,23.88-33.43c.14-15-7.37-30-23.21-28.59S224.4,730.28,224.25,746.84Z" transform="translate(-1)"/><path class="cls-4" d="M305.25,709.78l-22.4,2,.08-8.28,54.52-4.85-.08,8.29-22.5,2-.62,67.16-9.61.85Z" transform="translate(-1)"/><path class="cls-4" d="M363.7,704.59l-22.4,2,.07-8.29,54.52-4.84-.08,8.28-22.5,2-.62,67.16-9.61.86Z" transform="translate(-1)"/><path class="cls-4" d="M441.84,729.4,413.22,732l-.25,27.2,31.9-2.84-.08,8.17-41.4,3.68.69-75.44,39.77-3.53-.08,8.17-30.26,2.69-.22,23.84,28.63-2.55Z" transform="translate(-1)"/><path class="cls-4" d="M457.82,689a100.41,100.41,0,0,1,18.26-3.19c10.16-.9,16.69.42,21.24,4.26,3.69,3,5.72,8,5.66,13.82-.09,10-6.27,17.11-14.05,20.48v.34c5.66,1.51,9,6.58,10.67,14.26,2.31,10.31,4,17.43,5.5,20.2l-9.84.88c-1.18-2-2.76-8.37-4.75-17.59-2.09-10.21-6-13.78-14.61-13.35l-9,.8-.3,32.68-9.5.85ZM467,722.47l9.72-.86c10.16-.91,16.66-7.19,16.74-15.81.09-9.74-6.76-13.38-16.81-12.6a40.07,40.07,0,0,0-9.4,1.73Z" transform="translate(-1)"/><path class="cls-4" d="M531.1,756.81l.29-32-22.87-41.36,10.81-1,10.19,19.89c2.79,5.46,4.93,9.85,7.18,14.91l.22,0c2.12-5.11,4.67-10.26,7.57-16.22l10.79-21.76,10.81-1L541,723.83,540.71,756Z" transform="translate(-1)"/><circle class="cls-4" cx="538.5" cy="194.5" r="16.5"/><circle class="cls-4" cx="534" cy="246" r="16.5"/><path class="cls-4" d="M671.5,258.5v-52l-102,5-5,57h-12v18h8v50l77-7,32-19v-34h12v-18ZM643,317H585V279h58Zm5-55H590V224h58Z" transform="translate(-1)"/><rect class="cls-4" x="601" y="227" width="32" height="32" rx="16"/><rect class="cls-4" x="597" y="283" width="32" height="32" rx="16"/></svg>