<svg id="图层_1" data-name="图层 1" xmlns="http://www.w3.org/2000/svg" xmlns:xlink="http://www.w3.org/1999/xlink" viewBox="0 0 1024 1024"><defs><style>.cls-1{fill:url(#未命名的渐变_47);}.cls-2{opacity:0.09;}.cls-3{fill:#040000;}.cls-4{fill:#fff;}.cls-5{opacity:0.07;}</style><linearGradient id="未命名的渐变_47" x1="512" y1="1024" x2="512" gradientUnits="userSpaceOnUse"><stop offset="0.18" stop-color="#90c042"/><stop offset="0.85" stop-color="#00913a"/></linearGradient></defs><title>2903</title><rect class="cls-1" width="1024" height="1024" rx="512"/><g class="cls-2"><path class="cls-3" d="M407.06,283.83h25.63A108.73,108.73,0,0,1,426,302.14q27.74,8,75,24.28l-16.05,22q-32.91-13.49-72.69-26.88-22.77,21.28-86.8,26.49l-5.46-24.28q45.13-2.7,63.56-10.4T407.06,283.83Zm-71.88-54.15h82.09l1.89-9.64H354.79l9.77-49.91h64.36l2.72-13.87h25.44l-2.72,13.87h64.37L509,220H444.59l-1.88,9.64h82.48l-3.92,20h-190Zm6,79.59,9.81-50.1H497.83l-9.57,48.94H462.43l5.89-30.06h-95.2L367,309.27Zm41.7-108.69H423l2.16-11H385Zm107.76-11H450.55l-2.15,11h40.09Z" transform="translate(-1.09 -1)"/><path class="cls-3" d="M616.83,209.45q2.49,23.7,2.93,53.95l-23.37,6.17q0-30.15-2.08-53.38l-4.94,25.25q-9.55,48.84-25.34,72.89t-28,33.29a253.57,253.57,0,0,0-18.62-18.12q36.45-28.71,47.29-90l15.46-79h25.05L594.6,214.75Zm-67.49-1.74,20,5.2q-13.87,34.5-25.68,58.4l-20-8.1Q536.68,238,549.34,207.71Zm90.6-46.44h25l-10.14,51.84,20.52-5.4q3.14,20.43,5.75,50.39l19.25-98.37h25l-36.2,185H664.17l16.34-83.54-22,6.26q-1-23.41-4.49-49.91L629.73,341.45H604.68Z" transform="translate(-1.09 -1)"/></g><path class="cls-4" d="M406.06,251.83h25.63A108.73,108.73,0,0,1,425,270.14q27.74,8,75,24.28l-16.05,22q-32.91-13.49-72.69-26.88-22.77,21.28-86.8,26.49l-5.46-24.28q45.13-2.7,63.56-10.4T406.06,251.83Zm-71.88-54.15h82.09l1.89-9.64H353.79l9.77-49.91h64.36l2.72-13.87h25.44l-2.72,13.87h64.37L508,188H443.59l-1.88,9.64h82.48l-3.92,20h-190Zm6,79.59,9.81-50.1H496.83l-9.57,48.94H461.43l5.89-30.06h-95.2L366,277.27Zm41.7-108.69H422l2.16-11H384Zm107.76-11H449.55l-2.15,11h40.09Z" transform="translate(-1.09 -1)"/><path class="cls-4" d="M615.83,177.45q2.49,23.7,2.93,54l-23.37,6.17q0-30.15-2.08-53.38l-4.94,25.25q-9.55,48.84-25.34,72.89t-28,33.29a253.57,253.57,0,0,0-18.62-18.12q36.45-28.71,47.29-90l15.46-79h25.05L593.6,182.75Zm-67.49-1.74,20,5.2q-13.87,34.5-25.68,58.4l-20-8.1Q535.68,206,548.34,175.71Zm90.6-46.44h25l-10.14,51.84,20.52-5.4q3.14,20.43,5.75,50.39l19.25-98.37h25l-36.2,185H663.17l16.34-83.54-22,6.26q-1-23.41-4.49-49.91L628.73,309.45H603.68Z" transform="translate(-1.09 -1)"/><g class="cls-5"><path class="cls-3" d="M141.21,602.33s1.33-182.66,4.33-182.66,51.67,23,52.34,39.66S176.54,541,176.54,541l-19,68.67S143.21,611.33,141.21,602.33Z" transform="translate(-1.09 -1)"/><path class="cls-3" d="M126.88,574s146.66,37,167.66,41.33c0,0,15.67-11,4.67-20.66s-166.67-71-171-71S123.54,570.67,126.88,574Z" transform="translate(-1.09 -1)"/><path class="cls-3" d="M271.21,410.33s-89.33,133-90,323l65.33,29s-20-181,44.34-339.33C290.88,423,279.21,412.33,271.21,410.33Z" transform="translate(-1.09 -1)"/><path class="cls-3" d="M308,486l2.69,1.54,24.31,14L281.54,836s4,36.5,15.5,42.5c0,0,49-83.5,84.5-380.5l-70-23S306.54,480.5,308,486Z" transform="translate(-1.09 -1)"/><path class="cls-3" d="M283.54,523.67s-2,36.83-2,41.83S389,615.33,389,615.33L381.54,669,262,621v63.5s180.5,70,204,71c0,0,8.5-27,0-56.5l-50-17s24.5-75.5,17.5-85.5S283.54,523.67,283.54,523.67Z" transform="translate(-1.09 -1)"/><ellipse class="cls-3" cx="405.86" cy="848.46" rx="31.25" ry="82.86" transform="translate(-202.93 129.62) rotate(-14.69)"/></g><path class="cls-4" d="M140.21,570.33s1.33-182.66,4.33-182.66,51.67,23,52.34,39.66S175.54,509,175.54,509l-19,68.67S142.21,579.33,140.21,570.33Z" transform="translate(-1.09 -1)"/><path class="cls-4" d="M125.88,542s146.66,37,167.66,41.33c0,0,15.67-11,4.67-20.66s-166.67-71-171-71S122.54,538.67,125.88,542Z" transform="translate(-1.09 -1)"/><path class="cls-4" d="M270.21,378.33s-89.33,133-90,323l65.33,29s-20-181,44.34-339.33C289.88,391,278.21,380.33,270.21,378.33Z" transform="translate(-1.09 -1)"/><path class="cls-4" d="M307,454l2.69,1.54,24.31,14L280.54,804s4,36.5,15.5,42.5c0,0,49-83.5,84.5-380.5l-70-23S305.54,448.5,307,454Z" transform="translate(-1.09 -1)"/><path class="cls-4" d="M282.54,491.67s-2,36.83-2,41.83S388,583.33,388,583.33L380.54,637,261,589v63.5s180.5,70,204,71c0,0,8.5-27,0-56.5l-50-17s24.5-75.5,17.5-85.5S282.54,491.67,282.54,491.67Z" transform="translate(-1.09 -1)"/><ellipse class="cls-4" cx="404.86" cy="816.46" rx="31.25" ry="82.86" transform="translate(-194.85 128.32) rotate(-14.69)"/><g class="cls-5"><path class="cls-3" d="M608.28,544.26s4.26-52.89,9.93-71.59c0,0,250.74-106.74,254.74-104.74s-120,210-120,210,190-52,107.33,125.33-252.4,218-252.4,218S860.21,729.33,744.5,643c0,0-17.62-17.63-54.22-8-17.54,4.6,76.67-151.67,76.67-157S613.61,533.93,608.28,544.26Z" transform="translate(-1.09 -1)"/></g><path class="cls-4" d="M607.28,512.26s4.26-52.89,9.93-71.59c0,0,250.74-106.74,254.74-104.74s-120,210-120,210,190-52,107.33,125.33-252.4,218-252.4,218S859.21,697.33,743.5,611c0,0-17.62-17.63-54.22-8-17.54,4.6,76.67-151.67,76.67-157S612.61,501.93,607.28,512.26Z" transform="translate(-1.09 -1)"/><g class="cls-5"><polyline class="cls-3" points="128.79 280 485.79 443 485.79 413"/><polyline class="cls-3" points="883.88 286.01 521.64 436.99 522.64 407.01"/><polyline class="cls-3" points="512.79 872 512.79 434 490.79 434"/><path class="cls-3" d="M420.19,396.33s59.51,10,204.09-.66c0,0-110.41,25.33-110.41,102H495.52s-24-60-75.33-90S420.19,396.33,420.19,396.33Z" transform="translate(-1.09 -1)"/></g><polyline class="cls-4" points="127.79 248 484.79 411 484.79 381"/><polyline class="cls-4" points="882.88 254.01 520.64 404.99 521.64 375.01"/><polyline class="cls-4" points="511.79 840 511.79 402 489.79 402"/><path class="cls-4" d="M419.19,364.33s59.51,10,204.09-.66c0,0-110.41,25.33-110.41,102H494.52s-24-60-75.33-90S419.19,364.33,419.19,364.33Z" transform="translate(-1.09 -1)"/></svg>