<svg id="图层_1" data-name="图层 1" xmlns="http://www.w3.org/2000/svg" xmlns:xlink="http://www.w3.org/1999/xlink" viewBox="0 0 1024 1024"><defs><style>.cls-1{fill:url(#未命名的渐变_69);}.cls-2{opacity:0.23;}.cls-3{fill:#243994;}.cls-4{fill:#fff;}</style><linearGradient id="未命名的渐变_69" x1="512" y1="1024" x2="512" gradientUnits="userSpaceOnUse"><stop offset="0.18" stop-color="#2c69b3"/><stop offset="0.24" stop-color="#2b72b9"/><stop offset="0.67" stop-color="#24b4ea"/><stop offset="0.89" stop-color="#24baee"/></linearGradient></defs><title>2906</title><rect class="cls-1" width="1024" height="1024" rx="512"/><g class="cls-2"><path class="cls-3" d="M321.15,310.23h71.49l29.68-151.66h31.22L443.09,212H514.4L509,239.51H437.7l-13.84,70.72h83.83l-5.32,27.17H315.83Z" transform="translate(-1.09 -1)"/><path class="cls-3" d="M546.93,266.3A181.37,181.37,0,0,0,570,275.35q-15.24,32.58-31.88,71.31-11.65-4.44-23.89-7.91Q530.25,307.16,546.93,266.3Zm4.49-57.43a334.93,334.93,0,0,1,25.7,24.28L555.7,254q-4.8-6-23.66-26.79Zm16-51.26q12.89,11,26.2,24.66L571.9,201.74a307.81,307.81,0,0,0-24.52-26.4Zm3.1,94.42H588l9-30.83q-5.37,4.81-10.9,9.44-4.64-8.87-12-20.23,30.88-25.83,49.38-53.38l26.3,3.47Q646,166.19,642,171.67H730l-4,20.62H625.49q-5.72,6.56-12,12.92h99.53L703.12,252h15.41l-3.88,19.85h-15.8l-5.75,26.41h14.65l-3.85,19.65H688.77q-3.57,14.83-10.25,20.38t-17.41,6.75q-10.74,1.2-42,1.59-.74-10-1.82-20.24,18.39.58,29,.58a40.2,40.2,0,0,0,10.4-1.21q4.53-1.2,6.22-7.85H568.81l13.45-46.06H566.65Zm48.08,31,14.33-11.18H607.5l-7.67,26.41h35.94Q627,290.19,618.61,283.06Zm9.82-47.21,13.9-11h-21l-8,27.17h32.86Zm28.78,50.87-14,11.57h24.19l5.74-26.41H638.05Q645.1,277.19,657.21,286.72Zm9.59-47L651.86,252h25.43L683,224.86H647.92Q655,230.26,666.8,239.7Z" transform="translate(-1.09 -1)"/></g><path class="cls-4" d="M320.15,278.23h71.49l29.68-151.66h31.22L442.09,180H513.4L508,207.51H436.7l-13.84,70.72h83.83l-5.32,27.17H314.83Z" transform="translate(-1.09 -1)"/><path class="cls-4" d="M545.93,234.3a181.37,181.37,0,0,0,23.09,9q-15.24,32.58-31.88,71.31-11.65-4.44-23.89-7.91Q529.25,275.16,545.93,234.3Zm4.49-57.43a334.93,334.93,0,0,1,25.7,24.28L554.7,222q-4.8-6-23.66-26.79Zm16-51.26q12.89,11,26.2,24.66L570.9,169.74a307.81,307.81,0,0,0-24.52-26.4Zm3.1,94.42H587l9-30.83q-5.37,4.81-10.9,9.44-4.64-8.87-12-20.23,30.88-25.83,49.38-53.38l26.3,3.47Q645,134.19,641,139.67H729l-4,20.62H624.49q-5.72,6.56-12,12.92h99.53L702.12,220h15.41l-3.88,19.85h-15.8l-5.75,26.41h14.65l-3.85,19.65H687.77q-3.57,14.83-10.25,20.38t-17.41,6.75q-10.74,1.2-42,1.59-.74-10-1.82-20.24,18.39.58,29,.58a40.2,40.2,0,0,0,10.4-1.21q4.53-1.2,6.22-7.85H567.81l13.45-46.06H565.65Zm48.08,31,14.33-11.18H606.5l-7.67,26.41h35.94Q626,258.19,617.61,251.06Zm9.82-47.21,13.9-11h-21l-8,27.17h32.86Zm28.78,50.87-14,11.57h24.19l5.74-26.41H637.05Q644.1,245.19,656.21,254.72Zm9.59-47L650.86,220h25.43L682,192.86H646.92Q654,198.26,665.8,207.7Z" transform="translate(-1.09 -1)"/><g class="cls-2"><path class="cls-3" d="M141.21,602.33s1.33-182.66,4.33-182.66,51.67,23,52.34,39.66S176.54,541,176.54,541l-19,68.67S143.21,611.33,141.21,602.33Z" transform="translate(-1.09 -1)"/><path class="cls-3" d="M126.88,574s146.66,37,167.66,41.33c0,0,15.67-11,4.67-20.66s-166.67-71-171-71S123.54,570.67,126.88,574Z" transform="translate(-1.09 -1)"/><path class="cls-3" d="M271.21,410.33s-89.33,133-90,323l65.33,29s-20-181,44.34-339.33C290.88,423,279.21,412.33,271.21,410.33Z" transform="translate(-1.09 -1)"/><path class="cls-3" d="M308,486l2.69,1.54,24.31,14L281.54,836s4,36.5,15.5,42.5c0,0,49-83.5,84.5-380.5l-70-23S306.54,480.5,308,486Z" transform="translate(-1.09 -1)"/><path class="cls-3" d="M283.54,523.67s-2,36.83-2,41.83S389,615.33,389,615.33L381.54,669,262,621v63.5s180.5,70,204,71c0,0,8.5-27,0-56.5l-50-17s24.5-75.5,17.5-85.5S283.54,523.67,283.54,523.67Z" transform="translate(-1.09 -1)"/><ellipse class="cls-3" cx="405.86" cy="848.46" rx="31.25" ry="82.86" transform="translate(-202.93 129.62) rotate(-14.69)"/></g><path class="cls-4" d="M140.21,570.33s1.33-182.66,4.33-182.66,51.67,23,52.34,39.66S175.54,509,175.54,509l-19,68.67S142.21,579.33,140.21,570.33Z" transform="translate(-1.09 -1)"/><path class="cls-4" d="M125.88,542s146.66,37,167.66,41.33c0,0,15.67-11,4.67-20.66s-166.67-71-171-71S122.54,538.67,125.88,542Z" transform="translate(-1.09 -1)"/><path class="cls-4" d="M270.21,378.33s-89.33,133-90,323l65.33,29s-20-181,44.34-339.33C289.88,391,278.21,380.33,270.21,378.33Z" transform="translate(-1.09 -1)"/><path class="cls-4" d="M307,454l2.69,1.54,24.31,14L280.54,804s4,36.5,15.5,42.5c0,0,49-83.5,84.5-380.5l-70-23S305.54,448.5,307,454Z" transform="translate(-1.09 -1)"/><path class="cls-4" d="M282.54,491.67s-2,36.83-2,41.83S388,583.33,388,583.33L380.54,637,261,589v63.5s180.5,70,204,71c0,0,8.5-27,0-56.5l-50-17s24.5-75.5,17.5-85.5S282.54,491.67,282.54,491.67Z" transform="translate(-1.09 -1)"/><ellipse class="cls-4" cx="404.86" cy="816.46" rx="31.25" ry="82.86" transform="translate(-194.85 128.32) rotate(-14.69)"/><g class="cls-2"><path class="cls-3" d="M608.28,544.26s4.26-52.89,9.93-71.59c0,0,250.74-106.74,254.74-104.74s-120,210-120,210,190-52,107.33,125.33-252.4,218-252.4,218S860.21,729.33,744.5,643c0,0-17.62-17.63-54.22-8-17.54,4.6,76.67-151.67,76.67-157S613.61,533.93,608.28,544.26Z" transform="translate(-1.09 -1)"/></g><path class="cls-4" d="M607.28,512.26s4.26-52.89,9.93-71.59c0,0,250.74-106.74,254.74-104.74s-120,210-120,210,190-52,107.33,125.33-252.4,218-252.4,218S859.21,697.33,743.5,611c0,0-17.62-17.63-54.22-8-17.54,4.6,76.67-151.67,76.67-157S612.61,501.93,607.28,512.26Z" transform="translate(-1.09 -1)"/><g class="cls-2"><polyline class="cls-3" points="128.79 280 485.79 443 485.79 413"/><polyline class="cls-3" points="883.88 286.01 521.64 436.99 522.64 407.01"/><polyline class="cls-3" points="512.79 872 512.79 434 490.79 434"/><path class="cls-3" d="M420.19,396.33s59.51,10,204.09-.66c0,0-110.41,25.33-110.41,102H495.52s-24-60-75.33-90S420.19,396.33,420.19,396.33Z" transform="translate(-1.09 -1)"/></g><polyline class="cls-4" points="127.79 248 484.79 411 484.79 381"/><polyline class="cls-4" points="882.88 254.01 520.64 404.99 521.64 375.01"/><polyline class="cls-4" points="511.79 840 511.79 402 489.79 402"/><path class="cls-4" d="M419.19,364.33s59.51,10,204.09-.66c0,0-110.41,25.33-110.41,102H494.52s-24-60-75.33-90S419.19,364.33,419.19,364.33Z" transform="translate(-1.09 -1)"/></svg>