<svg id="图层_1" data-name="图层 1" xmlns="http://www.w3.org/2000/svg" xmlns:xlink="http://www.w3.org/1999/xlink" viewBox="0 0 1024 1024"><defs><style>.cls-1{fill:url(#未命名的渐变_5);}.cls-2{fill:#fff;}.cls-3{opacity:0.2;}.cls-4{fill:#004496;}</style><linearGradient id="未命名的渐变_5" x1="512" x2="512" y2="1024" gradientUnits="userSpaceOnUse"><stop offset="0" stop-color="#9cecfb"/><stop offset="1" stop-color="#0052d4"/></linearGradient></defs><title>3</title><rect class="cls-1" width="1024" height="1024" rx="512"/><path class="cls-2" d="M717,208c-48,1-158,9-158,9s150-3,190-2c114.29,2.86,208.5,45.69,208.5,96.5S867.32,411,753,411c-61.55,0-124.16,9-37,9,145.53,0,262-50.89,262-107.5S862.5,205,717,208Z" transform="translate(0 -1)"/><path class="cls-2" d="M922,291c-6.72-19.5-27.78-40.14-62-40,25.82,2.87,40.49,22,46,38,11.07,32.12-31.86,75.52-100,99-17.19,5.92-13,6-28,12,18,1,22.87-2.34,48-11C891.67,366.37,933,322.8,922,291Z" transform="translate(0 -1)"/><path class="cls-2" d="M658,210c92.62,8,207,35,206.5,78C864,327.28,831,346,746,356c6.07.22,5.82,6.67,12,6,65-7,126-31.86,126.5-73C885,243,759.18,212.32,658,210Z" transform="translate(0 -1)"/><g class="cls-3"><path class="cls-4" d="M873.5,447.5c-10-16-29-24-29-24h-30s-7-12-15-23-29-24-29-24l62-19,1-9h-17l22-48S737,298,726,301s-11,14-11,14-10-1-103-3-169,67-169,67-5.5-3.5-124,16c-31.41,5.17-58.93,11-82.6,17,0,3.09.41,10,4.76,14.87,3.37,3.76,8.53,5.67,15.34,5.67,25.69,0,160.62-1,162-1l0,6c-1.36,0-136.31,1-162,1-8.62,0-15.29-2.59-19.85-7.71-5-5.65-6.09-12.94-6.24-17.32C161.27,431.27,127,449,127,449s-.29.12,6,6c0,0,154.05,18.73,317.8,8,166.09-10.88,252.17-15.95,253-16l.36,6c-.85.05-86.92,5.13-253,16-39.51,2.59-77.63,3.55-112.38,3.55-42.42,0-79.82-1.43-108.61-3-31-1.75-54.82-3.84-69.34-5.3-9.81-1-16.08-1.69-20.14-2.24,11,10.14,29.54,27,59.27,53,57,50,149,69,212,71s472-99,472-99S883.5,463.5,873.5,447.5ZM492,490h-6v6H450V484h42Zm56-6h-6v6H506V478h42Zm99-6H605v-6h6v-6h36Zm93.5-172.5h73L792,328l-63.5-6.5ZM486.88,385.09,453,379l46-32,82.29,1.79a3.38,3.38,0,0,1,2,6.08L537,390ZM600,355h81l84,37-213-1Zm-19,61,4-12,198-5,6,17Z" transform="translate(0 -1)"/><path class="cls-4" d="M299.44,809.1H213.85l-3.17,31.83h-28.6l3.17-31.83H99.66L102,786.05h85.59l1.63-16.4H116.86L119.12,747h35.95q-5.13-8-11.26-16.21l13.86-5.86H109.05l2.3-23h84.77L197.5,688H126.41l2.25-22.65h71.09l1.55-15.62h28.6l-1.55,15.62h71.08L297.18,688H226.09l-1.37,13.87H309.9l-2.3,23H253.68L272,732l-16,15h36.76l-2.25,22.65H217.77l-1.63,16.4h85.59ZM186.21,741.92,175.49,747h46.88q9.75-10.65,18.74-22.07H173.2Q180.37,733.92,186.21,741.92Z" transform="translate(0 -1)"/><path class="cls-4" d="M510.11,810.47l-11.74,25.58q-116.61.78-132.18-2.88T342,817.1q-13.81,11.52-27.11,24l-8.41-30.46q10.32-8.29,21.85-16.31l5.37-54H315.06l2.56-25.78H364.4l-7.91,79.48a41.37,41.37,0,0,0,13.61,11.62,46.38,46.38,0,0,0,16.55,5.08q8.73,1,37.65.88Q456.16,811.64,510.11,810.47ZM352.7,647.41q13.53,18,25.88,37.49l-26.69,15.82A358.9,358.9,0,0,0,328,661.66Zm123.16,86.31a548.66,548.66,0,0,1,32.35,56.83l-26,12.49q-3.19-7-6.49-13.86-65.31,3.62-95.62,7.42l-8.86-21.87q20-14.75,37.66-42.77H375.33l2.53-25.38h138.9L514.24,732h-72a365.84,365.84,0,0,1-30,37.3q20.3-.68,52.25-2.64-5.86-10.83-11.9-21Zm31.39-50.58H393.06l2.52-25.38H509.77Z" transform="translate(0 -1)"/><path class="cls-4" d="M698.86,662.44l24.39,26-59.69,37.39,47.82,22.36-16.29,26.17Q672.44,760.68,647.35,747q.74,42,11,53.46t19.18,11.47a12.19,12.19,0,0,0,5.89-1.66q3-1.66,8.28-14.45a207.51,207.51,0,0,0,7.61-21.09q15.79,9.57,24.23,13.08Q713.31,817,702.69,828.87t-27.07,11.86q-32.28,0-47.72-28.56t-5.55-130H529l2.52-25.39H654.69q-3,22.26-5.66,48.72A635.11,635.11,0,0,0,698.86,662.44Z" transform="translate(0 -1)"/><path class="cls-4" d="M772.3,647l25.82,3.32q-3.36,8.1-7.47,16.59h23.59L799.09,819.25a112.9,112.9,0,0,0,20.43-22.65q-8.06-15.52-13.87-37.1l18.51-9.57a113.42,113.42,0,0,0,6.55,24.51,150,150,0,0,0,7.45-31.74H812.63l2-20.5,25.07-38.47h-21l2.09-21.09h46.58l-2.06,20.7-24.24,38.27h21.25q-5,45.79-17.63,74.6,16.54,16.41,44.73,16.4,25.74,0,39.12-1-5.49,14.05-8.87,23.43H885.56q-33.81,0-52.47-18.84A145.58,145.58,0,0,1,811,841.12q-4.77-7.51-13.27-18.55a26.36,26.36,0,0,1-6.41,10.5,19.07,19.07,0,0,1-11.33,5q-7.08.87-22.32,1.07a223.43,223.43,0,0,0-3.38-25.58q12.35,1.17,16,1.17,8.77,0,9.89-11.13L785.05,755H761.36q-5.49,53.12-22.57,87.29-7.93-14.85-15-23.44Q734.54,796.8,740.62,755h-8.88l2.06-20.7h9.39l6.7-67.38h15.73Q769.13,657.27,772.3,647Zm3.47,115q3,12.39,5.35,29.39l-15.86,4.39q-2-15-4.79-29.88Zm16-74.21H768.24l-4.62,46.48h23.49Zm-9.17,8q2.81,12.88,4.9,26.75l-16.32,3.91q-1.75-17.38-3.45-27Zm76.14,76.55H882l3.61-36.33h-20l2.21-22.26h20L890.88,683q-8.34.67-17.07,1.17a120.92,120.92,0,0,0-4.06-22.85q37.37-1.95,63.54-6.25l6.59,22.07q-11.64,1.95-24.24,3.42l-3.32,33.29h18.8l-2.22,22.26H910.11l-3.61,36.33H929L926.71,795H856.45Z" transform="translate(0 -1)"/></g><path class="cls-2" d="M873.5,423.5c-10-16-29-24-29-24h-30s-7-12-15-23-29-24-29-24l62-19,1-9h-17l22-48S737,274,726,277s-11,14-11,14-10-1-103-3-169,67-169,67-5.5-3.5-124,16c-31.41,5.17-58.93,11-82.6,17,0,3.09.41,10,4.76,14.87,3.37,3.76,8.53,5.67,15.34,5.67,25.69,0,160.62-1,162-1l0,6c-1.36,0-136.31,1-162,1-8.62,0-15.29-2.59-19.85-7.71-5-5.65-6.09-12.94-6.24-17.32C161.27,407.27,127,425,127,425s-.29.12,6,6c0,0,154.05,18.73,317.8,8,166.09-10.88,252.17-15.95,253-16l.36,6c-.85.05-86.92,5.13-253,16-39.51,2.59-77.63,3.55-112.38,3.55-42.42,0-79.82-1.43-108.61-3-31-1.75-54.82-3.84-69.34-5.3-9.81-1-16.08-1.69-20.14-2.24,11,10.14,29.54,27,59.27,53,57,50,149,69,212,71s472-99,472-99S883.5,439.5,873.5,423.5ZM492,466h-6v6H450V460h42Zm56-6h-6v6H506V454h42Zm99-6H605v-6h6v-6h36Zm93.5-172.5h73L792,304l-63.5-6.5ZM486.88,361.09,453,355l46-32,82.29,1.79a3.38,3.38,0,0,1,2,6.08L537,366ZM600,331h81l84,37-213-1Zm-19,61,4-12,198-5,6,17Z" transform="translate(0 -1)"/><path class="cls-2" d="M299.44,785.1H213.85l-3.17,31.83h-28.6l3.17-31.83H99.66L102,762.05h85.59l1.63-16.4H116.86L119.12,723h35.95q-5.13-8-11.26-16.21l13.86-5.86H109.05l2.3-23h84.77L197.5,664H126.41l2.25-22.65h71.09l1.55-15.62h28.6l-1.55,15.62h71.08L297.18,664H226.09l-1.37,13.87H309.9l-2.3,23H253.68L272,708l-16,15h36.76l-2.25,22.65H217.77l-1.63,16.4h85.59ZM186.21,717.92,175.49,723h46.88q9.75-10.65,18.74-22.07H173.2Q180.37,709.92,186.21,717.92Z" transform="translate(0 -1)"/><path class="cls-2" d="M510.11,786.47l-11.74,25.58q-116.61.78-132.18-2.88T342,793.1q-13.81,11.52-27.11,24l-8.41-30.46q10.32-8.29,21.85-16.31l5.37-54H315.06l2.56-25.78H364.4l-7.91,79.48a41.37,41.37,0,0,0,13.61,11.62,46.38,46.38,0,0,0,16.55,5.08q8.73,1,37.65.88Q456.16,787.64,510.11,786.47ZM352.7,623.41q13.53,18,25.88,37.49l-26.69,15.82A358.9,358.9,0,0,0,328,637.66Zm123.16,86.31a548.66,548.66,0,0,1,32.35,56.83l-26,12.49q-3.19-7-6.49-13.86-65.31,3.62-95.62,7.42l-8.86-21.87q20-14.75,37.66-42.77H375.33l2.53-25.38h138.9L514.24,708h-72a365.84,365.84,0,0,1-30,37.3q20.3-.68,52.25-2.64-5.86-10.83-11.9-21Zm31.39-50.58H393.06l2.52-25.38H509.77Z" transform="translate(0 -1)"/><path class="cls-2" d="M698.86,638.44l24.39,26-59.69,37.39,47.82,22.36-16.29,26.17Q672.44,736.68,647.35,723q.74,42,11,53.46t19.18,11.47a12.19,12.19,0,0,0,5.89-1.66q3-1.66,8.28-14.45a207.51,207.51,0,0,0,7.61-21.09q15.79,9.57,24.23,13.08Q713.31,793,702.69,804.87t-27.07,11.86q-32.28,0-47.72-28.56t-5.55-130H529l2.52-25.39H654.69q-3,22.26-5.66,48.72A635.11,635.11,0,0,0,698.86,638.44Z" transform="translate(0 -1)"/><path class="cls-2" d="M772.3,623l25.82,3.32q-3.36,8.1-7.47,16.59h23.59L799.09,795.25a112.9,112.9,0,0,0,20.43-22.65q-8.06-15.52-13.87-37.1l18.51-9.57a113.42,113.42,0,0,0,6.55,24.51,150,150,0,0,0,7.45-31.74H812.63l2-20.5,25.07-38.47h-21l2.09-21.09h46.58l-2.06,20.7-24.24,38.27h21.25q-5,45.79-17.63,74.6,16.54,16.41,44.73,16.4,25.74,0,39.12-1-5.49,14.05-8.87,23.43H885.56q-33.81,0-52.47-18.84A145.58,145.58,0,0,1,811,817.12q-4.77-7.51-13.27-18.55a26.36,26.36,0,0,1-6.41,10.5,19.07,19.07,0,0,1-11.33,5q-7.08.87-22.32,1.07a223.43,223.43,0,0,0-3.38-25.58q12.35,1.17,16,1.17,8.77,0,9.89-11.13L785.05,731H761.36q-5.49,53.12-22.57,87.29-7.93-14.85-15-23.44Q734.54,772.8,740.62,731h-8.88l2.06-20.7h9.39l6.7-67.38h15.73Q769.13,633.27,772.3,623Zm3.47,115q3,12.39,5.35,29.39l-15.86,4.39q-2-15-4.79-29.88Zm16-74.21H768.24l-4.62,46.48h23.49Zm-9.17,8q2.81,12.88,4.9,26.75l-16.32,3.91q-1.75-17.38-3.45-27Zm76.14,76.55H882l3.61-36.33h-20l2.21-22.26h20L890.88,659q-8.34.67-17.07,1.17a120.92,120.92,0,0,0-4.06-22.85q37.37-1.95,63.54-6.25l6.59,22.07q-11.64,1.95-24.24,3.42l-3.32,33.29h18.8l-2.22,22.26H910.11l-3.61,36.33H929L926.71,771H856.45Z" transform="translate(0 -1)"/></svg>