<svg id="图层_1" data-name="图层 1" xmlns="http://www.w3.org/2000/svg" xmlns:xlink="http://www.w3.org/1999/xlink" viewBox="0 0 1024 1024"><defs><style>.cls-1{fill:url(#未命名的渐变_14);}.cls-2{opacity:0.09;}.cls-3{fill:#040000;}.cls-4{fill:#fff;}.cls-5{opacity:0.07;}</style><linearGradient id="未命名的渐变_14" x1="512" y1="1024" x2="512" gradientUnits="userSpaceOnUse"><stop offset="0.18" stop-color="#656bad"/><stop offset="0.85" stop-color="#82cbcb"/></linearGradient></defs><title>9</title><rect class="cls-1" width="1024" height="1024" rx="512"/><g class="cls-2"><path class="cls-3" d="M351.37,266.1A234.25,234.25,0,0,0,376,275.35q-13.84,27.38-34.38,72.27l-25.94-8.29Q336.87,297.9,351.37,266.1Zm2.18-57.43q18,14.46,32.38,28.53L363,258Q350.11,243.94,333,228Zm17.32-50.1q17,14.46,29.91,27.36L378,206q-12.32-13.87-28.15-29.49Zm-.69,154.17h54.73l22.71-116H404.06l5.06-25.83H529l-5.05,25.83H476.52l-22.7,116h54.73l-5.05,25.82H365.13Z" transform="translate(-1.09 -1)"/><path class="cls-3" d="M552.17,256.27,571.06,268q-18.24,22.35-36.28,40.66l-16-14.64Q535.91,276.32,552.17,256.27ZM546,227.56h55.79q2.19-8.76,4.1-18.5h25.82q-2,9.63-4.19,18.5h58.58l-6.74,32,19.37-6.94a453.7,453.7,0,0,1,11,51.26l-24.36,9.25q-3.42-23.89-7.9-45.28-8.67,38.82-13.3,49.23t-15.12,19.42q-10.48,9-34.28,9-10.8,0-24.27-.58a224.79,224.79,0,0,0,1.65-28.13A193,193,0,0,0,619,318.9q8.76,0,14.36-4.23A26.16,26.16,0,0,0,641.89,303q2.91-7.47,12.58-51.5H620.56q-18.43,61.66-80.45,96.93-7.83-12.13-15.7-22.16,54.76-27.75,70-74.77h-53.1Zm-2.7-53.19h41.82l3.25-16.57h26.2l-3.24,16.57H663l3.24-16.57h26.21l-3.24,16.57h43.36l-4.68,23.9H684.54l-3.09,15.8H655.24l3.09-15.8H606.68l-2.86,14.64H577.61l2.87-14.64H538.66Z" transform="translate(-1.09 -1)"/></g><path class="cls-4" d="M350.37,234.1A234.25,234.25,0,0,0,375,243.35q-13.84,27.38-34.38,72.27l-25.94-8.29Q335.87,265.9,350.37,234.1Zm2.18-57.43q18,14.46,32.38,28.53L362,226Q349.11,211.94,332,196Zm17.32-50.1q17,14.46,29.91,27.36L377,174q-12.32-13.87-28.15-29.49Zm-.69,154.17h54.73l22.71-116H403.06l5.06-25.83H528l-5.05,25.83H475.52l-22.7,116h54.73l-5.05,25.82H364.13Z" transform="translate(-1.09 -1)"/><path class="cls-4" d="M551.17,224.27,570.06,236q-18.24,22.35-36.28,40.66l-16-14.64Q534.91,244.32,551.17,224.27ZM545,195.56h55.79q2.19-8.76,4.1-18.5h25.82q-2,9.63-4.19,18.5h58.58l-6.74,32,19.37-6.94a453.7,453.7,0,0,1,11,51.26l-24.36,9.25q-3.42-23.89-7.9-45.28-8.67,38.82-13.3,49.23t-15.12,19.42q-10.48,9-34.28,9-10.8,0-24.27-.58a224.79,224.79,0,0,0,1.65-28.13A193,193,0,0,0,618,286.9q8.76,0,14.36-4.23A26.16,26.16,0,0,0,640.89,271q2.91-7.47,12.58-51.5H619.56q-18.43,61.66-80.45,96.93-7.83-12.13-15.7-22.16,54.76-27.75,70-74.77h-53.1Zm-2.7-53.19h41.82l3.25-16.57h26.2l-3.24,16.57H662l3.24-16.57h26.21l-3.24,16.57h43.36l-4.68,23.9H683.54l-3.09,15.8H654.24l3.09-15.8H605.68l-2.86,14.64H576.61l2.87-14.64H537.66Z" transform="translate(-1.09 -1)"/><g class="cls-5"><path class="cls-3" d="M141.21,602.33s1.33-182.66,4.33-182.66,51.67,23,52.34,39.66S176.54,541,176.54,541l-19,68.67S143.21,611.33,141.21,602.33Z" transform="translate(-1.09 -1)"/><path class="cls-3" d="M126.88,574s146.66,37,167.66,41.33c0,0,15.67-11,4.67-20.66s-166.67-71-171-71S123.54,570.67,126.88,574Z" transform="translate(-1.09 -1)"/><path class="cls-3" d="M271.21,410.33s-89.33,133-90,323l65.33,29s-20-181,44.34-339.33C290.88,423,279.21,412.33,271.21,410.33Z" transform="translate(-1.09 -1)"/><path class="cls-3" d="M308,486l2.69,1.54,24.31,14L281.54,836s4,36.5,15.5,42.5c0,0,49-83.5,84.5-380.5l-70-23S306.54,480.5,308,486Z" transform="translate(-1.09 -1)"/><path class="cls-3" d="M283.54,523.67s-2,36.83-2,41.83S389,615.33,389,615.33L381.54,669,262,621v63.5s180.5,70,204,71c0,0,8.5-27,0-56.5l-50-17s24.5-75.5,17.5-85.5S283.54,523.67,283.54,523.67Z" transform="translate(-1.09 -1)"/><ellipse class="cls-3" cx="405.86" cy="848.46" rx="31.25" ry="82.86" transform="translate(-202.93 129.62) rotate(-14.69)"/></g><path class="cls-4" d="M140.21,570.33s1.33-182.66,4.33-182.66,51.67,23,52.34,39.66S175.54,509,175.54,509l-19,68.67S142.21,579.33,140.21,570.33Z" transform="translate(-1.09 -1)"/><path class="cls-4" d="M125.88,542s146.66,37,167.66,41.33c0,0,15.67-11,4.67-20.66s-166.67-71-171-71S122.54,538.67,125.88,542Z" transform="translate(-1.09 -1)"/><path class="cls-4" d="M270.21,378.33s-89.33,133-90,323l65.33,29s-20-181,44.34-339.33C289.88,391,278.21,380.33,270.21,378.33Z" transform="translate(-1.09 -1)"/><path class="cls-4" d="M307,454l2.69,1.54,24.31,14L280.54,804s4,36.5,15.5,42.5c0,0,49-83.5,84.5-380.5l-70-23S305.54,448.5,307,454Z" transform="translate(-1.09 -1)"/><path class="cls-4" d="M282.54,491.67s-2,36.83-2,41.83S388,583.33,388,583.33L380.54,637,261,589v63.5s180.5,70,204,71c0,0,8.5-27,0-56.5l-50-17s24.5-75.5,17.5-85.5S282.54,491.67,282.54,491.67Z" transform="translate(-1.09 -1)"/><ellipse class="cls-4" cx="404.86" cy="816.46" rx="31.25" ry="82.86" transform="translate(-194.85 128.32) rotate(-14.69)"/><g class="cls-5"><path class="cls-3" d="M608.28,544.26s4.26-52.89,9.93-71.59c0,0,250.74-106.74,254.74-104.74s-120,210-120,210,190-52,107.33,125.33-252.4,218-252.4,218S860.21,729.33,744.5,643c0,0-17.62-17.63-54.22-8-17.54,4.6,76.67-151.67,76.67-157S613.61,533.93,608.28,544.26Z" transform="translate(-1.09 -1)"/></g><path class="cls-4" d="M607.28,512.26s4.26-52.89,9.93-71.59c0,0,250.74-106.74,254.74-104.74s-120,210-120,210,190-52,107.33,125.33-252.4,218-252.4,218S859.21,697.33,743.5,611c0,0-17.62-17.63-54.22-8-17.54,4.6,76.67-151.67,76.67-157S612.61,501.93,607.28,512.26Z" transform="translate(-1.09 -1)"/><g class="cls-5"><polyline class="cls-3" points="128.79 280 485.79 443 485.79 413"/><polyline class="cls-3" points="883.88 286.01 521.64 436.99 522.64 407.01"/><polyline class="cls-3" points="512.79 872 512.79 434 490.79 434"/><path class="cls-3" d="M420.19,396.33s59.51,10,204.09-.66c0,0-110.41,25.33-110.41,102H495.52s-24-60-75.33-90S420.19,396.33,420.19,396.33Z" transform="translate(-1.09 -1)"/></g><polyline class="cls-4" points="127.79 248 484.79 411 484.79 381"/><polyline class="cls-4" points="882.88 254.01 520.64 404.99 521.64 375.01"/><polyline class="cls-4" points="511.79 840 511.79 402 489.79 402"/><path class="cls-4" d="M419.19,364.33s59.51,10,204.09-.66c0,0-110.41,25.33-110.41,102H494.52s-24-60-75.33-90S419.19,364.33,419.19,364.33Z" transform="translate(-1.09 -1)"/></svg>