<svg id="图层_1" data-name="图层 1" xmlns="http://www.w3.org/2000/svg" xmlns:xlink="http://www.w3.org/1999/xlink" viewBox="0 0 1024 1024"><defs><style>.cls-1{fill:url(#未命名的渐变_5);}.cls-2,.cls-5{opacity:0.2;}.cls-3{fill:#1a1a1a;}.cls-4{fill:#fff;}.cls-5{fill:#004496;}</style><linearGradient id="未命名的渐变_5" x1="512" x2="512" y2="1024" gradientUnits="userSpaceOnUse"><stop offset="0" stop-color="#9cecfb"/><stop offset="1" stop-color="#0052d4"/></linearGradient></defs><title>快乐飞艇</title><rect class="cls-1" width="1024" height="1024" rx="350"/><g class="cls-2"><path class="cls-3" d="M118,688.43q1.66,0,3.54,3.54,8.75,16,8.75,28.11,0,9.38-4.37,15.83-4.8,5.42-11.25,5.41-11.25,0-11.24-12.28,0-6.87,8.33-16,4.58-4.79,4.58-20.41C116.37,689.82,116.92,688.43,118,688.43Zm16.24-48.73a198.91,198.91,0,0,1,21,1.88q5,1.24,5,3.75a8.1,8.1,0,0,1-1,4.37,11.32,11.32,0,0,0-1.45,5.41v29.57a32.54,32.54,0,0,1,18.32,6q8.53,6.87,8.54,16.45a12.17,12.17,0,0,1-2.92,8.33c-1.66,2.08-4.16,3.13-7.49,3.13q-10.62,0-10.62-9-.42-13.32-5.83-18.53V823q24.57-14.58,33.52-33.52,7.08-15.42,9.79-44.15h-9.79l-22.07,2.5-6.46-10.62,28.53,1.66h10.41q.63-7.91.84-16.24V690.1l-19.37,2.49L175.71,682l26.87,1.46V643.66c0-2.64,1.38-4,4.16-4q7.08,0,20.2,2.5,6.66,1.66,6.66,4a8,8,0,0,1-2.29,5q-2.7,2.49-2.7,7.28v25.2h14.78l4.79-7.5q1.88-3.12,4.17-3.12,4.58,0,15.2,7.29,10,6.87,10,9.79,0,2.49-5.41,6.24a5,5,0,0,0-1.87,2.71v36l3.95-5.83c1.25-1.67,2.36-2.5,3.33-2.5q1.88,0,6.88,4,12.49,11,12.49,14c0,.41-.49.62-1.46.62h-63.3q8.94,26.24,22.49,37.48,13.74,12.71,40.81,20.62c1,.41,1.46.9,1.46,1.46q0,2.08-3.33,2.91-14.79,4.17-21.24,16.87-1.66,5.42-3.75,5.41a4.76,4.76,0,0,1-2.71-1.45q-22.27-19.59-29.36-35-5.62-11.65-10.62-38.73-2.93,20-9.58,32.48-11.46,22.5-48.73,38.11a42.06,42.06,0,0,1-10,2.71,5.42,5.42,0,0,1-2.5,3.75Q150.93,834,135.94,834q-3.33,0-3.33-3.12v-188C132.61,640.74,133.16,639.7,134.27,639.7Zm94.34,50.4v32.48q-.21,8.74-.84,16.24h17.08V690.1Z" transform="translate(0 -1)"/><path class="cls-3" d="M369.38,747q3.75,0,22.9,9.78,5.63,2.09,5.63,4.17a4.59,4.59,0,0,1-2.5,4.16c-2.64.84-6,3.33-10,7.5q-24.15,21.87-41.23,32.69-20.61,12.5-21.86,12.5c-1.39,0-2.23-.84-2.5-2.5q0-.63,5.83-5.83,20.82-20.42,40.4-59.56Q367.91,746.95,369.38,747ZM467.88,668q-21,0-98.5,7.5l-9,48.73H402.7V686.76c0-2.08.55-3.12,1.66-3.12q6.25,0,24.57,1.25,5.63.63,5.63,3.54a10.41,10.41,0,0,1-2.71,6.46q-1.46,1.88-1.46,5.83v23.53h33.32l8.54-10.62c1.8-2.09,3.61-3.13,5.41-3.13q2.29,0,11.66,7.92,8.54,8.33,8.54,10.62,0,3.33-3.12,3.33H430.39v73.3q0,14.57-6.25,20-7.69,6-19.78,6-7.29,0-10.41-7.91-3.54-9.16-18.33-14.37c-1.94-.7-2.91-1.46-2.91-2.29s1-1.46,3.12-1.46h21.24q5.63,0,5.63-5.83V732.37H358.76l-1.46,5q-2.08,7.9-5.83,7.91-4.17,0-12.29-4.37-9.57-4.8-9.58-6.87a11.64,11.64,0,0,1,1.46-5q3.75-6.25,5.21-18.12l7.08-54.14c.55-1.67,1.38-2.5,2.5-2.5l24.57,13.33q50-9.79,81.63-25.2a22.47,22.47,0,0,1,7.7-1.87c1.81,0,3.61,1.25,5.42,3.74q16.44,18.12,16.45,21.45c0,2.08-1,3.13-3.12,3.13A103.88,103.88,0,0,1,467.88,668Zm-27.7,83.92q10,0,27.28,8.12,17.49,10,25,19a27.56,27.56,0,0,1,5.41,16.87,21.16,21.16,0,0,1-4.16,12.91q-4,5-11.25,5-9.79,0-13.12-15.41-4-17.91-11-28.11a42.25,42.25,0,0,0-17.91-14.79c-1.81-.41-2.71-1-2.71-1.87C437.68,752.5,438.51,751.94,440.18,751.94Z" transform="translate(0 -1)"/><path class="cls-3" d="M527.22,653.45l28.53,2.5h48.73l6.87-8.33q2.7-3.14,4.58-3.13,2.09,0,17.29,9.37,11,7.71,11,11,0,2.29-3.33,3.54l-6.25,1.46q-2.49,1.25-2.49,6.24V710.5Q650.29,688,659.25,667c1.11-3.05,2.91-4.86,5.41-5.41q4,0,9.16,3.33,21.87,10.41,21.87,14.58,0,3.74-9.79,4.37-10.62.63-43.31,31.23a132.53,132.53,0,0,1,16.24,4.38q18.54,6.87,26.24,13.12a16,16,0,0,1,5.62,12.08,21.85,21.85,0,0,1-4.58,13.53q-4.38,5-12.49,5-10,0-13.33-12.08-4.17-14.37-11.25-22.7a42,42,0,0,0-16.86-11q.62,27.48,6,43.1A68.5,68.5,0,0,0,657.16,788q11.67,9.38,20.62,9.37,6,0,10.62-10.83l6.46-15.83c1-2.21,1.73-3.33,2.29-3.33a1.47,1.47,0,0,1,1.66,1.67q-2.49,19.79-2.5,24.36,0,5.43,4.79,13.12,5,6.87,5,10.41,0,12.29-12.91,12.29-21.45,0-42.27-13.74-22.71-15-35-42.28-9.78-26.23-9.78-63.3V662.4H547.63L532,664.07Z" transform="translate(0 -1)"/><path class="cls-3" d="M768.78,642l18.12,3.34q5.42.82,5.41,3.33c0,.69-1,1.32-2.91,1.87a9.11,9.11,0,0,0-3.54,3.33A161.08,161.08,0,0,1,771.7,673h11.66l3.95-6.25a5.25,5.25,0,0,1,3.54-1.87q2.08,0,12.5,5.62a50.2,50.2,0,0,1,7.5,5.21l-3.75-6.87,20.2,1.66,3.54-7.49q1.45-3.13,3.12-3.13,3.33,0,11.66,4.79c5.14,3.2,8.26,5.62,9.37,7.29a182,182,0,0,0,40-19,6.59,6.59,0,0,1,4.79-2.08q1.66,0,16.45,16.24a5.36,5.36,0,0,1,2.29,4.16,2.2,2.2,0,0,1-2.49,2.5,31.71,31.71,0,0,1-9-1.66q-6.66,1-17.07,2.08V717h5l6.46-9q1.88-2.49,3.12-2.49,2.09,0,7.08,4,12.5,10.62,12.5,13.12c0,.56-.56.84-1.67.84H890v48.72h4.16l5.83-8.95c1.11-1.53,2.15-2.29,3.13-2.29,1.24,0,3.4,1.25,6.45,3.75q12.08,10.83,12.08,13.32c0,.56-.49.84-1.46.84H876.23l-22.07,2.29-6.46-10.42,18.75,1.05V724.87l-9.79,1c1.66,2.09,2.5,3.68,2.5,4.79q0,2.09-3.13,4.17a6.27,6.27,0,0,0-1.87,4q-4.8,31-13.54,49.36,16.88,11.66,42.9,11.66,21.66,0,35.82-.83c2.08,0,3.12.28,3.12.83s-2,2.71-6,6a33.21,33.21,0,0,0-8.12,16c-.14,2.08-1.39,3.13-3.75,3.13q-46,0-68.72-18.33a55.76,55.76,0,0,1-4.16-3.75,101.85,101.85,0,0,1-18.12,18.12q-17.07,12.07-22.07,12.08c-1.53,0-2.29-.49-2.29-1.46,0-1.39,1.18-3.12,3.54-5.21a63.25,63.25,0,0,0,6.25-5.41,34.07,34.07,0,0,1-16.46,4,7.7,7.7,0,0,1-7.28-4.17A21.22,21.22,0,0,0,761.91,808c-1.95-.55-2.92-1.32-2.92-2.29s.84-1.67,2.5-1.67h16.25c4.85,0,7.28-1.38,7.28-4.16V776.52c-.28.41-.55.83-.83,1.25q-2.09,2.49-6.45,2.49-9,0-9-7.28-.21-11.25-4.58-16.25-1.05,17.7-3.75,25-6.87,18.75-23.11,40.19-4.8,6.45-6.88,6.46a1.48,1.48,0,0,1-1.45-.84q11.65-27.48,13.53-83.71l-7.91.84L729,734.87l13.74,1V671.35q0-4.15,2.5-4.16,2.29,0,17.49,5.41l3.54-29.77A3,3,0,0,1,768.78,642Zm-4.16,106.83a29.23,29.23,0,0,1,14.16,5.83,25.2,25.2,0,0,1,6.24,8.12V743h-20.2C764.82,745.07,764.75,747,764.62,748.82Zm.2-58.52a25.1,25.1,0,0,1,14.79,6,23.69,23.69,0,0,1,5.41,7.92V679.48h-20.2Zm0,46.23H785V718.42a6.91,6.91,0,0,1-.62.83,7.16,7.16,0,0,1-5.83,2.5q-9,0-9-6.46-.21-13.11-4.79-18.32ZM805,814.62a86.19,86.19,0,0,0,13.12-21.24c1-2.08,1.88-4.23,2.71-6.45q-8.75-18.12-11.45-47.27h6.66q3.54,18.52,9.58,30.61a344.29,344.29,0,0,0,7.5-40.4H827.3c-2.23,2.78-3.82,4.17-4.79,4.17q-3.13,0-9.17-4.17c-4.16-2.91-6.24-5.07-6.24-6.45a6.58,6.58,0,0,1,1.45-3.54q3.13-4.38,17.91-42.9l-14,.83a3.51,3.51,0,0,1,.21.83q0,1.68-4.17,6a9,9,0,0,0-1.45,2.92V804C807.1,808.45,806.4,812,805,814.62Zm48.52-137.85a9,9,0,0,1-1.66,1.66,9.13,9.13,0,0,0-4.17,5.21l-17.07,39.78,7.29-7.09a4.61,4.61,0,0,1,3.33-1.87q3.94,0,11,6.66,2.49,2.5,4,4.17l-6-10,16.25,1V676.14Q860.2,676.56,853.53,676.77Z" transform="translate(0 -1)"/></g><path class="cls-4" d="M693,208c-48,1-158,9-158,9s150-3,190-2c114.29,2.86,208.5,45.69,208.5,96.5S843.32,411,729,411c-61.55,0-124.16,9-37,9,145.53,0,262-50.89,262-107.5S838.5,205,693,208Z" transform="translate(0 -1)"/><path class="cls-4" d="M898,291c-6.72-19.5-27.78-40.14-62-40,25.82,2.87,40.49,22,46,38,11.07,32.12-31.86,75.52-100,99-17.19,5.92-13,6-28,12,18,1,22.87-2.34,48-11C867.67,366.37,909,322.8,898,291Z" transform="translate(0 -1)"/><path class="cls-4" d="M634,214c92.62,8,207,35,206.5,78C840,331.28,807,350,722,360c6.07.22,5.82,6.67,12,6,65-7,126-31.86,126.5-73C861,247,735.18,216.32,634,214Z" transform="translate(0 -1)"/><path class="cls-5" d="M834.5,447.5c-10-16-29-24-29-24h-30s-7-12-15-23-29-24-29-24l62-19,1-9h-17l22-48S698,298,687,301s-11,14-11,14-10-1-103-3-169,67-169,67-5.5-3.5-124,16c-31.41,5.17-58.93,11-82.6,17,0,3.09.41,10,4.76,14.87,3.37,3.76,8.53,5.67,15.34,5.67,25.69,0,160.62-1,162-1l0,6c-1.36,0-136.31,1-162,1-8.62,0-15.29-2.59-19.85-7.71-5-5.65-6.09-12.94-6.24-17.32C122.27,431.27,88,449,88,449s-.29.12,6,6c0,0,154.05,18.73,317.8,8,166.09-10.88,252.17-15.95,253-16l.36,6c-.85.05-86.92,5.13-253,16-39.51,2.59-77.63,3.55-112.38,3.55-42.42,0-79.82-1.43-108.61-3-31-1.75-54.82-3.84-69.34-5.3-9.81-1-16.08-1.69-20.14-2.24,11,10.14,29.54,27,59.27,53,57,50,149,69,212,71s472-99,472-99S844.5,463.5,834.5,447.5ZM453,490h-6v6H411V484h42Zm56-6h-6v6H467V478h42Zm99-6H566v-6h6v-6h36Zm93.5-172.5h73L753,328l-63.5-6.5ZM447.88,385.09,414,379l46-32,82.29,1.79a3.38,3.38,0,0,1,2,6.08L498,390ZM561,355h81l84,37-213-1Zm-19,61,4-12,198-5,6,17Z" transform="translate(0 -1)"/><path class="cls-4" d="M834.5,423.5c-10-16-29-24-29-24h-30s-7-12-15-23-29-24-29-24l62-19,1-9h-17l22-48S698,274,687,277s-11,14-11,14-10-1-103-3-169,67-169,67-5.5-3.5-124,16c-31.41,5.17-58.93,11-82.6,17,0,3.09.41,10,4.76,14.87,3.37,3.76,8.53,5.67,15.34,5.67,25.69,0,160.62-1,162-1l0,6c-1.36,0-136.31,1-162,1-8.62,0-15.29-2.59-19.85-7.71-5-5.65-6.09-12.94-6.24-17.32C122.27,407.27,88,425,88,425s-.29.12,6,6c0,0,154.05,18.73,317.8,8,166.09-10.88,252.17-15.95,253-16l.36,6c-.85.05-86.92,5.13-253,16-39.51,2.59-77.63,3.55-112.38,3.55-42.42,0-79.82-1.43-108.61-3-31-1.75-54.82-3.84-69.34-5.3-9.81-1-16.08-1.69-20.14-2.24,11,10.14,29.54,27,59.27,53,57,50,149,69,212,71s472-99,472-99S844.5,439.5,834.5,423.5ZM453,466h-6v6H411V460h42Zm56-6h-6v6H467V454h42Zm99-6H566v-6h6v-6h36Zm93.5-172.5h73L753,304l-63.5-6.5ZM447.88,361.09,414,355l46-32,82.29,1.79a3.38,3.38,0,0,1,2,6.08L498,366ZM561,331h81l84,37-213-1Zm-19,61,4-12,198-5,6,17Z" transform="translate(0 -1)"/><path class="cls-4" d="M118,682.43q1.66,0,3.54,3.54,8.75,16,8.75,28.11,0,9.38-4.37,15.83-4.8,5.42-11.25,5.41-11.25,0-11.24-12.28,0-6.87,8.33-16,4.58-4.79,4.58-20.41C116.37,683.82,116.92,682.43,118,682.43Zm16.24-48.73a198.91,198.91,0,0,1,21,1.88q5,1.24,5,3.75a8.1,8.1,0,0,1-1,4.37,11.32,11.32,0,0,0-1.45,5.41v29.57a32.54,32.54,0,0,1,18.32,6q8.53,6.87,8.54,16.45a12.17,12.17,0,0,1-2.92,8.33c-1.66,2.08-4.16,3.13-7.49,3.13q-10.62,0-10.62-9-.42-13.32-5.83-18.53V817q24.57-14.58,33.52-33.52,7.08-15.42,9.79-44.15h-9.79l-22.07,2.5-6.46-10.62,28.53,1.66h10.41q.63-7.91.84-16.24V684.1l-19.37,2.49L175.71,676l26.87,1.46V637.66c0-2.64,1.38-4,4.16-4q7.08,0,20.2,2.5,6.66,1.66,6.66,4a8,8,0,0,1-2.29,5q-2.7,2.49-2.7,7.28v25.2h14.78l4.79-7.5q1.88-3.12,4.17-3.12,4.58,0,15.2,7.29,10,6.87,10,9.79,0,2.49-5.41,6.24a5,5,0,0,0-1.87,2.71v36l3.95-5.83c1.25-1.67,2.36-2.5,3.33-2.5q1.88,0,6.88,4,12.49,11,12.49,14c0,.41-.49.62-1.46.62h-63.3q8.94,26.24,22.49,37.48,13.74,12.71,40.81,20.62c1,.41,1.46.9,1.46,1.46q0,2.08-3.33,2.91-14.79,4.17-21.24,16.87-1.66,5.42-3.75,5.41a4.76,4.76,0,0,1-2.71-1.45q-22.27-19.59-29.36-35-5.62-11.65-10.62-38.73-2.93,20-9.58,32.48-11.46,22.5-48.73,38.11a42.06,42.06,0,0,1-10,2.71,5.42,5.42,0,0,1-2.5,3.75Q150.93,828,135.94,828q-3.33,0-3.33-3.12v-188C132.61,634.74,133.16,633.7,134.27,633.7Zm94.34,50.4v32.48q-.21,8.74-.84,16.24h17.08V684.1Z" transform="translate(0 -1)"/><path class="cls-4" d="M369.38,741q3.75,0,22.9,9.78,5.63,2.09,5.63,4.17a4.59,4.59,0,0,1-2.5,4.16c-2.64.84-6,3.33-10,7.5q-24.15,21.87-41.23,32.69-20.61,12.5-21.86,12.5c-1.39,0-2.23-.84-2.5-2.5q0-.63,5.83-5.83,20.82-20.42,40.4-59.56Q367.91,740.95,369.38,741ZM467.88,662q-21,0-98.5,7.5l-9,48.73H402.7V680.76c0-2.08.55-3.12,1.66-3.12q6.25,0,24.57,1.25,5.63.63,5.63,3.54a10.41,10.41,0,0,1-2.71,6.46q-1.46,1.88-1.46,5.83v23.53h33.32l8.54-10.62c1.8-2.09,3.61-3.13,5.41-3.13q2.29,0,11.66,7.92,8.54,8.33,8.54,10.62,0,3.33-3.12,3.33H430.39v73.3q0,14.57-6.25,20-7.69,6-19.78,6-7.29,0-10.41-7.91-3.54-9.16-18.33-14.37c-1.94-.7-2.91-1.46-2.91-2.29s1-1.46,3.12-1.46h21.24q5.63,0,5.63-5.83V726.37H358.76l-1.46,5q-2.08,7.9-5.83,7.91-4.17,0-12.29-4.37-9.57-4.8-9.58-6.87a11.64,11.64,0,0,1,1.46-5q3.75-6.25,5.21-18.12l7.08-54.14c.55-1.67,1.38-2.5,2.5-2.5l24.57,13.33q50-9.79,81.63-25.2a22.47,22.47,0,0,1,7.7-1.87c1.81,0,3.61,1.25,5.42,3.74q16.44,18.12,16.45,21.45c0,2.08-1,3.13-3.12,3.13A103.88,103.88,0,0,1,467.88,662Zm-27.7,83.92q10,0,27.28,8.12,17.49,10,25,19a27.56,27.56,0,0,1,5.41,16.87,21.16,21.16,0,0,1-4.16,12.91q-4,5-11.25,5-9.79,0-13.12-15.41-4-17.91-11-28.11a42.25,42.25,0,0,0-17.91-14.79c-1.81-.41-2.71-1-2.71-1.87C437.68,746.5,438.51,745.94,440.18,745.94Z" transform="translate(0 -1)"/><path class="cls-4" d="M527.22,647.45l28.53,2.5h48.73l6.87-8.33q2.7-3.14,4.58-3.13,2.09,0,17.29,9.37,11,7.71,11,11,0,2.29-3.33,3.54l-6.25,1.46q-2.49,1.25-2.49,6.24V704.5Q650.29,682,659.25,661c1.11-3.05,2.91-4.86,5.41-5.41q4,0,9.16,3.33,21.87,10.41,21.87,14.58,0,3.74-9.79,4.37-10.62.63-43.31,31.23a132.53,132.53,0,0,1,16.24,4.38q18.54,6.87,26.24,13.12a16,16,0,0,1,5.62,12.08,21.85,21.85,0,0,1-4.58,13.53q-4.38,5-12.49,5-10,0-13.33-12.08-4.17-14.37-11.25-22.7a42,42,0,0,0-16.86-11q.62,27.48,6,43.1A68.5,68.5,0,0,0,657.16,782q11.67,9.38,20.62,9.37,6,0,10.62-10.83l6.46-15.83c1-2.21,1.73-3.33,2.29-3.33a1.47,1.47,0,0,1,1.66,1.67q-2.49,19.79-2.5,24.36,0,5.43,4.79,13.12,5,6.87,5,10.41,0,12.29-12.91,12.29-21.45,0-42.27-13.74-22.71-15-35-42.28-9.78-26.23-9.78-63.3V656.4H547.63L532,658.07Z" transform="translate(0 -1)"/><path class="cls-4" d="M768.78,636l18.12,3.34q5.42.82,5.41,3.33c0,.69-1,1.32-2.91,1.87a9.11,9.11,0,0,0-3.54,3.33A161.08,161.08,0,0,1,771.7,667h11.66l3.95-6.25a5.25,5.25,0,0,1,3.54-1.87q2.08,0,12.5,5.62a50.2,50.2,0,0,1,7.5,5.21l-3.75-6.87,20.2,1.66,3.54-7.49q1.45-3.13,3.12-3.13,3.33,0,11.66,4.79c5.14,3.2,8.26,5.62,9.37,7.29a182,182,0,0,0,40-19,6.59,6.59,0,0,1,4.79-2.08q1.66,0,16.45,16.24a5.36,5.36,0,0,1,2.29,4.16,2.2,2.2,0,0,1-2.49,2.5,31.71,31.71,0,0,1-9-1.66q-6.66,1-17.07,2.08V711h5l6.46-9q1.88-2.49,3.12-2.49,2.09,0,7.08,4,12.5,10.62,12.5,13.12c0,.56-.56.84-1.67.84H890v48.72h4.16l5.83-8.95c1.11-1.53,2.15-2.29,3.13-2.29,1.24,0,3.4,1.25,6.45,3.75q12.08,10.83,12.08,13.32c0,.56-.49.84-1.46.84H876.23l-22.07,2.29-6.46-10.42,18.75,1.05V718.87l-9.79,1c1.66,2.09,2.5,3.68,2.5,4.79q0,2.09-3.13,4.17a6.27,6.27,0,0,0-1.87,4q-4.8,31-13.54,49.36,16.88,11.66,42.9,11.66,21.66,0,35.82-.83c2.08,0,3.12.28,3.12.83s-2,2.71-6,6a33.21,33.21,0,0,0-8.12,16c-.14,2.08-1.39,3.13-3.75,3.13q-46,0-68.72-18.33a55.76,55.76,0,0,1-4.16-3.75,101.85,101.85,0,0,1-18.12,18.12q-17.07,12.07-22.07,12.08c-1.53,0-2.29-.49-2.29-1.46,0-1.39,1.18-3.12,3.54-5.21a63.25,63.25,0,0,0,6.25-5.41,34.07,34.07,0,0,1-16.46,4,7.7,7.7,0,0,1-7.28-4.17A21.22,21.22,0,0,0,761.91,802c-1.95-.55-2.92-1.32-2.92-2.29s.84-1.67,2.5-1.67h16.25c4.85,0,7.28-1.38,7.28-4.16V770.52c-.28.41-.55.83-.83,1.25q-2.09,2.49-6.45,2.49-9,0-9-7.28-.21-11.25-4.58-16.25-1.05,17.7-3.75,25-6.87,18.75-23.11,40.19-4.8,6.45-6.88,6.46a1.48,1.48,0,0,1-1.45-.84q11.65-27.48,13.53-83.71l-7.91.84L729,728.87l13.74,1V665.35q0-4.15,2.5-4.16,2.29,0,17.49,5.41l3.54-29.77A3,3,0,0,1,768.78,636Zm-4.16,106.83a29.23,29.23,0,0,1,14.16,5.83,25.2,25.2,0,0,1,6.24,8.12V737h-20.2C764.82,739.07,764.75,741,764.62,742.82Zm.2-58.52a25.1,25.1,0,0,1,14.79,6,23.69,23.69,0,0,1,5.41,7.92V673.48h-20.2Zm0,46.23H785V712.42a6.91,6.91,0,0,1-.62.83,7.16,7.16,0,0,1-5.83,2.5q-9,0-9-6.46-.21-13.11-4.79-18.32ZM805,808.62a86.19,86.19,0,0,0,13.12-21.24c1-2.08,1.88-4.23,2.71-6.45q-8.75-18.12-11.45-47.27h6.66q3.54,18.52,9.58,30.61a344.29,344.29,0,0,0,7.5-40.4H827.3c-2.23,2.78-3.82,4.17-4.79,4.17q-3.13,0-9.17-4.17c-4.16-2.91-6.24-5.07-6.24-6.45a6.58,6.58,0,0,1,1.45-3.54q3.13-4.38,17.91-42.9l-14,.83a3.51,3.51,0,0,1,.21.83q0,1.68-4.17,6a9,9,0,0,0-1.45,2.92V798C807.1,802.45,806.4,806,805,808.62Zm48.52-137.85a9,9,0,0,1-1.66,1.66,9.13,9.13,0,0,0-4.17,5.21l-17.07,39.78,7.29-7.09a4.61,4.61,0,0,1,3.33-1.87q3.94,0,11,6.66,2.49,2.5,4,4.17l-6-10,16.25,1V670.14Q860.2,670.56,853.53,670.77Z" transform="translate(0 -1)"/></svg>