<svg id="图层_1" data-name="图层 1" xmlns="http://www.w3.org/2000/svg" xmlns:xlink="http://www.w3.org/1999/xlink" viewBox="0 0 1024 1024"><defs><style>.cls-1{fill:url(#未命名的渐变_2);}.cls-2,.cls-3{opacity:0.1;}.cls-4{fill:#fff;}</style><linearGradient id="未命名的渐变_2" x1="512" x2="512" y2="1024" gradientUnits="userSpaceOnUse"><stop offset="0" stop-color="#f09819"/><stop offset="1" stop-color="#ff512f"/></linearGradient></defs><title>欢乐赛车</title><rect class="cls-1" width="1024" height="1024" rx="350"/><path class="cls-2" d="M886.11,341s-9.42,22-18.83,32.44-28.78,18.83-28.78,18.83,18.31,6.28,23.54,19.88,5.76,30.35,5.76,30.35,12-26.16,21.45-33.48,24.59-14.13,24.59-14.13-16.74-10.46-22-19.88S886.11,341,886.11,341Z"/><g class="cls-3"><path d="M935.58,484.29c-40.48,3.14-72.27-5.6-103.06-28.35h0c-15.77-11.67-29.88-26-43.52-39.85-13-13.21-26.47-26.88-41.52-38.47h0c-33.27-25.6-68.84-35.82-111.94-32.18a6.9,6.9,0,0,0-5.67,4l-28.4,61.37-28.4,61.35L544.64,533.5h0L430.47,780.16a4.43,4.43,0,0,0,2.15,5.85l5,2.31a4.41,4.41,0,0,0,5.84-2.15L556,542.93c37.89-2.34,68.23,6.91,97.82,29.7h0c14.3,11,27.42,24.33,40.11,37.2,14,14.24,28.52,28.95,45.14,41.25a167.79,167.79,0,0,0,29.34,17.56c25,11.56,52,15.87,83,13.47a6.87,6.87,0,0,0,5.71-4l28.41-61.38L914,555.41h0l28.4-61.36a6.88,6.88,0,0,0-6.78-9.76Zm-277.82-3.88q-2.1-.93-4.22-1.8c-.66-.28-1.32-.57-2-.83q-3.09-1.23-6.23-2.31l-.81-.26c-1.84-.62-3.69-1.21-5.55-1.75-.74-.22-1.49-.41-2.24-.62-1.41-.38-2.83-.76-4.26-1.1-.84-.21-1.68-.4-2.53-.59-1.37-.3-2.75-.59-4.14-.86l-2.56-.48q-2.21-.37-4.44-.69c-.77-.12-1.54-.24-2.31-.34q-3-.39-6.09-.66l-.75-.08c-2.29-.2-4.61-.33-6.95-.43-.73,0-1.48,0-2.22-.06-1.63-.05-3.27-.09-4.92-.09l-2.66,0c-.85,0-1.68,0-2.52,0l21.86-47.24,2-.13c.95-.05,1.89-.1,2.83-.13,1.42-.06,2.83-.09,4.23-.12l2.72,0q2.12,0,4.2.06l2.58.07c1.44.06,2.86.16,4.28.26.78.05,1.56.09,2.34.16,1.53.13,3.05.3,4.56.48l1.91.22q2.79.38,5.53.86l.81.12q3.21.59,6.36,1.31l.28.08q2.94.69,5.83,1.51c.54.15,1.07.33,1.61.49,1.47.44,2.94.89,4.39,1.38.67.23,1.34.48,2,.72,1.31.47,2.62.95,3.91,1.46.73.29,1.44.59,2.16.89q1.86.76,3.69,1.59l2.22,1c1.19.56,2.38,1.14,3.57,1.75l2.24,1.17c1.17.62,2.33,1.27,3.49,1.93.74.42,1.49.85,2.24,1.3,1.15.68,2.31,1.4,3.46,2.12.73.47,1.47.93,2.2,1.41,1.17.76,2.33,1.55,3.49,2.36l2.13,1.47.78.58-22.51,48.62q-2.75-1.92-5.52-3.7c-.39-.26-.79-.49-1.19-.74q-2.37-1.5-4.74-2.9l-2.11-1.19q-2-1.11-3.93-2.16c-.78-.41-1.55-.81-2.33-1.2q-1.92-1-3.87-1.89ZM740.6,634.82c-13.11-10.58-25.13-22.79-36.81-34.64s-23.86-24.23-37.19-35L689,516.71q1.28,1.06,2.55,2.16l1.54,1.32q2.35,2.07,4.68,4.18l1,1q1.84,1.7,3.67,3.42l1.71,1.63,2.95,2.85L709,535l2.82,2.79,1.83,1.83c.9.89,1.78,1.79,2.67,2.68l2,2.06.21.21,3.83,3.88,5.15,5.23.73.72c1.41,1.43,2.82,2.85,4.25,4.27l1.88,1.87,3.28,3.22,2.19,2.12q1.54,1.49,3.1,3l2.33,2.18c1,1,2.05,1.89,3.08,2.83l2.41,2.17c1.05.93,2.11,1.85,3.17,2.77.81.69,1.61,1.39,2.43,2.08,1.1.93,2.22,1.84,3.34,2.75.8.65,1.59,1.3,2.4,1.94l.93.75ZM772,488.92l-1.82-1.81q-1.74-1.74-3.47-3.49l-1.39-1.39-4.71-4.78L756,472.77l-1.34-1.35q-1.68-1.71-3.38-3.4l-1.79-1.78q-1.5-1.5-3-3l-2-1.92c-1-.93-1.93-1.87-2.91-2.8l-2.08-2-2.9-2.7-2.14-2c-1-.89-2-1.76-3-2.64l-2.15-1.89-3.13-2.65c-.7-.58-1.39-1.17-2.1-1.74l-.69-.58L745.83,394c11.72,9.82,22.69,20.95,33.35,31.78,12.75,12.95,25.89,26.29,40.67,37.85l-22.44,48.49q-2.32-1.88-4.61-3.81l-.23-.2c-1.77-1.5-3.51-3-5.24-4.59L785.69,502c-1.17-1.07-2.35-2.15-3.51-3.23L780.27,497q-1.6-1.51-3.19-3.06L775.15,492Q773.56,490.49,772,488.92Zm102.8,118.33-1.88.11c-1,.06-2.09.1-3.12.14l-4,.09-3,0c-1.35,0-2.68,0-4-.06l-2.81-.08c-1.38-.06-2.73-.15-4.09-.24-.86-.06-1.73-.11-2.58-.18-1.46-.12-2.89-.28-4.33-.44-.73-.08-1.47-.15-2.19-.24-1.79-.23-3.55-.5-5.3-.79-.36-.06-.73-.1-1.09-.17q-3.18-.55-6.31-1.24l-1.25-.31c-1.64-.38-3.27-.78-4.88-1.22-.7-.19-1.39-.4-2.08-.6-1.32-.39-2.64-.77-4-1.2-.78-.25-1.55-.53-2.33-.79-1.21-.42-2.42-.84-3.61-1.29-.81-.31-1.62-.64-2.42-1-1.15-.46-2.3-.92-3.44-1.42-.82-.35-1.64-.72-2.46-1.1q-1.67-.75-3.33-1.56c-.82-.4-1.64-.82-2.46-1.24-1.09-.55-2.18-1.13-3.26-1.72-.82-.45-1.64-.9-2.46-1.37-1.08-.61-2.16-1.25-3.23-1.9L786.5,586c-1.09-.69-2.17-1.4-3.26-2.12-.78-.52-1.56-1-2.34-1.56l-.62-.44,22.53-48.68.09.07q2.37,1.58,4.75,3.06l1.13.69q2.07,1.28,4.15,2.47l.76.44q2.4,1.37,4.81,2.62l1.12.57c1.36.7,2.73,1.37,4.1,2l1,.48.53.25c3.28,1.52,6.6,2.9,10,4.17l1.71.62c1.2.44,2.4.87,3.61,1.27.67.23,1.35.44,2,.66,1.13.36,2.27.71,3.41,1l2.1.61c1.16.32,2.32.62,3.49.92l2,.5c1.33.32,2.67.61,4,.89.52.11,1,.23,1.55.33,1.84.36,3.71.7,5.58,1,.48.08,1,.14,1.45.21,1.42.21,2.84.42,4.27.59l2.15.25c1.22.13,2.45.26,3.68.37l2.34.18c1.21.09,2.43.17,3.65.24l2.35.11c1.3,0,2.61.09,3.92.11.71,0,1.41,0,2.12,0,1.76,0,3.54,0,5.32,0h.72Z"/><path d="M89,490.62a6.85,6.85,0,0,0,.61,3.43L118,555.41h0l28.4,61.36,28.41,61.38a6.88,6.88,0,0,0,5.72,4c31,2.4,58-1.91,83-13.47a167.43,167.43,0,0,0,29.34-17.56c16.63-12.3,31.13-27,45.15-41.25,12.68-12.87,25.8-26.19,40.11-37.2h0c29.59-22.79,59.94-32,97.83-29.7L588.55,786.17a4.42,4.42,0,0,0,5.84,2.15l5-2.31a4.42,4.42,0,0,0,2.15-5.85L487.37,533.5h0L459,472.12l-28.4-61.35-28.4-61.37a6.91,6.91,0,0,0-5.67-4c-43.1-3.64-78.67,6.58-111.94,32.18h0C269.47,389.21,256,402.88,243,416.09c-13.65,13.86-27.76,28.18-43.52,39.85h0c-30.79,22.75-62.57,31.49-103.06,28.35A6.87,6.87,0,0,0,89,490.62Zm282.9-9.13c-1.29.61-2.58,1.24-3.86,1.89-.78.39-1.56.79-2.33,1.2q-2,1.05-3.93,2.16c-.7.39-1.41.78-2.11,1.19q-2.38,1.4-4.74,2.9c-.4.25-.8.48-1.2.74q-2.77,1.79-5.52,3.7l-22.5-48.62.78-.58c.7-.5,1.41-1,2.12-1.47,1.16-.81,2.33-1.6,3.49-2.36l2.21-1.41c1.15-.72,2.3-1.44,3.46-2.12.74-.45,1.49-.88,2.24-1.3,1.16-.66,2.32-1.31,3.49-1.93.74-.4,1.49-.79,2.24-1.17,1.18-.61,2.37-1.19,3.56-1.75l2.22-1q1.84-.82,3.69-1.59l2.16-.89c1.3-.51,2.61-1,3.92-1.46.67-.24,1.33-.49,2-.72,1.46-.49,2.92-.94,4.39-1.38.54-.16,1.08-.34,1.62-.49q2.88-.83,5.82-1.51l.28-.08c2.1-.48,4.23-.92,6.37-1.31l.8-.12c1.83-.32,3.67-.61,5.54-.86l1.91-.22c1.51-.18,3-.35,4.56-.48.77-.07,1.56-.11,2.34-.16,1.42-.1,2.84-.2,4.27-.26l2.58-.07q2.08-.06,4.2-.06l2.73,0c1.4,0,2.8.06,4.23.12.93,0,1.88.08,2.82.13l2,.13,21.87,47.24c-.85,0-1.68,0-2.52,0l-2.66,0c-1.66,0-3.3,0-4.93.09-.74,0-1.48,0-2.22.06-2.34.1-4.65.23-6.95.43l-.74.08q-3.08.27-6.09.66c-.78.1-1.55.22-2.32.34-1.48.21-3,.44-4.43.69-.86.15-1.71.32-2.57.48-1.38.27-2.76.56-4.14.86-.84.19-1.69.38-2.53.59-1.43.34-2.84.72-4.25,1.1-.75.21-1.5.4-2.25.62-1.86.54-3.7,1.13-5.54,1.75l-.82.26q-3.14,1.08-6.22,2.31c-.67.26-1.33.55-2,.83q-2.11.87-4.21,1.8C373.47,480.76,372.7,481.13,371.93,481.49ZM269,586.33l.93-.75,2.39-1.94c1.12-.91,2.24-1.82,3.34-2.75l2.44-2.08,3.16-2.77,2.41-2.17c1-.94,2.06-1.88,3.08-2.83l2.34-2.18c1-1,2.06-2,3.09-3,.73-.7,1.47-1.41,2.19-2.12l3.28-3.22,1.89-1.87q2.13-2.13,4.25-4.27l.72-.72,5.16-5.23,3.82-3.88.21-.21,2-2.06,2.67-2.68,1.84-1.83L323,535l1.82-1.78,3-2.85,1.71-1.63c1.21-1.15,2.44-2.29,3.66-3.42l1.05-1q2.31-2.11,4.68-4.18l1.54-1.32q1.26-1.1,2.55-2.16l22.41,48.44c-13.32,10.8-25.43,23.1-37.18,35s-23.71,24.06-36.82,34.64ZM256.85,492l-1.92,1.87q-1.59,1.55-3.2,3.06l-1.91,1.81q-1.74,1.62-3.51,3.23l-1.64,1.49c-1.73,1.55-3.47,3.09-5.23,4.59l-.24.2c-1.52,1.29-3.06,2.56-4.6,3.81L212.16,463.6c14.78-11.56,27.91-24.9,40.66-37.85,10.66-10.83,21.63-22,33.36-31.78l22.42,48.44-.7.58c-.7.57-1.4,1.16-2.09,1.74-1.05.88-2.1,1.76-3.13,2.65l-2.16,1.89c-1,.88-2,1.75-3,2.64l-2.14,2-2.91,2.7-2.08,2-2.91,2.8-2,1.92-3,3c-.6.59-1.2,1.18-1.79,1.78-1.14,1.13-2.26,2.26-3.39,3.4L276,472.77q-2.32,2.34-4.62,4.68c-1.56,1.59-3.14,3.18-4.72,4.78l-1.38,1.39c-1.16,1.17-2.31,2.33-3.48,3.49L260,488.92ZM135.33,560h.72c1.79,0,3.56,0,5.32,0,.71,0,1.42,0,2.13,0,1.31,0,2.62-.06,3.91-.11l2.35-.11c1.23-.07,2.44-.15,3.65-.24.78,0,1.57-.11,2.34-.18,1.24-.11,2.46-.24,3.68-.37l2.16-.25c1.43-.17,2.85-.38,4.26-.59.48-.07,1-.13,1.45-.21,1.88-.3,3.74-.64,5.59-1,.52-.1,1-.22,1.54-.33,1.35-.28,2.69-.57,4-.89l2-.5c1.16-.3,2.32-.6,3.48-.92l2.11-.61c1.14-.33,2.27-.68,3.4-1,.68-.22,1.35-.43,2-.66,1.21-.4,2.42-.83,3.62-1.27l1.7-.62c3.36-1.27,6.68-2.65,10-4.17l.52-.25,1-.48c1.37-.66,2.73-1.33,4.09-2l1.12-.57c1.61-.84,3.22-1.71,4.81-2.62.26-.14.51-.29.76-.44q2.09-1.2,4.15-2.47l1.14-.69c1.58-1,3.17-2,4.74-3.06l.1-.07,22.53,48.68-.63.44c-.77.54-1.56,1-2.34,1.56-1.08.72-2.17,1.43-3.26,2.12-.8.5-1.61,1-2.41,1.47-1.08.65-2.16,1.29-3.24,1.9-.81.47-1.63.92-2.45,1.37-1.09.59-2.17,1.17-3.26,1.72-.82.42-1.64.84-2.47,1.24-1.1.54-2.21,1.06-3.32,1.56-.82.38-1.64.75-2.47,1.1-1.14.5-2.28,1-3.43,1.42-.81.32-1.61.65-2.42,1-1.2.45-2.41.87-3.62,1.29-.77.26-1.54.54-2.32.79-1.31.43-2.63.81-4,1.2-.69.2-1.38.41-2.07.6-1.61.44-3.24.84-4.88,1.22l-1.26.31q-3.12.69-6.31,1.24c-.36.07-.72.11-1.08.17-1.76.29-3.52.56-5.3.79-.73.09-1.47.16-2.2.24-1.43.16-2.87.32-4.32.44l-2.58.18c-1.36.09-2.72.18-4.09.24l-2.82.08c-1.33,0-2.66.06-4,.06l-3,0-4-.09c-1,0-2.08-.08-3.13-.14l-1.88-.11Z"/></g><g class="cls-3"><path d="M329.21,851.92l-29.72-13.37L263,851.92H203.18l2.88-13.17h28.7l51.46-18.68,2-9.24h32.25l-2.06,9.44,43.34,18.48h29.1L388,851.92ZM217.52,792.55H399.39l-7.47,34.21H359.28l4.51-20.65H247.2l-4.51,20.65H210.05Zm38.8-55.25,1.42-6.49H229.62l2.53-11.6h28.12l1.5-6.88h31.85l-1.5,6.88H357l1.5-6.88h31.85l-1.5,6.88H417l-2.53,11.6H386.32l-1.42,6.49H413l-2.53,11.6H382.37l-1.5,6.88H409l-2.48,11.4H364.42l8.77,6.69H405l-2.71,12.38h-57.8l-24.94-19.07h-11.4l-32.87,19.07h-57.8l2.7-12.38h32.25l11.09-6.69H221.68l2.49-11.4h28.12l1.5-6.88H225.67l2.53-11.6Zm-16.89-46h74.12l1.29-5.9h33.81l-1.28,5.9h74.12l-4.21,19.27H385.83l1.33-6.09h-119l-1.33,6.09H235.22Zm44.71,64.49H349l1.5-6.88H285.64Zm4-18.48h64.88l1.42-6.49H289.59Z"/></g><g class="cls-3"><path d="M752,720.83,741.45,769h59.77l-4.08,18.67H737.37l-6.14,28.12h64.3l-4.08,18.68H727.16l-5.33,24.38H684.68L690,834.47H604.87l4.07-18.68h85.14l6.13-28.12H644.57q-11.21,0-16-8.84-4.86-9.24,1-20.06L654,712h-17.9l4.08-18.68h23.59l11-20.84h37.36l-11,20.84H819.31L815.24,712H691.37l-29.94,57h42.86l10.51-48.17Z"/></g><path class="cls-2" d="M244.5,249.5s-7,26-15,31-26,11-26,11,17.5,13.5,20,20,5,33,5,33S238,320.06,247,312c9.5-8.5,26.5-15.5,26.5-15.5s-12-6-19-17S244.5,249.5,244.5,249.5Z"/><path class="cls-4" d="M931.58,479.29c-40.48,3.14-72.27-5.6-103.06-28.35h0c-15.77-11.67-29.88-26-43.52-39.85-13-13.21-26.47-26.88-41.52-38.47h0c-33.27-25.6-68.84-35.82-111.94-32.18a6.9,6.9,0,0,0-5.67,4l-28.4,61.37-28.4,61.35L540.64,528.5h0L426.47,775.16a4.43,4.43,0,0,0,2.15,5.85l5,2.31a4.41,4.41,0,0,0,5.84-2.15L552,537.93c37.89-2.34,68.23,6.91,97.82,29.7h0c14.3,11,27.42,24.33,40.11,37.2,14,14.24,28.52,28.95,45.14,41.25a167.79,167.79,0,0,0,29.34,17.56c25,11.56,52,15.87,83,13.47a6.87,6.87,0,0,0,5.71-4l28.41-61.38L910,550.41h0l28.4-61.36a6.88,6.88,0,0,0-6.78-9.76Zm-277.82-3.88q-2.1-.93-4.22-1.8c-.66-.28-1.32-.57-2-.83q-3.09-1.23-6.23-2.31l-.81-.26c-1.84-.62-3.69-1.21-5.55-1.75-.74-.22-1.49-.41-2.24-.62-1.41-.38-2.83-.76-4.26-1.1-.84-.21-1.68-.4-2.53-.59-1.37-.3-2.75-.59-4.14-.86l-2.56-.48q-2.21-.37-4.44-.69c-.77-.12-1.54-.24-2.31-.34q-3-.39-6.09-.66l-.75-.08c-2.29-.2-4.61-.33-6.95-.43-.73,0-1.48,0-2.22-.06-1.63-.05-3.27-.09-4.92-.09l-2.66,0c-.85,0-1.68,0-2.52,0l21.86-47.24,2-.13c.95-.05,1.89-.1,2.83-.13,1.42-.06,2.83-.09,4.23-.12l2.72,0q2.12,0,4.2.06l2.58.07c1.44.06,2.86.16,4.28.26.78.05,1.56.09,2.34.16,1.53.13,3.05.3,4.56.48l1.91.22q2.79.38,5.53.86l.81.12q3.21.59,6.36,1.31l.28.08q2.94.69,5.83,1.51c.54.15,1.07.33,1.61.49,1.47.44,2.94.89,4.39,1.38.67.23,1.34.48,2,.72,1.31.47,2.62.95,3.91,1.46.73.29,1.44.59,2.16.89q1.86.76,3.69,1.59l2.22,1c1.19.56,2.38,1.14,3.57,1.75l2.24,1.17c1.17.62,2.33,1.27,3.49,1.93.74.42,1.49.85,2.24,1.3,1.15.68,2.31,1.4,3.46,2.12.73.47,1.47.93,2.2,1.41,1.17.76,2.33,1.55,3.49,2.36l2.13,1.47.78.58-22.51,48.62q-2.75-1.92-5.52-3.7c-.39-.26-.79-.49-1.19-.74q-2.37-1.5-4.74-2.9l-2.11-1.19q-2-1.11-3.93-2.16c-.78-.41-1.55-.81-2.33-1.2q-1.92-1-3.87-1.89ZM736.6,629.82c-13.11-10.58-25.13-22.79-36.81-34.64s-23.86-24.23-37.19-35L685,511.71l2.55,2.16,1.54,1.32q2.35,2.07,4.68,4.18l1,1q1.84,1.7,3.67,3.42l1.71,1.63,2.95,2.85L705,530l2.82,2.79,1.83,1.83c.9.89,1.78,1.79,2.67,2.68l2,2.06.21.21,3.83,3.88,5.15,5.23.73.72c1.41,1.43,2.82,2.85,4.25,4.27l1.88,1.87,3.28,3.22,2.19,2.12q1.54,1.49,3.1,3l2.33,2.18c1,1,2.05,1.89,3.08,2.83l2.41,2.17c1.05.93,2.11,1.85,3.17,2.77.81.69,1.61,1.39,2.43,2.08,1.1.93,2.22,1.84,3.34,2.75.8.65,1.59,1.3,2.4,1.94l.93.75ZM768,483.92l-1.82-1.81q-1.74-1.74-3.47-3.49l-1.39-1.39-4.71-4.78L752,467.77l-1.34-1.35q-1.68-1.71-3.38-3.4l-1.79-1.78q-1.5-1.5-3-3l-2-1.92c-1-.93-1.93-1.87-2.91-2.8l-2.08-2-2.9-2.7-2.14-2c-1-.89-2-1.76-3-2.64l-2.15-1.89-3.13-2.65c-.7-.58-1.39-1.17-2.1-1.74l-.69-.58L741.83,389c11.72,9.82,22.69,20.95,33.35,31.78,12.75,12.95,25.89,26.29,40.67,37.85l-22.44,48.49q-2.32-1.87-4.61-3.81l-.23-.2c-1.77-1.5-3.51-3-5.24-4.59L781.69,497c-1.17-1.07-2.35-2.15-3.51-3.23L776.27,492q-1.6-1.51-3.19-3.06L771.15,487Q769.56,485.49,768,483.92Zm102.8,118.33-1.88.11c-1,.06-2.09.1-3.12.14l-4,.09-3,0c-1.35,0-2.68,0-4-.06l-2.81-.08c-1.38-.06-2.73-.15-4.09-.24-.86-.06-1.73-.11-2.58-.18-1.46-.12-2.89-.28-4.33-.44-.73-.08-1.47-.15-2.19-.24-1.79-.23-3.55-.5-5.3-.79-.36-.06-.73-.1-1.09-.17q-3.18-.55-6.31-1.24l-1.25-.31c-1.64-.38-3.27-.78-4.88-1.22-.7-.19-1.39-.4-2.08-.6-1.32-.39-2.64-.77-4-1.2-.78-.25-1.55-.53-2.33-.79-1.21-.42-2.42-.84-3.61-1.29-.81-.31-1.62-.64-2.42-1-1.15-.46-2.3-.92-3.44-1.42-.82-.35-1.64-.72-2.46-1.1q-1.67-.75-3.33-1.56c-.82-.4-1.64-.82-2.46-1.24-1.09-.55-2.18-1.13-3.26-1.72-.82-.45-1.64-.9-2.46-1.37-1.08-.61-2.16-1.25-3.23-1.9L782.5,581c-1.09-.69-2.17-1.4-3.26-2.12-.78-.52-1.56-1-2.34-1.56l-.62-.44,22.53-48.68.09.07q2.37,1.58,4.75,3.06l1.13.69q2.07,1.28,4.15,2.47l.76.44q2.4,1.37,4.81,2.62l1.12.57c1.36.7,2.73,1.37,4.1,2l1,.48.53.25c3.28,1.52,6.6,2.9,10,4.17l1.71.62c1.2.44,2.4.87,3.61,1.27.67.23,1.35.44,2,.66,1.13.36,2.27.71,3.41,1l2.1.61c1.16.32,2.32.62,3.49.92l2,.5c1.33.32,2.67.61,4,.89.52.11,1,.23,1.55.33,1.84.36,3.71.7,5.58,1,.48.08,1,.14,1.45.21,1.42.21,2.84.42,4.27.59l2.15.25c1.22.13,2.45.26,3.68.37l2.34.18c1.21.09,2.43.17,3.65.24l2.35.11c1.3,0,2.61.09,3.92.11.71,0,1.41,0,2.12,0,1.76,0,3.54,0,5.32,0h.72Z"/><path class="cls-4" d="M85,485.62a6.85,6.85,0,0,0,.61,3.43L114,550.41h0l28.4,61.36,28.41,61.38a6.88,6.88,0,0,0,5.72,4c31,2.4,58-1.91,83-13.47a167.43,167.43,0,0,0,29.34-17.56c16.63-12.3,31.13-27,45.15-41.25,12.68-12.87,25.8-26.19,40.11-37.2h0c29.59-22.79,59.94-32,97.83-29.7L584.55,781.17a4.42,4.42,0,0,0,5.84,2.15l5-2.31a4.42,4.42,0,0,0,2.15-5.85L483.37,528.5h0L455,467.12l-28.4-61.35-28.4-61.37a6.91,6.91,0,0,0-5.67-4c-43.1-3.64-78.67,6.58-111.94,32.18h0C265.47,384.21,252,397.88,239,411.09c-13.65,13.86-27.76,28.18-43.52,39.85h0c-30.79,22.75-62.57,31.49-103.06,28.35A6.87,6.87,0,0,0,85,485.62Zm282.9-9.13c-1.29.61-2.58,1.24-3.86,1.89-.78.39-1.56.79-2.33,1.2q-2,1.05-3.93,2.16c-.7.39-1.41.78-2.11,1.19q-2.38,1.4-4.74,2.9c-.4.25-.8.48-1.2.74q-2.77,1.79-5.52,3.7l-22.5-48.62.78-.58c.7-.5,1.41-1,2.12-1.47,1.16-.81,2.33-1.6,3.49-2.36l2.21-1.41c1.15-.72,2.3-1.44,3.46-2.12.74-.45,1.49-.88,2.24-1.3,1.16-.66,2.32-1.31,3.49-1.93.74-.4,1.49-.79,2.24-1.17,1.18-.61,2.37-1.19,3.56-1.75l2.22-1q1.84-.82,3.69-1.59l2.16-.89c1.3-.51,2.61-1,3.92-1.46.67-.24,1.33-.49,2-.72,1.46-.49,2.92-.94,4.39-1.38.54-.16,1.08-.34,1.62-.49q2.88-.83,5.82-1.51l.28-.08c2.1-.48,4.23-.92,6.37-1.31l.8-.12c1.83-.32,3.67-.61,5.54-.86l1.91-.22c1.51-.18,3-.35,4.56-.48.77-.07,1.56-.11,2.34-.16,1.42-.1,2.84-.2,4.27-.26l2.58-.07q2.08-.06,4.2-.06l2.73,0c1.4,0,2.8.06,4.23.12.93,0,1.88.08,2.82.13l2,.13,21.87,47.24c-.85,0-1.68,0-2.52,0l-2.66,0c-1.66,0-3.3,0-4.93.09-.74,0-1.48,0-2.22.06-2.34.1-4.65.23-6.95.43l-.74.08q-3.08.27-6.09.66c-.78.1-1.55.22-2.32.34-1.48.21-3,.44-4.43.69-.86.15-1.71.32-2.57.48-1.38.27-2.76.56-4.14.86-.84.19-1.69.38-2.53.59-1.43.34-2.84.72-4.25,1.1-.75.21-1.5.4-2.25.62-1.86.54-3.7,1.13-5.54,1.75l-.82.26q-3.14,1.08-6.22,2.31c-.67.26-1.33.55-2,.83q-2.11.87-4.21,1.8C369.47,475.76,368.7,476.13,367.93,476.49ZM265,581.33l.93-.75,2.39-1.94c1.12-.91,2.24-1.82,3.34-2.75l2.44-2.08,3.16-2.77,2.41-2.17c1-.94,2.06-1.88,3.08-2.83l2.34-2.18c1-1,2.06-2,3.09-3,.73-.7,1.47-1.41,2.19-2.12l3.28-3.22,1.89-1.87q2.13-2.13,4.25-4.27l.72-.72,5.16-5.23,3.82-3.88.21-.21,2-2.06,2.67-2.68,1.84-1.83L319,530l1.82-1.78,3-2.85,1.71-1.63c1.21-1.15,2.44-2.29,3.66-3.42l1.05-1q2.31-2.11,4.68-4.18l1.54-1.32q1.26-1.1,2.55-2.16l22.41,48.44c-13.32,10.8-25.43,23.1-37.18,35s-23.71,24.06-36.82,34.64ZM252.85,487l-1.92,1.87q-1.59,1.55-3.2,3.06l-1.91,1.81q-1.74,1.62-3.51,3.23l-1.64,1.49c-1.73,1.55-3.47,3.09-5.23,4.59l-.24.2c-1.52,1.29-3.06,2.56-4.6,3.81L208.16,458.6c14.78-11.56,27.91-24.9,40.66-37.85,10.66-10.83,21.63-22,33.36-31.78l22.42,48.44-.7.58c-.7.57-1.4,1.16-2.09,1.74-1.05.88-2.1,1.76-3.13,2.65l-2.16,1.89c-1,.88-2,1.75-3,2.64l-2.14,2-2.91,2.7-2.08,2-2.91,2.8-2,1.92-3,3c-.6.59-1.2,1.18-1.79,1.78-1.14,1.13-2.26,2.26-3.39,3.4L272,467.77q-2.32,2.34-4.62,4.68c-1.56,1.59-3.14,3.18-4.72,4.78l-1.38,1.39c-1.16,1.17-2.31,2.33-3.48,3.49L256,483.92ZM131.33,555h.72c1.79,0,3.56,0,5.32,0,.71,0,1.42,0,2.13,0,1.31,0,2.62-.06,3.91-.11l2.35-.11c1.23-.07,2.44-.15,3.65-.24.78,0,1.57-.11,2.34-.18,1.24-.11,2.46-.24,3.68-.37l2.16-.25c1.43-.17,2.85-.38,4.26-.59.48-.07,1-.13,1.45-.21,1.88-.3,3.74-.64,5.59-1,.52-.1,1-.22,1.54-.33,1.35-.28,2.69-.57,4-.89l2-.5c1.16-.3,2.32-.6,3.48-.92l2.11-.61c1.14-.33,2.27-.68,3.4-1,.68-.22,1.35-.43,2-.66,1.21-.4,2.42-.83,3.62-1.27l1.7-.62c3.36-1.27,6.68-2.65,10-4.17l.52-.25,1-.48c1.37-.66,2.73-1.33,4.09-2l1.12-.57c1.61-.84,3.22-1.71,4.81-2.62.26-.14.51-.29.76-.44q2.09-1.2,4.15-2.47l1.14-.69c1.58-1,3.17-2,4.74-3.06l.1-.07,22.53,48.68-.63.44c-.77.54-1.56,1-2.34,1.56-1.08.72-2.17,1.43-3.26,2.12-.8.5-1.61,1-2.41,1.47-1.08.65-2.16,1.29-3.24,1.9-.81.47-1.63.92-2.45,1.37-1.09.59-2.17,1.17-3.26,1.72-.82.42-1.64.84-2.47,1.24-1.1.54-2.21,1.06-3.32,1.56-.82.38-1.64.75-2.47,1.1-1.14.5-2.28,1-3.43,1.42-.81.32-1.61.65-2.42,1-1.2.45-2.41.87-3.62,1.29-.77.26-1.54.54-2.32.79-1.31.43-2.63.81-4,1.2-.69.2-1.38.41-2.07.6-1.61.44-3.24.84-4.88,1.22l-1.26.31q-3.12.69-6.31,1.24c-.36.07-.72.11-1.08.17-1.76.29-3.52.56-5.3.79-.73.09-1.47.16-2.2.24-1.43.16-2.87.32-4.32.44l-2.58.18c-1.36.09-2.72.18-4.09.24l-2.82.08c-1.33,0-2.66.06-4,.06l-3,0-4-.09c-1,0-2.08-.08-3.13-.14l-1.88-.11Z"/><path class="cls-4" d="M325.21,846.92l-29.72-13.37L259,846.92H199.18l2.88-13.17h28.7l51.46-18.68,2-9.24h32.25l-2.06,9.44,43.34,18.48h29.1L384,846.92ZM213.52,787.55H395.39l-7.47,34.21H355.28l4.51-20.65H243.2l-4.51,20.65H206.05Zm38.8-55.25,1.42-6.49H225.62l2.53-11.6h28.12l1.5-6.88h31.85l-1.5,6.88H353l1.5-6.88h31.85l-1.5,6.88H413l-2.53,11.6H382.32l-1.42,6.49H409l-2.53,11.6H378.37l-1.5,6.88H405l-2.48,11.4H360.42l8.77,6.69H401l-2.71,12.38h-57.8l-24.94-19.07h-11.4l-32.87,19.07h-57.8l2.7-12.38h32.25l11.09-6.69H217.68l2.49-11.4h28.12l1.5-6.88H221.67l2.53-11.6Zm-16.89-46h74.12l1.29-5.9h33.81l-1.28,5.9h74.12l-4.21,19.27H381.83l1.33-6.09h-119l-1.33,6.09H231.22Zm44.71,64.49H345l1.5-6.88H281.64Zm4-18.48h64.88l1.42-6.49H285.59Z"/><path class="cls-4" d="M748,715.83,737.45,764h59.77l-4.08,18.67H733.37l-6.14,28.12h64.3l-4.08,18.68H723.16l-5.33,24.38H680.68L686,829.47H600.87l4.07-18.68h85.14l6.13-28.12H640.57q-11.21,0-16-8.84-4.86-9.24,1-20.06L650,707h-17.9l4.08-18.68h23.59l11-20.84h37.36l-11,20.84H815.31L811.24,707H687.37l-29.94,57h42.86l10.51-48.17Z"/><path class="cls-4" d="M883.11,335s-9.42,22-18.83,32.44-28.78,18.83-28.78,18.83,18.31,6.28,23.54,19.88,5.76,30.35,5.76,30.35,12-26.16,21.45-33.48,24.59-14.13,24.59-14.13-16.74-10.46-22-19.88S883.11,335,883.11,335Z"/><path class="cls-4" d="M240.5,244.5s-7,26-15,31-26,11-26,11,17.5,13.5,20,20,5,33,5,33S234,315.06,243,307c9.5-8.5,26.5-15.5,26.5-15.5s-12-6-19-17S240.5,244.5,240.5,244.5Z"/><g class="cls-3"><path d="M311.47,152.1q12.18,2,8.12,20.29-5.1,39.56-6.09,94.34,0,30.43-3,44.64c-.69,2.71-1.37,4.41-2,5.07-.69,0-1.7-1.34-3.05-4.05q-8.13-13.18-3-41.6c0-2.69-.68-4.06-2-4.06s-2.71,1-4.06,3A161.64,161.64,0,0,1,278,291.08c-2.71,2-4.41,3.05-5.07,3.05s-1.36-1.35-2-4.06a137.54,137.54,0,0,1,3-36.52q5.07-22.31-2-54.79-6.07-27.39,6.09-32.46,6.09,0,9.13,20.29-2,7.11,0,19.28v5.07q2,18.26-2,44.64c-.68,4.73-.68,7.45,0,8.11q1,2,6.09-1,11.15-6.09,11.16-18.26,4-55.78,1-58.84a148.77,148.77,0,0,1-2-26.38Q303.35,151.08,311.47,152.1Zm94.35-2q2,5.09,5.07,14.2c.66,1.37,2,2,4.06,2a125,125,0,0,1,22.32,2q10.13,2,18.26-2c4.05-2,7.43-1.68,10.14,1q4.05,3,1,9.13a196.69,196.69,0,0,0-18.27,46.66q-2,6.09,5.08,6.09a235.46,235.46,0,0,1,24.34,1,28.18,28.18,0,0,0,18.27-4.05c2.69-2,4.72-2.7,6.08-2q2,3-2,6.08c-6.08,3.4-10.14,9.13-12.17,17.25q-10.15,20.31-36.52,11.16-18.27-9.13-41.6-10.15c-4.05,0-6.43,2.38-7.1,7.11q-5.08,34.5-27.39,49.7-26.38,18.27-39.56-3c-1.37-2.69-2-4.39-2-5.07s1.35-1,4.06-1q43.61-3,49.71-35.5,4-12.18-3.05-10.15a81.26,81.26,0,0,0-30.43,10.15q-22.33,13.19-24.35-3-1-19.26,6.09-18.26a229.58,229.58,0,0,0,34.49-11.16q4-3,12.17-3c4.06-.66,7.1-2,9.13-4.06q1-5.06,2-13.19a28,28,0,0,0,1-6.08c0-4.73-2.38-6.09-7.1-4.06q-21.31,7.11-27.4-4.06-4.07-15.21,4.06-20.29a161.77,161.77,0,0,0,23.34-3q6.07,1,6.08-16.23Q398.71,144,405.82,150.07Zm-69,18.26q1-6.09,6.09-3c3.37,3.39,5.07,7.1,5.07,11.16a219.17,219.17,0,0,0-5.07,48.69q-5.09,11.18-9.13,7.1a156.2,156.2,0,0,0,1-20.29Q333.78,197.76,336.83,168.33Zm99.42,24.35q-23.36-2-25.36,5.07-4.06,9.13-5.07,23.33,7.08,1,18.26,3a61,61,0,0,0,8.11,1c4.06.68,6.09-.66,6.09-4.06q0-15.21,3-21.3C442.67,195.06,441,192.68,436.25,192.68Zm-11.16,78.11A140.25,140.25,0,0,1,467.7,292.1q6.09,3,0,8.11a60.59,60.59,0,0,0-7.1,9.13q-14.22,13.2-28.41,3.05Q422,301.23,417,282c-1.37-4.72-1.7-8.11-1-10.14C417.31,270.46,420.35,270.13,425.09,270.79Z"/><path d="M613.78,153.11q20.29-5.06,36.53-3,3,1,12.17,1a57.9,57.9,0,0,1,18.26,1q23.32,5.09,35.51,2c2-.67,3.37-.67,4,0,.67,0,1,1.36,1,4.06q-2,24.34-34.49,18.26c-1.37-.67-6.09-1-14.21-1q-8.13,2-27.39,2a215.6,215.6,0,0,0-35.5,3c-6.09,3.4-9.82,6.09-11.16,8.12q-1,4.06-2,22.32,16.22,5.09,39.56-7.1,5.07-5.07,5.07-14.21c.67-2.69,2.7-4.39,6.09-5.07q7.1-2,8.12,17.25c1.35,5.42,5.74,8.11,13.19,8.11q10.13,0,32.46,6.09,15.21,4.06,25.36,2a55.22,55.22,0,0,1,15.22-2q8.1,0,12.17-3c1.35-2,2.7-2.7,4.06-2,.67,0,.67,1.36,0,4.06-2,7.45-4.41,12.17-7.1,14.2a94.4,94.4,0,0,0-11.16,14.2q-11.18,13.2-35.51,4.06-34.5-16.22-48.69-12.17-3,6.08-3,69v14.2q0,10.14-17.24,11.16-7.11-2-6.09-13.19,7.1-54.78,6.09-77.1,0-7.08-9.13-5.07a28,28,0,0,0-6.09,1,66.11,66.11,0,0,0-16.23,5.07q-25.36,9.12-59.85,13.19-14.22-2-13.19-21.31-1-3,11.16-7.1,13.17-4,18.26-8.12,21.3-21.3,8.11-52.75-3-8.1,3-13.19,5.05-5.06,18.26,5.08Q589.44,158.2,613.78,153.11Zm-5.07,108.55q7.1-1,5.07,7.1-16.23,35.53-40.57,41.6-28.43,8.13-32.47-11.16a8.2,8.2,0,0,0-1-3.05,14.45,14.45,0,0,0-2-8.11q0-8.12,7.1-5.07,8.12,5.08,20.29-2,14.19-8.12,21.3-9.13c6.09-2,10.15-3.71,12.18-5.08l8.11-4.05A2.94,2.94,0,0,1,608.71,261.66Zm64.93,5.07q-1-3,2-4.05c1.34-.67,2.69-.34,4.06,1a12.43,12.43,0,0,0,10.14,5.07q30.43,10.15,48.7,20.29c4,3.4,7.1,4.74,9.13,4.06q3,0,4,2,0,1-2,4.06-21.3,19.28-37.53,19.27a37.1,37.1,0,0,0-9.13-3Q679.71,301.24,673.64,266.73Z"/></g><path class="cls-4" d="M308.47,148.1q12.18,2,8.12,20.29-5.1,39.56-6.09,94.34,0,30.43-3,44.64c-.69,2.71-1.37,4.41-2,5.07-.69,0-1.7-1.34-3.05-4.05q-8.13-13.18-3-41.6c0-2.69-.68-4.06-2-4.06s-2.71,1-4.06,3A161.64,161.64,0,0,1,275,287.08c-2.71,2-4.41,3.05-5.07,3.05s-1.36-1.35-2-4.06a137.54,137.54,0,0,1,3-36.52q5.07-22.31-2-54.79-6.07-27.39,6.09-32.46,6.09,0,9.13,20.29-2,7.11,0,19.28v5.07q2,18.26-2,44.64c-.68,4.73-.68,7.45,0,8.11q1,2,6.09-1,11.15-6.09,11.16-18.26,4-55.78,1-58.84a148.77,148.77,0,0,1-2-26.38Q300.35,147.08,308.47,148.1Zm94.35-2q2,5.09,5.07,14.2c.66,1.37,2,2,4.06,2a125,125,0,0,1,22.32,2q10.13,2,18.26-2c4.05-2,7.43-1.68,10.14,1q4.05,3,1,9.13a196.69,196.69,0,0,0-18.27,46.66q-2,6.09,5.08,6.09a235.46,235.46,0,0,1,24.34,1,28.18,28.18,0,0,0,18.27-4.05c2.69-2,4.72-2.7,6.08-2q2,3-2,6.08c-6.08,3.4-10.14,9.13-12.17,17.25q-10.15,20.31-36.52,11.16-18.27-9.13-41.6-10.15c-4.05,0-6.43,2.38-7.1,7.11q-5.08,34.5-27.39,49.7-26.38,18.27-39.56-3c-1.37-2.69-2-4.39-2-5.07s1.35-1,4.06-1q43.61-3,49.71-35.5,4-12.18-3.05-10.15a81.26,81.26,0,0,0-30.43,10.15q-22.33,13.19-24.35-3-1-19.26,6.09-18.26a229.58,229.58,0,0,0,34.49-11.16q4-3,12.17-3c4.06-.66,7.1-2,9.13-4.06q1-5.06,2-13.19a28,28,0,0,0,1-6.08c0-4.73-2.38-6.09-7.1-4.06q-21.31,7.11-27.4-4.06-4.07-15.21,4.06-20.29a161.77,161.77,0,0,0,23.34-3q6.07,1,6.08-16.23Q395.71,140,402.82,146.07Zm-69,18.26q1-6.09,6.09-3c3.37,3.39,5.07,7.1,5.07,11.16a219.17,219.17,0,0,0-5.07,48.69q-5.09,11.18-9.13,7.1a156.2,156.2,0,0,0,1-20.29Q330.78,193.76,333.83,164.33Zm99.42,24.35q-23.36-2-25.36,5.07-4.06,9.13-5.07,23.33,7.08,1,18.26,3a61,61,0,0,0,8.11,1c4.06.68,6.09-.66,6.09-4.06q0-15.21,3-21.3C439.67,191.06,438,188.68,433.25,188.68Zm-11.16,78.11A140.25,140.25,0,0,1,464.7,288.1q6.09,3,0,8.11a60.59,60.59,0,0,0-7.1,9.13q-14.22,13.2-28.41,3.05Q419,297.23,414,278c-1.37-4.72-1.7-8.11-1-10.14C414.31,266.46,417.35,266.13,422.09,266.79Z"/><path class="cls-4" d="M610.78,149.11q20.29-5.06,36.53-3,3,1,12.17,1a57.9,57.9,0,0,1,18.26,1q23.32,5.09,35.51,2c2-.67,3.37-.67,4,0,.67,0,1,1.36,1,4.06q-2,24.34-34.49,18.26c-1.37-.67-6.09-1-14.21-1q-8.13,2-27.39,2a215.6,215.6,0,0,0-35.5,3c-6.09,3.4-9.82,6.09-11.16,8.12q-1,4.06-2,22.32,16.22,5.09,39.56-7.1,5.07-5.07,5.07-14.21c.67-2.69,2.7-4.39,6.09-5.07q7.1-2,8.12,17.25c1.35,5.42,5.74,8.11,13.19,8.11q10.13,0,32.46,6.09,15.21,4.06,25.36,2a55.22,55.22,0,0,1,15.22-2q8.1,0,12.17-3c1.35-2,2.7-2.7,4.06-2,.67,0,.67,1.36,0,4.06-2,7.45-4.41,12.17-7.1,14.2a94.4,94.4,0,0,0-11.16,14.2q-11.18,13.2-35.51,4.06-34.5-16.22-48.69-12.17-3,6.08-3,69v14.2q0,10.14-17.24,11.16-7.11-2-6.09-13.19,7.1-54.78,6.09-77.1,0-7.08-9.13-5.07a28,28,0,0,0-6.09,1,66.11,66.11,0,0,0-16.23,5.07q-25.36,9.12-59.85,13.19-14.22-2-13.19-21.31-1-3,11.16-7.1,13.17-4,18.26-8.12,21.3-21.3,8.11-52.75-3-8.1,3-13.19,5.05-5.06,18.26,5.08Q586.44,154.2,610.78,149.11Zm-5.07,108.55q7.1-1,5.07,7.1-16.23,35.53-40.57,41.6-28.43,8.13-32.47-11.16a8.2,8.2,0,0,0-1-3.05,14.45,14.45,0,0,0-2-8.11q0-8.12,7.1-5.07,8.12,5.08,20.29-2,14.19-8.12,21.3-9.13c6.09-2,10.15-3.71,12.18-5.08l8.11-4.05A2.94,2.94,0,0,1,605.71,257.66Zm64.93,5.07q-1-3,2-4.05c1.34-.67,2.69-.34,4.06,1a12.43,12.43,0,0,0,10.14,5.07q30.43,10.15,48.7,20.29c4,3.4,7.1,4.74,9.13,4.06q3,0,4,2,0,1-2,4.06-21.3,19.28-37.53,19.27a37.1,37.1,0,0,0-9.13-3Q676.71,297.24,670.64,262.73Z"/></svg>