<svg id="图层_1" data-name="图层 1" xmlns="http://www.w3.org/2000/svg" xmlns:xlink="http://www.w3.org/1999/xlink" viewBox="0 0 1024 1024"><defs><style>.cls-1{fill:url(#未命名的渐变_7);}.cls-2,.cls-3{opacity:0.1;}.cls-4{fill:#fff;}</style><linearGradient id="未命名的渐变_7" x1="512" x2="512" y2="1024" gradientUnits="userSpaceOnUse"><stop offset="0" stop-color="#f45c43"/><stop offset="1" stop-color="#eb3349"/></linearGradient></defs><title>幸运赛车</title><rect class="cls-1" width="1024" height="1024" rx="350"/><path class="cls-2" d="M886.11,341s-9.42,22-18.83,32.44-28.78,18.83-28.78,18.83,18.31,6.28,23.54,19.88,5.76,30.35,5.76,30.35,12-26.16,21.45-33.48,24.59-14.13,24.59-14.13-16.74-10.46-22-19.88S886.11,341,886.11,341Z"/><g class="cls-3"><path d="M935.58,484.29c-40.48,3.14-72.27-5.6-103.06-28.35h0c-15.77-11.67-29.88-26-43.52-39.85-13-13.21-26.47-26.88-41.52-38.47h0c-33.27-25.6-68.84-35.82-111.94-32.18a6.9,6.9,0,0,0-5.67,4l-28.4,61.37-28.4,61.35L544.64,533.5h0L430.47,780.16a4.43,4.43,0,0,0,2.15,5.85l5,2.31a4.41,4.41,0,0,0,5.84-2.15L556,542.93c37.89-2.34,68.23,6.91,97.82,29.7h0c14.3,11,27.42,24.33,40.11,37.2,14,14.24,28.52,28.95,45.14,41.25a167.79,167.79,0,0,0,29.34,17.56c25,11.56,52,15.87,83,13.47a6.87,6.87,0,0,0,5.71-4l28.41-61.38L914,555.41h0l28.4-61.36a6.88,6.88,0,0,0-6.78-9.76Zm-277.82-3.88q-2.1-.93-4.22-1.8c-.66-.28-1.32-.57-2-.83q-3.09-1.23-6.23-2.31l-.81-.26c-1.84-.62-3.69-1.21-5.55-1.75-.74-.22-1.49-.41-2.24-.62-1.41-.38-2.83-.76-4.26-1.1-.84-.21-1.68-.4-2.53-.59-1.37-.3-2.75-.59-4.14-.86l-2.56-.48q-2.21-.37-4.44-.69c-.77-.12-1.54-.24-2.31-.34q-3-.39-6.09-.66l-.75-.08c-2.29-.2-4.61-.33-6.95-.43-.73,0-1.48,0-2.22-.06-1.63-.05-3.27-.09-4.92-.09l-2.66,0c-.85,0-1.68,0-2.52,0l21.86-47.24,2-.13c.95-.05,1.89-.1,2.83-.13,1.42-.06,2.83-.09,4.23-.12l2.72,0q2.12,0,4.2.06l2.58.07c1.44.06,2.86.16,4.28.26.78.05,1.56.09,2.34.16,1.53.13,3.05.3,4.56.48l1.91.22q2.79.38,5.53.86l.81.12q3.21.59,6.36,1.31l.28.08q2.94.69,5.83,1.51c.54.15,1.07.33,1.61.49,1.47.44,2.94.89,4.39,1.38.67.23,1.34.48,2,.72,1.31.47,2.62.95,3.91,1.46.73.29,1.44.59,2.16.89q1.86.76,3.69,1.59l2.22,1c1.19.56,2.38,1.14,3.57,1.75l2.24,1.17c1.17.62,2.33,1.27,3.49,1.93.74.42,1.49.85,2.24,1.3,1.15.68,2.31,1.4,3.46,2.12.73.47,1.47.93,2.2,1.41,1.17.76,2.33,1.55,3.49,2.36l2.13,1.47.78.58-22.51,48.62q-2.75-1.92-5.52-3.7c-.39-.26-.79-.49-1.19-.74q-2.37-1.5-4.74-2.9l-2.11-1.19q-2-1.11-3.93-2.16c-.78-.41-1.55-.81-2.33-1.2q-1.92-1-3.87-1.89ZM740.6,634.82c-13.11-10.58-25.13-22.79-36.81-34.64s-23.86-24.23-37.19-35L689,516.71q1.28,1.06,2.55,2.16l1.54,1.32q2.35,2.07,4.68,4.18l1,1q1.84,1.7,3.67,3.42l1.71,1.63,2.95,2.85L709,535l2.82,2.79,1.83,1.83c.9.89,1.78,1.79,2.67,2.68l2,2.06.21.21,3.83,3.88,5.15,5.23.73.72c1.41,1.43,2.82,2.85,4.25,4.27l1.88,1.87,3.28,3.22,2.19,2.12q1.54,1.49,3.1,3l2.33,2.18c1,1,2.05,1.89,3.08,2.83l2.41,2.17c1.05.93,2.11,1.85,3.17,2.77.81.69,1.61,1.39,2.43,2.08,1.1.93,2.22,1.84,3.34,2.75.8.65,1.59,1.3,2.4,1.94l.93.75ZM772,488.92l-1.82-1.81q-1.74-1.74-3.47-3.49l-1.39-1.39-4.71-4.78L756,472.77l-1.34-1.35q-1.68-1.71-3.38-3.4l-1.79-1.78q-1.5-1.5-3-3l-2-1.92c-1-.93-1.93-1.87-2.91-2.8l-2.08-2-2.9-2.7-2.14-2c-1-.89-2-1.76-3-2.64l-2.15-1.89-3.13-2.65c-.7-.58-1.39-1.17-2.1-1.74l-.69-.58L745.83,394c11.72,9.82,22.69,20.95,33.35,31.78,12.75,12.95,25.89,26.29,40.67,37.85l-22.44,48.49q-2.32-1.88-4.61-3.81l-.23-.2c-1.77-1.5-3.51-3-5.24-4.59L785.69,502c-1.17-1.07-2.35-2.15-3.51-3.23L780.27,497q-1.6-1.51-3.19-3.06L775.15,492Q773.56,490.49,772,488.92Zm102.8,118.33-1.88.11c-1,.06-2.09.1-3.12.14l-4,.09-3,0c-1.35,0-2.68,0-4-.06l-2.81-.08c-1.38-.06-2.73-.15-4.09-.24-.86-.06-1.73-.11-2.58-.18-1.46-.12-2.89-.28-4.33-.44-.73-.08-1.47-.15-2.19-.24-1.79-.23-3.55-.5-5.3-.79-.36-.06-.73-.1-1.09-.17q-3.18-.55-6.31-1.24l-1.25-.31c-1.64-.38-3.27-.78-4.88-1.22-.7-.19-1.39-.4-2.08-.6-1.32-.39-2.64-.77-4-1.2-.78-.25-1.55-.53-2.33-.79-1.21-.42-2.42-.84-3.61-1.29-.81-.31-1.62-.64-2.42-1-1.15-.46-2.3-.92-3.44-1.42-.82-.35-1.64-.72-2.46-1.1q-1.67-.75-3.33-1.56c-.82-.4-1.64-.82-2.46-1.24-1.09-.55-2.18-1.13-3.26-1.72-.82-.45-1.64-.9-2.46-1.37-1.08-.61-2.16-1.25-3.23-1.9L786.5,586c-1.09-.69-2.17-1.4-3.26-2.12-.78-.52-1.56-1-2.34-1.56l-.62-.44,22.53-48.68.09.07q2.37,1.58,4.75,3.06l1.13.69q2.07,1.28,4.15,2.47l.76.44q2.4,1.37,4.81,2.62l1.12.57c1.36.7,2.73,1.37,4.1,2l1,.48.53.25c3.28,1.52,6.6,2.9,10,4.17l1.71.62c1.2.44,2.4.87,3.61,1.27.67.23,1.35.44,2,.66,1.13.36,2.27.71,3.41,1l2.1.61c1.16.32,2.32.62,3.49.92l2,.5c1.33.32,2.67.61,4,.89.52.11,1,.23,1.55.33,1.84.36,3.71.7,5.58,1,.48.08,1,.14,1.45.21,1.42.21,2.84.42,4.27.59l2.15.25c1.22.13,2.45.26,3.68.37l2.34.18c1.21.09,2.43.17,3.65.24l2.35.11c1.3,0,2.61.09,3.92.11.71,0,1.41,0,2.12,0,1.76,0,3.54,0,5.32,0h.72Z"/><path d="M89,490.62a6.85,6.85,0,0,0,.61,3.43L118,555.41h0l28.4,61.36,28.41,61.38a6.88,6.88,0,0,0,5.72,4c31,2.4,58-1.91,83-13.47a167.43,167.43,0,0,0,29.34-17.56c16.63-12.3,31.13-27,45.15-41.25,12.68-12.87,25.8-26.19,40.11-37.2h0c29.59-22.79,59.94-32,97.83-29.7L588.55,786.17a4.42,4.42,0,0,0,5.84,2.15l5-2.31a4.42,4.42,0,0,0,2.15-5.85L487.37,533.5h0L459,472.12l-28.4-61.35-28.4-61.37a6.91,6.91,0,0,0-5.67-4c-43.1-3.64-78.67,6.58-111.94,32.18h0C269.47,389.21,256,402.88,243,416.09c-13.65,13.86-27.76,28.18-43.52,39.85h0c-30.79,22.75-62.57,31.49-103.06,28.35A6.87,6.87,0,0,0,89,490.62Zm282.9-9.13c-1.29.61-2.58,1.24-3.86,1.89-.78.39-1.56.79-2.33,1.2q-2,1.05-3.93,2.16c-.7.39-1.41.78-2.11,1.19q-2.38,1.4-4.74,2.9c-.4.25-.8.48-1.2.74q-2.77,1.79-5.52,3.7l-22.5-48.62.78-.58c.7-.5,1.41-1,2.12-1.47,1.16-.81,2.33-1.6,3.49-2.36l2.21-1.41c1.15-.72,2.3-1.44,3.46-2.12.74-.45,1.49-.88,2.24-1.3,1.16-.66,2.32-1.31,3.49-1.93.74-.4,1.49-.79,2.24-1.17,1.18-.61,2.37-1.19,3.56-1.75l2.22-1q1.84-.82,3.69-1.59l2.16-.89c1.3-.51,2.61-1,3.92-1.46.67-.24,1.33-.49,2-.72,1.46-.49,2.92-.94,4.39-1.38.54-.16,1.08-.34,1.62-.49q2.88-.83,5.82-1.51l.28-.08c2.1-.48,4.23-.92,6.37-1.31l.8-.12c1.83-.32,3.67-.61,5.54-.86l1.91-.22c1.51-.18,3-.35,4.56-.48.77-.07,1.56-.11,2.34-.16,1.42-.1,2.84-.2,4.27-.26l2.58-.07q2.08-.06,4.2-.06l2.73,0c1.4,0,2.8.06,4.23.12.93,0,1.88.08,2.82.13l2,.13,21.87,47.24c-.85,0-1.68,0-2.52,0l-2.66,0c-1.66,0-3.3,0-4.93.09-.74,0-1.48,0-2.22.06-2.34.1-4.65.23-6.95.43l-.74.08q-3.08.27-6.09.66c-.78.1-1.55.22-2.32.34-1.48.21-3,.44-4.43.69-.86.15-1.71.32-2.57.48-1.38.27-2.76.56-4.14.86-.84.19-1.69.38-2.53.59-1.43.34-2.84.72-4.25,1.1-.75.21-1.5.4-2.25.62-1.86.54-3.7,1.13-5.54,1.75l-.82.26q-3.14,1.08-6.22,2.31c-.67.26-1.33.55-2,.83q-2.11.87-4.21,1.8C373.47,480.76,372.7,481.13,371.93,481.49ZM269,586.33l.93-.75,2.39-1.94c1.12-.91,2.24-1.82,3.34-2.75l2.44-2.08,3.16-2.77,2.41-2.17c1-.94,2.06-1.88,3.08-2.83l2.34-2.18c1-1,2.06-2,3.09-3,.73-.7,1.47-1.41,2.19-2.12l3.28-3.22,1.89-1.87q2.13-2.13,4.25-4.27l.72-.72,5.16-5.23,3.82-3.88.21-.21,2-2.06,2.67-2.68,1.84-1.83L323,535l1.82-1.78,3-2.85,1.71-1.63c1.21-1.15,2.44-2.29,3.66-3.42l1.05-1q2.31-2.11,4.68-4.18l1.54-1.32q1.26-1.1,2.55-2.16l22.41,48.44c-13.32,10.8-25.43,23.1-37.18,35s-23.71,24.06-36.82,34.64ZM256.85,492l-1.92,1.87q-1.59,1.55-3.2,3.06l-1.91,1.81q-1.74,1.62-3.51,3.23l-1.64,1.49c-1.73,1.55-3.47,3.09-5.23,4.59l-.24.2c-1.52,1.29-3.06,2.56-4.6,3.81L212.16,463.6c14.78-11.56,27.91-24.9,40.66-37.85,10.66-10.83,21.63-22,33.36-31.78l22.42,48.44-.7.58c-.7.57-1.4,1.16-2.09,1.74-1.05.88-2.1,1.76-3.13,2.65l-2.16,1.89c-1,.88-2,1.75-3,2.64l-2.14,2-2.91,2.7-2.08,2-2.91,2.8-2,1.92-3,3c-.6.59-1.2,1.18-1.79,1.78-1.14,1.13-2.26,2.26-3.39,3.4L276,472.77q-2.32,2.34-4.62,4.68c-1.56,1.59-3.14,3.18-4.72,4.78l-1.38,1.39c-1.16,1.17-2.31,2.33-3.48,3.49L260,488.92ZM135.33,560h.72c1.79,0,3.56,0,5.32,0,.71,0,1.42,0,2.13,0,1.31,0,2.62-.06,3.91-.11l2.35-.11c1.23-.07,2.44-.15,3.65-.24.78,0,1.57-.11,2.34-.18,1.24-.11,2.46-.24,3.68-.37l2.16-.25c1.43-.17,2.85-.38,4.26-.59.48-.07,1-.13,1.45-.21,1.88-.3,3.74-.64,5.59-1,.52-.1,1-.22,1.54-.33,1.35-.28,2.69-.57,4-.89l2-.5c1.16-.3,2.32-.6,3.48-.92l2.11-.61c1.14-.33,2.27-.68,3.4-1,.68-.22,1.35-.43,2-.66,1.21-.4,2.42-.83,3.62-1.27l1.7-.62c3.36-1.27,6.68-2.65,10-4.17l.52-.25,1-.48c1.37-.66,2.73-1.33,4.09-2l1.12-.57c1.61-.84,3.22-1.71,4.81-2.62.26-.14.51-.29.76-.44q2.09-1.2,4.15-2.47l1.14-.69c1.58-1,3.17-2,4.74-3.06l.1-.07,22.53,48.68-.63.44c-.77.54-1.56,1-2.34,1.56-1.08.72-2.17,1.43-3.26,2.12-.8.5-1.61,1-2.41,1.47-1.08.65-2.16,1.29-3.24,1.9-.81.47-1.63.92-2.45,1.37-1.09.59-2.17,1.17-3.26,1.72-.82.42-1.64.84-2.47,1.24-1.1.54-2.21,1.06-3.32,1.56-.82.38-1.64.75-2.47,1.1-1.14.5-2.28,1-3.43,1.42-.81.32-1.61.65-2.42,1-1.2.45-2.41.87-3.62,1.29-.77.26-1.54.54-2.32.79-1.31.43-2.63.81-4,1.2-.69.2-1.38.41-2.07.6-1.61.44-3.24.84-4.88,1.22l-1.26.31q-3.12.69-6.31,1.24c-.36.07-.72.11-1.08.17-1.76.29-3.52.56-5.3.79-.73.09-1.47.16-2.2.24-1.43.16-2.87.32-4.32.44l-2.58.18c-1.36.09-2.72.18-4.09.24l-2.82.08c-1.33,0-2.66.06-4,.06l-3,0-4-.09c-1,0-2.08-.08-3.13-.14l-1.88-.11Z"/></g><g class="cls-3"><path d="M329.21,851.92l-29.72-13.37L263,851.92H203.18l2.88-13.17h28.7l51.46-18.68,2-9.24h32.25l-2.06,9.44,43.34,18.48h29.1L388,851.92ZM217.52,792.55H399.39l-7.47,34.21H359.28l4.51-20.65H247.2l-4.51,20.65H210.05Zm38.8-55.25,1.42-6.49H229.62l2.53-11.6h28.12l1.5-6.88h31.85l-1.5,6.88H357l1.5-6.88h31.85l-1.5,6.88H417l-2.53,11.6H386.32l-1.42,6.49H413l-2.53,11.6H382.37l-1.5,6.88H409l-2.48,11.4H364.42l8.77,6.69H405l-2.71,12.38h-57.8l-24.94-19.07h-11.4l-32.87,19.07h-57.8l2.7-12.38h32.25l11.09-6.69H221.68l2.49-11.4h28.12l1.5-6.88H225.67l2.53-11.6Zm-16.89-46h74.12l1.29-5.9h33.81l-1.28,5.9h74.12l-4.21,19.27H385.83l1.33-6.09h-119l-1.33,6.09H235.22Zm44.71,64.49H349l1.5-6.88H285.64Zm4-18.48h64.88l1.42-6.49H289.59Z"/></g><g class="cls-3"><path d="M752,720.83,741.45,769h59.77l-4.08,18.67H737.37l-6.14,28.12h64.3l-4.08,18.68H727.16l-5.33,24.38H684.68L690,834.47H604.87l4.07-18.68h85.14l6.13-28.12H644.57q-11.21,0-16-8.84-4.86-9.24,1-20.06L654,712h-17.9l4.08-18.68h23.59l11-20.84h37.36l-11,20.84H819.31L815.24,712H691.37l-29.94,57h42.86l10.51-48.17Z"/></g><g class="cls-3"><path d="M397.81,189.27a6.94,6.94,0,0,1,.44-2.5c.38-1.36.72-2.73,1-4.09l1.21-5.46a27.73,27.73,0,0,1-5,1.14,42,42,0,0,1-6.12.45,27.47,27.47,0,0,1-5.79-.57,7.37,7.37,0,0,1-4-1.93l-2.28-4.09c-.57-1.52-1.22-3-1.95-4.55a10.15,10.15,0,0,1-.93-5,5,5,0,0,1,2.68-2.85l3.84-1.93,17.68-1.82,6-1.59A30.3,30.3,0,0,0,406,144.13a30.3,30.3,0,0,1,1.39-10.35,8.68,8.68,0,0,1,5.19-5.45,13.34,13.34,0,0,1,7-1.14q6.93,1.59,9.72,6.94a22.56,22.56,0,0,1,2.62,11.25l-1.57,7.05,8.9-1.14a29,29,0,0,1,8.87,0,30.46,30.46,0,0,1,5.26,4.44,10.14,10.14,0,0,1,2.82,6.25,6.06,6.06,0,0,1-2.37,3.53,19.94,19.94,0,0,1-3.94,2.39,72,72,0,0,1-12,2.95q-6.85,1.14-12.1,2.28c-.49,1.51-.9,3-1.22,4.43l-.93,4.21-1.41,4.32q3.22-.22,6.6-.57t6.66-.79l19.66-2.51q7-.67,14.2-1.47T483.77,179a16.32,16.32,0,0,1,8.69,4.89,36.43,36.43,0,0,1,5.72,8.07,15.58,15.58,0,0,1,0,4.44,7.3,7.3,0,0,1-1.78,4.43,5,5,0,0,1-3.85,1.48,18.05,18.05,0,0,1-3.85-.57l-9.2-1.59c-2.06-.3-4-.57-6-.79s-3.92-.42-6-.57l-12.61.45-10.56.46c.79,1.21,1.53,2.46,2.24,3.75a5.56,5.56,0,0,1,.26,4.43,20,20,0,0,1-4.33,5.69c-1.81,1.67-3.65,3.26-5.5,4.77l-10.35,7.74-9.1,6.14a49.93,49.93,0,0,1,10.61-.69,9.19,9.19,0,0,1,8,4.78c.79,1.22,1.56,2.5,2.32,3.87a5.06,5.06,0,0,1,.13,4.55,5.66,5.66,0,0,1-3.32,3.18,29.19,29.19,0,0,1-4.51,1.36l-10.21.91L409.34,252l-1.06,6.83a91.72,91.72,0,0,0,14-2.05,56.05,56.05,0,0,1,14.06-1.37,14.11,14.11,0,0,1,4.51,1.71,10.62,10.62,0,0,1,3.47,3.3,52.8,52.8,0,0,0,3.14,5.34,5.35,5.35,0,0,1-2.63,8.76,8.13,8.13,0,0,1-3.74.45l-6.24.46c-2,.15-4.1.38-6.29.68l-11.35.91-12.68,1.82q-2.53,9.33-4.8,18.53a136.93,136.93,0,0,1-5.83,18.08q-2.36,5.46-5.23,11.26a31.1,31.1,0,0,1-7.66,9.89,2.47,2.47,0,0,1-2.87-.91c-.63-.91-1.24-1.74-1.83-2.5a22.9,22.9,0,0,1-3-9.09,89.67,89.67,0,0,1,.49-15,151.8,151.8,0,0,1,2.64-15.47l2-11.14-9.75,1.36a74.62,74.62,0,0,0-9.66,2.05l-7.48,3a21.52,21.52,0,0,1-3.41,1,6.22,6.22,0,0,1-3.16-.12,14.58,14.58,0,0,1-8-5,13.57,13.57,0,0,1-3.26-8.87,7.39,7.39,0,0,1,4.39-4.89,25.52,25.52,0,0,1,6.68-1.93q9.5-1.82,19-3.53t19.2-3.52l1.26-5.69a92.74,92.74,0,0,0-9.16,1.82,36.17,36.17,0,0,1-9,1.14,10.62,10.62,0,0,1-8.8-3.41c-1.21-1.37-2.41-2.8-3.59-4.32a6.86,6.86,0,0,1-1.29-5.46,5.21,5.21,0,0,1,2.44-3.3,9.67,9.67,0,0,1,4.08-1.48l11.52-2.72a9.45,9.45,0,0,1-2.64-8.08c.35-3.26.79-6.48,1.35-9.66l1.59-8.19a82.82,82.82,0,0,0-14.24,2.16,57.08,57.08,0,0,0-13.8,5.34,40,40,0,0,1-4.33,2.05,16,16,0,0,1-4.34,1.14,9.49,9.49,0,0,1-6-1.48,15.35,15.35,0,0,1-4.36-4.43,17.83,17.83,0,0,1-2.5-6.15,15.26,15.26,0,0,1,0-6.59,9.07,9.07,0,0,1,5.22-5.57,15.52,15.52,0,0,1,7.26-1.48q16-1.37,32-3.64T397.81,189.27Zm-14.32,47.08q11.31-1.82,22.51-4.09,2.63-3.64,5.28-7.39c1.77-2.51,3.54-5,5.33-7.62l8.06-14.78c-2.86.6-5.68,1.13-8.43,1.59l-8.15,1.36a30.92,30.92,0,0,1-5.09,5q-2.89,2.28-5.76,4.44a56.62,56.62,0,0,0-5.33,4.55,17.27,17.27,0,0,0-3.85,5.57L386,233.17Zm19.22-30.25-16.57,3a12.15,12.15,0,0,1-.28,3.3,3.27,3.27,0,0,0,.5,2.84Z"/><path d="M627.42,298.21q11.82,0,24.5-.23t27.15-.91l23.5-1.36c1.67,0,3.42,0,5.26-.12a16.18,16.18,0,0,1,5.1.57,1,1,0,0,1,.45,1,1.8,1.8,0,0,1-.68,1,4.7,4.7,0,0,1-1.44,1.36l-1.56.91q-2.72.91-5.59,1.6a51.87,51.87,0,0,0-5.72,1.7,19.86,19.86,0,0,0-5.16,2.73,11.68,11.68,0,0,0-3.65,4.66L684.43,320a18.31,18.31,0,0,1-6.24,5.57,25.22,25.22,0,0,1-7.4,2.62,44.29,44.29,0,0,1-7.77.68,54.2,54.2,0,0,1-7.29-.45l-29.54-1.14a242.37,242.37,0,0,1-49.2-8.87,99.44,99.44,0,0,1-17.34-6.94q-8.16-4.2-15.74-9a19.67,19.67,0,0,0-3.54,1.59L532.26,311a12,12,0,0,1-4.73,1.81,7.69,7.69,0,0,1-5.29-2.27,10,10,0,0,1-2.55-4.89,15.1,15.1,0,0,1,0-6.14,16.5,16.5,0,0,1,2.36-6,18.14,18.14,0,0,1,7.18-7.27,69.65,69.65,0,0,1,9.49-4.33q2.31-1.12,4.78-2a16.54,16.54,0,0,0,4.7-2.73,7.44,7.44,0,0,0,1.08-3.87V269.1a42,42,0,0,1,0-5.8q.21-3.53.59-7.28t1.07-7.39a56.44,56.44,0,0,1,1.48-6.14l.46-2.05q-2.76,1.16-5.57,2.05a5.2,5.2,0,0,1-5-.68,22.27,22.27,0,0,1-4.46-5,10.07,10.07,0,0,1-1.56-6.83,11.21,11.21,0,0,1,5.11-6.59,30.07,30.07,0,0,1,8.08-3.64l10.51-2.27a47.72,47.72,0,0,0,6.46-1.94,9.72,9.72,0,0,1,6.33-.34,35.3,35.3,0,0,1,5.52,4.32,6.69,6.69,0,0,1,2.39,6.14,19.73,19.73,0,0,1-2.15,3.53c-.86,1.13-1.71,2.24-2.55,3.29a51.59,51.59,0,0,0-4.43,6.15,34.07,34.07,0,0,0-3.17,6.59,20.86,20.86,0,0,0-.94,4.21c-.23,1.74-.44,3.52-.61,5.34s-.31,3.61-.4,5.35a27.7,27.7,0,0,0,0,4l.71,7c-.12,1.21-.28,2.42-.47,3.64a11.36,11.36,0,0,1-1.1,3.41L559.17,285A187.86,187.86,0,0,0,586,293.43a186,186,0,0,0,28.38,4.32q3.13.24,6.49.46A48.45,48.45,0,0,0,627.42,298.21ZM560.06,172.45a32.46,32.46,0,0,1,1-3.64,9.55,9.55,0,0,1,2.12-3.41,7.51,7.51,0,0,1,3.38-1.37,13.82,13.82,0,0,1,3.52,0,32,32,0,0,1,10.2,2.73,10.15,10.15,0,0,1,6.08,8,88.29,88.29,0,0,1,.66,9.32,27.66,27.66,0,0,1-1.72,9.78,6.62,6.62,0,0,1-4.11,3.64,9.77,9.77,0,0,1-5,.46,20.65,20.65,0,0,1-8-3,18.41,18.41,0,0,1-5.79-5.69,20.33,20.33,0,0,1-2.94-7.73A20.86,20.86,0,0,1,560.06,172.45Zm134.69,87.78a41.53,41.53,0,0,1-.85,14.1,22,22,0,0,1-7.13,11.6q-5.46,4.1-10.48,3.18a9.58,9.58,0,0,1-7-4.32q-2.38-3.63-2.58-13a25.42,25.42,0,0,0-.1-2.62c-.11-1.59-.3-3.44-.59-5.57q-4.57,1.14-10.31,2.39l-10.87,2.39-9.1,2a36.33,36.33,0,0,1-4.64.91q-4.29.92-8.13,1.82L616.31,275q-3.27.92-5.24,1.59a45.88,45.88,0,0,1-7,2.39,38.36,38.36,0,0,1-6.94,1c-2.62.15-4.4-.15-5.37-.91a29.75,29.75,0,0,1-3.8-3.87,12.57,12.57,0,0,1-3.3-6.14,6.88,6.88,0,0,1,1.2-5.91,14.47,14.47,0,0,1,2.83-2.5,38.41,38.41,0,0,1,4-2.51c1.54-.75,3.14-1.51,4.83-2.27a33.68,33.68,0,0,0,6-5.69q2-2,6.2-6.93t8.17-9.67q3-3.41,7-8.3c2.62-3.26,4.82-6.17,6.61-8.76l-4.75.92-13.82,3.86A54.24,54.24,0,0,0,602.29,225c-3.15,1.22-5.33,1.82-6.54,1.82q-2.1.22-5.06-3.87c-1-.91-2.28-3.41-3.79-7.5q-2.55-5.91.71-9.33,1.71-1.59,14.55-4.09l15.56-2.5,15.07-2.28,24.56-4.09q1.64-.22,4-.45c1.55-.15,3.11-.35,4.68-.57s3-.42,4.22-.57a25.22,25.22,0,0,0,2.83-.46L684.66,190l8.33-1.14q3.39-.45,5.75-.8a19.61,19.61,0,0,1,4-.22,17.86,17.86,0,0,1,3.4.56,12.18,12.18,0,0,1,4.63,2.17,8.36,8.36,0,0,1,1.91,2.16,8.6,8.6,0,0,0,1,2.61,13.62,13.62,0,0,1,1.27,3.53,9.48,9.48,0,0,1,.36,4,8.59,8.59,0,0,0-.06,2.84,4.6,4.6,0,0,1-2.22,3.87c-.93.76-2.86.9-5.79.45q-4.5-.22-19.1,0c-2.46.15-5.11.31-7.95.45s-5.57.35-8.2.57-5.14.42-7.52.57-4.33.23-5.85.23L657,212a11.41,11.41,0,0,1-1.08,5.91,27.2,27.2,0,0,1-7,9.78l-8.36,8q-2.28,2-4,3.86l-4,4.1q-2.21,2.28-5.37,5.23t-8.48,7.5q5.25-1.12,11.16-2.16l11.94-2q6-1,11.58-1.94c3.69-.6,7.11-1.13,10.24-1.59a46.28,46.28,0,0,0-2.4-8.64q-2.21-5.46-.73-8a6,6,0,0,1,4.39-3.41,12.54,12.54,0,0,1,4.78,0,16.39,16.39,0,0,1,6.09,2.27l7,5.23a20.32,20.32,0,0,1,4.29,4.78q1.95,3,3.75,6.14A39.43,39.43,0,0,1,694.75,260.23Zm-51.53-84.37a42.63,42.63,0,0,1-9.55,2c-4.75.91-7.69,1.14-8.8.69-1.41-.46-2.26-1.06-2.55-1.82-.2-.46-.54-1.14-1-2.05a19.66,19.66,0,0,1-1.43-4.32,24.47,24.47,0,0,1-1.14-5.12,29,29,0,0,1-.18-3.3,9.6,9.6,0,0,1,.63-2.84,5.59,5.59,0,0,1,1.67-2.39,5.05,5.05,0,0,1,2.53-1.13,15.81,15.81,0,0,1,3.74-.46,60.47,60.47,0,0,0,6.38-.57q4.56-.56,12.09-1.7l10.26-1.14,14.5-1.82q2.55-.23,7.18-.57t11.77-.79c2.31-.15,3.85.07,4.63.68a11.77,11.77,0,0,1,1.64,1.82,12.73,12.73,0,0,1,1.87,3.86,14.38,14.38,0,0,1,.69,5.12,27.2,27.2,0,0,1-.48,4.21,13,13,0,0,1-1.14,4.09,8.65,8.65,0,0,1-2,1.82,77,77,0,0,1-7.84,1q-7.35.81-21.7,1.94Z"/></g><path class="cls-2" d="M244.5,249.5s-7,26-15,31-26,11-26,11,17.5,13.5,20,20,5,33,5,33S238,320.06,247,312c9.5-8.5,26.5-15.5,26.5-15.5s-12-6-19-17S244.5,249.5,244.5,249.5Z"/><path class="cls-4" d="M931.58,479.29c-40.48,3.14-72.27-5.6-103.06-28.35h0c-15.77-11.67-29.88-26-43.52-39.85-13-13.21-26.47-26.88-41.52-38.47h0c-33.27-25.6-68.84-35.82-111.94-32.18a6.9,6.9,0,0,0-5.67,4l-28.4,61.37-28.4,61.35L540.64,528.5h0L426.47,775.16a4.43,4.43,0,0,0,2.15,5.85l5,2.31a4.41,4.41,0,0,0,5.84-2.15L552,537.93c37.89-2.34,68.23,6.91,97.82,29.7h0c14.3,11,27.42,24.33,40.11,37.2,14,14.24,28.52,28.95,45.14,41.25a167.79,167.79,0,0,0,29.34,17.56c25,11.56,52,15.87,83,13.47a6.87,6.87,0,0,0,5.71-4l28.41-61.38L910,550.41h0l28.4-61.36a6.88,6.88,0,0,0-6.78-9.76Zm-277.82-3.88q-2.1-.93-4.22-1.8c-.66-.28-1.32-.57-2-.83q-3.09-1.23-6.23-2.31l-.81-.26c-1.84-.62-3.69-1.21-5.55-1.75-.74-.22-1.49-.41-2.24-.62-1.41-.38-2.83-.76-4.26-1.1-.84-.21-1.68-.4-2.53-.59-1.37-.3-2.75-.59-4.14-.86l-2.56-.48q-2.21-.37-4.44-.69c-.77-.12-1.54-.24-2.31-.34q-3-.39-6.09-.66l-.75-.08c-2.29-.2-4.61-.33-6.95-.43-.73,0-1.48,0-2.22-.06-1.63-.05-3.27-.09-4.92-.09l-2.66,0c-.85,0-1.68,0-2.52,0l21.86-47.24,2-.13c.95-.05,1.89-.1,2.83-.13,1.42-.06,2.83-.09,4.23-.12l2.72,0q2.12,0,4.2.06l2.58.07c1.44.06,2.86.16,4.28.26.78.05,1.56.09,2.34.16,1.53.13,3.05.3,4.56.48l1.91.22q2.79.38,5.53.86l.81.12q3.21.59,6.36,1.31l.28.08q2.94.69,5.83,1.51c.54.15,1.07.33,1.61.49,1.47.44,2.94.89,4.39,1.38.67.23,1.34.48,2,.72,1.31.47,2.62.95,3.91,1.46.73.29,1.44.59,2.16.89q1.86.76,3.69,1.59l2.22,1c1.19.56,2.38,1.14,3.57,1.75l2.24,1.17c1.17.62,2.33,1.27,3.49,1.93.74.42,1.49.85,2.24,1.3,1.15.68,2.31,1.4,3.46,2.12.73.47,1.47.93,2.2,1.41,1.17.76,2.33,1.55,3.49,2.36l2.13,1.47.78.58-22.51,48.62q-2.75-1.92-5.52-3.7c-.39-.26-.79-.49-1.19-.74q-2.37-1.5-4.74-2.9l-2.11-1.19q-2-1.11-3.93-2.16c-.78-.41-1.55-.81-2.33-1.2q-1.92-1-3.87-1.89ZM736.6,629.82c-13.11-10.58-25.13-22.79-36.81-34.64s-23.86-24.23-37.19-35L685,511.71l2.55,2.16,1.54,1.32q2.35,2.07,4.68,4.18l1,1q1.84,1.7,3.67,3.42l1.71,1.63,2.95,2.85L705,530l2.82,2.79,1.83,1.83c.9.89,1.78,1.79,2.67,2.68l2,2.06.21.21,3.83,3.88,5.15,5.23.73.72c1.41,1.43,2.82,2.85,4.25,4.27l1.88,1.87,3.28,3.22,2.19,2.12q1.54,1.49,3.1,3l2.33,2.18c1,1,2.05,1.89,3.08,2.83l2.41,2.17c1.05.93,2.11,1.85,3.17,2.77.81.69,1.61,1.39,2.43,2.08,1.1.93,2.22,1.84,3.34,2.75.8.65,1.59,1.3,2.4,1.94l.93.75ZM768,483.92l-1.82-1.81q-1.74-1.74-3.47-3.49l-1.39-1.39-4.71-4.78L752,467.77l-1.34-1.35q-1.68-1.71-3.38-3.4l-1.79-1.78q-1.5-1.5-3-3l-2-1.92c-1-.93-1.93-1.87-2.91-2.8l-2.08-2-2.9-2.7-2.14-2c-1-.89-2-1.76-3-2.64l-2.15-1.89-3.13-2.65c-.7-.58-1.39-1.17-2.1-1.74l-.69-.58L741.83,389c11.72,9.82,22.69,20.95,33.35,31.78,12.75,12.95,25.89,26.29,40.67,37.85l-22.44,48.49q-2.32-1.87-4.61-3.81l-.23-.2c-1.77-1.5-3.51-3-5.24-4.59L781.69,497c-1.17-1.07-2.35-2.15-3.51-3.23L776.27,492q-1.6-1.51-3.19-3.06L771.15,487Q769.56,485.49,768,483.92Zm102.8,118.33-1.88.11c-1,.06-2.09.1-3.12.14l-4,.09-3,0c-1.35,0-2.68,0-4-.06l-2.81-.08c-1.38-.06-2.73-.15-4.09-.24-.86-.06-1.73-.11-2.58-.18-1.46-.12-2.89-.28-4.33-.44-.73-.08-1.47-.15-2.19-.24-1.79-.23-3.55-.5-5.3-.79-.36-.06-.73-.1-1.09-.17q-3.18-.55-6.31-1.24l-1.25-.31c-1.64-.38-3.27-.78-4.88-1.22-.7-.19-1.39-.4-2.08-.6-1.32-.39-2.64-.77-4-1.2-.78-.25-1.55-.53-2.33-.79-1.21-.42-2.42-.84-3.61-1.29-.81-.31-1.62-.64-2.42-1-1.15-.46-2.3-.92-3.44-1.42-.82-.35-1.64-.72-2.46-1.1q-1.67-.75-3.33-1.56c-.82-.4-1.64-.82-2.46-1.24-1.09-.55-2.18-1.13-3.26-1.72-.82-.45-1.64-.9-2.46-1.37-1.08-.61-2.16-1.25-3.23-1.9L782.5,581c-1.09-.69-2.17-1.4-3.26-2.12-.78-.52-1.56-1-2.34-1.56l-.62-.44,22.53-48.68.09.07q2.37,1.58,4.75,3.06l1.13.69q2.07,1.28,4.15,2.47l.76.44q2.4,1.37,4.81,2.62l1.12.57c1.36.7,2.73,1.37,4.1,2l1,.48.53.25c3.28,1.52,6.6,2.9,10,4.17l1.71.62c1.2.44,2.4.87,3.61,1.27.67.23,1.35.44,2,.66,1.13.36,2.27.71,3.41,1l2.1.61c1.16.32,2.32.62,3.49.92l2,.5c1.33.32,2.67.61,4,.89.52.11,1,.23,1.55.33,1.84.36,3.71.7,5.58,1,.48.08,1,.14,1.45.21,1.42.21,2.84.42,4.27.59l2.15.25c1.22.13,2.45.26,3.68.37l2.34.18c1.21.09,2.43.17,3.65.24l2.35.11c1.3,0,2.61.09,3.92.11.71,0,1.41,0,2.12,0,1.76,0,3.54,0,5.32,0h.72Z"/><path class="cls-4" d="M85,485.62a6.85,6.85,0,0,0,.61,3.43L114,550.41h0l28.4,61.36,28.41,61.38a6.88,6.88,0,0,0,5.72,4c31,2.4,58-1.91,83-13.47a167.43,167.43,0,0,0,29.34-17.56c16.63-12.3,31.13-27,45.15-41.25,12.68-12.87,25.8-26.19,40.11-37.2h0c29.59-22.79,59.94-32,97.83-29.7L584.55,781.17a4.42,4.42,0,0,0,5.84,2.15l5-2.31a4.42,4.42,0,0,0,2.15-5.85L483.37,528.5h0L455,467.12l-28.4-61.35-28.4-61.37a6.91,6.91,0,0,0-5.67-4c-43.1-3.64-78.67,6.58-111.94,32.18h0C265.47,384.21,252,397.88,239,411.09c-13.65,13.86-27.76,28.18-43.52,39.85h0c-30.79,22.75-62.57,31.49-103.06,28.35A6.87,6.87,0,0,0,85,485.62Zm282.9-9.13c-1.29.61-2.58,1.24-3.86,1.89-.78.39-1.56.79-2.33,1.2q-2,1.05-3.93,2.16c-.7.39-1.41.78-2.11,1.19q-2.38,1.4-4.74,2.9c-.4.25-.8.48-1.2.74q-2.77,1.79-5.52,3.7l-22.5-48.62.78-.58c.7-.5,1.41-1,2.12-1.47,1.16-.81,2.33-1.6,3.49-2.36l2.21-1.41c1.15-.72,2.3-1.44,3.46-2.12.74-.45,1.49-.88,2.24-1.3,1.16-.66,2.32-1.31,3.49-1.93.74-.4,1.49-.79,2.24-1.17,1.18-.61,2.37-1.19,3.56-1.75l2.22-1q1.84-.82,3.69-1.59l2.16-.89c1.3-.51,2.61-1,3.92-1.46.67-.24,1.33-.49,2-.72,1.46-.49,2.92-.94,4.39-1.38.54-.16,1.08-.34,1.62-.49q2.88-.83,5.82-1.51l.28-.08c2.1-.48,4.23-.92,6.37-1.31l.8-.12c1.83-.32,3.67-.61,5.54-.86l1.91-.22c1.51-.18,3-.35,4.56-.48.77-.07,1.56-.11,2.34-.16,1.42-.1,2.84-.2,4.27-.26l2.58-.07q2.08-.06,4.2-.06l2.73,0c1.4,0,2.8.06,4.23.12.93,0,1.88.08,2.82.13l2,.13,21.87,47.24c-.85,0-1.68,0-2.52,0l-2.66,0c-1.66,0-3.3,0-4.93.09-.74,0-1.48,0-2.22.06-2.34.1-4.65.23-6.95.43l-.74.08q-3.08.27-6.09.66c-.78.1-1.55.22-2.32.34-1.48.21-3,.44-4.43.69-.86.15-1.71.32-2.57.48-1.38.27-2.76.56-4.14.86-.84.19-1.69.38-2.53.59-1.43.34-2.84.72-4.25,1.1-.75.21-1.5.4-2.25.62-1.86.54-3.7,1.13-5.54,1.75l-.82.26q-3.14,1.08-6.22,2.31c-.67.26-1.33.55-2,.83q-2.11.87-4.21,1.8C369.47,475.76,368.7,476.13,367.93,476.49ZM265,581.33l.93-.75,2.39-1.94c1.12-.91,2.24-1.82,3.34-2.75l2.44-2.08,3.16-2.77,2.41-2.17c1-.94,2.06-1.88,3.08-2.83l2.34-2.18c1-1,2.06-2,3.09-3,.73-.7,1.47-1.41,2.19-2.12l3.28-3.22,1.89-1.87q2.13-2.13,4.25-4.27l.72-.72,5.16-5.23,3.82-3.88.21-.21,2-2.06,2.67-2.68,1.84-1.83L319,530l1.82-1.78,3-2.85,1.71-1.63c1.21-1.15,2.44-2.29,3.66-3.42l1.05-1q2.31-2.11,4.68-4.18l1.54-1.32q1.26-1.1,2.55-2.16l22.41,48.44c-13.32,10.8-25.43,23.1-37.18,35s-23.71,24.06-36.82,34.64ZM252.85,487l-1.92,1.87q-1.59,1.55-3.2,3.06l-1.91,1.81q-1.74,1.62-3.51,3.23l-1.64,1.49c-1.73,1.55-3.47,3.09-5.23,4.59l-.24.2c-1.52,1.29-3.06,2.56-4.6,3.81L208.16,458.6c14.78-11.56,27.91-24.9,40.66-37.85,10.66-10.83,21.63-22,33.36-31.78l22.42,48.44-.7.58c-.7.57-1.4,1.16-2.09,1.74-1.05.88-2.1,1.76-3.13,2.65l-2.16,1.89c-1,.88-2,1.75-3,2.64l-2.14,2-2.91,2.7-2.08,2-2.91,2.8-2,1.92-3,3c-.6.59-1.2,1.18-1.79,1.78-1.14,1.13-2.26,2.26-3.39,3.4L272,467.77q-2.32,2.34-4.62,4.68c-1.56,1.59-3.14,3.18-4.72,4.78l-1.38,1.39c-1.16,1.17-2.31,2.33-3.48,3.49L256,483.92ZM131.33,555h.72c1.79,0,3.56,0,5.32,0,.71,0,1.42,0,2.13,0,1.31,0,2.62-.06,3.91-.11l2.35-.11c1.23-.07,2.44-.15,3.65-.24.78,0,1.57-.11,2.34-.18,1.24-.11,2.46-.24,3.68-.37l2.16-.25c1.43-.17,2.85-.38,4.26-.59.48-.07,1-.13,1.45-.21,1.88-.3,3.74-.64,5.59-1,.52-.1,1-.22,1.54-.33,1.35-.28,2.69-.57,4-.89l2-.5c1.16-.3,2.32-.6,3.48-.92l2.11-.61c1.14-.33,2.27-.68,3.4-1,.68-.22,1.35-.43,2-.66,1.21-.4,2.42-.83,3.62-1.27l1.7-.62c3.36-1.27,6.68-2.65,10-4.17l.52-.25,1-.48c1.37-.66,2.73-1.33,4.09-2l1.12-.57c1.61-.84,3.22-1.71,4.81-2.62.26-.14.51-.29.76-.44q2.09-1.2,4.15-2.47l1.14-.69c1.58-1,3.17-2,4.74-3.06l.1-.07,22.53,48.68-.63.44c-.77.54-1.56,1-2.34,1.56-1.08.72-2.17,1.43-3.26,2.12-.8.5-1.61,1-2.41,1.47-1.08.65-2.16,1.29-3.24,1.9-.81.47-1.63.92-2.45,1.37-1.09.59-2.17,1.17-3.26,1.72-.82.42-1.64.84-2.47,1.24-1.1.54-2.21,1.06-3.32,1.56-.82.38-1.64.75-2.47,1.1-1.14.5-2.28,1-3.43,1.42-.81.32-1.61.65-2.42,1-1.2.45-2.41.87-3.62,1.29-.77.26-1.54.54-2.32.79-1.31.43-2.63.81-4,1.2-.69.2-1.38.41-2.07.6-1.61.44-3.24.84-4.88,1.22l-1.26.31q-3.12.69-6.31,1.24c-.36.07-.72.11-1.08.17-1.76.29-3.52.56-5.3.79-.73.09-1.47.16-2.2.24-1.43.16-2.87.32-4.32.44l-2.58.18c-1.36.09-2.72.18-4.09.24l-2.82.08c-1.33,0-2.66.06-4,.06l-3,0-4-.09c-1,0-2.08-.08-3.13-.14l-1.88-.11Z"/><path class="cls-4" d="M325.21,846.92l-29.72-13.37L259,846.92H199.18l2.88-13.17h28.7l51.46-18.68,2-9.24h32.25l-2.06,9.44,43.34,18.48h29.1L384,846.92ZM213.52,787.55H395.39l-7.47,34.21H355.28l4.51-20.65H243.2l-4.51,20.65H206.05Zm38.8-55.25,1.42-6.49H225.62l2.53-11.6h28.12l1.5-6.88h31.85l-1.5,6.88H353l1.5-6.88h31.85l-1.5,6.88H413l-2.53,11.6H382.32l-1.42,6.49H409l-2.53,11.6H378.37l-1.5,6.88H405l-2.48,11.4H360.42l8.77,6.69H401l-2.71,12.38h-57.8l-24.94-19.07h-11.4l-32.87,19.07h-57.8l2.7-12.38h32.25l11.09-6.69H217.68l2.49-11.4h28.12l1.5-6.88H221.67l2.53-11.6Zm-16.89-46h74.12l1.29-5.9h33.81l-1.28,5.9h74.12l-4.21,19.27H381.83l1.33-6.09h-119l-1.33,6.09H231.22Zm44.71,64.49H345l1.5-6.88H281.64Zm4-18.48h64.88l1.42-6.49H285.59Z"/><path class="cls-4" d="M748,715.83,737.45,764h59.77l-4.08,18.67H733.37l-6.14,28.12h64.3l-4.08,18.68H723.16l-5.33,24.38H680.68L686,829.47H600.87l4.07-18.68h85.14l6.13-28.12H640.57q-11.21,0-16-8.84-4.86-9.24,1-20.06L650,707h-17.9l4.08-18.68h23.59l11-20.84h37.36l-11,20.84H815.31L811.24,707H687.37l-29.94,57h42.86l10.51-48.17Z"/><path class="cls-4" d="M393.81,184.27a6.94,6.94,0,0,1,.44-2.5c.38-1.36.72-2.73,1-4.09l1.21-5.46a27.73,27.73,0,0,1-5,1.14,42,42,0,0,1-6.12.45,27.47,27.47,0,0,1-5.79-.57,7.37,7.37,0,0,1-4-1.93l-2.28-4.09c-.57-1.52-1.22-3-1.95-4.55a10.15,10.15,0,0,1-.93-5,5,5,0,0,1,2.68-2.85l3.84-1.93,17.68-1.82,6-1.59A30.3,30.3,0,0,0,402,139.13a30.3,30.3,0,0,1,1.39-10.35,8.68,8.68,0,0,1,5.19-5.45,13.34,13.34,0,0,1,7-1.14q6.93,1.59,9.72,6.94a22.56,22.56,0,0,1,2.62,11.25l-1.57,7.05,8.9-1.14a29,29,0,0,1,8.87,0,30.46,30.46,0,0,1,5.26,4.44,10.14,10.14,0,0,1,2.82,6.25,6.06,6.06,0,0,1-2.37,3.53,19.94,19.94,0,0,1-3.94,2.39,72,72,0,0,1-12,2.95q-6.85,1.14-12.1,2.28c-.49,1.51-.9,3-1.22,4.43l-.93,4.21-1.41,4.32q3.22-.22,6.6-.57t6.66-.79l19.66-2.51q7-.67,14.2-1.47T479.77,174a16.32,16.32,0,0,1,8.69,4.89,36.43,36.43,0,0,1,5.72,8.07,15.58,15.58,0,0,1,0,4.44,7.3,7.3,0,0,1-1.78,4.43,5,5,0,0,1-3.85,1.48,18.05,18.05,0,0,1-3.85-.57l-9.2-1.59c-2.06-.3-4-.57-6-.79s-3.92-.42-6-.57l-12.61.45-10.56.46c.79,1.21,1.53,2.46,2.24,3.75a5.56,5.56,0,0,1,.26,4.43,20,20,0,0,1-4.33,5.69c-1.81,1.67-3.65,3.26-5.5,4.77l-10.35,7.74-9.1,6.14a49.93,49.93,0,0,1,10.61-.69,9.19,9.19,0,0,1,8,4.78c.79,1.22,1.56,2.5,2.32,3.87a5.06,5.06,0,0,1,.13,4.55,5.66,5.66,0,0,1-3.32,3.18,29.19,29.19,0,0,1-4.51,1.36l-10.21.91L405.34,247l-1.06,6.83a91.72,91.72,0,0,0,14-2.05,56.05,56.05,0,0,1,14.06-1.37,14.11,14.11,0,0,1,4.51,1.71,10.62,10.62,0,0,1,3.47,3.3,52.8,52.8,0,0,0,3.14,5.34,5.35,5.35,0,0,1-2.63,8.76,8.13,8.13,0,0,1-3.74.45l-6.24.46c-2,.15-4.1.38-6.29.68l-11.35.91-12.68,1.82q-2.53,9.33-4.8,18.53a136.93,136.93,0,0,1-5.83,18.08q-2.36,5.46-5.23,11.26a31.1,31.1,0,0,1-7.66,9.89,2.47,2.47,0,0,1-2.87-.91c-.63-.91-1.24-1.74-1.83-2.5a22.9,22.9,0,0,1-3-9.09,89.67,89.67,0,0,1,.49-15,151.8,151.8,0,0,1,2.64-15.47l2-11.14-9.75,1.36a74.62,74.62,0,0,0-9.66,2.05l-7.48,3a21.52,21.52,0,0,1-3.41,1,6.22,6.22,0,0,1-3.16-.12,14.58,14.58,0,0,1-8-5,13.57,13.57,0,0,1-3.26-8.87,7.39,7.39,0,0,1,4.39-4.89,25.52,25.52,0,0,1,6.68-1.93q9.5-1.82,19-3.53t19.2-3.52l1.26-5.69a92.74,92.74,0,0,0-9.16,1.82,36.17,36.17,0,0,1-9,1.14,10.62,10.62,0,0,1-8.8-3.41c-1.21-1.37-2.41-2.8-3.59-4.32a6.86,6.86,0,0,1-1.29-5.46,5.21,5.21,0,0,1,2.44-3.3,9.67,9.67,0,0,1,4.08-1.48l11.52-2.72a9.45,9.45,0,0,1-2.64-8.08c.35-3.26.79-6.48,1.35-9.66l1.59-8.19a82.82,82.82,0,0,0-14.24,2.16,57.08,57.08,0,0,0-13.8,5.34,40,40,0,0,1-4.33,2.05,16,16,0,0,1-4.34,1.14,9.49,9.49,0,0,1-6-1.48,15.35,15.35,0,0,1-4.36-4.43,17.83,17.83,0,0,1-2.5-6.15,15.26,15.26,0,0,1,0-6.59,9.07,9.07,0,0,1,5.22-5.57,15.52,15.52,0,0,1,7.26-1.48q16-1.37,32-3.64T393.81,184.27Zm-14.32,47.08q11.31-1.82,22.51-4.09,2.63-3.64,5.28-7.39c1.77-2.51,3.54-5,5.33-7.62l8.06-14.78c-2.86.6-5.68,1.13-8.43,1.59l-8.15,1.36a30.92,30.92,0,0,1-5.09,5q-2.89,2.28-5.76,4.44a56.62,56.62,0,0,0-5.33,4.55,17.27,17.27,0,0,0-3.85,5.57L382,228.17Zm19.22-30.25-16.57,3a12.15,12.15,0,0,1-.28,3.3,3.27,3.27,0,0,0,.5,2.84Z"/><path class="cls-4" d="M623.42,293.21q11.82,0,24.5-.23t27.15-.91l23.5-1.36c1.67,0,3.42,0,5.26-.12a16.18,16.18,0,0,1,5.1.57,1,1,0,0,1,.45,1,1.8,1.8,0,0,1-.68,1,4.7,4.7,0,0,1-1.44,1.36l-1.56.91q-2.72.91-5.59,1.6a51.87,51.87,0,0,0-5.72,1.7,19.86,19.86,0,0,0-5.16,2.73,11.68,11.68,0,0,0-3.65,4.66L680.43,315a18.31,18.31,0,0,1-6.24,5.57,25.22,25.22,0,0,1-7.4,2.62,44.29,44.29,0,0,1-7.77.68,54.2,54.2,0,0,1-7.29-.45l-29.54-1.14a242.37,242.37,0,0,1-49.2-8.87,99.44,99.44,0,0,1-17.34-6.94q-8.16-4.2-15.74-9a19.67,19.67,0,0,0-3.54,1.59L528.26,306a12,12,0,0,1-4.73,1.81,7.69,7.69,0,0,1-5.29-2.27,10,10,0,0,1-2.55-4.89,15.1,15.1,0,0,1,0-6.14,16.5,16.5,0,0,1,2.36-6,18.14,18.14,0,0,1,7.18-7.27,69.65,69.65,0,0,1,9.49-4.33q2.31-1.12,4.78-2a16.54,16.54,0,0,0,4.7-2.73,7.44,7.44,0,0,0,1.08-3.87V264.1a42,42,0,0,1,0-5.8q.21-3.53.59-7.28t1.07-7.39a56.44,56.44,0,0,1,1.48-6.14l.46-2.05q-2.76,1.16-5.57,2.05a5.2,5.2,0,0,1-5-.68,22.27,22.27,0,0,1-4.46-5,10.07,10.07,0,0,1-1.56-6.83,11.21,11.21,0,0,1,5.11-6.59,30.07,30.07,0,0,1,8.08-3.64l10.51-2.27a47.72,47.72,0,0,0,6.46-1.94,9.72,9.72,0,0,1,6.33-.34,35.3,35.3,0,0,1,5.52,4.32,6.69,6.69,0,0,1,2.39,6.14,19.73,19.73,0,0,1-2.15,3.53c-.86,1.13-1.71,2.24-2.55,3.29a51.59,51.59,0,0,0-4.43,6.15,34.07,34.07,0,0,0-3.17,6.59,20.86,20.86,0,0,0-.94,4.21c-.23,1.74-.44,3.52-.61,5.34s-.31,3.61-.4,5.35a27.7,27.7,0,0,0,0,4l.71,7c-.12,1.21-.28,2.42-.47,3.64a11.36,11.36,0,0,1-1.1,3.41L555.17,280A187.86,187.86,0,0,0,582,288.43a186,186,0,0,0,28.38,4.32q3.13.24,6.49.46A48.45,48.45,0,0,0,623.42,293.21ZM556.06,167.45a32.46,32.46,0,0,1,1-3.64,9.55,9.55,0,0,1,2.12-3.41,7.51,7.51,0,0,1,3.38-1.37,13.82,13.82,0,0,1,3.52,0,32,32,0,0,1,10.2,2.73,10.15,10.15,0,0,1,6.08,8,88.29,88.29,0,0,1,.66,9.32,27.66,27.66,0,0,1-1.72,9.78,6.62,6.62,0,0,1-4.11,3.64,9.77,9.77,0,0,1-5,.46,20.65,20.65,0,0,1-8-3,18.41,18.41,0,0,1-5.79-5.69,20.33,20.33,0,0,1-2.94-7.73A20.86,20.86,0,0,1,556.06,167.45Zm134.69,87.78a41.53,41.53,0,0,1-.85,14.1,22,22,0,0,1-7.13,11.6q-5.46,4.1-10.48,3.18a9.58,9.58,0,0,1-7-4.32q-2.38-3.63-2.58-13a25.42,25.42,0,0,0-.1-2.62c-.11-1.59-.3-3.44-.59-5.57q-4.57,1.14-10.31,2.39l-10.87,2.39-9.1,2a36.33,36.33,0,0,1-4.64.91q-4.29.92-8.13,1.82L612.31,270q-3.27.92-5.24,1.59a45.88,45.88,0,0,1-7,2.39,38.36,38.36,0,0,1-6.94,1c-2.62.15-4.4-.15-5.37-.91a29.75,29.75,0,0,1-3.8-3.87,12.57,12.57,0,0,1-3.3-6.14,6.88,6.88,0,0,1,1.2-5.91,14.47,14.47,0,0,1,2.83-2.5,38.41,38.41,0,0,1,4-2.51c1.54-.75,3.14-1.51,4.83-2.27a33.68,33.68,0,0,0,6-5.69q2-2,6.2-6.93t8.17-9.67q3-3.41,7-8.3c2.62-3.26,4.82-6.17,6.61-8.76l-4.75.92-13.82,3.86A54.24,54.24,0,0,0,598.29,220c-3.15,1.22-5.33,1.82-6.54,1.82q-2.1.22-5.06-3.87c-1-.91-2.28-3.41-3.79-7.5q-2.55-5.91.71-9.33,1.71-1.59,14.55-4.09l15.56-2.5,15.07-2.28,24.56-4.09q1.64-.22,4-.45c1.55-.15,3.11-.35,4.68-.57s3-.42,4.22-.57a25.22,25.22,0,0,0,2.83-.46L680.66,185l8.33-1.14q3.39-.45,5.75-.8a19.61,19.61,0,0,1,4-.22,17.86,17.86,0,0,1,3.4.56,12.18,12.18,0,0,1,4.63,2.17,8.36,8.36,0,0,1,1.91,2.16,8.6,8.6,0,0,0,1,2.61,13.62,13.62,0,0,1,1.27,3.53,9.48,9.48,0,0,1,.36,4,8.59,8.59,0,0,0-.06,2.84,4.6,4.6,0,0,1-2.22,3.87c-.93.76-2.86.9-5.79.45q-4.5-.22-19.1,0c-2.46.15-5.11.31-7.95.45s-5.57.35-8.2.57-5.14.42-7.52.57-4.33.23-5.85.23L653,207a11.41,11.41,0,0,1-1.08,5.91,27.2,27.2,0,0,1-7,9.78l-8.36,8q-2.28,2-4,3.86l-4,4.1q-2.21,2.28-5.37,5.23t-8.48,7.5q5.25-1.12,11.16-2.16l11.94-2q6-1,11.58-1.94c3.69-.6,7.11-1.13,10.24-1.59a46.28,46.28,0,0,0-2.4-8.64q-2.21-5.46-.73-8a6,6,0,0,1,4.39-3.41,12.54,12.54,0,0,1,4.78,0,16.39,16.39,0,0,1,6.09,2.27l7,5.23a20.32,20.32,0,0,1,4.29,4.78q1.95,3,3.75,6.14A39.43,39.43,0,0,1,690.75,255.23Zm-51.53-84.37a42.63,42.63,0,0,1-9.55,2c-4.75.91-7.69,1.14-8.8.69-1.41-.46-2.26-1.06-2.55-1.82-.2-.46-.54-1.14-1-2.05a19.66,19.66,0,0,1-1.43-4.32,24.47,24.47,0,0,1-1.14-5.12,29,29,0,0,1-.18-3.3,9.6,9.6,0,0,1,.63-2.84,5.59,5.59,0,0,1,1.67-2.39,5.05,5.05,0,0,1,2.53-1.13,15.81,15.81,0,0,1,3.74-.46,60.47,60.47,0,0,0,6.38-.57q4.56-.56,12.09-1.7l10.26-1.14,14.5-1.82q2.55-.23,7.18-.57t11.77-.79c2.31-.15,3.85.07,4.63.68a11.77,11.77,0,0,1,1.64,1.82,12.73,12.73,0,0,1,1.87,3.86,14.38,14.38,0,0,1,.69,5.12,27.2,27.2,0,0,1-.48,4.21,13,13,0,0,1-1.14,4.09,8.65,8.65,0,0,1-2,1.82,77,77,0,0,1-7.84,1q-7.35.81-21.7,1.94Z"/><path class="cls-4" d="M883.11,335s-9.42,22-18.83,32.44-28.78,18.83-28.78,18.83,18.31,6.28,23.54,19.88,5.76,30.35,5.76,30.35,12-26.16,21.45-33.48,24.59-14.13,24.59-14.13-16.74-10.46-22-19.88S883.11,335,883.11,335Z"/><path class="cls-4" d="M240.5,244.5s-7,26-15,31-26,11-26,11,17.5,13.5,20,20,5,33,5,33S234,315.06,243,307c9.5-8.5,26.5-15.5,26.5-15.5s-12-6-19-17S240.5,244.5,240.5,244.5Z"/></svg>