<svg id="图层_2" data-name="图层 2" xmlns="http://www.w3.org/2000/svg" xmlns:xlink="http://www.w3.org/1999/xlink" width="88.554" height="88.554" viewBox="0 0 88.554 88.554">
  <defs>
    <style>
      .cls-1 {
        fill: url(#linear-gradient);
      }

      .cls-2 {
        fill: #fff;
      }

      .cls-3 {
        fill: #ff464a;
      }
    </style>
    <linearGradient id="linear-gradient" x1="0.5" y1="1" x2="0.5" gradientUnits="objectBoundingBox">
      <stop offset="0" stop-color="#ff416c"/>
      <stop offset="1" stop-color="#ff4b2b"/>
    </linearGradient>
  </defs>
  <g id="图层_1" data-name="图层 1">
    <path id="路径_82" data-name="路径 82" class="cls-1" d="M58.287,0H30.268A30.268,30.268,0,0,0,0,30.268V58.287A30.268,30.268,0,0,0,30.268,88.554H58.287A30.268,30.268,0,0,0,88.554,58.287V30.268A30.268,30.268,0,0,0,58.287,0Z"/>
    <path id="路径_83" data-name="路径 83" class="cls-2" d="M851.18,652.07v.007h0Z" transform="translate(-777.571 -595.68)"/>
    <path id="路径_84" data-name="路径 84" class="cls-2" d="M851.23,670.7v.005h0Z" transform="translate(-777.617 -612.699)"/>
    <path id="路径_85" data-name="路径 85" class="cls-2" d="M200.927,129.3a5.388,5.388,0,0,0-3.035-5.2c-1.211-.546-2.64-.626-3.726-1.4s-1.433-2.76-.2-3.27c.985-.408,1.979.459,2.881,1.026s2.533.509,2.569-.556a1.624,1.624,0,0,0-.45-1.014,9.162,9.162,0,0,0-7.393-3.295,11.5,11.5,0,0,1-2.66.01,2.192,2.192,0,0,1-1.847-1.678,12.761,12.761,0,0,0,5.306-1.007,4.358,4.358,0,0,0,2.554-4.385,8.992,8.992,0,0,1-9.121,1.455l-1.141,4.165,1.337.094a7.654,7.654,0,0,1-4.348,1.114,4.119,4.119,0,0,0,2.672-3.528,15.293,15.293,0,0,1-6.4,2.788,8.524,8.524,0,0,0,4.05-6.172,15.743,15.743,0,0,1-7.627,4.135,5.108,5.108,0,0,0,2.793-4.387l-4.324,2.6a20.177,20.177,0,0,0,4.257-4.563,5.687,5.687,0,0,1,.4,4.571,6.329,6.329,0,0,0,4.512-4.527,1.219,1.219,0,0,0-.078-1.018,1.355,1.355,0,0,0-.758-.413l-3.753-1.084a1.141,1.141,0,0,1-.745-.457,1.054,1.054,0,0,1-.017-.706,9.525,9.525,0,0,1,5.542-6.627c2.733-1.14,5.829-.926,8.714-1.594a6.572,6.572,0,0,0,3.373-1.7c1.917-2.03-.231-6.273-2.537-4.106a1.822,1.822,0,0,1,1.483,2.439,3.2,3.2,0,0,1-2.6,1.856,16.657,16.657,0,0,1-3.346-.048,14.948,14.948,0,0,0-13.624,7.907,7.438,7.438,0,0,1-2.12,3.08c-1.054.694-2.881.3-3-.957a8.46,8.46,0,0,1-1.528,4.832,3.753,3.753,0,0,1-4.583,1.164,7.4,7.4,0,0,0,3.5-.893,5.906,5.906,0,0,0-8.036,1c-.892,1.167-1.339,2.685-2.463,3.632-3.5,2.945-11.58-2.824-13.648,2.4a3.066,3.066,0,0,1,2.031.767,1.214,1.214,0,0,1-.214,1.882c-.182-1.217-1.852-1.69-2.954-1.143a5.949,5.949,0,0,0-2.313,2.8c2.376,1.543,5.53,1.012,8.183.02s5.243-2.406,8.074-2.491,6.015,1.8,6.054,4.636a2.171,2.171,0,0,1-.282,1.19c-.644,1.02-2.122.9-3.321,1.038-5.2.59-8.067,7.812-13.294,7.621a1.791,1.791,0,0,0,1.464,1.643,4.19,4.19,0,0,0,2.335-.312,12.972,12.972,0,0,0,6.653-5.647,9.415,9.415,0,0,0,8.876-.727,5.027,5.027,0,0,1-1.636,4.883,5.2,5.2,0,0,0,4.158-4.417,5.912,5.912,0,0,1-2.363,7.444,6.49,6.49,0,0,0,4.869-8.334,6.216,6.216,0,0,1-.142,8.926,5.125,5.125,0,0,0,4.273-3.935,9.1,9.1,0,0,0-.838-6.021c3.24,2.817,2.69,8.272.1,11.694s-6.616,5.382-10.354,7.5a40.139,40.139,0,0,0-10.186,7.658,18.977,18.977,0,0,0-5.189,11.429l4.711-1.838c-.364.034-.462-.566-.187-.809a1.935,1.935,0,0,1,1.038-.293,2.9,2.9,0,0,0,2.382-2.811,2.065,2.065,0,0,1-1.568-.572,5.056,5.056,0,0,0,4.3-2.88l-.993-.9a5.523,5.523,0,0,0,4.756-2.658l-1.111-.7a5.666,5.666,0,0,0,4.85-1.724,1.066,1.066,0,0,1-.657-1.054,4.114,4.114,0,0,0,4.3-1.51,2.062,2.062,0,0,1-1.449-1.323,3.909,3.909,0,0,0,5.033-1.376l-1.169-.767a5.753,5.753,0,0,0,5.351-3.69.919.919,0,0,1-1.158-.512,3.806,3.806,0,0,0,2.909-4.727c1.575-3.208.181-7.014-1.216-10.3a15.143,15.143,0,0,1,2.409,12.607c-1.618,5.681-6.771,9.526-11.685,12.8s-10.2,6.775-12.394,12.258a54.324,54.324,0,0,1,27.293,2.177c-2.958-3.177-2.267-8.37-.173-12.169s5.333-6.884,7.372-10.715c3.842-7.216,2.751-16.6-2.162-23.129a18.588,18.588,0,0,1,5.794,13.511,25.694,25.694,0,0,1-4.456,14.224c-2.485,3.791-5.891,7.307-6.448,11.806a5.309,5.309,0,0,0,1.51,4.843,18.01,18.01,0,0,1,3.423-5.935,3.793,3.793,0,0,1-1.29-1.574,1.307,1.307,0,0,1,.726-1.687c1.193-.3,1.7,1.58,2.805,2.114,1.038.5,2.3-.432,2.594-1.549a6.4,6.4,0,0,0-.391-3.385,5.213,5.213,0,0,1-.173-3.38c.432-1.065,1.913-1.747,2.786-1a4.379,4.379,0,0,1,.892,1.973c.252.688.964,1.378,1.628,1.071a1.5,1.5,0,0,0,.651-1.341,8.513,8.513,0,0,0-.957-4.519c-.6-1.137-1.47-2.185-1.635-3.459s.922-2.8,2.153-2.43c.865.259,1.24,1.25,1.723,2.02.3.483,1.418,1.48,2.04.909.445-.41.08-1.861-.026-2.378a8.324,8.324,0,0,0-2.9-4.778,9.177,9.177,0,0,1-1.883-1.628,1.826,1.826,0,0,1-.042-2.293c.807-.8,2.193-.19,3.006.605s1.621,1.827,2.759,1.839a4.716,4.716,0,0,0,.112-.726ZM185.143,92.9l.042-.018ZM171.105,106.865Zm-5.616,19.513-.009.013a.048.048,0,0,0-.036-.007C165.32,126.409,165.459,126.284,165.489,126.378Zm.751-14v0a.19.19,0,0,1,0-.049c.017-.295.048-.59.045-.884,0-.346-.156-.489-.494-.5a1.856,1.856,0,0,0-.3.011.453.453,0,0,0-.451.455c-.022.234,0,.473-.026.706a1.391,1.391,0,0,1-1.175,1.335,1.893,1.893,0,0,1-2.3-.983,1.908,1.908,0,0,0-1.85-1.278.782.782,0,0,1-.165-.031.178.178,0,0,1-.024-.336,2.1,2.1,0,0,1,.438-.074c.329-.052.661-.086.993-.118.679-.06,1.36-.086,2.04-.144a25.8,25.8,0,0,0,3.272-.481,7.353,7.353,0,0,0,3.85-1.9c.31-.32.63-.692.933-1.021a.179.179,0,0,1,.306.086.554.554,0,0,1-.01.259,1.663,1.663,0,0,1-.3.483c-.165.225-.3.473-.459.7a5.21,5.21,0,0,1-2.14,1.411,4.694,4.694,0,0,0-1.444.74c-.294.278-.271.768-.3,1.14a2.167,2.167,0,0,1-.092.49.178.178,0,0,1-.346-.018Zm4.09,9.746a8.014,8.014,0,0,1-2.831,1.724,1.539,1.539,0,0,1-.39.068.214.214,0,0,1-.159-.1.239.239,0,0,1,0-.19,1.525,1.525,0,0,1,.575-.554,17.641,17.641,0,0,0,2.3-1.826,5.97,5.97,0,0,0,1.77-5.634,10.172,10.172,0,0,1-.354-2.381,4.572,4.572,0,0,1,1.277,2.341q.086.55.164,1.1a5.374,5.374,0,0,1-.605,3.237,7.469,7.469,0,0,1-1.745,2.211Zm3.938-1.43a5.643,5.643,0,0,0-.5.99,3.2,3.2,0,0,1-2.626,1.8c-.057-.049-.129-.081-.144-.131a.2.2,0,0,1,.038-.18,2.532,2.532,0,0,1,.482-.36,3.841,3.841,0,0,0,1.832-1.809,2.74,2.74,0,0,1,.393-.582.277.277,0,0,1,.37-.033c.1.068.279.143.153.3ZM177,132.676Z" transform="translate(-126.349 -80.359)"/>
    <path id="路径_86" data-name="路径 86" class="cls-2" d="M613.128,108.373c-1.188.21-2.434.191-3.623.315-4.3.447-8.785,3.142-10.534,7.217-.432,1,2.5,1.69,2.947.8,1.009-1.989,1.659-3.912,3.645-5.189a11.805,11.805,0,0,1,4.966-1.57,23.869,23.869,0,0,0,5.6-.975,5.417,5.417,0,0,0,3.2-3.406c0-.336,0-.675-.014-1.011a2.075,2.075,0,0,0-.47-1.262,2.906,2.906,0,0,0-1.31-.8c-.2-.067-.923-.39-.932.033-.005.232.2.42.308.605a2.659,2.659,0,0,1,.283.8,2.951,2.951,0,0,1-.187,1.725,4.378,4.378,0,0,1-2.039,2.125A6.473,6.473,0,0,1,613.128,108.373Z" transform="translate(-547.134 -93.467)"/>
    <path id="路径_87" data-name="路径 87" class="cls-2" d="M757,252.74v.005a.061.061,0,0,0,.009.012Z" transform="translate(-691.535 -230.883)"/>
    <path id="路径_88" data-name="路径 88" class="cls-2" d="M637.923,228.741h0a.047.047,0,0,1,.029,0c.134.013.235.112.365.137a4.793,4.793,0,0,0,2.711-.548,5.485,5.485,0,0,0,2.342-1.637,7.294,7.294,0,0,0,1.39-2.594,5.457,5.457,0,0,0,.026-2.457,3.818,3.818,0,0,0-.23-.758,3.491,3.491,0,0,0-2.276-2.123,5.014,5.014,0,0,0-4.871,1.218,2,2,0,0,0-.636,1.5,1.912,1.912,0,0,0,.7,1.337,2.749,2.749,0,0,0,2.416.544c.45-.121.983-.594.847-1.111a.428.428,0,0,0-.11-.2.584.584,0,0,0-.381-.133c-.486-.028-1.182-.173-1.181-.79,0-.4.315-.592.653-.671a2.39,2.39,0,0,1,2.353.548,1.744,1.744,0,0,1-.005,2.421,3.61,3.61,0,0,1-2.547,1.254,11.683,11.683,0,0,1-1.487.041c-.828-.02-1.656-.146-2.485-.1a.606.606,0,0,0-.215.038c-.193.082-.193.32-.164.495.075.462.248.9.351,1.354a4.5,4.5,0,0,1,.054,1.384,6.527,6.527,0,0,1-.833,2.586c-.173.311-.375.605-.535.924a.519.519,0,0,0-.077.281.34.34,0,0,0,.1.2.433.433,0,0,0,.321.137.831.831,0,0,0,.272-.069,7.446,7.446,0,0,0,1.88-1.225,6.22,6.22,0,0,0,.768-.726c.2-.234.536-.595.5-.924C637.965,229.007,637.871,228.779,637.923,228.741Z" transform="translate(-579.29 -199.677)"/>
    <path id="路径_89" data-name="路径 89" class="cls-2" d="M300.1,453.042a.537.537,0,0,0,.372.1,1.015,1.015,0,0,0,.3-.118,1.8,1.8,0,0,1,.32-.1,4.207,4.207,0,0,1,.68-.119,6.518,6.518,0,0,1,1.367.033,2.738,2.738,0,0,0,.4.026.226.226,0,0,0,.158-.092.219.219,0,0,0,.007-.183,1.182,1.182,0,0,0-.173-.242,3.544,3.544,0,0,0-2.633-1.124,4.209,4.209,0,0,0-2.306.621,2.608,2.608,0,0,1,.38.259c.137.1.272.193.4.295s.259.21.386.32a4.493,4.493,0,0,0,.329.311Z" transform="translate(-272.768 -412.204)"/>
    <path id="路径_90" data-name="路径 90" class="cls-2" d="M195.8,544.508c.346-.058.605-.276.555-.647a2.194,2.194,0,0,0-.355-.778,6.564,6.564,0,0,0-.37-.549c-.1-.136-.268-.346-.468-.323-.3.038-.274.519-.29.728-.019.259-.028.511-.027.766a1.078,1.078,0,0,0,.1.624C195.135,544.6,195.516,544.555,195.8,544.508Z" transform="translate(-177.993 -495.32)"/>
    <path id="路径_91" data-name="路径 91" class="cls-2" d="M140.637,443.368a15.075,15.075,0,0,0,5.312-3.146c.941-.815,1.841-1.676,2.788-2.483a9.125,9.125,0,0,1,1.436-1.093,5.655,5.655,0,0,1,1.717-.63c.912-.165,1.831-.3,2.755-.375.667-.054,1.288-.215,1.3-1.1a4.163,4.163,0,0,0-2.972-4.026,8.4,8.4,0,0,0-5.73.534c-1.257.5-2.508,1.022-3.775,1.486a16.6,16.6,0,0,1-3.131.951,12.639,12.639,0,0,1-4.446-.253,8.28,8.28,0,0,1-1.406-.483.189.189,0,0,0-.086-.02.168.168,0,0,0-.068.025c-.58.33-.144,1.118.245,1.43a3.509,3.509,0,0,0,1.736.509,17.76,17.76,0,0,0,2.269.094c.365,0,.729.025,1.094.014a3.65,3.65,0,0,0,1.022-.193.233.233,0,0,1,.232.009c.131.11.117.31.145.464a1.556,1.556,0,0,0,.48.733,2.725,2.725,0,0,0,.7.545,1.863,1.863,0,0,0,1.223.223.29.29,0,0,0,.2-.455,2.528,2.528,0,0,1-.662-1.34c-.058-.456-.056-.473.432-.594.623-.155,1.25-.3,1.859-.5a4.607,4.607,0,0,0,1.614-.834,7.6,7.6,0,0,1,1.927-1.095,4.891,4.891,0,0,1,3.168-.3,3.923,3.923,0,0,1,2.53,2.028.793.793,0,0,1,.08.29c.027.189-.038.346-.243.368-.637.077-1.276.15-1.915.2a2.63,2.63,0,0,0-.794.131,11.944,11.944,0,0,0-2.738,1.515,10.294,10.294,0,0,0-2.312,2.248,5.765,5.765,0,0,1-.7.73,13.738,13.738,0,0,1-2.838,2.112c-.206.078-.413.157-.617.236a.894.894,0,0,0,.36-.494c.035-.105-.183-.438-.235-.533a4.548,4.548,0,0,0-.354-.541,4.607,4.607,0,0,0-.412-.519.956.956,0,0,0-.6-.219c-.191.03-.252.259-.259.317a8.663,8.663,0,0,0,.022,1.429c.009.129.016.259.016.387a.372.372,0,0,0,.218.357,1.29,1.29,0,0,0,.9-.047,16.777,16.777,0,0,0-2.135,1c-.316.183-.7.315-.59.81.086.384.824.216,1.049.148Zm1.687-8.93h-.016l.022-.007Z" transform="translate(-122.454 -393.014)"/>
    <path id="路径_92" data-name="路径 92" class="cls-2" d="M135.345,142.309a11.349,11.349,0,0,0,2.356-.47,19.991,19.991,0,0,0-1.152-3.764q-.551-1.548.795-1.4a1.16,1.16,0,0,1,1.031.909,8.787,8.787,0,0,0,.308,1.615,7.253,7.253,0,0,0,3.3-2.767,8.066,8.066,0,0,1,.681-.865.918.918,0,0,1,.529.026q1.311.495.752,1.324a4.144,4.144,0,0,1-1,1.124,20.4,20.4,0,0,1-4.081,2.3l.3,1.107a45.913,45.913,0,0,0,6.531-1.943.681.681,0,0,1,.981.243q.579.692.014,1.015a57.077,57.077,0,0,0-7.224,1.792,17.156,17.156,0,0,0,.823,3.513q.173.633.859.276a10.25,10.25,0,0,0,2.213-1.96l-.616-.342c-.492-.207-.929-.37-1.31-.494q-.982-.243-1.067-.56c.076-.36.266-.467.566-.323q2.9.573,5.921,1.11,2.24.073,3.179.156-.759,3.943-3.057,2.7-1.73-1.059-3.286-1.994a15.867,15.867,0,0,1-2.594,3.93,1.336,1.336,0,0,1-1.539.587,1.657,1.657,0,0,1-.745-.816l-.086-.316a10.551,10.551,0,0,1,.064-1.206,14.218,14.218,0,0,0-.787-3.861,12.172,12.172,0,0,0-3.07,1.686q-.322.259-.451-.217a1.955,1.955,0,0,1-.057-1.173A1.436,1.436,0,0,1,135.345,142.309Z" transform="translate(-122.736 -123.815)"/>
    <path id="路径_93" data-name="路径 93" class="cls-2" d="M322.752,88.021q.2-.223.937.086a24.535,24.535,0,0,0,2.513-.852l-.558-2.056q-.05-.664.437-.8a1.169,1.169,0,0,1,1.153.876,8.889,8.889,0,0,1,.308,1.615q2.312-.628,4.67-1.1.851-.231,1.1.21a.644.644,0,0,1-.315.764q-2.357.47-3.7.834.451.218.415.566a7.109,7.109,0,0,0-.043,2.729,9.986,9.986,0,0,0,1.067-2.328q.28-.413.9-.073a1.222,1.222,0,0,1,.346,1.265A9.7,9.7,0,0,1,330.7,91.3l-.723.706a2.344,2.344,0,0,0,.623.85q.946.593,3.5-.1a5.526,5.526,0,0,0,2.508-1.359c.243-.067.341.134.293.6a7.768,7.768,0,0,1-.692,2.736q-.924.931-1.618.778a9.311,9.311,0,0,1-4.7-.933,7.907,7.907,0,0,1-.88-1.8,4.237,4.237,0,0,1-.845.739c-.272-.039-.422-.111-.451-.217a3.59,3.59,0,0,1,1.038-1.47q-.493-3.261-.056-4.06l-.974.265a17.688,17.688,0,0,1-1.769,7.443q-1.676,2.492-3.237,1.557a2.6,2.6,0,0,1-.537-.534q-.086-.316,1.046-.963,3.178-2.222,3.15-7.142a13.182,13.182,0,0,0-3.559,1.816q-.322.259-.494-.375A1.791,1.791,0,0,1,322.752,88.021Zm7.153-3.978q.323-.259.9.432a.758.758,0,0,1-.029.857,6.055,6.055,0,0,1-1.417.554c-.272-.039-.422-.111-.451-.217.187-.276.4-.617.637-1.022a2.151,2.151,0,0,1,.358-.606Z" transform="translate(-294.317 -76.71)"/>
    <path id="路径_94" data-name="路径 94" class="cls-3" d="M464.342,773.979a3.99,3.99,0,0,1-1.971-.535A2.381,2.381,0,0,1,461,771.526a3.919,3.919,0,0,1,.906-2.437,13.6,13.6,0,0,0,1.4-2.442,10.156,10.156,0,0,0,.566-2.323,15.473,15.473,0,0,0,.154-1.571,2.092,2.092,0,0,1-1.236-.605,2.854,2.854,0,0,1-.719-1.838,3.439,3.439,0,0,1,.387-2.128,2.121,2.121,0,0,1,1.3-.9l-.062-.84a2.215,2.215,0,0,1,.745-2.024,3.9,3.9,0,0,1,2.2-.673,3.754,3.754,0,0,1,2.312.387,2.264,2.264,0,0,1,1,1.845l.06.8.488-.036a3.813,3.813,0,0,1,2.9.7,3.863,3.863,0,0,1,1.1,2.773c.136,1.816.222,3.479.259,4.929.035,1.47.01,2.775-.071,3.892a12.1,12.1,0,0,1-.312,2.363,2.767,2.767,0,0,1-.669,1.211,2.58,2.58,0,0,1-1.028.626,4.657,4.657,0,0,1-1.109.208l-1.919.143a2.982,2.982,0,0,1-2.427-.627,1.654,1.654,0,0,1-.125-.133,2.788,2.788,0,0,1-.432.4,3.812,3.812,0,0,1-2.045.748C464.531,773.979,464.436,773.979,464.342,773.979Zm.284-13.07a1.166,1.166,0,0,1,1.073.605,1.76,1.76,0,0,1,.184.7,12.274,12.274,0,0,1-.163,2.368,11.972,11.972,0,0,1-.68,2.753,15.022,15.022,0,0,1-1.6,2.817c-.579.827-.585,1.175-.579,1.238.012.165.238.325.425.432a2.1,2.1,0,0,0,1.206.293,1.954,1.954,0,0,0,1.055-.384c.222-.167.246-.294.24-.417l-.1-.7a3.759,3.759,0,0,1,.361-2.057,2.455,2.455,0,0,1,1.579-1.263,2.13,2.13,0,0,0,.259-.082,12.806,12.806,0,0,0,.159-1.327,25.176,25.176,0,0,0-.016-3.6,1.5,1.5,0,0,1,.183-.914,1.251,1.251,0,0,1,1.056-.576,1.2,1.2,0,0,1,1.211.575,3.469,3.469,0,0,1,.27,1.5,31.007,31.007,0,0,1-.009,3.2c-.086,2.2-.185,2.518-.338,2.778a1.548,1.548,0,0,1-1.318.7,1.525,1.525,0,0,0-.736.173,1.745,1.745,0,0,0-.086.951c.052.675.216.89.266.939,0,0,.2.154.981.1l1.92-.143a2.828,2.828,0,0,0,.665-.12.728.728,0,0,0,.295-.173.993.993,0,0,0,.2-.414,11.686,11.686,0,0,0,.242-1.979c.077-1.051.1-2.3.067-3.706s-.118-3.05-.252-4.843h0c-.079-1.059-.354-1.408-.469-1.508s-.489-.32-1.534-.242l-1.112.086a1.139,1.139,0,0,1-1.325-1.129L468.1,756.1c-.016-.221-.067-.361-.152-.415a2.169,2.169,0,0,0-1.167-.1,2.44,2.44,0,0,0-1.169.259.712.712,0,0,0-.059.438l.093,1.244a1.519,1.519,0,0,1-.181.951,1.172,1.172,0,0,1-.928.532c-.337.025-.474.107-.5.147a1.745,1.745,0,0,0-.1,1,1.1,1.1,0,0,0,.193.675.537.537,0,0,0,.375.069Q464.563,760.909,464.626,760.909ZM467.856,767.35ZM467.987,767.163ZM464.02,762.3Z" transform="translate(-421.127 -688.538)"/>
    <path id="路径_95" data-name="路径 95" class="cls-3" d="M373.931,787.3a4.353,4.353,0,0,1-1.066-.112,2.042,2.042,0,0,1-1.361-1.15,4.521,4.521,0,0,1-.391-1.608,2.419,2.419,0,0,1,1.09-2.434l-.746-10.041a3.018,3.018,0,0,1,.707-2.447,3.812,3.812,0,0,1,2.52-.916l4.187-.311a4.7,4.7,0,0,1,1.951.189,2.5,2.5,0,0,1,1.345,1.064,2.394,2.394,0,0,1,.417,1.025c.04.531-.273.951-.929,1.257l-.022.01a.74.74,0,0,0-.428.412,2.9,2.9,0,0,0-.111,1.286c.086,1.159.519,1.232.723,1.267a1.391,1.391,0,0,1,.911.5,1.7,1.7,0,0,1,.3.931,9.156,9.156,0,0,1-.144,1.718,10.788,10.788,0,0,1-.643,2.5h0a16.082,16.082,0,0,1-1.73,3.015,2.292,2.292,0,0,0-.5,1.347.424.424,0,0,0,.007.058,2.054,2.054,0,0,1,.072.4,1.131,1.131,0,0,1-.886,1.163,18.085,18.085,0,0,1-2,.449,23.109,23.109,0,0,1-2.616.4C374.349,787.292,374.132,787.3,373.931,787.3Zm5.489-17.177a3.882,3.882,0,0,0-.41.016l-4.187.311c-.972.073-1.264.3-1.331.367a1.414,1.414,0,0,0-.177,1l.772,10.377a1.4,1.4,0,0,1-.809,1.334l-.056.029c-.1.049-.294.142-.251.732a2.709,2.709,0,0,0,.215.946c.06.125.1.136.141.145a3.6,3.6,0,0,0,1.118.035,21.732,21.732,0,0,0,2.393-.367c.636-.126,1.042-.212,1.3-.269a3.922,3.922,0,0,1,.662-2.114,1.274,1.274,0,0,1-.556.173l-.785.059c-.63.048-1.4-.341-1.491-1.586a1.854,1.854,0,0,1,.147-.989,1.28,1.28,0,0,1,1.1-.682l.785-.059a1.251,1.251,0,0,1,1.211.556,1.958,1.958,0,0,1,.253.915,2.56,2.56,0,0,1-.027.658,11.818,11.818,0,0,0,1.071-1.953,8.908,8.908,0,0,0,.532-2.065c.086-.624.116-.964.127-1.145-.774-.236-1.781-.922-1.928-2.885a4.653,4.653,0,0,1,.249-2.142,2.555,2.555,0,0,1,.962-1.163.883.883,0,0,0-.254-.134A2.323,2.323,0,0,0,379.42,770.123Zm-1.73,11.084c.012.015.024.029.037.042l.025-.042-.036-.032ZM381.156,776.253Zm-4.1,2.626a1.394,1.394,0,0,1-1.374-1.454h0a1.623,1.623,0,0,1,.182-.964,1.272,1.272,0,0,1,1.074-.605l.785-.059a1.27,1.27,0,0,1,1.129.445,1.615,1.615,0,0,1,.323.928,1.379,1.379,0,0,1-1.228,1.651l-.785.058Zm.281-1.571a.619.619,0,0,0,.064.1l.04.045.031-.049a.626.626,0,0,0,.051-.112h0l-.183.013ZM377.545,777.351Zm-.125-.183a.537.537,0,0,0-.086.135l.183-.014A.5.5,0,0,0,377.419,777.168Zm-.666-2.057a1.386,1.386,0,0,1-1.355-1.456h0a1.338,1.338,0,0,1,1.234-1.572l.828-.062a1.348,1.348,0,0,1,1.434,1.414,1.672,1.672,0,0,1-.185.976,1.263,1.263,0,0,1-1.024.635l-.828.061C376.823,775.108,376.788,775.11,376.754,775.11Zm.3-1.538a.5.5,0,0,0,.109.139.49.49,0,0,0,.087-.173.2.2,0,0,0-.012-.023l-.173.012A.157.157,0,0,1,377.05,773.572Zm.093-.162a.56.56,0,0,0-.078.121l.169-.012a.473.473,0,0,0-.088-.109Z" transform="translate(-339.009 -701.819)"/>
    <path id="路径_96" data-name="路径 96" class="cls-3" d="M626.515,755.865a3.47,3.47,0,0,1-1.263-.192,2.256,2.256,0,0,1-1.15-1,3.88,3.88,0,0,1-.42-1.639,2.962,2.962,0,0,1,.519-2.005c.042-.058.086-.113.131-.167l-2.446.182a2.512,2.512,0,0,1-2-.56,2.847,2.847,0,0,1-.745-1.919,2.754,2.754,0,0,1,.458-1.995,1.871,1.871,0,0,1,.631-.5,2.715,2.715,0,0,1-.778-1.879,2.653,2.653,0,0,1,.529-2.031,2.1,2.1,0,0,1,.865-.565,2.735,2.735,0,0,1-.683-1.718,2.406,2.406,0,0,1,.759-2.2,4.105,4.105,0,0,1,2.2-.7c4.715-.428,8.642-.923,11.675-1.47.295-.051.566-.086.813-.1a3.149,3.149,0,0,1,2.228.511,2.763,2.763,0,0,1,.962,2.1,2.294,2.294,0,0,1-1.016,2.192,2.484,2.484,0,0,1,1.621.519,2.681,2.681,0,0,1,.815,1.922,2.721,2.721,0,0,1-.467,1.93,1.91,1.91,0,0,1,.778.424,2.768,2.768,0,0,1,.75,1.925h0a2.728,2.728,0,0,1-.488,2.037,2.572,2.572,0,0,1-1.858.8l-5.12.38.173,2.335a2.752,2.752,0,0,1-.5,2.059,2.885,2.885,0,0,1-1.839.883c-.64.1-1.427.188-2.34.255-.88.066-1.65.12-2.289.161Q626.757,755.865,626.515,755.865Zm1.358-7.131a1.25,1.25,0,0,1,.911.333,1.568,1.568,0,0,1,.387,1.056,1.746,1.746,0,0,1-.173,1.045,1.243,1.243,0,0,1-1.038.575l-1.744.13a.59.59,0,0,0-.5.24,1.135,1.135,0,0,0-.173.778,2.159,2.159,0,0,0,.182.857.385.385,0,0,0,.21.188,2.612,2.612,0,0,0,.98.05c.632-.041,1.4-.094,2.269-.159s1.6-.144,2.185-.238c.573-.091.7-.239.709-.246h0a1.338,1.338,0,0,0,.062-.718l-.216-2.91a1.261,1.261,0,0,1,.338-.986,1.337,1.337,0,0,1,.889-.391l5.648-.42c.451-.034.568-.14.572-.144h0a1.376,1.376,0,0,0,.055-.7h0a1.688,1.688,0,0,0-.147-.681,1.416,1.416,0,0,0-.6-.04l-5.626.419a1.286,1.286,0,0,1-1.225-.463,1.56,1.56,0,0,1-.265-.829,1.369,1.369,0,0,1,.3-1.038,1.448,1.448,0,0,1,1.009-.444l4.67-.346c.576-.042.723-.187.739-.2a1.044,1.044,0,0,0,.086-.653c-.038-.519-.164-.643-.166-.643h0a1.476,1.476,0,0,0-.771-.063l-4.67.346a1.466,1.466,0,0,1-.239-2.921,26.053,26.053,0,0,0,3.952-.72c.432-.138.5-.3.473-.63a1.15,1.15,0,0,0-.238-.761,1.459,1.459,0,0,0-.956-.131c-.186.014-.4.041-.626.081-3.078.555-7.059,1.057-11.829,1.489a2.434,2.434,0,0,0-1.211.3s-.1.131-.064.605c.042.565.186.791.962.733l4.166-.31a1.19,1.19,0,0,1,1.12.442,1.526,1.526,0,0,1,.259.82,1.324,1.324,0,0,1-.312,1.043,1.3,1.3,0,0,1-.865.37l-5.218.382c-.605.046-.763.173-.767.18h0a1.2,1.2,0,0,0-.058.648,1.077,1.077,0,0,0,.18.643c.018.015.185.135.761.092l5.084-.382a1.444,1.444,0,0,1,1.069.293,1.373,1.373,0,0,1,.465.987,1.568,1.568,0,0,1-.14.85,1.285,1.285,0,0,1-1.144.639l-5.958.442a1.408,1.408,0,0,0-.584.128,1.588,1.588,0,0,0-.045.675,1.341,1.341,0,0,0,.173.709h0a1.027,1.027,0,0,0,.572.05l5.975-.444C627.77,748.735,627.822,748.734,627.873,748.734ZM621.029,747.757Z" transform="translate(-565.587 -671.798)"/>
    <path id="路径_97" data-name="路径 97" class="cls-2" d="M388.806,765.754a3.9,3.9,0,0,1,1.567.138,1.585,1.585,0,0,1,.861.669,1.923,1.923,0,0,1,.287.614c.008.1-.123.218-.391.342a1.666,1.666,0,0,0-.918.909,3.844,3.844,0,0,0-.18,1.714q.14,1.884,1.5,2.116a.515.515,0,0,1,.329.151.864.864,0,0,1,.108.432,10.219,10.219,0,0,1-.138,1.525,9.8,9.8,0,0,1-.587,2.281,15.12,15.12,0,0,1-1.633,2.828,3.11,3.11,0,0,0-.667,1.945,1.226,1.226,0,0,0,.04.241,1.14,1.14,0,0,1,.038.222c.006.078-.086.15-.269.215s-.807.2-1.866.412a22.293,22.293,0,0,1-2.508.381,4.594,4.594,0,0,1-1.418-.061,1.118,1.118,0,0,1-.75-.648,3.581,3.581,0,0,1-.3-1.277,1.506,1.506,0,0,1,.778-1.643q.358-.2.339-.455l-.771-10.377a2.153,2.153,0,0,1,.442-1.724,3.006,3.006,0,0,1,1.926-.642Zm-1.324,4.906q.393-.029.346-.612t-.432-.553l-.828.061q-.415.031-.374.575.047.621.461.591Zm.259,3.772q.414-.031.368-.653a.769.769,0,0,0-.118-.412.371.371,0,0,0-.336-.1l-.785.059a.4.4,0,0,0-.34.152.768.768,0,0,0-.056.425q.047.621.483.589Zm.3,4.023q.413-.031.358-.789a1.159,1.159,0,0,0-.113-.49q-.087-.14-.346-.12l-.785.058a.374.374,0,0,0-.338.173,1.029,1.029,0,0,0-.05.5q.055.759.492.726Zm10.28-10.966a3,3,0,0,1,2.217.47,3.081,3.081,0,0,1,.784,2.14q.2,2.721.253,4.884t-.069,3.8a12.792,12.792,0,0,1-.277,2.17,1.883,1.883,0,0,1-.432.815,1.657,1.657,0,0,1-.661.4,3.73,3.73,0,0,1-.888.17l-1.919.143a2.188,2.188,0,0,1-1.7-.361,2.364,2.364,0,0,1-.542-1.533,2.46,2.46,0,0,1,.259-1.563,1.839,1.839,0,0,1,1.427-.566q.458-.034.585-.248a10.885,10.885,0,0,0,.208-2.344,29.213,29.213,0,0,0,.01-3.1,5,5,0,0,0-.148-1.1c-.05-.086-.163-.125-.337-.112s-.284.057-.329.132a.642.642,0,0,0-.05.365,26.016,26.016,0,0,1,.016,3.741,6.42,6.42,0,0,1-.285,1.792,1.339,1.339,0,0,1-.822.442,1.525,1.525,0,0,0-.994.8,2.862,2.862,0,0,0-.259,1.557l.094.677a1.378,1.378,0,0,1-.605,1.257,2.878,2.878,0,0,1-1.548.565,3.02,3.02,0,0,1-1.73-.409,1.508,1.508,0,0,1-.9-1.173,3.127,3.127,0,0,1,.741-1.834,14.306,14.306,0,0,0,1.5-2.633,11.033,11.033,0,0,0,.623-2.538,11.56,11.56,0,0,0,.157-2.171.9.9,0,0,0-.08-.336c-.042-.081-.144-.116-.3-.1q-1.44.108-1.566-1.6a2.61,2.61,0,0,1,.246-1.562,1.469,1.469,0,0,1,1.218-.579.254.254,0,0,0,.212-.1.724.724,0,0,0,.037-.383l-.088-1.248a1.354,1.354,0,0,1,.4-1.231,3.166,3.166,0,0,1,1.687-.467,2.961,2.961,0,0,1,1.739.241,1.364,1.364,0,0,1,.577,1.13l.107,1.438a.235.235,0,0,0,.327.268Z" transform="translate(-348.874 -698.364)"/>
    <path id="路径_98" data-name="路径 98" class="cls-2" d="M648.409,755.328a1.72,1.72,0,0,1,1.292.275,1.952,1.952,0,0,1,.448,1.306,1.9,1.9,0,0,1-.272,1.368,1.693,1.693,0,0,1-1.211.471l-5.655.42c-.259.019-.384.146-.367.379l.216,2.915a1.924,1.924,0,0,1-.28,1.389,2.053,2.053,0,0,1-1.274.564q-.921.146-2.262.247t-2.28.16a3.456,3.456,0,0,1-1.378-.112,1.316,1.316,0,0,1-.677-.593,3.063,3.063,0,0,1-.3-1.249,2.048,2.048,0,0,1,.346-1.393,1.526,1.526,0,0,1,1.193-.626l1.744-.13a.379.379,0,0,0,.309-.131.935.935,0,0,0,.04-.491.858.858,0,0,0-.111-.461.467.467,0,0,0-.346-.062l-5.976.445a1.643,1.643,0,0,1-1.283-.305,1.984,1.984,0,0,1-.458-1.315,1.919,1.919,0,0,1,.251-1.338,1.725,1.725,0,0,1,1.237-.467l5.953-.443c.218-.016.346-.061.385-.136a.713.713,0,0,0,.04-.355.478.478,0,0,0-.136-.346.561.561,0,0,0-.4-.078l-5.082.386a1.99,1.99,0,0,1-1.415-.3,1.765,1.765,0,0,1-.524-1.3,1.789,1.789,0,0,1,.295-1.341,2.046,2.046,0,0,1,1.39-.484l5.212-.387a.414.414,0,0,0,.267-.086.454.454,0,0,0,.053-.326.722.722,0,0,0-.08-.336c-.041-.055-.141-.077-.3-.066l-4.165.31q-1.832.136-1.96-1.593a1.547,1.547,0,0,1,.412-1.4,3.3,3.3,0,0,1,1.706-.5q7.144-.648,11.752-1.479a7.046,7.046,0,0,1,.717-.093,2.305,2.305,0,0,1,1.591.321,1.893,1.893,0,0,1,.6,1.431,1.425,1.425,0,0,1-1.124,1.588,26.644,26.644,0,0,1-4.121.756c-.363.041-.532.228-.507.566a.472.472,0,0,0,.564.5l4.67-.346a2,2,0,0,1,1.446.284,1.813,1.813,0,0,1,.49,1.282,1.754,1.754,0,0,1-.327,1.353,1.991,1.991,0,0,1-1.355.5l-4.67.346a.553.553,0,0,0-.374.125.476.476,0,0,0-.072.357.727.727,0,0,0,.092.355q.073.1.4.078Z" transform="translate(-575.386 -681.701)"/>
  </g>
</svg>
