<?xml version="1.0" encoding="UTF-8"?>
<svg width="904px" height="338px" viewBox="0 0 904 338" version="1.1" xmlns="http://www.w3.org/2000/svg" xmlns:xlink="http://www.w3.org/1999/xlink">
    <!-- Generator: sketchtool 54 (76480) - https://sketchapp.com -->
    <title>94AFEFE7-39C7-4EB2-9971-17773F6B3DDE</title>
    <desc>Created with sketchtool.</desc>
    <defs>
        <linearGradient x1="19.8461878%" y1="43.0101711%" x2="85.1489218%" y2="56.9898289%" id="linearGradient-1">
            <stop stop-color="#FF3823" offset="0%"></stop>
            <stop stop-color="#F32121" offset="100%"></stop>
        </linearGradient>
        <rect id="path-2" x="0" y="0" width="904" height="338" rx="8"></rect>
    </defs>
    <g id="入款活动" stroke="none" stroke-width="1" fill="none" fill-rule="evenodd">
        <g id="云-详情页" transform="translate(-486.000000, -2384.000000)">
            <g id="编组-5" transform="translate(486.000000, 2384.000000)">
                <mask id="mask-3" fill="white">
                    <use xlink:href="#path-2"></use>
                </mask>
                <use id="矩形" fill="url(#linearGradient-1)" xlink:href="#path-2"></use>
                <path d="M827.302585,290.737557 L827.302585,225.24959 C827.302585,219.972559 824.676436,217.334084 819.424058,217.334084 L657.469966,217.334084 C645.46453,216.580222 639.461903,210.926346 639.461903,200.372285 C640.212243,190.572086 646.590034,185.295135 658.59547,184.541273 L838.557625,184.541273 C853.564419,183.787412 860.692539,192.456689 859.942199,210.549364 L859.942199,255.68961 L933.594475,176.602858 C940.034206,169.983723 950.595442,169.862789 957.183655,176.332746 C963.771869,182.802702 963.892238,193.413508 957.452506,200.032644 L823.474546,343.377451 C817.178728,349.848665 806.906739,350.129965 800.269403,344.012929 L737.262271,284.08433 L723.060022,269.358517 L730.813948,291.416102 L684.554827,344.012929 C678.152242,350.668339 667.591849,350.848933 660.967531,344.416296 C654.343212,337.98366 654.163462,327.373702 660.566047,320.718291 L724.567876,249.049316 C730.852684,242.516334 741.174224,242.204498 747.838393,248.346265 L810.912704,308.336775 L827.302585,290.737557 Z M859.942199,320.131054 L859.942199,394.652931 C861.442879,411.238884 845.912436,432.481109 827.302585,432.481109 C819.048849,432.481109 815.616782,432.521386 810.491491,432.521386 C800.018835,432.521386 794.411595,425.453978 794.411595,416.371378 C794.411595,406.310159 801.679601,400.859362 810.491491,400.859362 C821.136174,400.859362 827.302585,395.119711 827.302585,390.04594 L827.302585,353.679976 C839.773963,340.861158 850.653834,329.678184 859.942199,320.131054 Z M640.391841,211.067406 C632.888444,203.528791 629.664654,202.169804 623.661937,193.877327 C617.659219,187.092574 618.034383,180.307922 624.787441,173.523169 C633.791517,167.492277 641.669966,167.492277 648.423023,173.523169 C658.927779,184.07723 662.151569,185.436217 665.152927,190.713248 C671.155645,199.005724 670.780481,206.544226 664.027423,213.328979 C655.023347,219.359871 647.144898,218.606021 640.391841,211.067406 Z M607,244.472962 C607.75034,235.426624 613.377803,230.526598 623.882559,229.772736 C633.636975,230.526598 638.889274,235.426624 639.639614,244.472962 L639.639614,419.982942 C638.889274,428.275418 633.636975,432.798519 623.882559,433.552381 C613.377803,432.798519 607.75034,428.275418 607,419.982942 L607,244.472962 Z" id="形状结合" fill="#DD1E1E" fill-rule="nonzero" mask="url(#mask-3)"></path>
            </g>
        </g>
    </g>
</svg>
