<svg id="图层_1" data-name="图层 1" xmlns="http://www.w3.org/2000/svg" xmlns:xlink="http://www.w3.org/1999/xlink" viewBox="0 0 1024 1024"><defs><style>.cls-1{fill:url(#未命名的渐变_11);}.cls-2{opacity:0.2;}.cls-3{fill:#038406;}.cls-4{fill:#fcfcfc;}.cls-5{fill:#fff;}</style><linearGradient id="未命名的渐变_11" x1="512" x2="512" y2="1024" gradientUnits="userSpaceOnUse"><stop offset="0" stop-color="#a5de61"/><stop offset="1" stop-color="#58ad31"/></linearGradient></defs><title>14</title><rect class="cls-1" width="1024" height="1024" rx="512"/><g class="cls-2"><path class="cls-3" d="M139,452,101.5,671.5,157,668l41-39,29-184Zm21.5,187.5h-18l10-64h16Zm16-95h-18l10-64h16Z"/><polygon class="cls-3" points="241 456 305 454 307 440 344 423 344 447 362 448 336 484 314 623 281 657 235.5 632.5 274.5 630.5 298.5 482.5 238.37 484.94 241 456"/><ellipse class="cls-3" cx="255" cy="542" rx="29.18" ry="21.18" transform="translate(-262.63 240.59) rotate(-34.59)"/><path class="cls-3" d="M387,430,349.5,649.5,405,646l41-39,29-184Zm21.5,187.5h-18l10-64h16Zm16-95h-18l10-64h16Z"/><polygon class="cls-3" points="489 434 553 432 555 418 592 401 592 425 610 426 584 462 562 601 529 635 483.5 610.5 522.5 608.5 546.5 460.5 486.37 462.94 489 434"/><ellipse class="cls-3" cx="503" cy="520" rx="29.18" ry="21.18" transform="translate(-206.3 377.5) rotate(-34.59)"/><path class="cls-3" d="M637,412s84-3,111-14a270.88,270.88,0,0,0,46-24s-23,39-47,47-114,17-114,17Z"/><rect class="cls-3" x="633" y="445" width="35" height="40"/><rect class="cls-3" x="676" y="440" width="35" height="40"/><polygon class="cls-3" points="728 436 764 436 750 478 716 478 728 436"/><polygon class="cls-3" points="620 503 671 499 671 487 708 487 707 493 756 493 740 518 700 522 686 622 650.5 612.5 666.5 528.5 615.5 529.5 620 503"/><path class="cls-3" d="M630.5,538.5h27s-15,67-24,76-50,16-50,16,29-26,35-41S630.5,538.5,630.5,538.5Z"/><rect class="cls-3" x="704.5" y="529.5" width="36" height="82"/><path class="cls-3" d="M920,337s-56-3-91,43c-24.87,32.69-44.18,83-53.28,109.45-3.8,11-6.72,22.6-6.72,34.25v35c0,6,1.63,11.94,2.72,17.82A59.14,59.14,0,0,1,764,618c-15,25-49,72-46,93,2.25,15.76,24.77,28.13,35.87,33.33a12.27,12.27,0,0,1,7.13,11c0,8.12-2.58,20.06-17,25.7-23,9-33,16-48,16-12.49,0-190,1.39-249.06,1.85a83.68,83.68,0,0,0-35.22,8.09C378.76,822.58,302.48,856.6,246,865c0,0,80,32,132,28s127-62,150-64c19.66-1.71,133.56-.5,166.24-.11a67.85,67.85,0,0,0,19.83-2.7c14-4.08,38.38-15,55.93-31.19,26-24,25-54,23-68s-28-27-25-57,56-40,62-73-20-93-11-113S897,347,920,337Z"/><path class="cls-3" d="M177.5,708.39l9.51-.84-.62,67.27,31.46-2.8-.07,8.18-41,3.64Z"/><path class="cls-3" d="M287.4,735.53c-.24,26-15.77,41.11-34.56,42.78-19.45,1.73-33-12.5-32.76-35.34.22-24,14.9-40.92,34.56-42.66C274.74,698.52,287.6,713.15,287.4,735.53Zm-57.15,6.31c-.15,16.12,8.24,29.8,23.21,28.47s23.72-16.31,23.88-33.43c.14-15-7.37-30-23.21-28.59S230.4,725.28,230.25,741.84Z"/><path class="cls-3" d="M311.25,704.78l-22.4,2,.08-8.28,54.52-4.85-.08,8.29-22.5,2-.62,67.16-9.61.85Z"/><path class="cls-3" d="M369.7,699.59l-22.4,2,.07-8.29,54.52-4.84-.08,8.28-22.5,2-.62,67.16-9.61.86Z"/><path class="cls-3" d="M447.84,724.4,419.22,727l-.25,27.2,31.9-2.84-.08,8.17-41.4,3.68.69-75.44,39.77-3.53-.08,8.17-30.26,2.69-.22,23.84,28.63-2.55Z"/><path class="cls-3" d="M463.82,684a100.41,100.41,0,0,1,18.26-3.19c10.16-.9,16.69.42,21.24,4.26,3.69,3,5.72,8,5.66,13.82-.09,10-6.27,17.11-14.05,20.48v.34c5.66,1.51,9,6.58,10.67,14.26,2.31,10.31,4,17.43,5.5,20.2l-9.84.88c-1.18-2-2.76-8.37-4.75-17.59-2.09-10.21-6-13.78-14.61-13.35l-9,.8-.3,32.68-9.5.85ZM473,717.47l9.72-.86c10.16-.91,16.66-7.19,16.74-15.81.09-9.74-6.76-13.38-16.81-12.6a40.07,40.07,0,0,0-9.4,1.73Z"/><path class="cls-3" d="M537.1,751.81l.29-32-22.87-41.36,10.81-1,10.19,19.89c2.79,5.46,4.93,9.85,7.18,14.91l.22,0c2.12-5.11,4.67-10.26,7.57-16.22l10.79-21.76,10.81-1L547,718.83,546.71,751Z"/><path class="cls-3" d="M352.75,300.07l10.87,4.78q-12.62,19.89-24.42,36a95.59,95.59,0,0,0-10.41-5.49A359,359,0,0,0,352.75,300.07ZM342.52,282.2l35.39-2.08,2.73-16.26,12.49-.73-2.73,16.26,34-2-1.84,10.95-34,2L381.06,335q-3,18.13-20.74,19.18-7.45.44-16.8.82.25-5.61.28-12.89c6.59.28,11.8.32,15.61.09q8.16-.48,9.62-9.2l7-41.93-35.39,2.08Zm.52-31.71L371,248.84a187.09,187.09,0,0,0-10.55-19l10.46-7.05q4.58,6.51,11.5,18.47l-11,7.59,22.9-1.35q11.7-14,21.88-27.55L427.35,226Q417.14,237.23,408,246.67l26.28-1.55-1.84,10.95-91.24,5.37Zm12.21-40,37.47-2.2q-2.55-6.8-5.94-14.73l12-5.79q3.92,8.41,7.11,17l-6.28,3.08,36.87-2.16-1.84,10.95-81.19,4.77ZM402.56,298q7.53,12.43,13,22.95l-12.37,8.19a207.6,207.6,0,0,0-12-23.87Zm45.32-98.06A351.18,351.18,0,0,0,515.32,189l2.3,12.91q-35.1,6.47-59.43,9.26l-6.7,39.87,63.32-3.73-2,11.64-24.8,1.46L473,350.09l-12.83.76,15-89.67-25.67,1.51-1.41,8.39q-8.82,52.53-39.23,83.29-3.28-5.06-7.36-10.41Q428,318.52,435.9,271.29Z"/><path class="cls-3" d="M508.43,312.94q7.86-1.81,16.45-3.85l3.3-19.68-14.4.85,1.67-9.93,14.4-.84,2.5-14.89,10.4-.61-2.5,14.88,14.06-.82L552.64,288l-14,.83-2.93,17.45q7.89-2,16.56-4.53-1.5,6.87-2.53,11-8.79,2.22-42.52,11.82Zm23.32-93.88,37-2.18,3.42-20.36-39.73,2.34,1.73-10.27,51.17-3-7.67,45.69-11.45.67.8-4.79-26.54,1.56-4.72,19.93,40.42-2.37q-4.89,28.07-13.54,72.46-4.51,24.84-23.83,26.31l-20.47,1.2q.09-5.6-.53-13.18a152.76,152.76,0,0,0,19.34.39q12-.7,14.36-14.91,6.09-30.18,11.5-60.32L522,260.63Zm33.51,112.39L675.59,325,674,334.2l-110.33,6.49ZM656,319.17l.52-3.08-68.87,4.05-.52,3.08-11.27.67L584,275.12l91.41-5.38-8.19,48.77Zm-75.53-61.63,107.9-6.35-1.55,9.24-107.9,6.35ZM667.9,247l.63-3.76-68.86,4L599,251l-11.27.66L596,202.57l91.42-5.38-8.24,49.12Zm-78.92,65,28.8-1.7,1.78-10.6-28.8,1.69Zm3.16-18.83,28.8-1.69L622.69,281l-28.8,1.7ZM595.52,185l100.61-5.92-1.55,9.24L594,194.22ZM601.05,239l28.79-1.69,1.75-10.44L602.8,228.6Zm3.1-18.48,28.79-1.69,1.76-10.44-28.8,1.69Zm24.9,89,28.8-1.69,1.78-10.61L630.83,299Zm33.71-30.95L634,280.31l-1.75,10.44,28.8-1.69Zm-21.64-41.94L669.91,235l1.75-10.44-28.79,1.7Zm33.65-30.61-28.8,1.7-1.75,10.43L673,216.51Z"/></g><path class="cls-4" d="M139,437,101.5,656.5,157,653l41-39,29-184Zm21.5,187.5h-18l10-64h16Zm16-95h-18l10-64h16Z"/><polygon class="cls-4" points="241 441 305 439 307 425 344 408 344 432 362 433 336 469 314 608 281 642 235.5 617.5 274.5 615.5 298.5 467.5 238.37 469.94 241 441"/><ellipse class="cls-4" cx="255" cy="527" rx="29.18" ry="21.18" transform="translate(-254.11 237.94) rotate(-34.59)"/><path class="cls-4" d="M387,415,349.5,634.5,405,631l41-39,29-184Zm21.5,187.5h-18l10-64h16Zm16-95h-18l10-64h16Z"/><polygon class="cls-4" points="489 419 553 417 555 403 592 386 592 410 610 411 584 447 562 586 529 620 483.5 595.5 522.5 593.5 546.5 445.5 486.37 447.94 489 419"/><ellipse class="cls-4" cx="503" cy="505" rx="29.18" ry="21.18" transform="translate(-197.78 374.85) rotate(-34.59)"/><path class="cls-5" d="M637,397s84-3,111-14a270.88,270.88,0,0,0,46-24s-23,39-47,47-114,17-114,17Z"/><rect class="cls-5" x="633" y="430" width="35" height="40"/><rect class="cls-5" x="676" y="425" width="35" height="40"/><polygon class="cls-5" points="728 421 764 421 750 463 716 463 728 421"/><polygon class="cls-4" points="620 488 671 484 671 472 708 472 707 478 756 478 740 503 700 507 686 607 650.5 597.5 666.5 513.5 615.5 514.5 620 488"/><path class="cls-5" d="M630.5,523.5h27s-15,67-24,76-50,16-50,16,29-26,35-41S630.5,523.5,630.5,523.5Z"/><rect class="cls-4" x="704.5" y="514.5" width="36" height="82"/><path class="cls-4" d="M920,322s-56-3-91,43c-24.87,32.69-44.18,83-53.28,109.45-3.8,11-6.72,22.6-6.72,34.25v35.05c0,6,1.63,11.94,2.72,17.82A59.14,59.14,0,0,1,764,603c-15,25-49,72-46,93,2.25,15.76,24.77,28.13,35.87,33.33a12.27,12.27,0,0,1,7.13,11c0,8.12-2.58,20.06-17,25.7-23,9-33,16-48,16-12.49,0-190,1.39-249.06,1.85a83.68,83.68,0,0,0-35.22,8.09C378.76,807.58,302.48,841.6,246,850c0,0,80,32,132,28s127-62,150-64c19.66-1.71,133.56-.5,166.24-.11a67.85,67.85,0,0,0,19.83-2.7c14-4.08,38.38-15,55.93-31.19,26-24,25-54,23-68s-28-27-25-57,56-40,62-73-20-93-11-113S897,332,920,322Z"/><path class="cls-5" d="M177.5,693.39l9.51-.84-.62,67.27,31.46-2.8-.07,8.18-41,3.64Z"/><path class="cls-5" d="M287.4,720.53c-.24,26-15.77,41.11-34.56,42.78-19.45,1.73-33-12.5-32.76-35.34.22-24,14.9-40.92,34.56-42.66C274.74,683.52,287.6,698.15,287.4,720.53Zm-57.15,6.31c-.15,16.12,8.24,29.8,23.21,28.47s23.72-16.31,23.88-33.43c.14-15-7.37-30-23.21-28.59S230.4,710.28,230.25,726.84Z"/><path class="cls-5" d="M311.25,689.78l-22.4,2,.08-8.28,54.52-4.85-.08,8.29-22.5,2-.62,67.16-9.61.85Z"/><path class="cls-5" d="M369.7,684.59l-22.4,2,.07-8.29,54.52-4.84-.08,8.28-22.5,2-.62,67.16-9.61.86Z"/><path class="cls-5" d="M447.84,709.4,419.22,712l-.25,27.2,31.9-2.84-.08,8.17-41.4,3.68.69-75.44,39.77-3.53-.08,8.17-30.26,2.69-.22,23.84,28.63-2.55Z"/><path class="cls-5" d="M463.82,669a100.41,100.41,0,0,1,18.26-3.19c10.16-.9,16.69.42,21.24,4.26,3.69,3,5.72,8,5.66,13.82-.09,10-6.27,17.11-14.05,20.48v.34c5.66,1.51,9,6.58,10.67,14.26,2.31,10.31,4,17.43,5.5,20.2l-9.84.88c-1.18-2-2.76-8.37-4.75-17.59-2.09-10.21-6-13.78-14.61-13.35l-9,.8-.3,32.68-9.5.85ZM473,702.47l9.72-.86c10.16-.91,16.66-7.19,16.74-15.81.09-9.74-6.76-13.38-16.81-12.6a40.07,40.07,0,0,0-9.4,1.73Z"/><path class="cls-5" d="M537.1,736.81l.29-32-22.87-41.36,10.81-1,10.19,19.89c2.79,5.46,4.93,9.85,7.18,14.91l.22,0c2.12-5.11,4.67-10.26,7.57-16.22l10.79-21.76,10.81-1L547,703.83,546.71,736Z"/><path class="cls-5" d="M352.75,285.07l10.87,4.78q-12.62,19.89-24.42,36a95.59,95.59,0,0,0-10.41-5.49A359,359,0,0,0,352.75,285.07ZM342.52,267.2l35.39-2.08,2.73-16.26,12.49-.73-2.73,16.26,34-2-1.84,10.95-34,2L381.06,320q-3,18.13-20.74,19.18-7.45.44-16.8.82.25-5.61.28-12.89c6.59.28,11.8.32,15.61.09q8.16-.48,9.62-9.2l7-41.93-35.39,2.08Zm.52-31.71L371,233.84a187.09,187.09,0,0,0-10.55-19l10.46-7.05q4.58,6.51,11.5,18.47l-11,7.59,22.9-1.35q11.7-14,21.88-27.55L427.35,211Q417.14,222.23,408,231.67l26.28-1.55-1.84,10.95-91.24,5.37Zm12.21-40,37.47-2.2q-2.55-6.8-5.94-14.73l12-5.79q3.92,8.41,7.11,17l-6.28,3.08,36.87-2.16-1.84,10.95-81.19,4.77ZM402.56,283q7.53,12.43,13,22.95l-12.37,8.19a207.6,207.6,0,0,0-12-23.87Zm45.32-98.06A351.18,351.18,0,0,0,515.32,174l2.3,12.91q-35.1,6.47-59.43,9.26l-6.7,39.87,63.32-3.73-2,11.64-24.8,1.46L473,335.09l-12.83.76,15-89.67-25.67,1.51-1.41,8.39q-8.82,52.53-39.23,83.29-3.28-5.06-7.36-10.41Q428,303.52,435.9,256.29Z"/><path class="cls-5" d="M508.43,297.94q7.86-1.81,16.45-3.85l3.3-19.68-14.4.85,1.67-9.93,14.4-.84,2.5-14.89,10.4-.61-2.5,14.88,14.06-.82L552.64,273l-14,.83-2.93,17.45q7.89-2,16.56-4.53-1.5,6.87-2.53,11-8.79,2.22-42.52,11.82Zm23.32-93.88,37-2.18,3.42-20.36-39.73,2.34,1.73-10.27,51.17-3-7.67,45.69-11.45.67.8-4.79-26.54,1.56-4.72,19.93,40.42-2.37q-4.89,28.06-13.54,72.46-4.51,24.84-23.83,26.31l-20.47,1.2q.09-5.6-.53-13.18a152.76,152.76,0,0,0,19.34.39q12-.7,14.36-14.91,6.09-30.18,11.5-60.32L522,245.63Zm33.51,112.39L675.59,310,674,319.2l-110.33,6.49ZM656,304.17l.52-3.08-68.87,4.05-.52,3.08-11.27.67L584,260.12l91.41-5.38-8.19,48.77Zm-75.53-61.63,107.9-6.35-1.55,9.24-107.9,6.35ZM667.9,232l.63-3.76-68.86,4L599,236l-11.27.66L596,187.57l91.42-5.38-8.24,49.12Zm-78.92,65,28.8-1.7,1.78-10.6-28.8,1.69Zm3.16-18.83,28.8-1.69L622.69,266l-28.8,1.7ZM595.52,170l100.61-5.92-1.55,9.24L594,179.22ZM601.05,224l28.79-1.69,1.75-10.44L602.8,213.6Zm3.1-18.48,28.79-1.69,1.76-10.44-28.8,1.69Zm24.9,89,28.8-1.69,1.78-10.61L630.83,284Zm33.71-30.95L634,265.31l-1.75,10.44,28.8-1.69Zm-21.64-41.94L669.91,220l1.75-10.44-28.79,1.7Zm33.65-30.61-28.8,1.7-1.75,10.43L673,201.51Z"/></svg>