<svg id="图层_1" data-name="图层 1" xmlns="http://www.w3.org/2000/svg" xmlns:xlink="http://www.w3.org/1999/xlink" viewBox="0 0 1024 1024"><defs><style>.cls-1{fill:url(#未命名的渐变_12);}.cls-2{opacity:0.09;}.cls-3{fill:#040000;}.cls-4{fill:#fff;}.cls-5{opacity:0.07;}</style><linearGradient id="未命名的渐变_12" x1="512" y1="1024" x2="512" gradientUnits="userSpaceOnUse"><stop offset="0.18" stop-color="#ea5537"/><stop offset="0.85" stop-color="#e84467"/></linearGradient></defs><title>25</title><rect class="cls-1" width="1024" height="1024" rx="512"/><g class="cls-2"><path class="cls-3" d="M334,233.53h58.39q9.39-14.06,18.18-28.9l29.44,8.09-15.44,20.81h100l-4.75,24.29H484.8q-14.26,26.58-34.05,43.55l51.29,21L483.11,348.2l-60-28.72q-36.3,18.12-97.87,27.95-4.77-16-8.63-25.83,46.67-5.58,76.53-15.9-23.4-10.4-42.14-18,12.54-14.37,24.15-29.87H329.28ZM424,163l33-6.36,3.29,20.62H528.7l-8.22,42H492.54l3.54-18.11H375.83l-3.39,17.34H344.49l8.07-41.24h74Q425.35,169.75,424,163Zm-33.5,114.09,34.13,13.68q17.12-11.65,29.28-32.95H406Q397.76,268.32,390.46,277.09Z" transform="translate(-1.09 -1)"/><path class="cls-3" d="M570.78,210.41l15.74,12.14q-9.12,13.11-18.36,24.86l-19.53,99.82H526.08l13.14-67.16q-7.31,7.33-14.64,13.78l.22-28.71Q545.8,245.48,570.78,210.41Zm5.51-53.77,16.51,13.11a378,378,0,0,1-53.23,60.32q-.87-11.37-2.89-26.6A230.94,230.94,0,0,0,576.29,156.64Zm63.43,105.22q8,12.15,16.07,27.17l-15.95,10.6c-.94-1.73-1.86-3.46-2.74-5.2l-19.82,1.35-5.88,30.06q-1.73,8.78-7.16,13.68t-32,4.24q.39-6.93.48-17.24-3.11,3.56-6.38,7-4.89-4.62-10.57-9.06a267.17,267.17,0,0,0,22.07-26.11q-6.2.67-11.92,1.83l-2.11-16.76q10-2,32.67-15.81A191.34,191.34,0,0,0,573,270.73l-3.58-16.19a67.73,67.73,0,0,0,15-6.5,223.21,223.21,0,0,0,18.19-13H584.45L588,217.15h61.66l-3.5,17.93H628.29l-33.57,21.39q9.91,0,19.31-.2,12.24-8.37,24.51-17.92l10.54,12.14Q621.63,268.61,594,283.83l36-2.7-5.4-9.82Zm-43.13,35.27-17.38,1.16,11.13,6.16a266.47,266.47,0,0,1-16.76,21.1q10.47.68,12.11.68,5.4,0,6.45-6.36Zm-10.25-88.46L594.11,169h17.15l-4.41,22.54h9.44L623,157h19.08l-6.75,34.49h9.25L649,169h17.15l-7.76,39.69Zm43.86,88.07q5,9.84,9.79,19.85a145.65,145.65,0,0,0,22-23q-4-22.15-1.66-50.1-3.21,4-6.45,7.8a199.13,199.13,0,0,0-5.44-21.39q19.57-27.17,38.1-73.61l21.8,4.82Q701.81,176,694.85,189.4h35l-4.49,22.94h-6.46q-12,47.31-32.64,81.61a67.61,67.61,0,0,0,18.25,25.92A312.34,312.34,0,0,0,688.76,347a88.56,88.56,0,0,1-19.43-28.71,177.26,177.26,0,0,1-30.05,29.48,174,174,0,0,0-5.69-19.17l-7,4.14a298.81,298.81,0,0,0-9.8-28.71Zm49.23-31.5q11.51-23.33,18.16-52.9H682A321.24,321.24,0,0,0,679.43,265.24Z" transform="translate(-1.09 -1)"/></g><path class="cls-4" d="M333,201.53h58.39q9.39-14.06,18.18-28.9l29.44,8.09-15.44,20.81h100l-4.75,24.29H483.8q-14.26,26.58-34.05,43.55l51.29,21L482.11,316.2l-60-28.72q-36.3,18.12-97.87,27.95-4.77-16-8.63-25.83,46.67-5.58,76.53-15.9-23.4-10.4-42.14-18,12.54-14.37,24.15-29.87H328.28ZM423,131l33-6.36,3.29,20.62H527.7l-8.22,42H491.54l3.54-18.11H374.83l-3.39,17.34H343.49l8.07-41.24h74Q424.35,137.75,423,131Zm-33.5,114.09,34.13,13.68q17.12-11.65,29.28-32.95H405Q396.76,236.32,389.46,245.09Z" transform="translate(-1.09 -1)"/><path class="cls-4" d="M569.78,178.41l15.74,12.14q-9.12,13.11-18.36,24.86l-19.53,99.82H525.08l13.14-67.16q-7.31,7.34-14.64,13.78l.22-28.71Q544.8,213.48,569.78,178.41Zm5.51-53.77,16.51,13.11a378,378,0,0,1-53.23,60.32q-.87-11.37-2.89-26.6A230.94,230.94,0,0,0,575.29,124.64Zm63.43,105.22q8,12.15,16.07,27.17l-15.95,10.6c-.94-1.73-1.86-3.46-2.74-5.2l-19.82,1.35-5.88,30.06q-1.73,8.78-7.16,13.68t-32,4.24q.39-6.93.48-17.24-3.11,3.56-6.38,7-4.89-4.62-10.57-9.06a267.17,267.17,0,0,0,22.07-26.11q-6.2.67-11.92,1.83l-2.11-16.76q10-2,32.67-15.81A191.34,191.34,0,0,0,572,238.73l-3.58-16.19a67.73,67.73,0,0,0,15-6.5,223.21,223.21,0,0,0,18.19-13H583.45L587,185.15h61.66l-3.5,17.93H627.29l-33.57,21.39q9.91,0,19.31-.2,12.24-8.37,24.51-17.92l10.54,12.14Q620.63,236.61,593,251.83l36-2.7-5.4-9.82Zm-43.13,35.27-17.38,1.16,11.13,6.16a266.47,266.47,0,0,1-16.76,21.1q10.47.68,12.11.68,5.4,0,6.45-6.36Zm-10.25-88.46L593.11,137h17.15l-4.41,22.54h9.44L622,125h19.08l-6.75,34.49h9.25L648,137h17.15l-7.76,39.69Zm43.86,88.07q5,9.84,9.79,19.85a145.65,145.65,0,0,0,22-23q-4-22.16-1.66-50.1-3.21,4-6.45,7.8a199.13,199.13,0,0,0-5.44-21.39q19.57-27.17,38.1-73.61l21.8,4.82Q700.81,144,693.85,157.4h35l-4.49,22.94h-6.46q-12,47.31-32.64,81.61a67.61,67.61,0,0,0,18.25,25.92A312.34,312.34,0,0,0,687.76,315a88.56,88.56,0,0,1-19.43-28.71,177.26,177.26,0,0,1-30.05,29.48,174,174,0,0,0-5.69-19.17l-7,4.14a298.81,298.81,0,0,0-9.8-28.71Zm49.23-31.5q11.51-23.33,18.16-52.9H681A321.24,321.24,0,0,0,678.43,233.24Z" transform="translate(-1.09 -1)"/><g class="cls-5"><path class="cls-3" d="M141.21,602.33s1.33-182.66,4.33-182.66,51.67,23,52.34,39.66S176.54,541,176.54,541l-19,68.67S143.21,611.33,141.21,602.33Z" transform="translate(-1.09 -1)"/><path class="cls-3" d="M126.88,574s146.66,37,167.66,41.33c0,0,15.67-11,4.67-20.66s-166.67-71-171-71S123.54,570.67,126.88,574Z" transform="translate(-1.09 -1)"/><path class="cls-3" d="M271.21,410.33s-89.33,133-90,323l65.33,29s-20-181,44.34-339.33C290.88,423,279.21,412.33,271.21,410.33Z" transform="translate(-1.09 -1)"/><path class="cls-3" d="M308,486l2.69,1.54,24.31,14L281.54,836s4,36.5,15.5,42.5c0,0,49-83.5,84.5-380.5l-70-23S306.54,480.5,308,486Z" transform="translate(-1.09 -1)"/><path class="cls-3" d="M283.54,523.67s-2,36.83-2,41.83S389,615.33,389,615.33L381.54,669,262,621v63.5s180.5,70,204,71c0,0,8.5-27,0-56.5l-50-17s24.5-75.5,17.5-85.5S283.54,523.67,283.54,523.67Z" transform="translate(-1.09 -1)"/><ellipse class="cls-3" cx="405.86" cy="848.46" rx="31.25" ry="82.86" transform="translate(-202.93 129.62) rotate(-14.69)"/></g><path class="cls-4" d="M140.21,570.33s1.33-182.66,4.33-182.66,51.67,23,52.34,39.66S175.54,509,175.54,509l-19,68.67S142.21,579.33,140.21,570.33Z" transform="translate(-1.09 -1)"/><path class="cls-4" d="M125.88,542s146.66,37,167.66,41.33c0,0,15.67-11,4.67-20.66s-166.67-71-171-71S122.54,538.67,125.88,542Z" transform="translate(-1.09 -1)"/><path class="cls-4" d="M270.21,378.33s-89.33,133-90,323l65.33,29s-20-181,44.34-339.33C289.88,391,278.21,380.33,270.21,378.33Z" transform="translate(-1.09 -1)"/><path class="cls-4" d="M307,454l2.69,1.54,24.31,14L280.54,804s4,36.5,15.5,42.5c0,0,49-83.5,84.5-380.5l-70-23S305.54,448.5,307,454Z" transform="translate(-1.09 -1)"/><path class="cls-4" d="M282.54,491.67s-2,36.83-2,41.83S388,583.33,388,583.33L380.54,637,261,589v63.5s180.5,70,204,71c0,0,8.5-27,0-56.5l-50-17s24.5-75.5,17.5-85.5S282.54,491.67,282.54,491.67Z" transform="translate(-1.09 -1)"/><ellipse class="cls-4" cx="404.86" cy="816.46" rx="31.25" ry="82.86" transform="translate(-194.85 128.32) rotate(-14.69)"/><g class="cls-5"><path class="cls-3" d="M608.28,544.26s4.26-52.89,9.93-71.59c0,0,250.74-106.74,254.74-104.74s-120,210-120,210,190-52,107.33,125.33-252.4,218-252.4,218S860.21,729.33,744.5,643c0,0-17.62-17.63-54.22-8-17.54,4.6,76.67-151.67,76.67-157S613.61,533.93,608.28,544.26Z" transform="translate(-1.09 -1)"/></g><path class="cls-4" d="M607.28,512.26s4.26-52.89,9.93-71.59c0,0,250.74-106.74,254.74-104.74s-120,210-120,210,190-52,107.33,125.33-252.4,218-252.4,218S859.21,697.33,743.5,611c0,0-17.62-17.63-54.22-8-17.54,4.6,76.67-151.67,76.67-157S612.61,501.93,607.28,512.26Z" transform="translate(-1.09 -1)"/><g class="cls-5"><polyline class="cls-3" points="128.79 280 485.79 443 485.79 413"/><polyline class="cls-3" points="883.88 286.01 521.64 436.99 522.64 407.01"/><polyline class="cls-3" points="512.79 872 512.79 434 490.79 434"/><path class="cls-3" d="M420.19,396.33s59.51,10,204.09-.66c0,0-110.41,25.33-110.41,102H495.52s-24-60-75.33-90S420.19,396.33,420.19,396.33Z" transform="translate(-1.09 -1)"/></g><polyline class="cls-4" points="127.79 248 484.79 411 484.79 381"/><polyline class="cls-4" points="882.88 254.01 520.64 404.99 521.64 375.01"/><polyline class="cls-4" points="511.79 840 511.79 402 489.79 402"/><path class="cls-4" d="M419.19,364.33s59.51,10,204.09-.66c0,0-110.41,25.33-110.41,102H494.52s-24-60-75.33-90S419.19,364.33,419.19,364.33Z" transform="translate(-1.09 -1)"/></svg>