<svg id="图层_1" data-name="图层 1" xmlns="http://www.w3.org/2000/svg" xmlns:xlink="http://www.w3.org/1999/xlink" viewBox="0 0 1024 1024"><defs><style>.cls-1{fill:url(#未命名的渐变_63);}.cls-2{opacity:0.09;}.cls-3{fill:#040000;}.cls-4{fill:#fff;}.cls-5{opacity:0.07;}</style><linearGradient id="未命名的渐变_63" x1="512" y1="1024" x2="512" gradientUnits="userSpaceOnUse"><stop offset="0.18" stop-color="#5a4398"/><stop offset="0.85" stop-color="#944c99"/></linearGradient></defs><title>2904</title><rect class="cls-1" width="1024" height="1024" rx="512"/><g class="cls-2"><path class="cls-3" d="M351.86,263.6q11.77,4.81,23.58,8.48l-35,74.38a255,255,0,0,0-24.4-8.28Q336.82,298.08,351.86,263.6Zm1.88-54q19.62,17,32.2,29.48l-21.85,20.05q-9.29-10.61-29.88-30.45Zm15.74-50.88q19.65,16.77,29.14,26.4l-22.23,20.05q-12.63-14.27-26.14-28Zm102.31,50.3L454.3,298.48H408.24L406,309.85H381.93l19.72-100.79Zm-68.93-41.63H537.37l-4.87,24.86H519.4L497,306.76q-3.74,19.08-11.76,27.37A34.28,34.28,0,0,1,466,344.34q-11.18,1.94-44.61,1.93.06-14.07-.39-27.56,12,.87,21.71.87,17.53,0,22.15-4.63t6.59-14.74l21.12-107.92H398Zm18.35,64.76-8.45,43.16h22l8.45-43.16Z" transform="translate(-1.09 -1)"/><path class="cls-3" d="M517.29,329.12l.64-29.87q26.76-6.75,52.82-13.88L581,233H534.57l5-25.44H586l9.16-46.83h28.91L587.71,346.46H558.8l6.33-32.37ZM713.16,185.93l15.4,22.74q-32.67,20.73-69.49,41l-11.14,56.94q-2.14,11,9.6,11h4.82a14.45,14.45,0,0,0,8.67-2.7,20.73,20.73,0,0,0,6.37-8.19q2.63-5.49,10.31-35.94L713.25,279q-5.46,20.06-10.39,34.4T687.94,335q-10,7.22-25,7.22H645.77q-33.72,0-27.77-30.45L647.61,160.5h28.9l-11.08,56.65Q691.11,201.64,713.16,185.93Z" transform="translate(-1.09 -1)"/></g><path class="cls-4" d="M350.86,231.6q11.77,4.82,23.58,8.48l-35,74.38a255,255,0,0,0-24.4-8.28Q335.82,266.08,350.86,231.6Zm1.88-54q19.62,17,32.2,29.48l-21.85,20q-9.29-10.6-29.88-30.45Zm15.74-50.88q19.65,16.77,29.14,26.4l-22.23,20.05q-12.63-14.27-26.14-28Zm102.31,50.3L453.3,266.48H407.24L405,277.85H380.93l19.72-100.79Zm-68.93-41.63H536.37l-4.87,24.86H518.4L496,274.76q-3.74,19.08-11.76,27.37A34.28,34.28,0,0,1,465,312.34q-11.18,1.94-44.61,1.93.06-14.07-.39-27.56,12,.87,21.71.87,17.53,0,22.15-4.63t6.59-14.74l21.12-107.92H397Zm18.35,64.76-8.45,43.16h22l8.45-43.16Z" transform="translate(-1.09 -1)"/><path class="cls-4" d="M516.29,297.12l.64-29.87q26.76-6.75,52.82-13.88L580,201H533.57l5-25.44H585l9.16-46.83h28.91L586.71,314.46H557.8l6.33-32.37ZM712.16,153.93l15.4,22.74q-32.67,20.73-69.49,41l-11.14,56.94q-2.14,11,9.6,11h4.82a14.45,14.45,0,0,0,8.67-2.7,20.73,20.73,0,0,0,6.37-8.19q2.63-5.49,10.31-35.94L712.25,247q-5.46,20.06-10.39,34.4T686.94,303q-10,7.22-25,7.22H644.77q-33.72,0-27.77-30.45L646.61,128.5h28.9l-11.08,56.65Q690.11,169.64,712.16,153.93Z" transform="translate(-1.09 -1)"/><g class="cls-5"><path class="cls-3" d="M141.21,602.33s1.33-182.66,4.33-182.66,51.67,23,52.34,39.66S176.54,541,176.54,541l-19,68.67S143.21,611.33,141.21,602.33Z" transform="translate(-1.09 -1)"/><path class="cls-3" d="M126.88,574s146.66,37,167.66,41.33c0,0,15.67-11,4.67-20.66s-166.67-71-171-71S123.54,570.67,126.88,574Z" transform="translate(-1.09 -1)"/><path class="cls-3" d="M271.21,410.33s-89.33,133-90,323l65.33,29s-20-181,44.34-339.33C290.88,423,279.21,412.33,271.21,410.33Z" transform="translate(-1.09 -1)"/><path class="cls-3" d="M308,486l2.69,1.54,24.31,14L281.54,836s4,36.5,15.5,42.5c0,0,49-83.5,84.5-380.5l-70-23S306.54,480.5,308,486Z" transform="translate(-1.09 -1)"/><path class="cls-3" d="M283.54,523.67s-2,36.83-2,41.83S389,615.33,389,615.33L381.54,669,262,621v63.5s180.5,70,204,71c0,0,8.5-27,0-56.5l-50-17s24.5-75.5,17.5-85.5S283.54,523.67,283.54,523.67Z" transform="translate(-1.09 -1)"/><ellipse class="cls-3" cx="405.86" cy="848.46" rx="31.25" ry="82.86" transform="translate(-202.93 129.62) rotate(-14.69)"/></g><path class="cls-4" d="M140.21,570.33s1.33-182.66,4.33-182.66,51.67,23,52.34,39.66S175.54,509,175.54,509l-19,68.67S142.21,579.33,140.21,570.33Z" transform="translate(-1.09 -1)"/><path class="cls-4" d="M125.88,542s146.66,37,167.66,41.33c0,0,15.67-11,4.67-20.66s-166.67-71-171-71S122.54,538.67,125.88,542Z" transform="translate(-1.09 -1)"/><path class="cls-4" d="M270.21,378.33s-89.33,133-90,323l65.33,29s-20-181,44.34-339.33C289.88,391,278.21,380.33,270.21,378.33Z" transform="translate(-1.09 -1)"/><path class="cls-4" d="M307,454l2.69,1.54,24.31,14L280.54,804s4,36.5,15.5,42.5c0,0,49-83.5,84.5-380.5l-70-23S305.54,448.5,307,454Z" transform="translate(-1.09 -1)"/><path class="cls-4" d="M282.54,491.67s-2,36.83-2,41.83S388,583.33,388,583.33L380.54,637,261,589v63.5s180.5,70,204,71c0,0,8.5-27,0-56.5l-50-17s24.5-75.5,17.5-85.5S282.54,491.67,282.54,491.67Z" transform="translate(-1.09 -1)"/><ellipse class="cls-4" cx="404.86" cy="816.46" rx="31.25" ry="82.86" transform="translate(-194.85 128.32) rotate(-14.69)"/><g class="cls-5"><path class="cls-3" d="M608.28,544.26s4.26-52.89,9.93-71.59c0,0,250.74-106.74,254.74-104.74s-120,210-120,210,190-52,107.33,125.33-252.4,218-252.4,218S860.21,729.33,744.5,643c0,0-17.62-17.63-54.22-8-17.54,4.6,76.67-151.67,76.67-157S613.61,533.93,608.28,544.26Z" transform="translate(-1.09 -1)"/></g><path class="cls-4" d="M607.28,512.26s4.26-52.89,9.93-71.59c0,0,250.74-106.74,254.74-104.74s-120,210-120,210,190-52,107.33,125.33-252.4,218-252.4,218S859.21,697.33,743.5,611c0,0-17.62-17.63-54.22-8-17.54,4.6,76.67-151.67,76.67-157S612.61,501.93,607.28,512.26Z" transform="translate(-1.09 -1)"/><g class="cls-5"><polyline class="cls-3" points="128.79 280 485.79 443 485.79 413"/><polyline class="cls-3" points="883.88 286.01 521.64 436.99 522.64 407.01"/><polyline class="cls-3" points="512.79 872 512.79 434 490.79 434"/><path class="cls-3" d="M420.19,396.33s59.51,10,204.09-.66c0,0-110.41,25.33-110.41,102H495.52s-24-60-75.33-90S420.19,396.33,420.19,396.33Z" transform="translate(-1.09 -1)"/></g><polyline class="cls-4" points="127.79 248 484.79 411 484.79 381"/><polyline class="cls-4" points="882.88 254.01 520.64 404.99 521.64 375.01"/><polyline class="cls-4" points="511.79 840 511.79 402 489.79 402"/><path class="cls-4" d="M419.19,364.33s59.51,10,204.09-.66c0,0-110.41,25.33-110.41,102H494.52s-24-60-75.33-90S419.19,364.33,419.19,364.33Z" transform="translate(-1.09 -1)"/></svg>