<?xml version="1.0" encoding="UTF-8"?>
<svg width="32px" height="32px" viewBox="0 0 32 32" version="1.1" xmlns="http://www.w3.org/2000/svg" xmlns:xlink="http://www.w3.org/1999/xlink">
    <!-- Generator: sketchtool 54 (76480) - https://sketchapp.com -->
    <title>8DE85F22-2578-4726-A3CE-762BF139A827</title>
    <desc>Created with sketchtool.</desc>
    <g id="入款活动" stroke="none" stroke-width="1" fill="none" fill-rule="evenodd">
        <g id="云-详情页" transform="translate(-889.000000, -3433.000000)" fill="#FFFFFF" fill-rule="nonzero">
            <g id="查看前置任务" transform="translate(889.000000, 3433.000000)">
                <rect id="矩形" opacity="0" x="0" y="0" width="31.9065239" height="32"></rect>
                <path d="M0,0 L11.9649464,0 L11.9649464,2 L1.99415774,2 L1.99415774,30 L21.9357352,30 L21.9357352,32 L0,32 L0,0 Z M19.9941717,21.8080072 L21.2206984,20.4940072 L31.9931385,30.6083272 L30.7666118,31.9223272 L19.9941717,21.8080072 L19.9941717,21.8080072 Z M5.78305745,15.2 C5.78305745,10.2 9.9707887,6 14.9561831,6 C19.9415774,6 24.1293087,10.2 24.1293087,15.2 C24.1293087,20.2 19.9415774,24.4 14.9561831,24.4 C9.9707887,24.4 5.78305745,20.2 5.78305745,15.2 Z M7.77721519,15.4 C7.77721519,19.4 10.9678676,22.6 14.9561831,22.6 C18.9444985,22.6 22.1351509,19.4 22.1351509,15.4 C22.1351509,11.4 18.9444985,8.2 14.9561831,8.2 C11.1672833,8.2 7.77721519,11.4 7.77721519,15.4 Z" id="形状"></path>
            </g>
        </g>
    </g>
</svg>