<?xml version="1.0" encoding="utf-8"?>
<!-- Generator: Adobe Illustrator 23.0.0, SVG Export Plug-In . SVG Version: 6.00 Build 0)  -->
<svg version="1.1" id="图层_1" xmlns="http://www.w3.org/2000/svg" xmlns:xlink="http://www.w3.org/1999/xlink" x="0px" y="0px"
	 viewBox="0 0 200 200" style="enable-background:new 0 0 200 200;" xml:space="preserve">
<style type="text/css">
	.st0{display:none;}
	.st1{display:inline;fill:#FFFFFF;}
	.st2{display:inline;fill:none;}
	.st3{display:inline;fill:#FF0000;}
	.st4{display:inline;}
	.st5{fill:#FFFFFF;}
</style>
<g class="st0">
	<path class="st1" d="M22.6,76.6h0.7c9.7-33.4,40.6-57.9,77.1-57.9c36.4,0,67.2,24.4,77,57.6l0.1,0c0.8,1.8,2.5,3,4.6,3
		c2.8,0,5.1-2.3,5.1-5.2c0-0.5-0.1-1-0.2-1.5h0c0,0,0-0.1,0-0.1c-0.1-0.2-0.1-0.3-0.2-0.5c-11.5-36.8-45.8-63.4-86.3-63.4
		C59.1,8.6,24.3,36.2,13.4,74L0.7,70.4l10.1,30.3l25.8-20.1L22.6,76.6L22.6,76.6z M199.3,128.4l-10.1-30.3l-25.8,20.1l13.8,3.9
		c-10,33-40.6,57.1-76.8,57.1c-36.1,0-66.7-24-76.7-56.9l0,0c-0.6-2.2-2.5-3.8-4.9-3.8c-2.8,0-5.1,2.3-5.1,5.2c0,0.3,0,0.6,0.1,0.9
		l-0.1,0c11.1,37.4,45.7,64.6,86.7,64.6c40.9,0,75.5-27.2,86.6-64.5L199.3,128.4L199.3,128.4z"/>
	<path class="st1" d="M74.8,110.9c-1.6,0-2.8,0.4-3.6,1.1c-0.8,0.7-1.2,2-1.2,3.8c0,3.3,1.7,5,5,5h19.6v16.5c0,2.3,0.4,3.8,1.1,4.8
		c0.7,0.9,2.1,1.4,4.2,1.4c2.1,0,3.5-0.5,4.1-1.4c0.7-0.9,1-2.5,1-4.8l0-16.5h19.9c3.3,0,5-1.6,5-4.9c0-3.3-1.7-5-5-5h-19.9v-7.9
		h19.9c3.3,0,5-1.6,5-4.9c0-3.3-1.7-5-5-5h-14.5l18.1-30.4c0.9-1.6,1.4-2.9,1.4-4.1c0-1.1-0.7-2.1-2-2.9c-1.3-0.8-2.5-1.2-3.8-1.2
		c-1.3,0-2.6,1-3.8,3.1L99.9,92L79.6,57.7c-1.2-2-2.5-3-3.9-3c-1.5,0-2.7,0.4-3.8,1.2c-1.1,0.7-1.6,1.7-1.6,3c0,1.2,0.4,2.5,1.1,3.9
		l18.1,30.4H74.8c-1.6,0-2.8,0.4-3.6,1.1c-0.8,0.7-1.2,2-1.2,3.8c0,3.3,1.7,5,5,5h19.6v7.9L74.8,110.9L74.8,110.9z"/>
</g>
<g class="st0">
	<path class="st2" d="M138.6,70.5H58.9c-8.5,0-15.4,6.7-15.8,15.1h111.2C154,77.2,147.1,70.5,138.6,70.5z"/>
	<path class="st2" d="M43.2,162.3c0,8.7,7.1,15.8,15.8,15.8h79.6c8.7,0,15.8-7.1,15.8-15.8V97.2H43.2V162.3z"/>
	<path class="st2" d="M58.9,59h79.6c14.8,0,26.9,11.9,27.3,26.7h14.4c4.1,0,7.4-3.3,7.4-7.4V52.3c0-4.1-3.3-7.4-7.4-7.4H19.9
		c-4.1,0-7.4,3.3-7.4,7.4v25.9c0,4.1,3.3,7.4,7.4,7.4h11.8C32,70.9,44.1,59,58.9,59z"/>
	<path class="st3" d="M43.2,86.3c0-0.2,0-0.4,0-0.6H31.7c0,0.2,0,0.4,0,0.6v10.9h11.5V86.3z"/>
	<path class="st3" d="M165.9,85.7h-11.5c0,0.2,0,0.4,0,0.6v10.9h11.5V86.3C165.9,86.1,165.9,85.9,165.9,85.7z"/>
	<g class="st4">
		<rect x="115.6" y="115.2" class="st5" width="19" height="45.7"/>
	</g>
	<path class="st1" d="M180.2,33.4H19.9c-10.4,0-18.9,8.5-18.9,18.9v25.9c0,10.4,8.5,18.9,18.9,18.9h11.7v7.1h0.1v58
		c0,15.1,12.3,27.3,27.3,27.3h79.6c15.1,0,27.3-12.3,27.3-27.3V97.2h-0.1V61H31.5v24.6H19.9c-4.1,0-7.4-3.3-7.4-7.4V52.3
		c0-4.1,3.3-7.4,7.4-7.4h160.4c4.1,0,7.4,3.3,7.4,7.4v25.9c0,4.1-3.3,7.4-7.4,7.4h-14.4c0,0.2,0,0.4,0,0.6v10.9h14.3
		c10.4,0,18.9-8.5,18.9-18.9V52.3C199.1,41.9,190.7,33.4,180.2,33.4z M154.4,162.3c0,8.7-7.1,15.8-15.8,15.8H84.5V97.2h69.8v7.1h0.1
		V162.3z M154.3,85.7H84.5V69.5h69.8V85.7z M43.1,69.5h22.5v16.1H43.2c0,0.2,0,0.4,0,0.6v10.9h22.4v80.9h-6.6
		c-8.7,0-15.8-7.1-15.8-15.8V97.2h-0.1V69.5z"/>
</g>
<g class="st0">
	<path class="st1" d="M165.2,19.4H34C16.6,19.4,2.4,33.6,2.4,51v95.3c0,17.4,14.2,31.6,31.6,31.6h131.3c17.4,0,31.6-14.2,31.6-31.6
		V51C196.8,33.6,182.6,19.4,165.2,19.4z M34,32.6h131.3c10.2,0,18.4,8.3,18.4,18.4v2.3H15.5V51C15.5,40.8,23.8,32.6,34,32.6z
		 M165.2,164.7H34c-10.2,0-18.4-8.3-18.4-18.4v-52h168.1v52C183.6,156.4,175.4,164.7,165.2,164.7z"/>
	<polygon class="st1" points="118,141.3 159.3,141.3 167.8,117.7 127.4,117.7 	"/>
</g>
<g>
	<path class="st5" d="M160.3,181.2H56.5c-11.5,0-20.8-9.3-20.8-20.8l0-20.8h10.4v20.8c0,5.7,4.6,10.4,10.4,10.4h103.8
		c5.7,0,10.4-4.6,10.4-10.4V46.2c0-5.7-4.6-10.4-10.4-10.4H56.5c-5.7,0-10.4,4.6-10.4,10.4V67H35.7l0-20.8
		c0-11.5,9.3-20.8,20.8-20.8h103.8c11.5,0,20.8,9.3,20.8,20.8v114.2C181.1,171.9,171.8,181.2,160.3,181.2z M115.4,70.9
		c-2-2-2-5.3,0-7.3c2-2,5.3-2,7.3,0l35.8,35.8c1.1,1.1,1.5,2.5,1.5,3.9c0.1,1.4-0.4,2.8-1.5,3.9l-35.8,35.8c-2,2-5.3,2-7.3,0
		c-2-2-2-5.3,0-7.3l27.2-27.2H20.2c-2.9,0-5.2-2.3-5.2-5.2c0-2.9,2.3-5.2,5.2-5.2h122.4L115.4,70.9z"/>
</g>
</svg>
