<?xml version="1.0" standalone="no"?><!DOCTYPE svg PUBLIC "-//W3C//DTD SVG 1.1//EN" "http://www.w3.org/Graphics/SVG/1.1/DTD/svg11.dtd"><svg t="1601372059525" class="icon" viewBox="0 0 1024 1024" version="1.1" xmlns="http://www.w3.org/2000/svg" p-id="12740" xmlns:xlink="http://www.w3.org/1999/xlink" width="200" height="200"><defs><style type="text/css"></style></defs><path d="M904 876.8H120c-56.8 0-103.2-48-103.2-107.2V254.4c0-59.2 46.4-107.2 103.2-107.2h784c56.8 0 103.2 48 103.2 107.2v515.2c-0.8 59.2-46.4 107.2-103.2 107.2z m61.6-592c0-52.8-40.8-95.2-90.4-95.2H149.6c-50.4 0-90.4 42.4-90.4 95.2v34.4h907.2v-34.4zM58.4 447.2v292c0 52 40.8 95.2 90.4 95.2h725.6c50.4 0 90.4-42.4 90.4-95.2V447.2H58.4zM656 769.6l61.6-128.8h206.4l-61.6 128.8H656z m0 0" p-id="12741" fill="#aeaebc"></path></svg>