<?xml version="1.0" encoding="utf-8"?>
<!-- Generator: Adobe Illustrator 23.0.0, SVG Export Plug-In . SVG Version: 6.00 Build 0)  -->
<svg version="1.1" id="图层_1" xmlns="http://www.w3.org/2000/svg" xmlns:xlink="http://www.w3.org/1999/xlink" x="0px" y="0px"
	 viewBox="0 0 200 200" style="enable-background:new 0 0 200 200;" xml:space="preserve">
<style type="text/css">
	.st0{fill:#444952;}
	.st1{display:none;}
	.st2{display:inline;fill:#444952;}
	.st3{display:inline;}
	.st4{fill:#FFFFFF;}
	.st5{display:inline;fill:#FFFFFF;}
</style>
<g>
	<path class="st0" d="M159.6,57.9h-4.7c2.4-4.1,3.4-7.9,3.1-11.5c-0.3-3-1.7-7.3-6.9-10.7c-4.3-2.9-9.9-3.5-16.1-2
		c-10,2.5-21.9,11.2-29.7,21.6c-7.8-10.5-19.7-19.1-29.7-21.6c-6.2-1.5-11.8-0.9-16.1,2c-5.2,3.4-6.7,7.7-6.9,10.7
		c-0.3,3.6,0.7,7.5,3.1,11.5h-4.7c-7.2,0-13,5.8-13,13v16.7c0,5.7,3.7,10.7,9.1,12.4c-0.5,1.4-0.8,2.9-0.8,4.4v50.2
		c0,7.2,5.8,13,13,13h92c7.2,0,13-5.8,13-13v-50.2c0-1.5-0.3-3-0.8-4.4c5.4-1.7,9.1-6.7,9.1-12.4V70.9
		C172.6,63.7,166.8,57.9,159.6,57.9L159.6,57.9z M151.2,158.4h-41.4v-57.7h41.4c2.1,0,3.7,1.7,3.7,3.8v50.2
		C155,156.7,153.3,158.4,151.2,158.4z M115,57.9c6.6-7.6,15.2-13.6,22.2-15.3c3.6-0.9,6.6-0.7,8.8,0.8c2.3,1.5,2.7,2.9,2.8,3.9
		c0.4,3.7-3.6,8.7-5.5,10.7H115 M163.3,70.9v16.7c0,2.1-1.7,3.7-3.7,3.7c0,0,0,0,0,0h-49.7V67.2h49.7
		C161.6,67.2,163.3,68.8,163.3,70.9C163.3,70.9,163.3,70.9,163.3,70.9L163.3,70.9z M100.6,100.7v57.7H59.3c-2.1,0-3.7-1.7-3.7-3.7
		v-50.2c0-2.1,1.7-3.8,3.7-3.8L100.6,100.7 M61.7,47.2c0.1-1,0.5-2.4,2.8-3.9c2.1-1.4,5.1-1.7,8.8-0.8c7,1.8,15.6,7.7,22.2,15.3
		H67.2C65.5,56.2,61.4,51,61.7,47.2L61.7,47.2z M47.1,70.9c0-2.1,1.7-3.8,3.7-3.8h49.7v24.2H50.9c-2.1,0-3.7-1.7-3.7-3.7L47.1,70.9"
		/>
</g>
<g class="st1">
	<path class="st2" d="M168.5,48.4c-17.2-17.2-45.3-17.3-62.5-0.1c-0.6,0.5-3.4,3-7.1,6.4l3.6-3.7l-3.1-3.1
		C82,30.6,54,30.6,36.7,47.8c-17.3,17.3-17.3,45.3,0,62.6l5.3,5.4c-1.6,3.3-2.4,7-2.4,10.8c0,6.7,2.6,12.9,7.3,17.6l26.8,26.8
		c4.7,4.7,10.9,7.3,17.6,7.3c4.3,0,8.5-1.1,12.1-3.1c3.6,1.9,7.7,2.9,11.9,2.9c6.9,0,13.4-2.7,18.3-7.5l26.1-26.1
		c7.9-7.9,9.6-19.8,5-29.4l3.9-3.9C185.8,93.7,185.8,65.6,168.5,48.4z M103.2,61.7l18.7,18.7c-8.1,11.8-22.2,15.3-32.1,14.7
		c-7.2-0.5-11.6-3-12.6-5.1c-0.2-0.4-0.8-1.7,1-4.3c4.1-5.7,16.1-17,24.3-24.5C102.8,61.3,103,61.5,103.2,61.7z M78.7,165.8L52,139
		c-3.3-3.3-5.1-7.7-5.1-12.4c0-4.7,1.8-9.1,5.1-12.4c3.3-3.3,7.7-5.1,12.4-5.1c4.7,0,9.1,1.8,12.4,5.1l26.8,26.8
		c3.3,3.3,5.1,7.7,5.1,12.4s-1.8,9.1-5.1,12.4c-3.3,3.3-7.7,5.1-12.4,5.1C86.5,170.9,82,169.1,78.7,165.8z M154.4,139.2l-26.1,26.1
		c-3.5,3.5-8.2,5.4-13.1,5.4c-1.9,0-3.7-0.3-5.4-0.8c4.1-4.5,6.3-10.4,6.3-16.5c0-6.7-2.6-12.9-7.3-17.6L82,109
		c-4.7-4.7-10.9-7.3-17.6-7.3c-6.7,0-12.9,2.6-17.6,7.3c-0.3,0.3-0.5,0.5-0.8,0.8l0.1-0.2l-4.4-4.4c-14.4-14.4-14.4-37.9,0-52.4
		c7-7,16.3-10.8,26.2-10.8S87.2,46,94.2,52.9l3.2,3.2c-8.4,7.7-20.5,19.2-25,25.3c-3.8,5.2-2.7,9.5-1.7,11.6
		c2.5,5.2,9.4,8.7,18.7,9.3c11.5,0.7,27.9-3.3,37.7-16.7l27.3,27.3C161.7,120.2,161.7,132,154.4,139.2z M159.5,107.8l-51.2-51.2
		c-0.1-0.1-0.2-0.2-0.4-0.3c1.8-1.6,2.9-2.5,2.9-2.6l0.2-0.2c14.4-14.4,37.9-14.4,52.4,0c7,7,10.8,16.3,10.8,26.2
		s-3.8,19.2-10.8,26.2l-2.9,2.9C160.2,108.5,159.9,108.1,159.5,107.8z"/>
</g>
<g class="st1">
	<path class="st2" d="M169.7,77.8H162c0-1-0.1-1.7-0.1-1.9c0-30.5-24.8-55.3-55.3-55.3h-5.8c-30.5,0-55.3,24.8-55.3,55.3v1.9H34.9
		c-9.1,0-16.6,7.4-16.6,16.6v16.1c0,9.1,7.4,16.6,16.6,16.6h18.6v-4.6h0V76c0-26,21.2-47.2,47.2-47.2h5.8c26,0,47.2,21.2,47.2,47.4
		c0,0.1,0,0.7,0.1,1.7l0.2,8.1c0.2,8.7,0.5,21.6,0.4,33l-0.1,8.1c-0.1,4.5-0.3,8.5-0.6,11.3c-0.9,8.2-5.3,20.1-32.4,30.3
		c-1.6-3.4-5-5.7-9-5.7H97.3c-5.5,0-10,4.5-10,10s4.5,10,10,10h15.2c3.9,0,7.2-2.3,8.9-5.5c25.5-9,38.8-21.5,40.6-38.1
		c0.3-3.1,0.5-7.4,0.7-12.2h7.1c9.1,0,16.6-7.4,16.6-16.6V94.4C186.3,85.3,178.8,77.8,169.7,77.8z M26.4,110.5V94.4
		c0-4.7,3.8-8.5,8.5-8.5h10.5v33H34.9C30.2,119,26.4,115.2,26.4,110.5z M178.2,110.5c0,4.7-3.8,8.5-8.5,8.5h-7
		c0.1-11.5-0.2-24.4-0.4-33h7.5c4.7,0,8.5,3.8,8.5,8.5V110.5z"/>
</g>
<g class="st1">
	<circle class="st2" cx="100.2" cy="119.6" r="32.9"/>
	<path class="st2" d="M171,63.5H29.9c-1.7,0-3.1-1.4-3.1-3.1v-3c0-1.7,1.4-3.1,3.1-3.1H171c1.7,0,3.1,1.4,3.1,3.1v3
		C174.1,62.1,172.7,63.5,171,63.5z"/>
	<path class="st2" d="M155.2,46.8H45.1c-1.7,0-3.1-1.4-3.1-3.1v-3c0-1.7,1.4-3.1,3.1-3.1h110.1c1.7,0,3.1,1.4,3.1,3.1v3
		C158.3,45.4,156.9,46.8,155.2,46.8z"/>
	<path class="st2" d="M56.1,94.9h-8.3c-2.5,0-4.6-2.1-4.6-4.6v0c0-2.5,2.1-4.6,4.6-4.6h8.3c2.5,0,4.6,2.1,4.6,4.6v0
		C60.7,92.9,58.6,94.9,56.1,94.9z"/>
	<path class="st2" d="M153.6,152h-8.3c-2.5,0-4.6-2.1-4.6-4.6v0c0-2.5,2.1-4.6,4.6-4.6h8.3c2.5,0,4.6,2.1,4.6,4.6v0
		C158.2,150,156.1,152,153.6,152z"/>
	<g class="st3">
		<g>
			<path class="st0" d="M179,168.6H21.4c-6.3,0-11.4-5.1-11.4-11.4V81.4C10,75.1,15.1,70,21.4,70H179c6.3,0,11.4,5.1,11.4,11.4v75.8
				C190.4,163.5,185.3,168.6,179,168.6z M21.4,78.9c-1.4,0-2.6,1.2-2.6,2.6v75.8c0,1.4,1.2,2.6,2.6,2.6H179c1.4,0,2.6-1.2,2.6-2.6
				V81.4c0-1.4-1.2-2.6-2.6-2.6H21.4z"/>
		</g>
	</g>
	<g class="st3">
		<g>
			<path class="st0" d="M24.4,95.6c-6.2,0-11.3-5.1-11.3-11.3C13.1,78,18.1,73,24.4,73c6.2,0,11.3,5.1,11.3,11.3
				C35.7,90.5,30.6,95.6,24.4,95.6z M24.4,78.9c-3,0-5.4,2.4-5.4,5.4c0,3,2.4,5.4,5.4,5.4c3,0,5.4-2.4,5.4-5.4
				C29.8,81.3,27.3,78.9,24.4,78.9z"/>
		</g>
	</g>
	<g class="st3">
		<g>
			<path class="st0" d="M24.2,165.6c-6.2,0-11.3-5.1-11.3-11.3c0-6.2,5.1-11.3,11.3-11.3c6.2,0,11.3,5.1,11.3,11.3
				C35.6,160.6,30.5,165.6,24.2,165.6z M24.2,148.9c-3,0-5.4,2.4-5.4,5.4c0,3,2.4,5.4,5.4,5.4c3,0,5.4-2.4,5.4-5.4
				C29.7,151.3,27.2,148.9,24.2,148.9z"/>
		</g>
	</g>
	<g class="st3">
		<g>
			<path class="st0" d="M176.1,165.7c-6.2,0-11.3-5.1-11.3-11.3c0-6.2,5.1-11.3,11.3-11.3c6.2,0,11.3,5.1,11.3,11.3
				C187.4,160.6,182.3,165.7,176.1,165.7z M176.1,149c-3,0-5.4,2.4-5.4,5.4c0,3,2.4,5.4,5.4,5.4s5.4-2.4,5.4-5.4
				C181.5,151.4,179.1,149,176.1,149z"/>
		</g>
	</g>
	<g class="st3">
		<g>
			<path class="st0" d="M176.2,95.6c-6.2,0-11.3-5.1-11.3-11.3c0-6.2,5.1-11.3,11.3-11.3c6.2,0,11.3,5.1,11.3,11.3
				C187.5,90.6,182.4,95.6,176.2,95.6z M176.2,78.9c-3,0-5.4,2.4-5.4,5.4s2.4,5.4,5.4,5.4c3,0,5.4-2.4,5.4-5.4
				S179.1,78.9,176.2,78.9z"/>
		</g>
	</g>
	<g class="st3">
		<path class="st4" d="M116.4,111.2h-5.7c-0.5-2.4-1.5-4.1-2.9-5.1c-1.6-1.2-3.9-1.8-6.9-1.8c-2.7,0-4.7,0.5-6.1,1.5
			c-1.6,0.9-2.4,2.2-2.4,3.9c0,1.7,1.1,3,3.2,4.1c1.2,0.6,3.8,1.4,7.8,2.5c4.5,1.1,7.7,2.2,9.7,3.5c3,1.9,4.5,4.5,4.5,7.7
			c0,7.8-5.3,11.7-16,11.7c-9.9,0-15.3-4.4-16.2-13.1H91c0.4,2.9,1.5,5.1,3.1,6.4c1.6,1.2,4,1.8,7.2,1.8c6.8,0,10.2-2.1,10.2-6.4
			c0-2.1-1.2-3.7-3.6-4.9c-1.2-0.6-3.9-1.4-8-2.4c-4.5-1.1-7.7-2.2-9.4-3.4c-2.9-1.7-4.3-4.2-4.3-7.4c0-3.2,1.4-5.7,4.2-7.6
			c2.6-1.9,6.1-2.8,10.4-2.8C110.2,99.5,115.4,103.4,116.4,111.2z"/>
	</g>
	<rect x="99.5" y="95.1" class="st5" width="2.7" height="48.6"/>
</g>
</svg>
