<?xml version="1.0" standalone="no"?><!DOCTYPE svg PUBLIC "-//W3C//DTD SVG 1.1//EN" "http://www.w3.org/Graphics/SVG/1.1/DTD/svg11.dtd"><svg t="1601372517251" class="icon" viewBox="0 0 1024 1024" version="1.1" xmlns="http://www.w3.org/2000/svg" p-id="22271" xmlns:xlink="http://www.w3.org/1999/xlink" width="200" height="200"><defs><style type="text/css"></style></defs><path d="M115.752 397.331l3.42 0c49.774-171.025 207.812-296.413 394.684-296.413 186.334 0 343.948 124.691 394.195 294.961l0.518-0.201c4.167 8.968 13.04 15.216 23.394 15.216 14.344 0 25.968-11.885 25.968-26.545 0-2.69-0.512-5.241-1.242-7.693l0.012 0c-0.038-0.134-0.09-0.261-0.129-0.395-0.266-0.841-0.479-1.704-0.817-2.506C896.939 185.593 721.401 48.994 513.855 48.994c-211.332 0-389.493 141.628-445.004 335.114l-65.33-18.421 51.924 154.968 132.254-103.038L115.752 397.331 115.752 397.331zM1020.477 662.643l-51.924-154.969L836.305 610.713l70.884 19.983c-51.088 168.933-207.957 292.388-393.332 292.388-184.922 0-341.434-122.862-392.917-291.148l-0.106 0.025c-3.087-11.129-12.99-19.329-24.865-19.329-14.337 0-25.962 11.887-25.962 26.549 0 1.624 0.195 3.202 0.468 4.751l-0.468 0.117c56.848 191.368 234.024 330.956 443.851 330.956 209.522 0 386.51-139.182 443.624-330.127L1020.477 662.643 1020.477 662.643z" p-id="22272" fill="#aeaebc"></path><path d="M382.977 573.14c-8.117 0-14.213 1.835-18.257 5.446-4.058 3.64-6.08 10.153-6.08 19.528 0 17.073 8.536 25.608 25.609 25.608l100.53 0 0 84.527c0 11.526 1.819 19.658 5.432 24.337 3.626 4.709 10.789 7.05 21.464 7.05 10.676 0 17.709-2.341 21.146-7.05 3.381-4.679 5.114-12.812 5.114-24.337l-0.001-84.526 101.802 0c17.087 0 25.623-8.304 25.623-24.959 0-17.073-8.536-25.625-25.623-25.625L537.934 573.139l0-40.326 101.802 0c17.087 0 25.623-8.321 25.623-24.976 0-17.071-8.536-25.622-25.623-25.622l-74.271 0 92.846-155.591c4.694-8.118 7.049-15.051 7.049-20.813 0-5.777-3.438-10.761-10.255-15.051-6.413-4.275-12.913-6.398-19.527-6.398-6.616 0-13.131 5.345-19.514 16.003L511.675 476.468 407.301 300.365c-5.979-10.226-12.71-15.354-20.178-15.354s-13.967 2.124-19.514 6.399c-5.547 3.827-8.334 8.955-8.334 15.368 0 6.398 1.921 13.014 5.763 19.846l92.846 155.591-74.907 0c-8.117 0-14.212 1.835-18.257 5.445-4.058 3.64-6.08 10.154-6.08 19.527 0 17.088 8.536 25.625 25.609 25.625l100.53 0 0 40.326L382.977 573.14 382.977 573.14z" p-id="22273" fill="#aeaebc"></path></svg>