<?xml version="1.0" encoding="utf-8"?>
<!-- Generator: Adobe Illustrator 22.0.0, SVG Export Plug-In . SVG Version: 6.00 Build 0)  -->
<svg version="1.1" id="图层_1" xmlns="http://www.w3.org/2000/svg" xmlns:xlink="http://www.w3.org/1999/xlink" x="0px" y="0px"
	 viewBox="0 0 1024 1024" style="enable-background:new 0 0 1024 1024;" xml:space="preserve">
<style type="text/css">
	.st0{fill:url(#SVGID_1_);}
	.st1{opacity:0.2;}
	.st2{fill:#C0381F;}
	.st3{fill:#FCFCFC;}
	.st4{fill:#FFFFFF;}
</style>
<linearGradient id="SVGID_1_" gradientUnits="userSpaceOnUse" x1="513" y1="1024" x2="513" y2="-9.094947e-13">
	<stop  offset="0.1973" style="stop-color:#E95223"/>
	<stop  offset="0.8883" style="stop-color:#ECAF39"/>
</linearGradient>
<path class="st0" d="M675,1024H351C158.5,1024,1,866.5,1,674V350C1,157.5,158.5,0,351,0h324c192.5,0,350,157.5,350,350v324
	C1025,866.5,867.5,1024,675,1024z"/>
<g class="st1">
	<path class="st2" d="M142,457l-37.5,219.5L160,673l41-39l29-184L142,457z M163.5,644.5h-18l10-64h16L163.5,644.5z M179.5,549.5h-18
		l10-64h16L179.5,549.5z"/>
	<polygon class="st2" points="244,461 308,459 310,445 347,428 347,452 365,453 339,489 317,628 284,662 238.5,637.5 277.5,635.5 
		301.5,487.5 241.4,489.9 	"/>
	
		<ellipse transform="matrix(0.8232 -0.5677 0.5677 0.8232 -264.9381 243.1765)" class="st2" cx="258" cy="547" rx="29.2" ry="21.2"/>
	<path class="st2" d="M390,435l-37.5,219.5L408,651l41-39l29-184L390,435z M411.5,622.5h-18l10-64h16L411.5,622.5z M427.5,527.5h-18
		l10-64h16L427.5,527.5z"/>
	<polygon class="st2" points="492,439 556,437 558,423 595,406 595,430 613,431 587,467 565,606 532,640 486.5,615.5 525.5,613.5 
		549.5,465.5 489.4,467.9 	"/>
	
		<ellipse transform="matrix(0.8232 -0.5677 0.5677 0.8232 -208.6051 380.0845)" class="st2" cx="506" cy="525" rx="29.2" ry="21.2"/>
	<path class="st2" d="M640,417c0,0,84-3,111-14s46-24,46-24s-23,39-47,47s-114,17-114,17L640,417z"/>
	<rect x="636" y="450" class="st2" width="35" height="40"/>
	<rect x="679" y="445" class="st2" width="35" height="40"/>
	<polygon class="st2" points="731,441 767,441 753,483 719,483 	"/>
	<polygon class="st2" points="623,508 674,504 674,492 711,492 710,498 759,498 743,523 703,527 689,627 653.5,617.5 669.5,533.5 
		618.5,534.5 	"/>
	<path class="st2" d="M633.5,543.5h27c0,0-15,67-24,76s-50,16-50,16s29-26,35-41S633.5,543.5,633.5,543.5z"/>
	<rect x="707.5" y="534.5" class="st2" width="36" height="82"/>
	<path class="st2" d="M923,342c0,0-56-3-91,43c-24.9,32.7-44.2,83-53.3,109.5c-3.8,11-6.7,22.6-6.7,34.2v35.1c0,6,1.6,11.9,2.7,17.8
		c1.6,8.6,2.4,24.6-7.7,41.4c-15,25-49,72-46,93c2.3,15.8,24.8,28.1,35.9,33.3c4.3,2,7.1,6.2,7.1,11c0,8.1-2.6,20.1-17,25.7
		c-23,9-33,16-48,16c-12.5,0-190,1.4-249.1,1.9c-12.2,0.1-24.2,2.9-35.2,8.1c-33,15.6-109.2,49.7-165.7,58.1c0,0,80,32,132,28
		s127-62,150-64c19.7-1.7,133.6-0.5,166.2-0.1c6.7,0.1,13.4-0.8,19.8-2.7c14-4.1,38.4-15,55.9-31.2c26-24,25-54,23-68s-28-27-25-57
		s56-40,62-73s-20-93-11-113S900,352,923,342z"/>
	<g>
		<path class="st2" d="M180.5,713.4l9.5-0.8l-0.6,67.3l31.5-2.8l-0.1,8.2l-41,3.6L180.5,713.4z"/>
		<path class="st2" d="M290.4,740.5c-0.2,26-15.8,41.1-34.6,42.8c-19.4,1.7-33-12.5-32.8-35.3c0.2-24,14.9-40.9,34.6-42.7
			C277.7,703.5,290.6,718.1,290.4,740.5z M233.2,746.8c-0.1,16.1,8.2,29.8,23.2,28.5c15.1-1.3,23.7-16.3,23.9-33.4
			c0.1-15-7.4-30-23.2-28.6C241.4,714.7,233.4,730.3,233.2,746.8z"/>
		<path class="st2" d="M314.3,709.8l-22.4,2l0.1-8.3l54.5-4.8l-0.1,8.3l-22.5,2l-0.6,67.2l-9.6,0.9L314.3,709.8z"/>
		<path class="st2" d="M372.7,704.6l-22.4,2l0.1-8.3l54.5-4.8l-0.1,8.3l-22.5,2l-0.6,67.2l-9.6,0.9L372.7,704.6z"/>
		<path class="st2" d="M450.8,729.4l-28.6,2.5l-0.2,27.2l31.9-2.8l-0.1,8.2l-41.4,3.7l0.7-75.4l39.8-3.5l-0.1,8.2l-30.3,2.7
			l-0.2,23.8l28.6-2.5L450.8,729.4z"/>
		<path class="st2" d="M466.8,689c4.8-1.4,11.7-2.6,18.3-3.2c10.2-0.9,16.7,0.4,21.2,4.3c3.7,3,5.7,8,5.7,13.8
			c-0.1,10-6.3,17.1-14.1,20.5l0,0.3c5.7,1.5,9,6.6,10.7,14.3c2.3,10.3,4,17.4,5.5,20.2l-9.8,0.9c-1.2-2-2.8-8.4-4.8-17.6
			c-2.1-10.2-6-13.8-14.6-13.4l-9,0.8l-0.3,32.7l-9.5,0.8L466.8,689z M476,722.5l9.7-0.9c10.2-0.9,16.7-7.2,16.7-15.8
			c0.1-9.7-6.8-13.4-16.8-12.6c-4.6,0.4-7.9,1.1-9.4,1.7L476,722.5z"/>
		<path class="st2" d="M540.1,756.8l0.3-32l-22.9-41.4l10.8-1l10.2,19.9c2.8,5.5,4.9,9.9,7.2,14.9l0.2,0c2.1-5.1,4.7-10.3,7.6-16.2
			l10.8-21.8l10.8-1L550,723.8l-0.3,32.1L540.1,756.8z"/>
	</g>
	<g>
		<path class="st2" d="M356.6,236.7l11.3,1c-4.1,13.9-9,28.7-15,44.3c-3.1-0.6-6.8-1.3-11.2-2.1
			C346.5,268.1,351.4,253.6,356.6,236.7z M380,196.4l13-0.8l-6.3,37.6l7.5-4.8c6.1,7.8,11.3,15.4,15.6,22.8l-11.7,8.1
			c-3.8-7.5-7.9-14.4-12.3-20.8L364.9,363l-13,0.8L380,196.4z M391.2,279.3l46.1-2.7c2.5-9.5,5.5-23.6,9-42.4l-36.3,2.1l2-12.1
			l36.4-2.1c1.5-9,3.2-19,5-29.9l13.7-0.8c-1.8,10.8-3.6,20.8-5.2,30l42.3-2.5l-9.1,54.4l17-1l-2,12.1l-56.2,3.3
			c5.1,25.3,20.4,43.2,45.8,53.7c-3.5,3-8.1,7.6-13.8,13.9c-23.8-13.1-38.1-32.8-42.8-59.3c-11.2,26.1-31.8,48.3-61.5,66.8
			c-3-4.6-5.8-8.2-8.3-10.9c30.5-17.8,50.5-38.8,60.2-63l-44.4,2.6L391.2,279.3z M488.8,231.7l-29,1.7c-3.3,18.2-6.2,32.3-8.7,42.4
			l30.5-1.8L488.8,231.7z"/>
		<path class="st2" d="M579.6,333.4c28.7-1.2,62.4-3.4,101.1-6.6c-1.9,3.8-4.3,8.4-7.1,13.8c-38.3,2.5-71.2,4.2-98.6,5.1
			c-19.6,0.9-32.3-4.9-37.9-17.6c-5.5,4.6-13.7,12.7-24.7,24.2l-4.7-13.8c11.8-10.3,20.4-17.7,25.7-22.2l9.7-57.7l-20.6,1.2
			l2.1-12.7l34-2l-12.3,73.2C551.4,329.3,562.5,334.3,579.6,333.4z M552.7,188.6c4.7,6.7,11,17,18.9,30.9l-13.8,9.3
			c-6.9-13.9-12.7-24.7-17.4-32.2L552.7,188.6z M585.1,230.2l43.5-2.6l2.8-16.6l-51.7,3l2-11.8l51.7-3l3.1-18.7l12.8-0.8l-3.1,18.7
			l54.5-3.2l-2,11.8l-54.5,3.2l-2.8,16.6l43.5-2.6l-8.2,49.1l-12.5,0.7l0.9-5.3l-31.1,1.8l-2.1,12.3l5.7-7.1
			c15.6,8.2,30.5,16.4,44.8,24.6l-10,12.6c-14.4-9.9-28.1-18.3-41.3-25.4L625,325l-12.8,0.8l7.4-44.1c-16.6,16.1-34.8,30-54.6,41.7
			c-1.5-2.8-4-6.4-7.5-10.6c22.8-11.5,42.6-25.2,59.4-40.9l-26.7,1.6l-0.9,5.3l-12.5,0.7L585.1,230.2z M592.1,262.2l31.1-1.8
			l3.6-21.6l-31.1,1.8L592.1,262.2z M670.6,236.2l-31.1,1.8l-3.6,21.6l31.1-1.8L670.6,236.2z"/>
	</g>
</g>
<g>
	<path class="st3" d="M142,439l-37.5,219.5L160,655l41-39l29-184L142,439z M163.5,626.5h-18l10-64h16L163.5,626.5z M179.5,531.5h-18
		l10-64h16L179.5,531.5z"/>
	<polygon class="st3" points="244,443 308,441 310,427 347,410 347,434 365,435 339,471 317,610 284,644 238.5,619.5 277.5,617.5 
		301.5,469.5 241.4,471.9 	"/>
	<ellipse transform="matrix(0.8232 -0.5677 0.5677 0.8232 -254.719 239.9944)" class="st3" cx="258" cy="529" rx="29.2" ry="21.2"/>
	<path class="st3" d="M390,417l-37.5,219.5L408,633l41-39l29-184L390,417z M411.5,604.5h-18l10-64h16L411.5,604.5z M427.5,509.5h-18
		l10-64h16L427.5,509.5z"/>
	<polygon class="st3" points="492,421 556,419 558,405 595,388 595,412 613,413 587,449 565,588 532,622 486.5,597.5 525.5,595.5 
		549.5,447.5 489.4,449.9 	"/>
	<ellipse transform="matrix(0.8232 -0.5677 0.5677 0.8232 -198.386 376.9024)" class="st3" cx="506" cy="507" rx="29.2" ry="21.2"/>
	<path class="st4" d="M640,399c0,0,84-3,111-14s46-24,46-24s-23,39-47,47s-114,17-114,17L640,399z"/>
	<rect x="636" y="432" class="st4" width="35" height="40"/>
	<rect x="679" y="427" class="st4" width="35" height="40"/>
	<polygon class="st4" points="731,423 767,423 753,465 719,465 	"/>
	<polygon class="st3" points="623,490 674,486 674,474 711,474 710,480 759,480 743,505 703,509 689,609 653.5,599.5 669.5,515.5 
		618.5,516.5 	"/>
	<path class="st4" d="M633.5,525.5h27c0,0-15,67-24,76s-50,16-50,16s29-26,35-41S633.5,525.5,633.5,525.5z"/>
	<rect x="707.5" y="516.5" class="st3" width="36" height="82"/>
	<path class="st3" d="M923,324c0,0-56-3-91,43c-24.9,32.7-44.2,83-53.3,109.5c-3.8,11-6.7,22.6-6.7,34.2v35.1c0,6,1.6,11.9,2.7,17.8
		c1.6,8.6,2.4,24.6-7.7,41.4c-15,25-49,72-46,93c2.3,15.8,24.8,28.1,35.9,33.3c4.3,2,7.1,6.2,7.1,11c0,8.1-2.6,20.1-17,25.7
		c-23,9-33,16-48,16c-12.5,0-190,1.4-249.1,1.9c-12.2,0.1-24.2,2.9-35.2,8.1c-33,15.6-109.2,49.7-165.7,58.1c0,0,80,32,132,28
		s127-62,150-64c19.7-1.7,133.6-0.5,166.2-0.1c6.7,0.1,13.4-0.8,19.8-2.7c14-4.1,38.4-15,55.9-31.2c26-24,25-54,23-68s-28-27-25-57
		s56-40,62-73s-20-93-11-113S900,334,923,324z"/>
	<g>
		<path class="st4" d="M180.5,695.4l9.5-0.8l-0.6,67.3l31.5-2.8l-0.1,8.2l-41,3.6L180.5,695.4z"/>
		<path class="st4" d="M290.4,722.5c-0.2,26-15.8,41.1-34.6,42.8c-19.4,1.7-33-12.5-32.8-35.3c0.2-24,14.9-40.9,34.6-42.7
			C277.7,685.5,290.6,700.1,290.4,722.5z M233.2,728.8c-0.1,16.1,8.2,29.8,23.2,28.5c15.1-1.3,23.7-16.3,23.9-33.4
			c0.1-15-7.4-30-23.2-28.6C241.4,696.7,233.4,712.3,233.2,728.8z"/>
		<path class="st4" d="M314.3,691.8l-22.4,2l0.1-8.3l54.5-4.8l-0.1,8.3l-22.5,2l-0.6,67.2l-9.6,0.9L314.3,691.8z"/>
		<path class="st4" d="M372.7,686.6l-22.4,2l0.1-8.3l54.5-4.8l-0.1,8.3l-22.5,2l-0.6,67.2l-9.6,0.9L372.7,686.6z"/>
		<path class="st4" d="M450.8,711.4l-28.6,2.5l-0.2,27.2l31.9-2.8l-0.1,8.2l-41.4,3.7l0.7-75.4l39.8-3.5l-0.1,8.2l-30.3,2.7
			l-0.2,23.8l28.6-2.5L450.8,711.4z"/>
		<path class="st4" d="M466.8,671c4.8-1.4,11.7-2.6,18.3-3.2c10.2-0.9,16.7,0.4,21.2,4.3c3.7,3,5.7,8,5.7,13.8
			c-0.1,10-6.3,17.1-14.1,20.5l0,0.3c5.7,1.5,9,6.6,10.7,14.3c2.3,10.3,4,17.4,5.5,20.2l-9.8,0.9c-1.2-2-2.8-8.4-4.8-17.6
			c-2.1-10.2-6-13.8-14.6-13.4l-9,0.8l-0.3,32.7l-9.5,0.8L466.8,671z M476,704.5l9.7-0.9c10.2-0.9,16.7-7.2,16.7-15.8
			c0.1-9.7-6.8-13.4-16.8-12.6c-4.6,0.4-7.9,1.1-9.4,1.7L476,704.5z"/>
		<path class="st4" d="M540.1,738.8l0.3-32l-22.9-41.4l10.8-1l10.2,19.9c2.8,5.5,4.9,9.9,7.2,14.9l0.2,0c2.1-5.1,4.7-10.3,7.6-16.2
			l10.8-21.8l10.8-1L550,705.8l-0.3,32.1L540.1,738.8z"/>
	</g>
	<g>
		<path class="st4" d="M356.6,218.7l11.3,1c-4.1,13.9-9,28.7-15,44.3c-3.1-0.6-6.8-1.3-11.2-2.1
			C346.5,250.1,351.4,235.6,356.6,218.7z M380,178.4l13-0.8l-6.3,37.6l7.5-4.8c6.1,7.8,11.3,15.4,15.6,22.8l-11.7,8.1
			c-3.8-7.5-7.9-14.4-12.3-20.8L364.9,345l-13,0.8L380,178.4z M391.2,261.3l46.1-2.7c2.5-9.5,5.5-23.6,9-42.4l-36.3,2.1l2-12.1
			l36.4-2.1c1.5-9,3.2-19,5-29.9l13.7-0.8c-1.8,10.8-3.6,20.8-5.2,30l42.3-2.5l-9.1,54.4l17-1l-2,12.1l-56.2,3.3
			c5.1,25.3,20.4,43.2,45.8,53.7c-3.5,3-8.1,7.6-13.8,13.9c-23.8-13.1-38.1-32.8-42.8-59.3c-11.2,26.1-31.8,48.3-61.5,66.8
			c-3-4.6-5.8-8.2-8.3-10.9c30.5-17.8,50.5-38.8,60.2-63l-44.4,2.6L391.2,261.3z M488.8,213.7l-29,1.7c-3.3,18.2-6.2,32.3-8.7,42.4
			l30.5-1.8L488.8,213.7z"/>
		<path class="st4" d="M579.6,315.4c28.7-1.2,62.4-3.4,101.1-6.6c-1.9,3.8-4.3,8.4-7.1,13.8c-38.3,2.5-71.2,4.2-98.6,5.1
			c-19.6,0.9-32.3-4.9-37.9-17.6c-5.5,4.6-13.7,12.7-24.7,24.2l-4.7-13.8c11.8-10.3,20.4-17.7,25.7-22.2l9.7-57.7l-20.6,1.2
			l2.1-12.7l34-2l-12.3,73.2C551.4,311.3,562.5,316.3,579.6,315.4z M552.7,170.6c4.7,6.7,11,17,18.9,30.9l-13.8,9.3
			c-6.9-13.9-12.7-24.7-17.4-32.2L552.7,170.6z M585.1,212.2l43.5-2.6l2.8-16.6l-51.7,3l2-11.8l51.7-3l3.1-18.7l12.8-0.8l-3.1,18.7
			l54.5-3.2l-2,11.8l-54.5,3.2l-2.8,16.6l43.5-2.6l-8.2,49.1l-12.5,0.7l0.9-5.3l-31.1,1.8l-2.1,12.3l5.7-7.1
			c15.6,8.2,30.5,16.4,44.8,24.6l-10,12.6c-14.4-9.9-28.1-18.3-41.3-25.4L625,307l-12.8,0.8l7.4-44.1c-16.6,16.1-34.8,30-54.6,41.7
			c-1.5-2.8-4-6.4-7.5-10.6c22.8-11.5,42.6-25.2,59.4-40.9l-26.7,1.6l-0.9,5.3l-12.5,0.7L585.1,212.2z M592.1,244.2l31.1-1.8
			l3.6-21.6l-31.1,1.8L592.1,244.2z M670.6,218.2l-31.1,1.8l-3.6,21.6l31.1-1.8L670.6,218.2z"/>
	</g>
</g>
</svg>
