<svg id="图层_1" data-name="图层 1" xmlns="http://www.w3.org/2000/svg" xmlns:xlink="http://www.w3.org/1999/xlink" viewBox="0 0 1024 1024"><defs><style>.cls-1{fill:url(#未命名的渐变_5);}.cls-2{fill:#fff;}</style><linearGradient id="未命名的渐变_5" x1="512" x2="512" y2="1024" gradientUnits="userSpaceOnUse"><stop offset="0" stop-color="#01b09b"/><stop offset="1" stop-color="#96c93d"/></linearGradient></defs><title>欢乐生肖圆角</title><rect class="cls-1" width="1024" height="1024" rx="350"/><path class="cls-2" d="M592.7,495.74c-59.84,7.33-56.38-25.26-54.9-32.49a13.16,13.16,0,0,0,.26-2.73c-.1-6.42,2.33-34.51,50.84-49.43C642.74,394.52,729,365.79,740.55,313a21.14,21.14,0,0,1,1.52-4.3c3-6.62-1-48.24-51.65-28.74h0c3.7,0,7.4,0,8.27,2.83.28.91.55.94,1.24,2.55,2.33,5.43,6.35,12.95-5.28,28.46C682,330.67,639.87,377,580.87,381.44a8.58,8.58,0,0,0-.87.1c-58.41,8.44-92,33.39-100.85,66.68a13.54,13.54,0,0,0-.36,1.9c-3.87,33.52,8.94,66.84,46.65,79.41,38.07,12.69,63.46,0,80.38,0,20,0,28.69,3.8,29.54,15a13.87,13.87,0,0,0,.77,3.59l.09.27c3.24,9.77,15.7,12.64,22.36,4.79,6.83-8.06,10.76-19.41,6.74-35.26a14.26,14.26,0,0,1-.32-1.58c-.46-3.51-5.93-24.44-71.45-20.67C593.27,495.68,593,495.71,592.7,495.74Z" transform="translate(0 -0.28)"/><path class="cls-2" d="M199.71,648c12.69-126.91,139.6-169.21,181.9-181.9,50.77-4.23,84.61-25.38,80.38-59.22-2.12-14.81-14.81-21.16-27-23.8a70.71,70.71,0,0,0-33.19,1c-111.52,29.68-155.59,1.63-155.59,1.63,42.31,42.31,122.68,29.62,122.68,29.62s21.15-4.23,21.15,4.23c4.23,12.69-16.92,25.38-63.45,16.92s-71.91-12.69-105.76,4.23c-38.07,16.92-42.3,59.22-67.68,88.83-9.29,13-14.5,18.67-17.42,20.93,32.57-3.78,64.42-55.39,76.64-71.69,12.69-12.69,42.31-25.38,42.31-12.69,0,12-17,26.11-26.91,33.32a64.38,64.38,0,0,0-14.08,14c-81.65,111.28-5.55,223.44-5.55,223.44C191.25,711.43,199.71,648,199.71,648Z" transform="translate(0 -0.28)"/><path class="cls-2" d="M373.15,368.78a496,496,0,0,0,101.53-38.07c25.38,0,25.38,21.15,12.69,29.61s-21.15-8.46-21.15-8.46C462,377.09,487.06,394,516.45,381.7a10.07,10.07,0,0,1,1.09-.39c29.05-8.51,29.08-25.32,33.28-42.14s-4.23-42.3-42.3-50.76-71.91,25.38-152.29,55c-84.6,25.38-165-4.23-165-4.23C242,377.24,322.39,381.47,373.15,368.78Z" transform="translate(0 -0.28)"/><path class="cls-2" d="M135.76,550.46" transform="translate(0 -0.28)"/><path class="cls-2" d="M309.7,711.43c25.38-118.44,118.45-110,148.06-101.52,8.46,4.23,12.69,8.46,16.92,12.69,4.23,8.46,4.23,12.69,0,21.15,93.06-148.06-71.92-152.29-76.15-148.06-224.2,29.61-181.9,215.74-181.9,215.74C297,948.33,559.28,884.87,559.28,884.87,483.14,893.33,288.55,829.88,309.7,711.43Z" transform="translate(0 -0.28)"/><path class="cls-2" d="M783.49,449.16c-4.23-16.92-16.92-29.61-33.85-29.61,2.24-13.4-2.6-19.73-7.67-22.71a16.27,16.27,0,0,0-14.83-.68c-22.32,9.86-11.34,31.55-11.34,27.62v-5a8.1,8.1,0,0,1,2.78-6.12c1.8-1.54,2.66-1.54,5.68-1.54,8.46,0,4.23,12.69,4.23,12.69-29.61,29.61,4.23,42.3,0,38.07,0-4.23,0-12.69,4.23-16.92,16.92-12.69,25.39,0,25.39,12.69,0,3.93-3.65,11.5-7.56,12.56a12.1,12.1,0,0,0-2,.68c-7.73,3.68-11.95,3.68-20,3.68-12.69,0-21.15-4.23-29.61-12.69,12.69-4.23,12.69-25.38,12.69-25.38s0-25.38-29.61-25.38S665,436.47,665,436.47c-4.23-16.92,25.38-16.92,21.15,0S665,449.16,665,449.16C597.36,428,559.29,461.84,559.28,461.85c50.77-21.15,76.15-4.23,110,21.15,38.07,21.15,59.22,25.38,59.22,25.38C770.8,516.84,787.72,478.77,783.49,449.16Z" transform="translate(0 -0.28)"/><polygon class="cls-2" points="559.28 461.57 559.28 461.57 559.28 461.57 559.28 461.57"/><path class="cls-2" d="M702.79,681.26h79.93V657.83q0-20.48-21.26-20.47H709.68v-25.6h73V590.11q0-17.13-22.84-17.13H736.45Q725,591.3,702.39,604.87v-41a72.79,72.79,0,0,0,19.5-39.17h32.68l-7.48,22.64h35.63V521h33.86v26.38h70.09V573H816.58v38.78h66.74v25.6H816.58v43.9h71.66v10.83q0,14.76-16.93,14.76H702.79Z" transform="translate(0 -0.28)"/><path class="cls-2" d="M647.22,866.76q0-15-16.23-15H510.48v34.68H469.16v-122q-.5-36.9,36.89-36.89h44.51V717.47l-34.67,6.15-18,.25q-22.87-1.73-26.07-29l-5.16-28.52h40.82l5.17,22.87q.24,13.53,37.63,6.88V654.26h45.5V683l42.06-12.54q7.62-4.18,19.67-5.17l14,.25q21.88,6.88,12.54,29.26l-15.49,33.7q21.64,6.4,22.13,36.65l-.49,98.62q-.5,22.62-19.18,22.63H647.22Zm-15.49-60.5H510.48V825.2L647.22,825v-7.62Q647.22,806.75,631.73,806.26Zm15.49-36.16q.49-10.56-15.49-10.57H511.21L511,778.71H647.22Zm-51.16-42.54h48.21l-17.22-5.17,14-28.77-45,9.34Z" transform="translate(0 -0.28)"/><path class="cls-2" d="M361.41,162.06h22.28q4.2,11.44,7.83,22.28,6.62-22.87,7.82-30.71,1.2-7.22-7.82-6.62H360.81v-6.62h42.75q20.46,0,18.06,13.24-5.42,21.69-17.46,62.63,4.2,11.44,9.63,24.68T424.63,259a28.76,28.76,0,0,0,4.22-7.83q4.81-15,12.64-44.56,4.81-17.46,7.23-25.89H471.6a17,17,0,0,1-.6,3.61q-1.81,7.23-5.42,18.67h10.23q1.2,3.62,4.22,13.85,8.43,26.5,14.45,40.34,6.61,14.44,12,16.26-28.9,3.62-31.31-11.44-7.23-14.46-14.45-38.54a40,40,0,0,0-1.2,4.82Q454.13,247,451.13,256q-4.23,12-11.44,15.05-6,3-27.7,3a61.87,61.87,0,0,0,10.23-10.24q-22.28,2.4-28.3-15a1.75,1.75,0,0,0-.6-1.2,9.19,9.19,0,0,1-1.2,3.61,19.09,19.09,0,0,1-1.21,3.61q-4.82,13.85-31.91,12,4.81-5.41,12.65-23.48a1.75,1.75,0,0,0,.6-1.2q1.8-5.43,6-16.86,1.8-5.41,3-8.43Q372.25,192.79,361.41,162.06Zm135.48,31.31H475.21q5.42-10.23,6.62-32.51-1.2-5.42-6-6H464.37c-3.61-.4-6.83,1.8-9.63,6.62a111.23,111.23,0,0,1-4.22,11.44,76.57,76.57,0,0,0-3,9.64q-4.22,15.06-31.31,12Q427,184.35,440.89,132H465a81.77,81.77,0,0,1-3,8.43l-3.61,10.84q4.22-3.61,12-3.62h16.86q14.46.62,15.06,15.06Q501.1,182.53,496.89,193.37Z" transform="translate(0 -0.28)"/><path class="cls-2" d="M535.42,218.66h25.29q-9,31.32-14.45,38.54-6,11.43-33.72,9Q521.57,259.6,535.42,218.66Zm41,32.52v-47H543.85q-22.27.61-21.67-15.65V159.05q-1.81-18.06,24.08-16.86H595q15,0,19.27-10.23h37.33q-3.6,16.86-34.92,15H561.32q-13.86-.58-13.25,12v25.89q-.62,14.46,9.63,13.25h18.67V159.66h25.89v38.53H651v6H602.26v47.57q1.2,24.69-20.47,23.48-18.06-.6-30.71-17.46a31.18,31.18,0,0,0,15.66,3Q577.57,262,576.37,251.18Zm36.73-33.12h25.29q13.85,42.15,22.88,47.57-27.71,2.4-33.72-8.43Q620.92,245.77,613.1,218.06Z" transform="translate(0 -0.28)"/></svg>